<svg xmlns="http://www.w3.org/2000/svg" xmlns:xlink="http://www.w3.org/1999/xlink" width="75" height="75" viewBox="0 0 75 75">
  <defs>
    <clipPath id="clip-path">
      <rect id="Rect치ngulo_405240" data-name="Rect치ngulo 405240" width="75" height="75" fill="#d5f1ff" stroke="#707070" stroke-width="1"/>
    </clipPath>
    <clipPath id="clip-path-2">
      <rect id="Rect치ngulo_405726" data-name="Rect치ngulo 405726" width="66.266" height="49.812" fill="#d5f1ff"/>
    </clipPath>
  </defs>
  <g id="Enmascarar_grupo_1108095" data-name="Enmascarar grupo 1108095" clip-path="url(#clip-path)">
    <g id="Grupo_1111945" data-name="Grupo 1111945" transform="translate(3.59 11.855)">
      <g id="Grupo_1111944" data-name="Grupo 1111944" clip-path="url(#clip-path-2)">
        <path id="Trazado_885986" data-name="Trazado 885986" d="M26.316,41.267c.042-.311.605-1.427.488-1.623L23.467,38.4c-1.554,2.747-4.591,2.517-6.189-.067-.977.157-3.766,1.929-4.461,1.049C11.4,37.591,16.079,37,16.9,36.4c1.019-.741-.907-1.878-1.373-2.581-.371-.56-.684-1.926-.883-2.158-.165-.192-1.729-.387-2.366-.863a3.19,3.19,0,0,1-1.132-3.015c.084-.653.613-1.236.654-1.532.118-.87-.45-2.449-.489-3.421-.178-4.452,3.306-6.005,6.931-7.144,5.374-1.689,10.906,1.561,11.31,7.32.074,1.049-.281,2.238-.214,3.05.046.556.569,1,.694,1.606a3.3,3.3,0,0,1-3.5,3.837,6.672,6.672,0,0,1-1.539,3.118c-.32.369-1.926,1.325-.909,1.856,1.05.549,2.654.8,3.755,1.385a6.767,6.767,0,0,1,1.426-1.624c.96-.83,4.315-2.657,4.781-3.292.172-.234.17-.773.433-1.184.474-.742,2.562-1.959,2.661-2.467.373-1.921-.481-1.713-1.328-2.666A10.961,10.961,0,0,1,33.5,22a3.327,3.327,0,0,1-3.3-4.034,14.654,14.654,0,0,1,.789-1.6c.025-.269-.54-1.621-.632-2.144a14.017,14.017,0,0,1,.464-6.847c.209-.668.982-2.8,1.707-2.858.478-.037,1.151.312,1.2.827.03.3-1.058,2.628-1.239,3.323a10.925,10.925,0,0,0,.211,6.665l.833-.01a5.732,5.732,0,0,1,5.222-6.084c1.587-.158,3.869.271,5.311-.006.606-.116.736-.864,1.712-.955a2.254,2.254,0,0,1,1.992.769C47.935,3.742,42.888.915,38.1,2.3c-.84.242-3.362,2.075-3.438.186C34.614,1.369,36.78.634,37.707.384a9.914,9.914,0,0,1,8.927,1.71c.6.5,1.385,1.736,1.792,2.008,1.063.709,2.451.563,3.8,1.894,3.593,3.533,1.019,6.716,1.219,10.363.029.526.4.689.494,1.041a3.39,3.39,0,0,1-1.891,4.387c-.392.162-1.152.114-1.345.365-.14.182-.555,1.914-.885,2.536-.584,1.1-2.27,2.426-2.524,2.987-.978,2.162,1.463,2.614,2.372,3.893.363.511.3,1.046.655,1.436.976,1.081,3.86,2.334,5.143,3.6a6.922,6.922,0,0,1,1.419,2.1c.667-.488,3.723-1.24,3.952-1.84a1.487,1.487,0,0,0,.038-.691,13.966,13.966,0,0,0-1.658-1.235c-1.531-.45-2.419.1-4.139-1.179-4-2.985-1.75-6.42-.52-9.838.566-1.572.678-3.053,1.532-4.55a9.182,9.182,0,0,1,16.394.948c.4.978.452,1.946.779,2.832,1.368,3.708,4.074,8.1-.753,10.954-1.616.955-2.915.463-3.855.893-.421.192-1.975,1.61-1.5,2.165,3.787,1.14,7.052,2.741,7.381,7.152.061.816.261,2.564-.7,2.715-1.708.268-1.067-1.384-1.216-2.5-.5-3.739-2.594-4.264-5.749-5.428a3.209,3.209,0,0,1-5.731-.025l-3.495,1.35a6.873,6.873,0,0,1,.385,1.791,42.2,42.2,0,0,1-.019,6.269.954.954,0,0,1-1.881.2c-.285-1.522.119-4.019,0-5.707a7.079,7.079,0,0,0-2.474-5.319,47.561,47.561,0,0,0-4.307-2.918c-.644-.063-1.621,2.486-2.9,2.751-1.117.231-2.283-.728-3.425-.687V49.444c-.448.7-1.9.3-1.9-.38V36.8c-1,.021-2.329.9-3.274.725-1.374-.257-2.206-3-3.041-2.789a52.005,52.005,0,0,0-4.772,3.415,8.359,8.359,0,0,0-1.824,3.688v7.036c0,.522-1.641.739-1.9,0,.231-2.371-.311-5.31,0-7.606M50.809,15.312l.641-.023L51.73,15c.427-3.181,1.45-6.849-2.249-8.432.047.49.182.907.2,1.416.028.871-.252,2.249-.2,2.855.021.233.864,1.73,1.04,2.386a5.409,5.409,0,0,1,.287,2.091m-4.993-4.92c-.334.087-.466.631-.992.732-2.849.546-8.04-1.4-9.214,2.752a31.846,31.846,0,0,0,.106,8.85c1.761,5.574,9.763,6.227,12.4,1.014,1.111-2.193,1.2-8.9.135-11.1-.309-.639-1.666-2.451-2.437-2.25m24.17,22.6a4.2,4.2,0,0,0,3.432-3.9c0-1.291-1.422-3.788-1.921-5.128-.3-.811-.369-1.763-.662-2.569-2.174-5.976-10.814-6.333-13.354-.452-.427.988-.446,1.922-.778,2.834-.937,2.57-3.069,5.105-1.117,7.757A4.425,4.425,0,0,0,58.022,33c-.442-3.066-1.043-8.827,1.139-11.317,1.426-1.627,2.337.018,3.609.573,1.5.654,2.588.35,4.081.477a12.851,12.851,0,0,1,2.828.4c.9.506.826,2.931.7,3.886a.959.959,0,1,1-1.917,0c-.052-.385.09-2.117.01-2.2-2.246-.07-4.55.029-6.643-.858-.519-.22-.894-.756-1.513-.656-.142.677-.5,1.292-.579,1.989a40.761,40.761,0,0,0-.006,5.9c.395,4.412,6.65,5.388,8.4,1.171.3-.712.429-2.928,1.777-2.046,1.079.705-.077,2.512.084,2.673M27.453,25.2c.944-4.952-2.81-8.793-7.832-7.942a41.46,41.46,0,0,0-4.129,1.569c-2.6,1.3-2.354,3.94-1.894,6.369l.928-.017a10.9,10.9,0,0,1,.391-1.6c1.617-3.817,3.39-.406,6.074.017,1.333.21,4.222-.243,5.131.566.459.409.3,1.285,1.333,1.041m6.078-7.987a1.427,1.427,0,1,0,0,2.852Zm17.278,0v2.852a1.427,1.427,0,0,0,0-2.852m-26.2,8.557H21.854a15.353,15.353,0,0,1-2.992-.806c-.533-.2-1.389-.842-1.758-.908-.385-.069-.613.981-.645,1.255-.178,1.485-.182,5.529.388,6.8a4.079,4.079,0,0,0,7.084.678c1.293-1.847.429-4.851.676-7.024M14.544,29.384c-.048-.42.184-2.238-.282-2.273-1.847.326-1.6,2.455.282,2.273m12.152,0c1.913.227,1.87-2.1.1-2.285Zm18.606-.57a10.577,10.577,0,0,1-6.264,0c.008.524-.16.95.3,1.311a14.282,14.282,0,0,0,2.973,1.319c1.1-.786,3.4-.909,2.987-2.629M41.1,34.68c.035-.487.169-1.22-.16-1.592a16.021,16.021,0,0,0-3.415-1.529l-1.334,1.156,2.029,2.765Zm5.12.755,1.716-2.567c.031-.325-1.074-1.324-1.4-1.326a33.884,33.884,0,0,0-3.32,1.552,1.241,1.241,0,0,0,.108,1.6,9.585,9.585,0,0,0,2.892.745m-24.459.983H19.1c-.427,2.645,3.144,2.643,2.658,0m43.48.571h-2.47c-.306,2.6,2.726,2.549,2.47,0" transform="translate(-9.002 0.001)" fill="#d5f1ff"/>
        <path id="Trazado_885987" data-name="Trazado 885987" d="M.271,222.136c-.389-.389-.271-4-.182-4.75.122-1.023.749-3.981,2.241-2.731.754.632-.263,2.231-.372,3.271-.122,1.168.169,2.728-.029,3.774a1.011,1.011,0,0,1-1.658.435" transform="translate(0 -173.592)" fill="#d5f1ff"/>
        <path id="Trazado_885988" data-name="Trazado 885988" d="M219.19,220.011c.613-.673,1.524-.669,1.813.276a28.458,28.458,0,0,1-.04,5.861c-.3.7-1.772.406-1.772-.052Z" transform="translate(-177.573 -177.792)" fill="#d5f1ff"/>
        <path id="Trazado_885989" data-name="Trazado 885989" d="M121.455,226.41a1.545,1.545,0,0,1-1.156.212,1.033,1.033,0,0,1-.495-.844,34.536,34.536,0,0,1-.008-5.307.951.951,0,0,1,1.889,0,32.378,32.378,0,0,1,.013,4.947c-.025.3-.033.782-.243.992" transform="translate(-96.971 -177.866)" fill="#d5f1ff"/>
      </g>
    </g>
  </g>
</svg>
