<svg xmlns="http://www.w3.org/2000/svg" xmlns:xlink="http://www.w3.org/1999/xlink" width="99" height="99" viewBox="0 0 99 99">
  <defs>
    <clipPath id="clip-path">
      <rect id="Rectángulo_401223" data-name="Rectángulo 401223" width="99" height="99" transform="translate(0)" fill="#174035"/>
    </clipPath>
    <clipPath id="clip-path-2">
      <rect id="Rectángulo_401223-2" data-name="Rectángulo 401223" width="88.539" height="88.539" fill="#f3f9ff"/>
    </clipPath>
    <clipPath id="clip-path-3">
      <rect id="Rectángulo_405757" data-name="Rectángulo 405757" width="68" height="59.932" fill="none"/>
    </clipPath>
    <clipPath id="clip-path-5">
      <rect id="Rectángulo_405751" data-name="Rectángulo 405751" width="20.145" height="20.063" fill="none"/>
    </clipPath>
    <clipPath id="clip-path-6">
      <rect id="Rectángulo_405752" data-name="Rectángulo 405752" width="13.336" height="13.282" fill="none"/>
    </clipPath>
    <clipPath id="clip-path-8">
      <rect id="Rectángulo_405754" data-name="Rectángulo 405754" width="10.141" height="11.248" fill="none"/>
    </clipPath>
    <clipPath id="clip-path-9">
      <rect id="Rectángulo_405755" data-name="Rectángulo 405755" width="9.35" height="11.3" fill="none"/>
    </clipPath>
  </defs>
  <g id="Grupo_1111559" data-name="Grupo 1111559" transform="translate(-619.921 -5755.871)">
    <g id="Grupo_1100724" data-name="Grupo 1100724" transform="translate(619.921 5755.871)">
      <g id="Grupo_1099654" data-name="Grupo 1099654" transform="translate(0 0)">
        <g id="Grupo_1099652" data-name="Grupo 1099652" clip-path="url(#clip-path)">
          <path id="Trazado_873521" data-name="Trazado 873521" d="M99,77.066A22,22,0,0,1,77.066,99H21.934A22,22,0,0,1,0,77.066V21.933A22,22,0,0,1,21.934,0H77.066A22,22,0,0,1,99,21.934Z" transform="translate(0)" fill="#023263"/>
        </g>
      </g>
      <g id="Grupo_1099659" data-name="Grupo 1099659" transform="translate(4.77 5.723)">
        <g id="Grupo_1099652-2" data-name="Grupo 1099652" transform="translate(0 0)" clip-path="url(#clip-path-2)">
          <path id="Trazado_873521-2" data-name="Trazado 873521" d="M88.539,68.922A19.674,19.674,0,0,1,68.923,88.539H19.616A19.674,19.674,0,0,1,0,68.922V19.616A19.674,19.674,0,0,1,19.616,0H68.923A19.674,19.674,0,0,1,88.539,19.616Z" fill="#f3f9ff"/>
        </g>
      </g>
    </g>
    <g id="Grupo_1100725" data-name="Grupo 1100725" transform="translate(636.343 5771.293)">
      <rect id="Rectángulo_401104" data-name="Rectángulo 401104" width="68" height="69" transform="translate(-0.422 0.438)" fill="none"/>
      <g id="Grupo_1111996" data-name="Grupo 1111996" transform="translate(-0.422 5.438)">
        <g id="Grupo_1111995" data-name="Grupo 1111995" clip-path="url(#clip-path-3)">
          <g id="Grupo_1111994" data-name="Grupo 1111994" transform="translate(0 0)">
            <g id="Grupo_1111993" data-name="Grupo 1111993" clip-path="url(#clip-path-3)">
              <path id="Trazado_886053" data-name="Trazado 886053" d="M60.323,18.225a7.648,7.648,0,0,0-3.051.633,7.316,7.316,0,0,0-9.428-8.694A9.245,9.245,0,0,0,30,8.924a12.08,12.08,0,1,0-22.405,8.67A8,8,0,0,0,8,33.579H60.323a7.677,7.677,0,0,0,0-15.354" transform="translate(0 0)" fill="#1db2cc"/>
              <g id="Grupo_1111980" data-name="Grupo 1111980" transform="translate(25.357 7.079)" opacity="0.5" style="mix-blend-mode: multiply;isolation: isolate">
                <g id="Grupo_1111979" data-name="Grupo 1111979">
                  <g id="Grupo_1111978" data-name="Grupo 1111978" clip-path="url(#clip-path-5)">
                    <path id="Trazado_886054" data-name="Trazado 886054" d="M33.143,27.69h8.5V17.977h5.822L37.394,7.627,27.321,17.977h5.822Z" transform="translate(-27.321 -7.627)" fill="#c1c1c1"/>
                  </g>
                </g>
              </g>
              <path id="Trazado_886055" data-name="Trazado 886055" d="M42.834,19.977,32.761,9.626,22.688,19.977H28.51V33.653h8.5V19.977Z" transform="translate(-1.631 -0.692)" fill="#f9f9f9"/>
              <g id="Grupo_1111983" data-name="Grupo 1111983" transform="translate(44.638 13.743)" opacity="0.5" style="mix-blend-mode: multiply;isolation: isolate">
                <g id="Grupo_1111982" data-name="Grupo 1111982">
                  <g id="Grupo_1111981" data-name="Grupo 1111981" clip-path="url(#clip-path-6)">
                    <path id="Trazado_886056" data-name="Trazado 886056" d="M51.95,28.089h5.628v-6.43h3.854l-6.668-6.852L48.1,21.659H51.95Z" transform="translate(-48.096 -14.807)" fill="#c1c1c1"/>
                  </g>
                </g>
              </g>
              <path id="Trazado_886057" data-name="Trazado 886057" d="M58.365,21.659,51.7,14.807l-6.668,6.851h3.853v9.054h5.628V21.659Z" transform="translate(-3.237 -1.064)" fill="#f9f9f9"/>
              <g id="Grupo_1111986" data-name="Grupo 1111986" transform="translate(8.24 13.743)" opacity="0.5" style="mix-blend-mode: multiply;isolation: isolate">
                <g id="Grupo_1111985" data-name="Grupo 1111985">
                  <g id="Grupo_1111984" data-name="Grupo 1111984" clip-path="url(#clip-path-6)">
                    <path id="Trazado_886058" data-name="Trazado 886058" d="M12.732,28.089H18.36v-6.43h3.854l-6.668-6.852L8.878,21.659h3.854Z" transform="translate(-8.878 -14.807)" fill="#c1c1c1"/>
                  </g>
                </g>
              </g>
              <path id="Trazado_886059" data-name="Trazado 886059" d="M19.147,21.659l-6.668-6.851L5.811,21.659H9.665v9.054h5.628V21.659Z" transform="translate(-0.418 -1.064)" fill="#f9f9f9"/>
              <path id="Trazado_886060" data-name="Trazado 886060" d="M33.824,54.606c-.685-1.246-5.482-2.5-6.357-2.718l-.421-.265a7.734,7.734,0,0,1-.113-1v-.01a6.352,6.352,0,0,1,.01-.719,5.368,5.368,0,0,0,1.579-1.915,8.364,8.364,0,0,0,.6-1.765c.324.188.858.266.774-.4-.122-.965.511-1.917.242-2.612a.321.321,0,0,0-.159-.2c-.007-2.816-.137-4.645-2.352-5.609a10.058,10.058,0,0,0-2.639-.507,10.043,10.043,0,0,0-2.638.507C20.112,38.372,20,40.233,20,43.1a.514.514,0,0,0-.053.1c-.269.7.364,1.646.242,2.612-.082.652.432.587.758.4a11.3,11.3,0,0,0,.6,1.757,5.142,5.142,0,0,0,1.6,1.94,7.163,7.163,0,0,1-.1,1.7l-.344.24v-.009s-5.752,1.385-6.506,2.756c-.272.495-1.1,5.33-1.666,7.978h20.96c-.564-2.626-1.394-7.483-1.665-7.978M25.018,60.5H25.1l-.035.1-.044-.1" transform="translate(-1.045 -2.652)" fill="#91909a"/>
              <path id="Trazado_886061" data-name="Trazado 886061" d="M57.027,54.606c-.685-1.246-5.482-2.5-6.357-2.718l-.421-.265a7.735,7.735,0,0,1-.113-1v-.01a6.352,6.352,0,0,1,.01-.719,5.368,5.368,0,0,0,1.579-1.915,8.364,8.364,0,0,0,.6-1.765c.324.188.858.266.774-.4-.122-.965.511-1.917.242-2.612a.321.321,0,0,0-.159-.2c-.007-2.816-.137-4.645-2.352-5.609a10.058,10.058,0,0,0-2.639-.507,10.043,10.043,0,0,0-2.638.507c-2.24.974-2.347,2.834-2.353,5.7a.514.514,0,0,0-.053.1c-.269.7.364,1.646.242,2.612-.082.652.432.587.758.4a11.3,11.3,0,0,0,.6,1.757,5.142,5.142,0,0,0,1.6,1.94,7.163,7.163,0,0,1-.1,1.7l-.344.24v-.009s-5.752,1.385-6.506,2.756c-.272.495-1.1,5.33-1.666,7.978h20.96c-.564-2.626-1.394-7.483-1.665-7.978M48.221,60.5H48.3l-.035.1-.044-.1" transform="translate(-2.713 -2.652)" fill="#91909a"/>
              <path id="Trazado_886062" data-name="Trazado 886062" d="M15.854,34.682a11.042,11.042,0,0,0-2.9-.558,11.057,11.057,0,0,0-2.9.558c-2.557,1.112-2.588,3.272-2.588,6.634H18.441c0-3.363-.031-5.522-2.588-6.634" transform="translate(-0.536 -2.453)" fill="#aaa"/>
              <path id="Trazado_886063" data-name="Trazado 886063" d="M15.214,49.136H10.958A8.133,8.133,0,0,1,8.512,55.89l4.37,5.279h.408l4.37-5.279a8.136,8.136,0,0,1-2.446-6.754" transform="translate(-0.612 -3.532)" fill="#fcc083"/>
              <path id="Trazado_886064" data-name="Trazado 886064" d="M11.148,49.136H15.4a7.85,7.85,0,0,0,.546,3.929c-1.777-.693-3.195-2.156-4.758-3.5-.017-.272-.044-.429-.044-.429" transform="translate(-0.801 -3.532)" fill="#e8aa63"/>
              <path id="Trazado_886065" data-name="Trazado 886065" d="M10.728,52.357a8.276,8.276,0,0,1-2.216,3.764l4.37,5.279h.408l4.37-5.279a8.276,8.276,0,0,1-2.216-3.764l-2.336,1.29Z" transform="translate(-0.612 -3.764)" fill="#e5e5e5"/>
              <path id="Trazado_886066" data-name="Trazado 886066" d="M18.606,41.229c-.164-.423-.451-.205-.675.074a6.9,6.9,0,0,0-1.672-4.957H9.741a6.863,6.863,0,0,0-1.692,4.933c-.22-.266-.495-.461-.654-.05-.3.764.4,1.812.266,2.873-.09.717.476.645.834.445a12.418,12.418,0,0,0,.658,1.932c.681,1.585,2.637,3.028,3.838,3.028s3.127-1.454,3.837-3.028a9.133,9.133,0,0,0,.66-1.942c.357.208.943.293.852-.435-.134-1.062.562-2.11.266-2.873" transform="translate(-0.526 -2.613)" fill="#fcc083"/>
              <path id="Trazado_886067" data-name="Trazado 886067" d="M13.463,53.591l1.279,1.74,2.045-3.03-1.149-.725Z" transform="translate(-0.968 -3.708)" fill="#fff"/>
              <path id="Trazado_886068" data-name="Trazado 886068" d="M13.2,53.591l-1.279,1.74L9.841,52.376l1.144-.8Z" transform="translate(-0.707 -3.708)" fill="#fff"/>
              <path id="Trazado_886069" data-name="Trazado 886069" d="M24.035,63.66c-.62-2.888-1.533-8.232-1.832-8.776-.829-1.508-7.158-3.032-7.158-3.032l0,.024-.08-.024a13.646,13.646,0,0,1-.766,5.08c-.323.989-.687,1.994-1,2.834-.124.33-.634,1.7-.634,1.7s-.626-1.375-.751-1.7c-.316-.839-.678-1.844-1-2.834a13.637,13.637,0,0,1-.767-5.08l-.079.024v-.024S3.64,53.376,2.811,54.884c-.3.545-1.212,5.863-1.832,8.776Z" transform="translate(-0.07 -3.728)" fill="#1db2cc"/>
              <path id="Trazado_886070" data-name="Trazado 886070" d="M8.921,36.486s3.355,7.009,9.035.188c0,0-4.67-4.451-9.035-.188" transform="translate(-0.641 -2.49)" fill="#aaa"/>
              <path id="Trazado_886071" data-name="Trazado 886071" d="M9.147,43.945c-.236-2.029-.435-6.774,2.6-8.1l-.93-.45s-2.717.549-2.966,4.745l.729,4.429h.006a.562.562,0,0,0,.56-.626" transform="translate(-0.565 -2.545)" fill="#aaa"/>
              <path id="Trazado_886072" data-name="Trazado 886072" d="M17.953,44.574h.03l.724-4.4c-.25-4.2-2.966-4.744-2.966-4.744l-.929.449c3.034,1.323,2.837,6.061,2.6,8.093a.542.542,0,0,0,.54.6" transform="translate(-1.065 -2.547)" fill="#aaa"/>
              <g id="Grupo_1111989" data-name="Grupo 1111989" transform="translate(13.824 48.684)" opacity="0.5" style="mix-blend-mode: multiply;isolation: isolate">
                <g id="Grupo_1111988" data-name="Grupo 1111988">
                  <g id="Grupo_1111987" data-name="Grupo 1111987" clip-path="url(#clip-path-8)">
                    <path id="Trazado_886073" data-name="Trazado 886073" d="M18.088,52.455c-1.323,3.869-2.1,7.507-3.193,11.248H25.036c-.621-2.888-1.533-8.231-1.832-8.775-.52-.946-3.193-1.9-5.117-2.472" transform="translate(-14.895 -52.455)" fill="#b3aab0"/>
                  </g>
                </g>
              </g>
              <path id="Trazado_886074" data-name="Trazado 886074" d="M61.41,34.682a11.042,11.042,0,0,0-2.9-.558,11.057,11.057,0,0,0-2.9.558c-2.556,1.112-2.588,3.272-2.588,6.634H64c0-3.363-.031-5.522-2.588-6.634" transform="translate(-3.812 -2.453)" fill="#ddab60"/>
              <path id="Trazado_886075" data-name="Trazado 886075" d="M60.77,49.136H56.514a8.133,8.133,0,0,1-2.446,6.754l4.37,5.279h.409l4.369-5.279a8.136,8.136,0,0,1-2.446-6.754" transform="translate(-3.887 -3.532)" fill="#fcc083"/>
              <path id="Trazado_886076" data-name="Trazado 886076" d="M56.7,49.136H60.96a7.85,7.85,0,0,0,.546,3.929c-1.777-.693-3.195-2.156-4.758-3.5-.017-.272-.044-.429-.044-.429" transform="translate(-4.077 -3.532)" fill="#e8aa63"/>
              <path id="Trazado_886077" data-name="Trazado 886077" d="M56.284,52.357a8.276,8.276,0,0,1-2.216,3.764l4.37,5.279h.408l4.37-5.279A8.276,8.276,0,0,1,61,52.357l-2.336,1.29Z" transform="translate(-3.887 -3.764)" fill="#e5e5e5"/>
              <path id="Trazado_886078" data-name="Trazado 886078" d="M64.162,41.229c-.164-.423-.451-.205-.675.074a6.9,6.9,0,0,0-1.672-4.957H55.3A6.863,6.863,0,0,0,53.6,41.279c-.221-.266-.495-.461-.654-.05-.3.764.4,1.812.266,2.873-.09.717.476.645.834.445a12.32,12.32,0,0,0,.658,1.932c.681,1.585,2.637,3.028,3.837,3.028s3.128-1.454,3.838-3.028a9.133,9.133,0,0,0,.66-1.942c.357.208.943.293.852-.435-.134-1.062.562-2.11.266-2.873" transform="translate(-3.801 -2.613)" fill="#fcc083"/>
              <path id="Trazado_886079" data-name="Trazado 886079" d="M59.019,53.591l1.279,1.74,2.045-3.03-1.149-.725Z" transform="translate(-4.243 -3.708)" fill="#fff"/>
              <path id="Trazado_886080" data-name="Trazado 886080" d="M58.758,53.591l-1.278,1.74L55.4,52.376l1.144-.8Z" transform="translate(-3.983 -3.708)" fill="#fff"/>
              <path id="Trazado_886081" data-name="Trazado 886081" d="M69.591,63.66c-.62-2.888-1.533-8.232-1.832-8.776-.829-1.508-7.158-3.032-7.158-3.032v.024l-.079-.024a13.637,13.637,0,0,1-.767,5.08c-.322.989-.686,1.994-1,2.834-.124.33-.634,1.7-.634,1.7s-.626-1.375-.751-1.7c-.316-.839-.678-1.844-1-2.834a13.637,13.637,0,0,1-.767-5.08l-.079.024v-.024s-6.329,1.524-7.158,3.032c-.3.545-1.212,5.863-1.832,8.776Z" transform="translate(-3.346 -3.728)" fill="#f65138"/>
              <path id="Trazado_886082" data-name="Trazado 886082" d="M54.477,36.486s3.355,7.009,9.035.188c0,0-4.67-4.451-9.035-.188" transform="translate(-3.917 -2.49)" fill="#ddab60"/>
              <path id="Trazado_886083" data-name="Trazado 886083" d="M54.7,43.945c-.236-2.029-.436-6.774,2.6-8.1l-.93-.45s-2.717.549-2.966,4.745l.729,4.429h.006a.562.562,0,0,0,.56-.626" transform="translate(-3.84 -2.545)" fill="#ddab60"/>
              <path id="Trazado_886084" data-name="Trazado 886084" d="M63.509,44.574h.03l.724-4.4c-.25-4.2-2.966-4.744-2.966-4.744l-.93.449c3.035,1.323,2.838,6.061,2.6,8.093a.542.542,0,0,0,.54.6" transform="translate(-4.34 -2.547)" fill="#ddab60"/>
              <g id="Grupo_1111992" data-name="Grupo 1111992" transform="translate(43.19 48.632)" opacity="0.5" style="mix-blend-mode: multiply;isolation: isolate">
                <g id="Grupo_1111991" data-name="Grupo 1111991">
                  <g id="Grupo_1111990" data-name="Grupo 1111990" clip-path="url(#clip-path-9)">
                    <path id="Trazado_886085" data-name="Trazado 886085" d="M53.662,52.4c-1.936.572-4.759,1.55-5.295,2.524-.3.545-1.212,5.863-1.832,8.776h9.35a87.723,87.723,0,0,0-2.223-11.3" transform="translate(-46.535 -52.399)" fill="#d1aa81"/>
                  </g>
                </g>
              </g>
              <path id="Trazado_886086" data-name="Trazado 886086" d="M39.216,27.214a13.8,13.8,0,0,0-3.627-.7,13.8,13.8,0,0,0-3.627.7c-3.2,1.389-3.234,4.088-3.234,8.292H42.45c0-4.2-.039-6.9-3.234-8.292" transform="translate(-2.065 -1.906)" fill="#474656"/>
              <path id="Trazado_886087" data-name="Trazado 886087" d="M38.415,45.278H33.1a10.168,10.168,0,0,1-3.057,8.441l5.461,6.6h.511l5.461-6.6a10.168,10.168,0,0,1-3.057-8.441" transform="translate(-2.16 -3.255)" fill="#fcc083"/>
              <path id="Trazado_886088" data-name="Trazado 886088" d="M33.334,45.278h5.319a9.819,9.819,0,0,0,.683,4.911c-2.222-.867-3.993-2.7-5.947-4.375-.021-.34-.055-.536-.055-.536" transform="translate(-2.397 -3.255)" fill="#e8aa63"/>
              <path id="Trazado_886089" data-name="Trazado 886089" d="M32.808,49.3a10.353,10.353,0,0,1-2.77,4.705l5.461,6.6h.511l5.461-6.6A10.353,10.353,0,0,1,38.7,49.3l-2.919,1.613Z" transform="translate(-2.16 -3.544)" fill="#e5e5e5"/>
              <path id="Trazado_886090" data-name="Trazado 886090" d="M42.654,35.4c-.205-.529-.563-.256-.843.093a8.622,8.622,0,0,0-2.09-6.2H31.574a8.578,8.578,0,0,0-2.114,6.165c-.276-.334-.619-.577-.818-.063-.37.955.5,2.264.333,3.591-.113.9.595.807,1.043.556a15.506,15.506,0,0,0,.821,2.416c.852,1.981,3.3,3.785,4.8,3.785s3.908-1.818,4.8-3.785a11.489,11.489,0,0,0,.824-2.427c.446.259,1.179.366,1.065-.545-.167-1.327.7-2.636.333-3.591" transform="translate(-2.053 -2.106)" fill="#fcc083"/>
              <path id="Trazado_886091" data-name="Trazado 886091" d="M36.227,50.847l1.6,2.175,2.555-3.789-1.435-.9Z" transform="translate(-2.604 -3.474)" fill="#fff"/>
              <path id="Trazado_886092" data-name="Trazado 886092" d="M35.9,50.847l-1.6,2.175-2.6-3.694,1.431-1Z" transform="translate(-2.279 -3.474)" fill="#fff"/>
              <path id="Trazado_886093" data-name="Trazado 886093" d="M49.441,63.432c-.775-3.61-1.916-10.288-2.29-10.968-1.036-1.886-8.945-3.789-8.945-3.789V48.7l-.1-.029a17.046,17.046,0,0,1-.958,6.348c-.4,1.236-.858,2.492-1.252,3.541-.155.413-.793,2.131-.793,2.131s-.782-1.718-.937-2.131c-.394-1.049-.848-2.3-1.253-3.541a17.032,17.032,0,0,1-.957-6.348l-.1.029v-.029s-7.909,1.9-8.945,3.789c-.374.68-1.515,7.327-2.29,10.968Z" transform="translate(-1.483 -3.499)" fill="#474656"/>
              <path id="Trazado_886094" data-name="Trazado 886094" d="M30.55,29.468s4.193,8.76,11.292.235c0,0-5.837-5.562-11.292-.235" transform="translate(-2.196 -1.952)" fill="#474656"/>
              <path id="Trazado_886095" data-name="Trazado 886095" d="M30.833,38.79c-.3-2.536-.545-8.466,3.251-10.121l-1.162-.562s-3.4.686-3.708,5.931l.911,5.535h.008a.7.7,0,0,0,.7-.783" transform="translate(-2.1 -2.021)" fill="#474656"/>
              <path id="Trazado_886096" data-name="Trazado 886096" d="M41.838,39.577h.037l.9-5.5c-.312-5.244-3.707-5.931-3.707-5.931l-1.162.562c3.792,1.653,3.546,7.576,3.251,10.115a.677.677,0,0,0,.676.755" transform="translate(-2.726 -2.023)" fill="#474656"/>
            </g>
          </g>
        </g>
      </g>
    </g>
  </g>
</svg>
