<svg xmlns="http://www.w3.org/2000/svg" xmlns:xlink="http://www.w3.org/1999/xlink" width="99" height="99" viewBox="0 0 99 99">
  <defs>
    <clipPath id="clip-path">
      <rect id="Rectángulo_401223" data-name="Rectángulo 401223" width="99" height="99" transform="translate(0)" fill="#ffe064"/>
    </clipPath>
    <clipPath id="clip-path-2">
      <rect id="Rectángulo_401223-2" data-name="Rectángulo 401223" width="88.539" height="88.539" fill="#f3f9ff"/>
    </clipPath>
    <clipPath id="clip-path-3">
      <rect id="Rectángulo_405750" data-name="Rectángulo 405750" width="54.357" height="69" fill="none"/>
    </clipPath>
  </defs>
  <g id="Grupo_1111562" data-name="Grupo 1111562" transform="translate(-619.922 -5755.871)">
    <g id="Grupo_1100724" data-name="Grupo 1100724" transform="translate(619.921 5755.871)">
      <g id="Grupo_1099654" data-name="Grupo 1099654" transform="translate(0 0)">
        <g id="Enmascarar_grupo_1099652" data-name="Enmascarar grupo 1099652" clip-path="url(#clip-path)">
          <path id="Trazado_873521" data-name="Trazado 873521" d="M99,77.066A22,22,0,0,1,77.066,99H21.934A22,22,0,0,1,0,77.066V21.933A22,22,0,0,1,21.934,0H77.066A22,22,0,0,1,99,21.934Z" transform="translate(0)" fill="#023263"/>
        </g>
      </g>
      <g id="Grupo_1099659" data-name="Grupo 1099659" transform="translate(4.77 5.723)">
        <g id="Grupo_1099652" data-name="Grupo 1099652" transform="translate(0 0)" clip-path="url(#clip-path-2)">
          <path id="Trazado_873521-2" data-name="Trazado 873521" d="M88.539,68.922A19.674,19.674,0,0,1,68.923,88.539H19.616A19.674,19.674,0,0,1,0,68.922V19.616A19.674,19.674,0,0,1,19.616,0H68.923A19.674,19.674,0,0,1,88.539,19.616Z" fill="#f3f9ff"/>
        </g>
      </g>
    </g>
    <g id="Grupo_1100725" data-name="Grupo 1100725" transform="translate(636.343 5771.293)">
      <rect id="Rectángulo_401104" data-name="Rectángulo 401104" width="68" height="69" transform="translate(-0.422 0.438)" fill="none"/>
      <g id="Grupo_1111976" data-name="Grupo 1111976" transform="translate(6.4 0.438)">
        <g id="Grupo_1111975" data-name="Grupo 1111975" transform="translate(0 0)" clip-path="url(#clip-path-3)">
          <path id="Trazado_886040" data-name="Trazado 886040" d="M32.373,1.143A29.025,29.025,0,0,0,25.592,0a29.015,29.015,0,0,0-6.78,1.143c-5.974,2.278-6.047,6.7-6.047,13.6H38.418c0-6.892-.072-11.317-6.046-13.6" transform="translate(1.548 0)" fill="#474656"/>
          <path id="Trazado_886041" data-name="Trazado 886041" d="M30.453,25.463H20.509S22.028,33.039,14.8,39.3L25,50.122h.955L36.169,39.3c-7.233-6.265-5.715-13.841-5.715-13.841" transform="translate(1.794 3.088)" fill="#fcc083"/>
          <path id="Trazado_886042" data-name="Trazado 886042" d="M19.894,25.463h9.944a14.249,14.249,0,0,0,1.276,8.051C26.96,32.093,23.65,29.095,20,26.342a7.978,7.978,0,0,0-.1-.879" transform="translate(2.412 3.088)" fill="#e8aa63"/>
          <path id="Trazado_886043" data-name="Trazado 886043" d="M19.973,30.927A16.62,16.62,0,0,1,14.8,38.641L25,49.459h.956L36.167,38.641a16.62,16.62,0,0,1-5.178-7.714l-5.458,2.644Z" transform="translate(1.794 3.751)" fill="#e5e5e5"/>
          <path id="Trazado_886044" data-name="Trazado 886044" d="M38.859,13.774c-.383-.868-1.054-.419-1.576.152A13.272,13.272,0,0,0,33.377,3.769H18.145a13.222,13.222,0,0,0-3.952,10.108c-.515-.547-1.157-.945-1.529-.1-.692,1.566.935,3.713.623,5.888-.211,1.47,1.112,1.322,1.95.912a23.367,23.367,0,0,0,1.536,3.96c1.592,3.248,6.162,6.206,8.967,6.206s7.306-2.981,8.966-6.206a17.308,17.308,0,0,0,1.542-3.978c.834.425,2.2.6,1.989-.894-.312-2.175,1.316-4.321.623-5.888" transform="translate(1.515 0.457)" fill="#fcc083"/>
          <path id="Trazado_886045" data-name="Trazado 886045" d="M24.37,33.732,27.357,37.3l4.778-6.211L29.451,29.6Z" transform="translate(2.955 3.59)" fill="#fff"/>
          <path id="Trazado_886046" data-name="Trazado 886046" d="M25.219,33.732,22.232,37.3l-4.869-6.056L20.038,29.6Z" transform="translate(2.106 3.59)" fill="#fff"/>
          <path id="Trazado_886047" data-name="Trazado 886047" d="M49.844,36.284C47.907,33.193,33.12,30.07,33.12,30.07a.412.412,0,0,1,0,.048l-.186-.047a24.714,24.714,0,0,1-1.79,10.409c-.755,2.027-1.6,4.086-2.341,5.806-.29.676-1.482,3.493-1.482,3.493s-1.462-2.817-1.753-3.493c-.737-1.72-1.585-3.779-2.341-5.806a24.736,24.736,0,0,1-1.79-10.409l-.185.047,0-.048S6.471,33.193,4.534,36.284c-.7,1.121-2.856,12.142-4.306,18.088-.991,4.067,1.3,7.205,5.52,9.1l2.827,1.268H45.445l3.024-1.307c4.3-1.861,6.664-5.045,5.656-9.16-1.45-5.919-3.582-16.873-4.281-17.987" transform="translate(0 3.647)" fill="#1db2cc"/>
          <path id="Trazado_886048" data-name="Trazado 886048" d="M15.586,4.658s7.839,14.363,21.11.386c0,0-10.912-9.12-21.11-.386" transform="translate(1.89 0.106)" fill="#474656"/>
          <path id="Trazado_886049" data-name="Trazado 886049" d="M16.543,19.675c-.551-4.157-1.018-13.881,6.078-16.595l-2.173-.922S14.1,3.286,13.518,11.884l1.7,9.076h.016a1.217,1.217,0,0,0,1.307-1.284" transform="translate(1.639 0.262)" fill="#474656"/>
          <path id="Trazado_886050" data-name="Trazado 886050" d="M34.317,20.953h.07l1.692-9.018c-.583-8.6-6.931-9.724-6.931-9.724l-2.172.921c7.09,2.711,6.629,12.421,6.078,16.585a1.175,1.175,0,0,0,1.263,1.237" transform="translate(3.271 0.269)" fill="#474656"/>
          <rect id="Rectángulo_405748" data-name="Rectángulo 405748" width="30.38" height="1.426" transform="translate(11.821 66.306)" fill="#1f2225"/>
          <path id="Trazado_886051" data-name="Trazado 886051" d="M43.054,38.093H9.113a1.383,1.383,0,0,0-1.464,1.284V60.81a1.383,1.383,0,0,0,1.464,1.284H43.054a1.384,1.384,0,0,0,1.464-1.284V39.377a1.384,1.384,0,0,0-1.464-1.284" transform="translate(0.928 4.62)" fill="#474656"/>
          <rect id="Rectángulo_405749" data-name="Rectángulo 405749" width="35.71" height="1.677" transform="translate(9.156 67.323)" fill="#474656"/>
          <path id="Trazado_886052" data-name="Trazado 886052" d="M25.64,48.928a1.411,1.411,0,1,1-1.4-1.227,1.322,1.322,0,0,1,1.4,1.227" transform="translate(2.77 5.785)" fill="#e3e3e3"/>
        </g>
      </g>
    </g>
  </g>
</svg>
