<svg xmlns="http://www.w3.org/2000/svg" xmlns:xlink="http://www.w3.org/1999/xlink" width="99" height="99" viewBox="0 0 99 99">
  <defs>
    <clipPath id="clip-path">
      <rect id="Rectángulo_401223" data-name="Rectángulo 401223" width="99" height="99" transform="translate(0)" fill="#fce898"/>
    </clipPath>
    <clipPath id="clip-path-2">
      <rect id="Rectángulo_401223-2" data-name="Rectángulo 401223" width="88.539" height="88.539" fill="#f3f9ff"/>
    </clipPath>
    <clipPath id="clip-path-3">
      <rect id="Rectángulo_405747" data-name="Rectángulo 405747" width="65.133" height="61.224" fill="none"/>
    </clipPath>
    <clipPath id="clip-path-5">
      <rect id="Rectángulo_405731" data-name="Rectángulo 405731" width="29.608" height="22.376" fill="none"/>
    </clipPath>
    <clipPath id="clip-path-6">
      <rect id="Rectángulo_405734" data-name="Rectángulo 405734" width="26.797" height="13.454" fill="none"/>
    </clipPath>
    <clipPath id="clip-path-7">
      <rect id="Rectángulo_405735" data-name="Rectángulo 405735" width="14.211" height="18.035" fill="none"/>
    </clipPath>
    <clipPath id="clip-path-8">
      <rect id="Rectángulo_405736" data-name="Rectángulo 405736" width="8.8" height="13.205" fill="none"/>
    </clipPath>
    <clipPath id="clip-path-9">
      <rect id="Rectángulo_405738" data-name="Rectángulo 405738" width="13.059" height="19.834" fill="none"/>
    </clipPath>
    <clipPath id="clip-path-10">
      <rect id="Rectángulo_405739" data-name="Rectángulo 405739" width="19.002" height="3.88" fill="none"/>
    </clipPath>
    <clipPath id="clip-path-11">
      <rect id="Rectángulo_405745" data-name="Rectángulo 405745" width="7.799" height="14.192" fill="none"/>
    </clipPath>
  </defs>
  <g id="Grupo_1111561" data-name="Grupo 1111561" transform="translate(-619.921 -5755.871)">
    <g id="Grupo_1100724" data-name="Grupo 1100724" transform="translate(619.921 5755.871)">
      <g id="Grupo_1099654" data-name="Grupo 1099654" transform="translate(0 0)">
        <g id="Grupo_1099652" data-name="Grupo 1099652" clip-path="url(#clip-path)">
          <path id="Trazado_873521" data-name="Trazado 873521" d="M99,77.066A22,22,0,0,1,77.066,99H21.934A22,22,0,0,1,0,77.066V21.933A22,22,0,0,1,21.934,0H77.066A22,22,0,0,1,99,21.934Z" transform="translate(0)" fill="#023263"/>
        </g>
      </g>
      <g id="Grupo_1099659" data-name="Grupo 1099659" transform="translate(4.77 5.723)">
        <g id="Grupo_1099652-2" data-name="Grupo 1099652" transform="translate(0 0)" clip-path="url(#clip-path-2)">
          <path id="Trazado_873521-2" data-name="Trazado 873521" d="M88.539,68.922A19.674,19.674,0,0,1,68.923,88.539H19.616A19.674,19.674,0,0,1,0,68.922V19.616A19.674,19.674,0,0,1,19.616,0H68.923A19.674,19.674,0,0,1,88.539,19.616Z" fill="#f3f9ff"/>
        </g>
      </g>
    </g>
    <g id="Grupo_1100725" data-name="Grupo 1100725" transform="translate(636.343 5771.293)">
      <rect id="Rectángulo_401104" data-name="Rectángulo 401104" width="68" height="69" transform="translate(-0.422 0.438)" fill="none"/>
      <g id="Grupo_1111974" data-name="Grupo 1111974" transform="translate(1.578 3.438)">
        <g id="Grupo_1111973" data-name="Grupo 1111973" clip-path="url(#clip-path-3)">
          <rect id="Rectángulo_405729" data-name="Rectángulo 405729" width="13.083" height="26.618" transform="translate(32.924 34.001) rotate(-67.199)" fill="#75bd38"/>
          <g id="Grupo_1111972" data-name="Grupo 1111972" transform="translate(0 0)">
            <g id="Grupo_1111971" data-name="Grupo 1111971" clip-path="url(#clip-path-3)">
              <path id="Trazado_886011" data-name="Trazado 886011" d="M44.344,30.986l-1.9,4.53c.845.464,2.291,1.2,1.586,3.747l16.423,6.9c1.409-2.433,3.08-1.743,3.951-1.437l1.9-4.515c-.845-.415-2.555-1.164-1.691-4L48.722,29.537c-1.642,3-3.757,1.75-4.378,1.449" transform="translate(-6.68 -4.649)" fill="#ffffd0"/>
              <path id="Trazado_886012" data-name="Trazado 886012" d="M49.767,36.252a1.607,1.607,0,1,1-.859-2.106,1.607,1.607,0,0,1,.859,2.106" transform="translate(-7.347 -5.355)" fill="#75bd38"/>
              <path id="Trazado_886013" data-name="Trazado 886013" d="M65.116,42.705a1.606,1.606,0,1,1-.856-2.1,1.606,1.606,0,0,1,.856,2.1" transform="translate(-9.763 -6.371)" fill="#75bd38"/>
              <path id="Trazado_886014" data-name="Trazado 886014" d="M59.641,40.14a4.035,4.035,0,1,1-2.156-5.282,4.033,4.033,0,0,1,2.156,5.282" transform="translate(-8.166 -5.437)" fill="#75bd38"/>
              <path id="Trazado_886015" data-name="Trazado 886015" d="M57.612,40.416A1.319,1.319,0,0,0,57,38.83c-.148-.066-.281-.131-.4-.2l.642-1.528a.59.59,0,0,1,.083.884l.923.388a1.415,1.415,0,0,0-.621-2.187l.053-.126a.351.351,0,0,0-.646-.271l-.046.109a1.472,1.472,0,0,0-2.163.983c-.207.544-.384,1.266.86,2.116l-.642,1.526c-.472-.438-.025-1.116-.025-1.116l-1.063-.447c-.249.474-.608,1.413.831,2.176l-.109.257a.351.351,0,0,0,.646.272l.1-.248a1.473,1.473,0,0,0,2.178-1m-1.851-3.086a.786.786,0,0,1,.842-.5L56.024,38.2c-.468-.485-.264-.875-.264-.875M55.692,40.8l.59-1.4a.771.771,0,0,1-.59,1.4" transform="translate(-8.457 -5.601)" fill="#ffffd0"/>
              <g id="Grupo_1111952" data-name="Grupo 1111952" transform="translate(32.925 21.94)" style="mix-blend-mode: multiply;isolation: isolate">
                <g id="Grupo_1111951" data-name="Grupo 1111951">
                  <g id="Grupo_1111950" data-name="Grupo 1111950" clip-path="url(#clip-path-5)">
                    <rect id="Rectángulo_405730" data-name="Rectángulo 405730" width="13.083" height="26.618" transform="translate(0 12.061) rotate(-67.2)" fill="#b1c0c0"/>
                  </g>
                </g>
              </g>
              <rect id="Rectángulo_405732" data-name="Rectángulo 405732" width="26.617" height="13.084" transform="translate(38.335 40.709) rotate(-0.8)" fill="#75bd38"/>
              <path id="Trazado_886016" data-name="Trazado 886016" d="M47.226,52.632l.068,4.913c.961.088,2.58.181,2.953,2.8l17.814-.249c.316-2.792,2.123-2.829,3.044-2.9l-.068-4.9c-.941-.042-2.808-.043-3.151-2.989l-17.229.241c-.3,3.41-2.742,3.108-3.432,3.081" transform="translate(-7.433 -7.761)" fill="#ffffd0"/>
              <path id="Trazado_886017" data-name="Trazado 886017" d="M53.965,55.656a1.607,1.607,0,1,1-1.631-1.585,1.607,1.607,0,0,1,1.631,1.585" transform="translate(-7.988 -8.51)" fill="#75bd38"/>
              <path id="Trazado_886018" data-name="Trazado 886018" d="M70.613,55.424a1.607,1.607,0,1,1-1.627-1.585,1.606,1.606,0,0,1,1.627,1.585" transform="translate(-10.608 -8.474)" fill="#75bd38"/>
              <path id="Trazado_886019" data-name="Trazado 886019" d="M64.712,55.047a4.034,4.034,0,1,1-4.09-3.977,4.034,4.034,0,0,1,4.09,3.977" transform="translate(-8.915 -8.038)" fill="#75bd38"/>
              <path id="Trazado_886020" data-name="Trazado 886020" d="M63.009,56.2c-.026-1.076-1.193-1.21-1.193-1.21-.162,0-.309-.008-.444-.02l-.023-1.657a.589.589,0,0,1,.43.776l1-.014a1.415,1.415,0,0,0-1.445-1.756l0-.137a.351.351,0,0,0-.7.009l0,.118c-1.609.118-1.618,1.17-1.588,1.767s.155,1.314,1.636,1.6l.023,1.656c-.608-.213-.47-1.014-.47-1.014l-1.153.016c-.039.534.009,1.539,1.632,1.662l0,.279a.351.351,0,0,0,.7-.01l0-.269c1.148-.078,1.626-.562,1.6-1.791m-2.932-2.087a.785.785,0,0,1,.571-.795l.02,1.491c-.623-.256-.592-.7-.592-.7m1.328,3.211L61.384,55.8a.771.771,0,0,1,.021,1.522" transform="translate(-9.292 -8.16)" fill="#ffffd0"/>
              <g id="Grupo_1111955" data-name="Grupo 1111955" transform="translate(38.335 40.338)" style="mix-blend-mode: multiply;isolation: isolate">
                <g id="Grupo_1111954" data-name="Grupo 1111954">
                  <g id="Grupo_1111953" data-name="Grupo 1111953" clip-path="url(#clip-path-6)">
                    <rect id="Rectángulo_405733" data-name="Rectángulo 405733" width="26.617" height="13.084" transform="matrix(1, -0.014, 0.014, 1, 0, 0.372)" fill="#c5d6d6"/>
                  </g>
                </g>
              </g>
              <g id="Grupo_1111958" data-name="Grupo 1111958" transform="translate(32.925 21.94)" style="mix-blend-mode: multiply;isolation: isolate">
                <g id="Grupo_1111957" data-name="Grupo 1111957">
                  <g id="Grupo_1111956" data-name="Grupo 1111956" clip-path="url(#clip-path-7)">
                    <path id="Trazado_886021" data-name="Trazado 886021" d="M53.285,29.881l-9.141-3.842L39.074,38.1l14.211,5.974Z" transform="translate(-39.075 -26.038)" fill="#c5d6d6"/>
                  </g>
                </g>
              </g>
              <g id="Grupo_1111961" data-name="Grupo 1111961" transform="translate(38.335 40.586)" style="mix-blend-mode: multiply;isolation: isolate">
                <g id="Grupo_1111960" data-name="Grupo 1111960">
                  <g id="Grupo_1111959" data-name="Grupo 1111959" clip-path="url(#clip-path-8)">
                    <path id="Trazado_886022" data-name="Trazado 886022" d="M54.3,48.167l-8.8.123.182,13.082,8.617-.12Z" transform="translate(-45.496 -48.167)" fill="#c5d6d6"/>
                  </g>
                </g>
              </g>
              <rect id="Rectángulo_405737" data-name="Rectángulo 405737" width="26.618" height="13.083" transform="translate(34.358 41.62) rotate(-21.704)" fill="#75bd38"/>
              <path id="Trazado_886023" data-name="Trazado 886023" d="M44.155,51.433,45.972,56c.929-.261,2.475-.751,3.758,1.561l16.552-6.588c-.7-2.722.975-3.4,1.811-3.793l-1.812-4.551c-.894.3-2.638.961-4.011-1.668L46.262,47.331c.934,3.294-1.452,3.882-2.107,4.1" transform="translate(-6.95 -6.447)" fill="#e8f2de"/>
              <path id="Trazado_886024" data-name="Trazado 886024" d="M51.395,53.1a1.607,1.607,0,1,1-2.089-.9,1.608,1.608,0,0,1,2.089.9" transform="translate(-7.601 -8.199)" fill="#75bd38"/>
              <path id="Trazado_886025" data-name="Trazado 886025" d="M66.864,46.948a1.607,1.607,0,1,1-2.085-.9,1.606,1.606,0,0,1,2.085.9" transform="translate(-10.036 -7.23)" fill="#75bd38"/>
              <path id="Trazado_886026" data-name="Trazado 886026" d="M61.349,48.509a4.034,4.034,0,1,1-5.24-2.256,4.033,4.033,0,0,1,5.24,2.256" transform="translate(-8.431 -7.235)" fill="#75bd38"/>
              <path id="Trazado_886027" data-name="Trazado 886027" d="M60.209,50.316a1.322,1.322,0,0,0-1.559-.677c-.15.061-.29.109-.42.147l-.64-1.529a.589.589,0,0,1,.688.559l.924-.386a1.415,1.415,0,0,0-2-1.09l-.053-.126a.351.351,0,0,0-.647.27l.046.11a1.472,1.472,0,0,0-.814,2.232c.244.529.634,1.161,2.112.869l.64,1.528c-.644.029-.815-.764-.815-.764l-1.063.445c.163.51.583,1.423,2.134.932l.108.258a.351.351,0,0,0,.646-.271l-.1-.248a1.474,1.474,0,0,0,.811-2.257m-3.5-.843a.785.785,0,0,1,.233-.95l.576,1.377c-.674-.006-.809-.426-.809-.426m2.43,2.484-.587-1.4a.771.771,0,0,1,.587,1.4" transform="translate(-8.735 -7.399)" fill="#e8f2de"/>
              <g id="Grupo_1111964" data-name="Grupo 1111964" transform="translate(34.605 32.422)" style="mix-blend-mode: multiply;isolation: isolate">
                <g id="Grupo_1111963" data-name="Grupo 1111963">
                  <g id="Grupo_1111962" data-name="Grupo 1111962" clip-path="url(#clip-path-9)">
                    <path id="Trazado_886028" data-name="Trazado 886028" d="M54.128,38.478l-13.06,5.2,5.826,14.636,7.234-2.879Z" transform="translate(-41.069 -38.478)" fill="#b1c0c0"/>
                  </g>
                </g>
              </g>
              <path id="Trazado_886029" data-name="Trazado 886029" d="M33.673,7.307l-19-.094v-4.2A2.83,2.83,0,0,1,17.3,0L31.044.069a2.863,2.863,0,0,1,2.627,3.037Z" transform="translate(-2.309 0)" fill="#ccc"/>
              <g id="Grupo_1111967" data-name="Grupo 1111967" transform="translate(12.361 3.427)" opacity="0.5" style="mix-blend-mode: multiply;isolation: isolate">
                <g id="Grupo_1111966" data-name="Grupo 1111966">
                  <g id="Grupo_1111965" data-name="Grupo 1111965" clip-path="url(#clip-path-10)">
                    <path id="Trazado_886030" data-name="Trazado 886030" d="M14.67,4.067V7.852l19,.094V4.268c-3.725-.062-16.643-.179-19-.2" transform="translate(-14.67 -4.067)" fill="#a5a7ab"/>
                  </g>
                </g>
              </g>
              <path id="Trazado_886031" data-name="Trazado 886031" d="M41.629,62.088l-39.614-.2A2.188,2.188,0,0,1,.008,59.569L0,7.788a2.161,2.161,0,0,1,2.007-2.3l39.614.2a2.189,2.189,0,0,1,2.008,2.321l.008,51.782a2.161,2.161,0,0,1-2.007,2.3" transform="translate(0 -0.864)" fill="#474656"/>
              <path id="Trazado_886032" data-name="Trazado 886032" d="M41.377,59.164,3.3,58.975,3.3,9.755l38.072.19Z" transform="translate(-0.519 -1.535)" fill="#fff"/>
              <rect id="Rectángulo_405740" data-name="Rectángulo 405740" width="3.604" height="11.6" transform="translate(5.817 41.583)" fill="#d7d7d7"/>
              <rect id="Rectángulo_405741" data-name="Rectángulo 405741" width="3.604" height="15.205" transform="translate(12.916 37.978)" fill="#bebebe"/>
              <rect id="Rectángulo_405742" data-name="Rectángulo 405742" width="3.604" height="22.205" transform="translate(20.016 30.978)" fill="#83828d"/>
              <rect id="Rectángulo_405743" data-name="Rectángulo 405743" width="3.604" height="20.259" transform="translate(27.116 32.924)" fill="#8ac757"/>
              <rect id="Rectángulo_405744" data-name="Rectángulo 405744" width="3.604" height="27.415" transform="translate(34.216 25.768)" fill="#1db2cc"/>
              <path id="Trazado_886033" data-name="Trazado 886033" d="M9.218,38.508l-.435-.77,7.034-3.98,7.253-8.3,7.069,2.7,6.9-9.577.717.516-7.3,10.13-7.129-2.721L16.318,34.49Z" transform="translate(-1.382 -2.925)" fill="#f65138"/>
              <path id="Trazado_886034" data-name="Trazado 886034" d="M10.122,41.525a1.33,1.33,0,1,1-1.33-1.33,1.33,1.33,0,0,1,1.33,1.33" transform="translate(-1.174 -6.326)" fill="#f65138"/>
              <path id="Trazado_886035" data-name="Trazado 886035" d="M18.549,36.757a1.33,1.33,0,1,1-1.33-1.33,1.33,1.33,0,0,1,1.33,1.33" transform="translate(-2.501 -5.576)" fill="#f65138"/>
              <path id="Trazado_886036" data-name="Trazado 886036" d="M26.758,27.468a1.33,1.33,0,1,1-1.33-1.33,1.33,1.33,0,0,1,1.33,1.33" transform="translate(-3.793 -4.114)" fill="#f65138"/>
              <path id="Trazado_886037" data-name="Trazado 886037" d="M35.4,30.157a1.33,1.33,0,1,1-1.33-1.33,1.33,1.33,0,0,1,1.33,1.33" transform="translate(-5.153 -4.537)" fill="#f65138"/>
              <path id="Trazado_886038" data-name="Trazado 886038" d="M43.827,18.783a1.33,1.33,0,1,1-1.33-1.33,1.33,1.33,0,0,1,1.33,1.33" transform="translate(-6.479 -2.747)" fill="#f65138"/>
              <g id="Grupo_1111970" data-name="Grupo 1111970" transform="translate(34.056 21.268)" opacity="0.55" style="mix-blend-mode: multiply;isolation: isolate">
                <g id="Grupo_1111969" data-name="Grupo 1111969">
                  <g id="Grupo_1111968" data-name="Grupo 1111968" clip-path="url(#clip-path-11)">
                    <path id="Trazado_886039" data-name="Trazado 886039" d="M48.217,39.433V28.494l-7.8-3.253Z" transform="translate(-40.417 -25.241)" fill="#969696"/>
                  </g>
                </g>
              </g>
            </g>
          </g>
        </g>
      </g>
    </g>
  </g>
</svg>
