<svg xmlns="http://www.w3.org/2000/svg" xmlns:xlink="http://www.w3.org/1999/xlink" width="85" height="85" viewBox="0 0 85 85">
  <defs>
    <clipPath id="clip-path">
      <rect id="Rectángulo_404925" data-name="Rectángulo 404925" width="75" height="75" fill="#d5f1ff" stroke="#707070" stroke-width="1"/>
    </clipPath>
    <clipPath id="clip-path-2">
      <rect id="Rectángulo_405725" data-name="Rectángulo 405725" width="66.25" height="66.281" fill="#d5f1ff"/>
    </clipPath>
  </defs>
  <g id="Grupo_1113906" data-name="Grupo 1113906" transform="translate(-179.711 -2830)">
    <rect id="Rectángulo_405235" data-name="Rectángulo 405235" width="85" height="85" transform="translate(179.711 2830)" fill="#0354a5"/>
    <g id="Enmascarar_grupo_1108078" data-name="Enmascarar grupo 1108078" transform="translate(184.711 2835)" clip-path="url(#clip-path)">
      <g id="Grupo_1111943" data-name="Grupo 1111943" transform="translate(4 4.001)">
        <g id="Grupo_1111942" data-name="Grupo 1111942" transform="translate(0 -0.001)" clip-path="url(#clip-path-2)">
          <path id="Trazado_885983" data-name="Trazado 885983" d="M40.063,6.7l6.673,2.634c.356-.012,1.681-1.559,2.109-1.849a4.817,4.817,0,0,1,5.083-.16,39.388,39.388,0,0,1,5.02,5.02c1.627,2.786.045,5.3-2.157,7.07l2.747,6.546c2.486,0,5,.188,6.173,2.73.68,1.47.712,7.167.124,8.665-1.066,2.714-3.887,3.13-6.47,2.906-.328,2.28-1.536,4.284-2.468,6.341,1.636,2.014,3.119,3.062,2.564,5.971-.268,1.4-3.909,5.16-5.123,6.052a4.651,4.651,0,0,1-5.575.083c-.463-.326-1.75-1.955-2.1-1.9A25.521,25.521,0,0,1,40.245,59.4c.157,2.514-.107,5.154-2.662,6.335-1.47.68-6.99.695-8.527.175-2.8-.947-3.271-3.909-3.055-6.51a27.659,27.659,0,0,1-6.518-2.618c-1.737,1.74-3.041,3.272-5.785,2.705-1.4-.289-5.152-3.9-6.05-5.125-2.111-2.871-.572-5.687,1.89-7.571a23.6,23.6,0,0,1-2.666-6.521c-2.608.217-5.564-.255-6.511-3.055a23.135,23.135,0,0,1,0-8.134c.946-2.8,3.92-3.287,6.521-3.044A23.325,23.325,0,0,1,9.35,19.7c-.01-.421-1.427-1.513-1.781-2a4.9,4.9,0,0,1-.11-5.571,44.676,44.676,0,0,1,4.671-4.61,4.572,4.572,0,0,1,5.54.269c.422.318,1.593,1.755,1.919,1.7a24.9,24.9,0,0,1,3.4-1.718c.581-.238,2.558-.712,2.841-.947.385-.32.113-2.353.2-3.017A4.746,4.746,0,0,1,30.274.092c1.751-.159,6.1-.2,7.554.606,2.274,1.259,2.338,3.692,2.235,6M63.086,29.327c-1.316-1.487-5.072.316-5.858-1.433-.422-.939-.7-2.637-1.139-3.787-.344-.9-.762-1.744-1.18-2.608-.46-.952-1.531-1.789-.866-2.943.9-1.558,4.293-2.628,2.381-5.2a37.178,37.178,0,0,0-3.6-3.6c-2.892-2.039-4.06,3.033-6.2,2.618-.574-.111-2.445-1.35-3.235-1.7-1.774-.791-3.652-1.214-5.445-1.942-1.02-.93.549-4.991-1.551-5.837A35.3,35.3,0,0,0,30.1,2.762c-2.7.426-.975,5.279-1.944,6.061-.484.391-4.112,1.327-5.163,1.8-1.379.614-3.341,2.41-4.735,1.5-1.44-1.294-2.763-3.807-4.939-2.275a39.143,39.143,0,0,0-3.59,3.607C7.7,16.3,12.3,17.306,12.4,19.327c.038.732-.917,1.846-1.254,2.551-.32.666-.674,1.407-.94,2.091-.352.9-1,3.8-1.418,4.264C7.542,29.643,3.1,27.255,2.718,30.5a34.557,34.557,0,0,0,.017,5.485c.383,2.723,4.282,1.014,5.743,1.834.712.4,1.136,2.875,1.49,3.813.561,1.486,1.966,3.5,2.328,4.679.649,2.111-2.67,3-2.934,4.662a2.539,2.539,0,0,0,.559,2.071,31.6,31.6,0,0,0,3.315,3.315,2.525,2.525,0,0,0,2.378.484c.9-.283,2.258-2.5,3.023-2.846,1.1-.5,3.61,1.326,4.794,1.828,1,.423,4.3,1.251,4.774,1.666,1.383,1.217-.935,5.715,2.263,6.072a34.641,34.641,0,0,0,5.484-.017c2.723-.383,1.014-4.281,1.834-5.743.419-.747,2.872-1.137,3.813-1.491,1.492-.56,3.5-1.964,4.679-2.327,1.814-.557,2.606,1.716,3.924,2.533a2.213,2.213,0,0,0,2.908-.248A37.349,37.349,0,0,0,56.6,52.747c1.784-2.841-3.283-4.065-2.7-6.289.227-.857,1.676-2.976,2.132-4.123.342-.858,1.052-3.848,1.419-4.264,1.222-1.384,5.714.933,6.071-2.264a35.289,35.289,0,0,0,.005-5.128,2.454,2.454,0,0,0-.448-1.353" transform="translate(0 0.001)" fill="#d5f1ff"/>
          <path id="Trazado_885984" data-name="Trazado 885984" d="M74.643,110.79c-2.872.211-7.381.222-7.943-3.516-.425-2.826-.089-7.513,1.282-10.059.377-.7,2-2.509,2.086-2.853.113-.426-.362-1.869-.362-2.608,0-8.572,11.567-11.059,15.479-3.525h3.729c3.737-7.186,14.716-5.355,15.443,2.789.089,1-.437,2.923-.326,3.343.1.4,1.965,2.513,2.406,3.48,1.053,2.308,1.337,6.937.962,9.431-.557,3.7-5.107,3.745-7.943,3.516v3.883c0,1.137-1.956,3.023-3.035,3.405-1.271.45-5.346.851-4.653-1.422.589-1.928,4.584.226,5.025-2.562a26.277,26.277,0,0,0-.467-8.224,13.833,13.833,0,0,0-2.081-3.415l-1.328,1.323c-3.759,3.171-9.8,2.822-12.766-1.2l-.391-.12c-.917,1.459-2.168,3.117-2.421,4.874a39.665,39.665,0,0,0-.033,6.761c.405,2.885,4.624.509,5.069,2.709.451,2.225-3.579,1.719-4.835,1.225-1.045-.411-2.9-2.223-2.9-3.353ZM82.6,89.383a5.381,5.381,0,0,0-9-1.135,5.443,5.443,0,0,0,4.451,8.9c.106-3.128,1.646-6.385,4.547-7.767M96.049,97.15A5.427,5.427,0,1,0,91.5,89.287a9.16,9.16,0,0,1,4.553,7.863M85.963,90.761c-8.279,1.134-5.955,14.616,2.706,12.366,7.462-1.938,5.533-13.5-2.706-12.366M78.62,99.8a8.434,8.434,0,0,1-7.1-3.028c-2.22,2.177-2.626,6.034-2.374,9,.287,3.389,3.02,2.151,5.49,2.351a12.646,12.646,0,0,1,1.974-5.7c.538-.831,1.361-1.474,1.826-2.151.11-.16.265-.187.186-.475m20.846,8.323c2.275-.2,5.162.993,5.481-2.171.3-2.974-.132-7-2.365-9.18a8.433,8.433,0,0,1-7.1,3.028c-.079.288.076.315.186.475.466.677,1.288,1.32,1.826,2.151a12.648,12.648,0,0,1,1.974,5.7" transform="translate(-53.927 -67.882)" fill="#d5f1ff"/>
          <path id="Trazado_885985" data-name="Trazado 885985" d="M170.476,252.853a1.364,1.364,0,0,1-.993,2.235c-2.568,0-.682-4,.993-2.235" transform="translate(-136.36 -204.594)" fill="#d5f1ff"/>
        </g>
      </g>
    </g>
  </g>
</svg>
