<svg xmlns="http://www.w3.org/2000/svg" xmlns:xlink="http://www.w3.org/1999/xlink" width="147" height="147" viewBox="0 0 147 147">
  <defs>
    <clipPath id="clip-path">
      <rect id="Rectángulo_404919" data-name="Rectángulo 404919" width="147" height="147" fill="none"/>
    </clipPath>
    <clipPath id="clip-path-2">
      <rect id="Rectángulo_405771" data-name="Rectángulo 405771" width="78.518" height="78.519" transform="translate(2.297 3.296)" fill="#92d8fe" stroke="#707070" stroke-width="1"/>
    </clipPath>
    <clipPath id="clip-path-3">
      <rect id="Rectángulo_405824" data-name="Rectángulo 405824" width="150" height="695.43" fill="#92d8fe"/>
    </clipPath>
    <clipPath id="clip-path-4">
      <rect id="Rectángulo_405826" data-name="Rectángulo 405826" width="71.879" height="72.399" fill="#92d8fe"/>
    </clipPath>
  </defs>
  <g id="Grupo_1113894" data-name="Grupo 1113894" transform="translate(-314 -849.07)">
    <g id="Grupo_1112014" data-name="Grupo 1112014" transform="translate(314 849.07)">
      <g id="Grupo_1110058" data-name="Grupo 1110058" transform="translate(0 0)" clip-path="url(#clip-path)">
        <path id="Trazado_883529" data-name="Trazado 883529" d="M4.9,34.861l16.347,90.521c2.4,13.3,15.622,22.216,29.528,19.92a26.1,26.1,0,0,0,12-5.3l73.81-58.8a23.7,23.7,0,0,0,3.276-34.409,25.571,25.571,0,0,0-10.8-7.289L38.9,7.778C25.657,3.116,10.971,9.6,6.1,22.267A23.419,23.419,0,0,0,4.9,34.861" transform="translate(1.218 1.339)" fill="#023263"/>
        <path id="Trazado_883530" data-name="Trazado 883530" d="M144.847,103.991h0a25.234,25.234,0,0,1-7.329,9.735,26.37,26.37,0,0,1-12.033,5.454l-94.37,17.213C16.945,139.021,3.228,130.168.478,116.617a23.952,23.952,0,0,1,1-13.056l31.6-86.751c.147-.405.306-.811.473-1.205A25.759,25.759,0,0,1,53.549.342a27.492,27.492,0,0,1,12.816,1,26.043,26.043,0,0,1,11.27,7.345L140.4,78.227a23.984,23.984,0,0,1,4.445,25.763M34.732,16.063c-.159.377-.312.765-.452,1.151l-31.6,86.749C-1.843,116.39,5.026,129.971,18.022,134.3a26.018,26.018,0,0,0,12.856.9l94.368-17.211c13.516-2.465,22.385-14.94,19.808-27.865a23.415,23.415,0,0,0-5.614-11.1L76.672,9.481A25.718,25.718,0,0,0,41.526,7.016a23.885,23.885,0,0,0-6.794,9.047" transform="translate(0 0)" fill="#41c9a5"/>
      </g>
    </g>
    <g id="Enmascarar_grupo_1108110" data-name="Enmascarar grupo 1108110" transform="translate(340.414 880.704)" clip-path="url(#clip-path-2)">
      <g id="Grupo_1112142" data-name="Grupo 1112142" transform="translate(-282.703 -199.704)">
        <g id="Grupo_1112141" data-name="Grupo 1112141" clip-path="url(#clip-path-3)">
          <path id="Trazado_886237" data-name="Trazado 886237" d="M225.47,425.185c9.454,1.857,6.786,47.481,7.109,77.761l4.151,1.873c.588,1.715.673,6.353.74,9.335.656,28.875-.475,62.611-.013,92.042-.431,10.582-3.172,6.664-4.879,7.208-.383,34.618,2.584,75.746-7.76,79.873-19.98-5.33-41.587,6.837-61.373.016-3.9-1.344-6.628-6.823-7.994-24.581l-.23-234.406.652-7.229,61.353-63.345c8.528-1.567,8.687,30.672,8.244,61.453m-4.89.007V393.481c0-6.786-2.532-8.8-3.732-6.942-11.545,13.58-23.4,22.035-34.935,35.62-.51.6-1.441-.124-1.336,3.033Zm7.112,77.744V452.812c0-.362-1.033-5.115-1.111-5.115H160.13V663.539c0,4.147,2.493,6.909,3.313,7.257,19.316,8.2,41.333-6.412,60.936,0,.8,1.482,3.312-4.631,3.312-7.257V613.414H214.135c-1.195,0-3.115-13.905-3.305-19.567-.361-10.735-.353-65.161.18-74.6.252-4.471,2.189-16.306,3.125-16.306Zm4.889,22.5H215.69V590.91h16.89Z" transform="translate(-121.499)" fill="#92d8fe"/>
          <path id="Trazado_886238" data-name="Trazado 886238" d="M275.022.15C300.642-4.174,301.9,176.4,276.21,179.818,251.118,183.156,249.621,4.437,275.022.15M274.557,22.7c-19.066,8.025-16.44,140.255,2.086,134.484C296.1,151.122,293.5,14.729,274.557,22.7" transform="translate(-200.906)" fill="#92d8fe"/>
          <path id="Trazado_886239" data-name="Trazado 886239" d="M18.1.186c25.5-6.807,27.524,175.046,1.647,179.6C-5.109,184.154-7.433,7,18.1.186M18.1,22.658C-3.664,30.489,3.332,188.33,24.4,152.034,39.864,125.4,34.4,16.79,18.1,22.658" transform="translate(0)" fill="#92d8fe"/>
          <path id="Trazado_886240" data-name="Trazado 886240" d="M530.215.2c18.613-3.877,27.795,106.956,12.93,159.874-15.318,54.529-36.364-15.246-30.388-98.957C515.141,27.7,522.538,1.8,530.215.2m-.01,22.461c-22.038,7.93-14.632,166.035,6.3,129.376,15.452-27.056,9.786-135.166-6.3-129.376" transform="translate(-400.544)" fill="#92d8fe"/>
          <path id="Trazado_886241" data-name="Trazado 886241" d="M494.476,310.611l4.016-5.249,1.575,19.627c-.32,2.322-9.962,20.049-11.032,21.138-1.845,1.877-3.159-4.128-3.427-12.088-.566-16.833-.591-36.927-.915-54.115h4.894l0,17.394.883,1.014,10.442-79.493,3.736,12.628Z" transform="translate(-379.391)" fill="#92d8fe"/>
          <path id="Trazado_886242" data-name="Trazado 886242" d="M127.274,298.331l.883-1.014.431-18.536,4.459,1.142c-.325,17.183-.348,37.292-.915,54.117-.233,6.921-1.343,13.183-2.979,12.022-1.048-.745-11.091-18.81-11.478-21.026l1.581-19.7,3.373,5.174.632-2.922-10.026-78.8,3.817-9.354Z" transform="translate(-88.633)" fill="#92d8fe"/>
          <path id="Trazado_886243" data-name="Trazado 886243" d="M314.468,212.419v87.973l2.882-16.264,3.7,13.168c.05,2.835-6.617,43.586-7.259,46.026-.891,3.39-2.652,3.39-3.543,0-.6-2.275-7.308-43.192-7.259-46.026l3.7-13.168,2.882,16.264V212.419Z" transform="translate(-237.166)" fill="#92d8fe"/>
          <rect id="Rectángulo_405823" data-name="Rectángulo 405823" width="4.894" height="22.526" transform="translate(99.078 547.935)" fill="#92d8fe"/>
          <path id="Trazado_886244" data-name="Trazado 886244" d="M320.587,34.416l.047,12.071c2.884,1.309,4.7,13.92,4.838,26.8-1.314-.694-2.97,1.1-4.215-.019-.958-.865-1.222-4.746-1.873-5.69-3.005-4.355-5,7.987-2.485,11.433,2.182,2.988,4.225-3.218,6.578,6.543,3.606,14.953,1.963,44.056-2.844,47.289l-.047,12.071h-4.894l-.047-12.071c-2.884-1.309-4.7-13.92-4.838-26.8,1.324,1,3.409-1.453,4.577-.057.465.555.424,4.9,1.029,5.871,1.074,1.724,4.765,1.961,4.167-6.828-.3-4.448-3.338-2.9-4.467-3.99-6.871-6.629-7.087-47.627-.468-54.552l.047-12.071Z" transform="translate(-243.284)" fill="#92d8fe"/>
          <path id="Trazado_886245" data-name="Trazado 886245" d="M64.384,34.416c-.863,16.837,1.663,11.276,3.313,20.555A102.756,102.756,0,0,1,68.829,73.3c-1.326-1-3.413,1.442-4.58.048-.464-.556-.423-4.892-1.029-5.868-.685-1.1-3.122-1.134-3.534,1.585l-.219,7.1c2.343,6.878,4.44-.5,6.916,7.363,3.009,9.559,3.487,31.284.89,42.959-1.75,7.864-3.612,2.2-2.887,18.426H59.492c.564-13.4-1.21-10.93-2.824-16.673-1.518-5.4-2.25-13.37-2.066-22.209,1.326,1,3.413-1.443,4.581-.048.537.642.455,9.038,3.646,6.178,1.317-1.18,1.16-4.7,1.111-10.214-5.333,2.765-10.619-9.192-9.242-37.428.837-17.159,5.425-12.915,4.8-30.1Z" transform="translate(-42.641)" fill="#92d8fe"/>
          <path id="Trazado_886246" data-name="Trazado 886246" d="M577.566,34.417c-.705,14.1,1.927,12.416,3.4,19.116A94.448,94.448,0,0,1,582.456,73.3c-1.326-1-3.414,1.444-4.581.049-.464-.557-.423-4.893-1.029-5.868-.685-1.1-3.122-1.114-3.536,1.577l-.153,7.1c.422,5.91,4.031,2.165,5.41,3.777,3.893,4.549,5.263,33.382,2.331,46.559-1.563,7.026-4.012,4.357-3.333,18.422l-4.893,0c.393-15.027-.145-9.635-1.56-14.216-2-6.469-3.1-12.524-2.884-24.664,1.187.588,2.647-.985,3.774.028.958.86,1.227,4.782,1.872,5.687,1.88,2.631,4.27,1.365,3.691-9.8-5.434,2.494-10.516-8.748-9.232-37.4A89.371,89.371,0,0,1,569.777,52.8c1.7-7.232,3.644-1.857,2.9-18.381Z" transform="translate(-444.704)" fill="#92d8fe"/>
        </g>
      </g>
      <g id="Grupo_1112144" data-name="Grupo 1112144" transform="translate(6.297 6.296)">
        <g id="Grupo_1112143" data-name="Grupo 1112143" clip-path="url(#clip-path-4)">
          <path id="Trazado_886247" data-name="Trazado 886247" d="M188.884,370.08c4.53.193,3.252,4.943,3.406,8.1l1.989.2c.282.179.322.661.355.972.314,3.006-.228,6.518-.006,9.582-.206,1.1-1.52.694-2.338.75-.184,3.6,1.238,7.886-3.719,8.315-9.574-.555-19.928.712-29.41,0-1.868-.14-3.176-.71-3.831-2.559l-.11-24.4.312-.753,29.4-6.595c4.087-.163,4.163,3.193,3.95,6.4m-2.343,0v-3.3c0-.706-1.213-.916-1.788-.723-5.532,1.414-11.211,2.294-16.741,3.708-.245.063-.691-.013-.64.316Zm3.408,8.094v-5.218a3.563,3.563,0,0,0-.532-.533H157.573v22.471c0,.432,1.194.719,1.587.755,9.256.853,19.807-.668,29.2,0,.382.154,1.587-.482,1.587-.755v-5.218h-6.5c-.572,0-1.493-1.448-1.584-2.037a46.882,46.882,0,0,1,.086-7.767c.121-.465,1.049-1.7,1.5-1.7Zm2.343,2.343H184.2v6.816h8.094Z" transform="translate(-139.061 -325.816)" fill="#92d8fe"/>
          <path id="Trazado_886248" data-name="Trazado 886248" d="M265.463.082c12.277-.45,12.879,18.349.569,18.7-12.024.348-12.741-18.258-.569-18.7m-.223,2.348c-9.136.835-7.878,14.6,1,14,9.326-.631,8.079-14.831-1-14" transform="translate(-229.947 -0.066)" fill="#92d8fe"/>
          <path id="Trazado_886249" data-name="Trazado 886249" d="M8.675.019c12.218-.709,13.189,18.223.789,18.7C-2.448,19.171-3.562.729,8.675.019m0,2.339C-1.756,3.174,1.6,19.606,11.693,15.827c7.41-2.773,4.792-14.08-3.021-13.469" transform="translate(0 0)" fill="#92d8fe"/>
          <path id="Trazado_886250" data-name="Trazado 886250" d="M520.581.108c8.919-.4,13.319,11.135,6.2,16.644-7.34,5.677-17.425-1.587-14.562-10.3A9.589,9.589,0,0,1,520.581.108m-.005,2.338c-10.56.826-7.012,17.285,3.021,13.469,7.4-2.817,4.689-14.072-3.021-13.469" transform="translate(-458.443 -0.088)" fill="#92d8fe"/>
          <path id="Trazado_886251" data-name="Trazado 886251" d="M489.381,228.392l1.924-.546.755,2.043a42.562,42.562,0,0,1-5.287,2.2,1.36,1.36,0,0,1-1.642-1.258c-.271-1.752-.283-3.844-.439-5.634h2.345l0,1.811.423.106,5-8.276,1.79,1.315Z" transform="translate(-434.233 -196.056)" fill="#92d8fe"/>
          <path id="Trazado_886252" data-name="Trazado 886252" d="M119.962,227.647l.423-.106.206-1.93,2.137.119c-.156,1.789-.167,3.882-.439,5.634a1.318,1.318,0,0,1-1.428,1.252,45.008,45.008,0,0,1-5.5-2.189l.758-2.051,1.616.539.3-.3-4.8-8.2,1.829-.974Z" transform="translate(-101.446 -196.589)" fill="#92d8fe"/>
          <path id="Trazado_886253" data-name="Trazado 886253" d="M308.491,212.419v9.159l1.381-1.693,1.775,1.371a40.024,40.024,0,0,1-3.478,4.792,1.493,1.493,0,0,1-1.7,0,40.984,40.984,0,0,1-3.478-4.792l1.775-1.371,1.381,1.693v-9.159Z" transform="translate(-271.449 -190.305)" fill="#92d8fe"/>
          <rect id="Rectángulo_405825" data-name="Rectángulo 405825" width="2.345" height="2.345" transform="translate(47.478 57.044)" fill="#92d8fe"/>
          <path id="Trazado_886254" data-name="Trazado 886254" d="M315.494,34.416l.023,1.257a2.794,2.794,0,0,1,2.319,2.79c-.63-.072-1.423.115-2.02,0-.459-.09-.586-.494-.9-.592-1.44-.453-2.4.832-1.191,1.19,1.046.311,2.024-.335,3.152.681a2.855,2.855,0,0,1-1.363,4.923l-.023,1.257h-2.345l-.023-1.257a2.794,2.794,0,0,1-2.319-2.79c.635.1,1.634-.151,2.193-.006.223.058.2.51.493.611.515.179,2.284.2,2-.711-.145-.463-1.6-.3-2.141-.415a2.878,2.878,0,0,1-.224-5.679l.023-1.257Z" transform="translate(-278.451 -30.833)" fill="#92d8fe"/>
          <path id="Trazado_886255" data-name="Trazado 886255" d="M59.224,34.416c-.414,1.753.8,1.174,1.588,2.14a2.693,2.693,0,0,1,.542,1.908c-.635-.1-1.636.15-2.195,0-.223-.058-.2-.509-.493-.611-.328-.115-1.5-.118-1.693.165l-.105.74c1.123.716,2.128-.052,3.314.767A3,3,0,0,1,60.607,44c-.839.819-1.731.229-1.384,1.918H56.879c.27-1.395-.58-1.138-1.353-1.736a2.534,2.534,0,0,1-.99-2.312c.636.1,1.636-.15,2.195,0,.257.067.218.941,1.747.643.631-.123.556-.489.533-1.063-2.556.288-5.089-.957-4.429-3.9.4-1.786,2.6-1.345,2.3-3.134Z" transform="translate(-48.804 -30.833)" fill="#92d8fe"/>
          <path id="Trazado_886256" data-name="Trazado 886256" d="M572.654,34.416c-.338,1.468.923,1.293,1.631,1.99A2.634,2.634,0,0,1,575,38.464c-.636-.1-1.636.15-2.2.005-.223-.058-.2-.509-.493-.611-.328-.115-1.5-.116-1.694.164l-.073.739c.2.615,1.931.225,2.592.393,1.866.474,2.522,3.475,1.117,4.847-.749.731-1.922.454-1.6,1.918h-2.344c.188-1.564-.07-1-.748-1.48a2.558,2.558,0,0,1-1.382-2.568c.569.061,1.268-.1,1.809,0,.459.09.588.5.9.592.9.274,2.046.142,1.769-1.02-2.6.26-5.039-.911-4.424-3.893a3.042,3.042,0,0,1,.691-1.224c.816-.753,1.746-.193,1.388-1.914Z" transform="translate(-508.987 -30.833)" fill="#92d8fe"/>
        </g>
      </g>
    </g>
  </g>
</svg>
