<svg xmlns="http://www.w3.org/2000/svg" xmlns:xlink="http://www.w3.org/1999/xlink" width="90.184" height="90.184" viewBox="0 0 90.184 90.184">
  <defs>
    <clipPath id="clip-path">
      <rect id="Rectángulo_406973" data-name="Rectángulo 406973" width="56.866" height="54.192" fill="none"/>
    </clipPath>
    <clipPath id="clip-path-3">
      <rect id="Rectángulo_406942" data-name="Rectángulo 406942" width="15.232" height="7.203" fill="none"/>
    </clipPath>
  </defs>
  <g id="Grupo_1113901" data-name="Grupo 1113901" transform="translate(-1174.711 -11469)">
    <g id="Grupo_1112372" data-name="Grupo 1112372" transform="translate(1174.711 11469)">
      <g id="Grupo_1073526" data-name="Grupo 1073526" transform="translate(0 0)">
        <g id="Grupo_1072785" data-name="Grupo 1072785" transform="translate(0 0)">
          <path id="Trazado_608385" data-name="Trazado 608385" d="M45.092,0A45.092,45.092,0,1,1,0,45.092,45.092,45.092,0,0,1,45.092,0Z" transform="translate(0 0)" fill="none"/>
        </g>
        <g id="Grupo_1073383" data-name="Grupo 1073383" transform="translate(0 0)">
          <path id="Trazado_608385-2" data-name="Trazado 608385" d="M45.092,0A45.092,45.092,0,1,1,0,45.092,45.092,45.092,0,0,1,45.092,0Z" transform="translate(0 0)" fill="#fff"/>
        </g>
      </g>
    </g>
    <g id="Grupo_1112378" data-name="Grupo 1112378" transform="translate(772.574 5442.531)">
      <rect id="Rectángulo_401104" data-name="Rectángulo 401104" width="59" height="59" transform="translate(418.137 6042.469)" fill="none"/>
      <g id="Grupo_1113863" data-name="Grupo 1113863" transform="translate(419.137 6044.468)">
        <g id="Grupo_1113862" data-name="Grupo 1113862" clip-path="url(#clip-path)">
          <path id="Trazado_887837" data-name="Trazado 887837" d="M43.737,65.834H27.119L28.74,54.661H42.117Z" transform="translate(-6.995 -14.1)" fill="#bbb"/>
          <g id="Grupo_1113861" data-name="Grupo 1113861" transform="translate(0 0)">
            <g id="Grupo_1113860" data-name="Grupo 1113860" clip-path="url(#clip-path)">
              <g id="Grupo_1113859" data-name="Grupo 1113859" transform="translate(20.699 40.561)" opacity="0.5" style="mix-blend-mode: multiply;isolation: isolate">
                <g id="Grupo_1113858" data-name="Grupo 1113858">
                  <g id="Grupo_1113857" data-name="Grupo 1113857" clip-path="url(#clip-path-3)">
                    <path id="Trazado_887838" data-name="Trazado 887838" d="M43.127,60.247,27.9,61.864l1.044-7.2H42.317Z" transform="translate(-27.895 -54.661)" fill="#bbb"/>
                  </g>
                </g>
              </g>
              <path id="Trazado_887839" data-name="Trazado 887839" d="M55.534,42.549H1.331A1.331,1.331,0,0,1,0,41.218V1.33A1.331,1.331,0,0,1,1.331,0h54.2a1.331,1.331,0,0,1,1.331,1.33V41.218a1.331,1.331,0,0,1-1.331,1.331" transform="translate(0 0)" fill="#e5e5e5"/>
              <path id="Trazado_887840" data-name="Trazado 887840" d="M46.286,72.006l-25.13-.026c-.582,0-.807-.321-.516-.7l1.31-1.7a1.793,1.793,0,0,1,1.283-.523l20.993.022a1.791,1.791,0,0,1,1.284.528l1.3,1.7c.288.378.061.7-.519.7" transform="translate(-5.291 -17.815)" fill="#474656"/>
              <rect id="Rectángulo_406943" data-name="Rectángulo 406943" width="49.953" height="31.145" transform="translate(3.275 2.936)" fill="#474656"/>
              <rect id="Rectángulo_406944" data-name="Rectángulo 406944" width="47.744" height="28.59" transform="translate(4.38 4.213)" fill="#1db2cc"/>
              <rect id="Rectángulo_406945" data-name="Rectángulo 406945" width="41.346" height="27.859" transform="translate(5.652 4.944)" fill="#fff"/>
              <rect id="Rectángulo_406946" data-name="Rectángulo 406946" width="16.82" height="1.218" transform="translate(7.186 13.066)" fill="#ccc"/>
              <rect id="Rectángulo_406947" data-name="Rectángulo 406947" width="10.166" height="1.218" transform="translate(25.538 13.066)" fill="#ccc"/>
              <rect id="Rectángulo_406948" data-name="Rectángulo 406948" width="8.18" height="1.218" transform="translate(37.304 13.066)" fill="#ccc"/>
              <rect id="Rectángulo_406949" data-name="Rectángulo 406949" width="11.816" height="1.218" transform="translate(7.186 15.576)" fill="#ccc"/>
              <rect id="Rectángulo_406950" data-name="Rectángulo 406950" width="11.813" height="1.218" transform="translate(20.953 15.576)" fill="#ccc"/>
              <rect id="Rectángulo_406951" data-name="Rectángulo 406951" width="10.854" height="1.218" transform="translate(34.63 15.576)" fill="#ccc"/>
              <rect id="Rectángulo_406952" data-name="Rectángulo 406952" width="16.82" height="1.218" transform="translate(7.186 18.005)" fill="#ccc"/>
              <rect id="Rectángulo_406953" data-name="Rectángulo 406953" width="10.166" height="1.218" transform="translate(25.538 18.005)" fill="#ccc"/>
              <rect id="Rectángulo_406954" data-name="Rectángulo 406954" width="8.18" height="1.218" transform="translate(37.304 18.005)" fill="#ccc"/>
              <rect id="Rectángulo_406955" data-name="Rectángulo 406955" width="11.816" height="1.218" transform="translate(7.186 20.515)" fill="#ccc"/>
              <rect id="Rectángulo_406956" data-name="Rectángulo 406956" width="11.813" height="1.218" transform="translate(20.953 20.515)" fill="#ccc"/>
              <rect id="Rectángulo_406957" data-name="Rectángulo 406957" width="10.854" height="1.218" transform="translate(34.63 20.515)" fill="#ccc"/>
              <rect id="Rectángulo_406958" data-name="Rectángulo 406958" width="16.82" height="1.218" transform="translate(7.186 23.1)" fill="#ccc"/>
              <rect id="Rectángulo_406959" data-name="Rectángulo 406959" width="10.166" height="1.218" transform="translate(25.538 23.1)" fill="#ccc"/>
              <rect id="Rectángulo_406960" data-name="Rectángulo 406960" width="8.18" height="1.218" transform="translate(37.304 23.1)" fill="#ccc"/>
              <rect id="Rectángulo_406961" data-name="Rectángulo 406961" width="11.816" height="1.218" transform="translate(7.186 25.611)" fill="#ccc"/>
              <rect id="Rectángulo_406962" data-name="Rectángulo 406962" width="11.813" height="1.218" transform="translate(20.953 25.611)" fill="#ccc"/>
              <rect id="Rectángulo_406963" data-name="Rectángulo 406963" width="10.854" height="1.218" transform="translate(34.63 25.611)" fill="#ccc"/>
              <rect id="Rectángulo_406964" data-name="Rectángulo 406964" width="16.82" height="1.218" transform="translate(7.186 28.041)" fill="#ccc"/>
              <rect id="Rectángulo_406965" data-name="Rectángulo 406965" width="10.166" height="1.218" transform="translate(25.538 28.041)" fill="#ccc"/>
              <rect id="Rectángulo_406966" data-name="Rectángulo 406966" width="8.18" height="1.218" transform="translate(37.304 28.041)" fill="#ccc"/>
              <rect id="Rectángulo_406967" data-name="Rectángulo 406967" width="11.816" height="1.218" transform="translate(7.186 30.55)" fill="#ccc"/>
              <rect id="Rectángulo_406968" data-name="Rectángulo 406968" width="11.813" height="1.218" transform="translate(20.953 30.55)" fill="#ccc"/>
              <rect id="Rectángulo_406969" data-name="Rectángulo 406969" width="10.854" height="1.218" transform="translate(34.63 30.55)" fill="#ccc"/>
              <rect id="Rectángulo_406970" data-name="Rectángulo 406970" width="41.346" height="5.384" transform="translate(5.652 4.944)" fill="#474656"/>
              <path id="Trazado_887841" data-name="Trazado 887841" d="M38.992,51.955a1.036,1.036,0,1,1-1.036-1.036,1.036,1.036,0,0,1,1.036,1.036" transform="translate(-9.523 -13.135)" fill="#bbb"/>
              <rect id="Rectángulo_406971" data-name="Rectángulo 406971" width="32.594" height="16.021" transform="matrix(0.993, -0.117, 0.117, 0.993, 0.496, 24.21)" fill="#75bd38"/>
              <path id="Trazado_887842" data-name="Trazado 887842" d="M33.406,39.208l-.7-5.976c-1.181.015-3.165.105-3.951-3.035L7.084,32.753c-.033,3.442-2.229,3.715-3.342,3.916l.7,5.956c1.152-.068,3.425-.3,4.216,3.241l20.955-2.472c-.063-4.193,2.947-4.132,3.79-4.187" transform="translate(-0.965 -7.789)" fill="#e8f2de"/>
              <path id="Trazado_887843" data-name="Trazado 887843" d="M33.175,38.9a1.968,1.968,0,1,1,2.187,1.725A1.969,1.969,0,0,1,33.175,38.9" transform="translate(-8.554 -9.466)" fill="#75bd38"/>
              <path id="Trazado_887844" data-name="Trazado 887844" d="M10.182,41.608a1.967,1.967,0,1,1,2.182,1.725,1.967,1.967,0,0,1-2.182-1.725" transform="translate(-2.623 -10.166)" fill="#75bd38"/>
              <path id="Trazado_887845" data-name="Trazado 887845" d="M17.072,39.64a4.94,4.94,0,1,1,5.485,4.327,4.94,4.94,0,0,1-5.485-4.327" transform="translate(-4.395 -8.802)" fill="#75bd38"/>
              <path id="Trazado_887846" data-name="Trazado 887846" d="M20.309,38.408a1.617,1.617,0,0,0,1.606,1.323c.2-.02.378-.03.543-.032l.238,2.015a.721.721,0,0,1-.622-.89l-1.218.143s-.275,1.949,1.982,1.956l.019.167a.429.429,0,0,0,.853-.1l-.017-.143c1.944-.347,1.822-1.63,1.711-2.354-.108-.7-.355-1.581-2.194-1.735l-.237-2.014c.768.183.7,1.175.7,1.175l1.4-.165c-.02-.655-.206-1.872-2.2-1.817l-.04-.34a.429.429,0,0,0-.853.1l.039.327c-1.388.242-1.91.89-1.716,2.384m3.835,2.172a.96.96,0,0,1-.6,1.04l-.214-1.814c.792.234.809.775.809.775m-2.024-3.744.218,1.851a.944.944,0,0,1-.218-1.851" transform="translate(-5.229 -9.088)" fill="#e8f2de"/>
              <path id="Trazado_887847" data-name="Trazado 887847" d="M40.635,22.476s6.647,5.194.241,5.815c-.37.036-.357-2.225-.821-2.189-8.208.63-10.5.963-10.5.963s.541-10.6,11.083-4.59" transform="translate(-7.623 -5.322)" fill="#de955f"/>
              <path id="Trazado_887848" data-name="Trazado 887848" d="M30.594,35.9s-1.309-2,4.4-5.769a26.6,26.6,0,0,0,4.115-3.424,2.322,2.322,0,0,0-.752-3.744l-2.71-1.183L31.94,22.788l-2.35,2.944-3.486.4,2.533-4.672,4.42-4.473a3.732,3.732,0,0,1,3.363-1.046c4.478.861,15.252,2.739,16.974,1.25,0,0,3.366-.7,4.724-1,0,0,6.1,5.128,4.075,6.9,0,0-8.894,2.358-9.713,3.1-2.237,2.017-5.122,4.316-9.052,4.895,0,0-1.943,0-5.466,2.67C31.551,38.6,30.594,35.9,30.594,35.9" transform="translate(-6.733 -4.095)" fill="#fcc083"/>
              <path id="Trazado_887849" data-name="Trazado 887849" d="M35.089,38.27a.81.81,0,0,0-.993.136c-.6.61-1.582,1.768-1.241,2.57.485,1.135,2.255.48,3.145-.029a.829.829,0,0,0,.394-.937,2.9,2.9,0,0,0-1.305-1.739" transform="translate(-8.457 -9.843)" fill="#faecd0"/>
              <path id="Trazado_887850" data-name="Trazado 887850" d="M70.027,13.178l2.3,12.534-8.971.754-2.3-12.534Z" transform="translate(-15.749 -3.399)" fill="#474656"/>
            </g>
          </g>
        </g>
      </g>
    </g>
  </g>
</svg>
