<svg xmlns="http://www.w3.org/2000/svg" xmlns:xlink="http://www.w3.org/1999/xlink" width="122" height="122" viewBox="0 0 122 122">
  <defs>
    <clipPath id="clip-path">
      <rect id="Rectángulo_404919" data-name="Rectángulo 404919" width="122" height="122" fill="none"/>
    </clipPath>
    <clipPath id="clip-path-2">
      <rect id="Rectángulo_404925" data-name="Rectángulo 404925" width="60" height="60" transform="translate(-3.121)" fill="#fff" stroke="#707070" stroke-width="1"/>
    </clipPath>
    <clipPath id="clip-path-3">
      <rect id="Rectángulo_406050" data-name="Rectángulo 406050" width="49.947" height="52.878" fill="#fff"/>
    </clipPath>
  </defs>
  <g id="Grupo_1112262" data-name="Grupo 1112262" transform="translate(-179.664 -3667)">
    <g id="Grupo_1110094" data-name="Grupo 1110094" transform="translate(179.664 3667)">
      <g id="Grupo_1110058" data-name="Grupo 1110058" clip-path="url(#clip-path)">
        <path id="Trazado_883529" data-name="Trazado 883529" d="M4.833,30,18.4,105.124c1.993,11.036,12.965,18.438,24.506,16.532a21.661,21.661,0,0,0,9.963-4.4l61.257-48.8A19.672,19.672,0,0,0,116.844,39.9a21.222,21.222,0,0,0-8.966-6.05L33.054,7.521C22.063,3.652,9.874,9.037,5.829,19.546A19.436,19.436,0,0,0,4.833,30" transform="translate(0.242 0.045)" fill="#0354a5"/>
        <path id="Trazado_883530" data-name="Trazado 883530" d="M120.213,86.305h0a20.942,20.942,0,0,1-6.082,8.079,21.885,21.885,0,0,1-9.986,4.527L25.824,113.2C14.063,115.378,2.679,108.03.4,96.785A19.878,19.878,0,0,1,1.23,85.949l26.226-72c.122-.336.254-.673.393-1A21.378,21.378,0,0,1,44.442.284a22.817,22.817,0,0,1,10.636.831,21.614,21.614,0,0,1,9.353,6.1l52.094,57.712a19.905,19.905,0,0,1,3.689,21.382M28.825,13.331c-.132.313-.259.635-.375.955l-26.225,72C-1.53,96.6,4.171,107.867,14.957,111.458a21.593,21.593,0,0,0,10.67.749l78.319-14.284c11.218-2.046,18.578-12.4,16.439-23.126a19.433,19.433,0,0,0-4.659-9.215L63.632,7.869A21.344,21.344,0,0,0,34.464,5.823a19.823,19.823,0,0,0-5.639,7.508" transform="translate(0 0)" fill="#1d6350"/>
      </g>
    </g>
    <g id="Enmascarar_grupo_1108078" data-name="Enmascarar grupo 1108078" transform="translate(210.664 3698)" clip-path="url(#clip-path-2)">
      <g id="Grupo_1112545" data-name="Grupo 1112545" transform="translate(1.879 4)">
        <g id="Grupo_1112544" data-name="Grupo 1112544" clip-path="url(#clip-path-3)">
          <path id="Trazado_886839" data-name="Trazado 886839" d="M43.263,20.588a11.918,11.918,0,0,1-7.578,0v20.84a1.887,1.887,0,0,1-.834.834H31.744l7.785,8.78,7.827-8.78H44.1c-.28,0-.772-.967-.82-1.3a42.229,42.229,0,0,1-.013-6.5c.1-1.017.423-1.2,1.417-.846a1.955,1.955,0,0,1,.25.542v6.593h3.41c.646,0,1.32,1.311.812,1.874-2.67,2.913-5.193,6.217-7.933,9.041-.565.583-1.049,1.309-1.933,1.181-.976-.142-2.223-2.371-3.071-3-1.253,1.114-2.965,2.852-4.7,3.027l-29.56.008C-.514,52.816.066,50.155.061,48.4c0-.578,0-1.053,0-1.656,0-2.913,0-5.827,0-8.643,0-1.5,0-3.02,0-4.4,0-1.933-.591-4.161,1.917-4.458.939-.111,5.812.138,6.1-.042A17.211,17.211,0,0,1,18.1,20.586c-.845-1.532-.677-3.831,1.208-4.4l.008-.217L15.75,9.68c-.556-3.1,3.112-1.516,4.526-2,.409-.14.309-.932,1.533-1.044a27.576,27.576,0,0,1,4.244.015c.776.141.979,1.032,1.093,1.06L29.3,7.684C32.01-1.777,45.277-2.823,49.245,6.346c.364.84,1.459,3.314-.29,3.027-.624-.1-.777-1.559-1.029-2.162C44.9-.063,34.309-.429,31.312,6.742c-.575,1.375-.234.783.316,1.61.925,1.393-1.071,2.576-1.1,3.665a7.47,7.47,0,0,0,.5,1.79,9.1,9.1,0,0,0,17.012-.043c.279-.732.258-2.28,1.215-2.285,1.09-.006.619,1.493.454,2.136a11.205,11.205,0,0,1-4.748,6.165l-.04,10.57c-.067.465-.2.865-.7.974-.324.125-.95-.409-.95-.656ZM25.53,8.16H22.044a6,6,0,0,0,.019.815,50.359,50.359,0,0,0,1.217,6.518c.094.335-.007.5.354.558a2.5,2.5,0,0,0,.524-.018Zm-5,1.061H17.345L21,15.8c.48.427.813.461.724-.268-.254-2.066-.878-4.238-1.194-6.309m9.549,0H26.894l-1.207,6.6c-.065.464.716.184.823-.089l3.448-5.95Zm4.092,10.458a9.783,9.783,0,0,1-4.7-5.759l-1.354,2.048c1.867.844,2.152,2.948,1.2,4.619a17.013,17.013,0,0,1,4.85,2.427Zm-14.656.1a2.267,2.267,0,0,0,.934.2,47.188,47.188,0,0,0,6.968-.014,1.263,1.263,0,0,0,.017-2.424,51.257,51.257,0,0,0-7.425.017c-1.049.165-1.1,1.776-.494,2.217M34.169,40.746V25.059a15.088,15.088,0,0,0-5.878-3.216A23.029,23.029,0,0,0,18.677,22a16.642,16.642,0,0,0-8.911,7.231h3.41c.907,0,1.628,1.235,1.726,2.063.165,1.386-.379,2.342-.379,3.166,0,.229.358.994.4,1.51a15.737,15.737,0,0,1-.4,2.885c0,.212.348.916.394,1.366a10.428,10.428,0,0,1-.084,2.2c.354.494,6.049-.225,7.114.319,1.236.632.859,2.921.859,4.153,0,.551-.006.951,0,1.507.011.986-.019,1.975-.005,2.96h8.563a5.2,5.2,0,0,0,1.791-.937l1.93-1.711-5.2-6.029c-.4-.527.109-1.932.718-1.932ZM13.253,30.895H1.582v2.728H7.266c.868,0,.868,1.667,0,1.667H1.582v2.728H13.253V35.29h-2.5c-.868,0-.868-1.667,0-1.667h2.5Zm0,8.791H1.582v2.652l.227.227H13.025l.227-.227ZM8.1,44.081H1.582v2.652l.227.227H7.872l.227-.227Zm13.186,0H9.615v2.652l.227.227H21.058l.227-.227ZM8.1,48.476H1.809l-.227.227v2.425l.227.227H8.1Zm13.186,0H9.843l-.227.227v2.425l.227.227H21.058l.227-.227Z" transform="translate(0 0)" fill="#fff"/>
          <path id="Trazado_886840" data-name="Trazado 886840" d="M237.677,42.307a.921.921,0,0,1-.074-.981c1.957-3.015,3.344-7.083,5.312-10,.692-1.026,1.614-.886,1.582.362l-5.517,10.4c-.17.5-1,.521-1.3.215" transform="translate(-201.5 -25.999)" fill="#fff"/>
          <path id="Trazado_886841" data-name="Trazado 886841" d="M269.592,75.878c3.193-.465,3.976,4.385.987,4.933-3.629.666-4.122-4.476-.987-4.933m-.01,1.664a.949.949,0,0,0-.069,1.676c1.6.755,1.99-2.266.069-1.676" transform="translate(-226.972 -64.351)" fill="#fff"/>
          <path id="Trazado_886842" data-name="Trazado 886842" d="M223.329,30.8c3.651-.619,4.053,4.722.7,4.954-3.152.218-3.595-4.463-.7-4.954m.3,1.5c-1.132.205-.8,1.949.239,1.908a.962.962,0,1,0-.239-1.908" transform="translate(-187.836 -26.091)" fill="#fff"/>
          <path id="Trazado_886843" data-name="Trazado 886843" d="M132.583,173.877c1.959-.387,4.283,1.47,3.415,3.489a.952.952,0,0,1-1.081.012c-.374-.3-.1-1.467-1.033-1.846a9.587,9.587,0,0,0-4.167.1c-1.018.566-.912,2.852.374,3.087,2,.364,5.014-.878,5.944,1.937.861,2.606-.683,4.769-3.452,4.587l-.074,1.517c-1.3.99-1.593-.37-1.44-1.517a3.216,3.216,0,0,1-3.471-2.216c-.139-.559-.226-1.432.549-1.547,1.215-.179.584,1.788,1.817,2.064a23.323,23.323,0,0,0,3.753.029c1.08-.2,1.333-2.219.575-2.883-1.122-.983-3.83.017-5.274-.747-2.946-1.558-1.527-6.758,2.051-6.066-.155-1.107.1-2.593,1.441-1.669Z" transform="translate(-108.115 -145.862)" fill="#fff"/>
        </g>
      </g>
    </g>
  </g>
</svg>
