<svg xmlns="http://www.w3.org/2000/svg" xmlns:xlink="http://www.w3.org/1999/xlink" width="150" height="150" viewBox="0 0 150 150">
  <defs>
    <clipPath id="clip-path">
      <rect id="Rectángulo_404919" data-name="Rectángulo 404919" width="150" height="150" fill="none"/>
    </clipPath>
    <clipPath id="clip-path-2">
      <rect id="Rectángulo_404925" data-name="Rectángulo 404925" width="60" height="60" fill="#fff" stroke="#707070" stroke-width="1"/>
    </clipPath>
    <clipPath id="clip-path-3">
      <rect id="Rectángulo_406051" data-name="Rectángulo 406051" width="53.763" height="53.782" fill="#fff"/>
    </clipPath>
  </defs>
  <g id="Grupo_1112269" data-name="Grupo 1112269" transform="translate(-179.664 -3667)">
    <g id="Grupo_1110094" data-name="Grupo 1110094" transform="translate(179.664 3667)">
      <g id="Grupo_1110058" data-name="Grupo 1110058" clip-path="url(#clip-path)">
        <path id="Trazado_883529" data-name="Trazado 883529" d="M4.9,35.444l16.68,92.369c2.45,13.569,15.941,22.669,30.131,20.326a26.632,26.632,0,0,0,12.25-5.412l75.316-60a24.187,24.187,0,0,0,3.343-35.112A26.093,26.093,0,0,0,131.6,40.179l-92-32.37C26.088,3.052,11.1,9.673,6.129,22.593A23.9,23.9,0,0,0,4.9,35.444" transform="translate(1.335 1.494)" fill="#023263"/>
        <path id="Trazado_883530" data-name="Trazado 883530" d="M147.8,106.113h0a25.748,25.748,0,0,1-7.478,9.933,26.908,26.908,0,0,1-12.278,5.565l-96.3,17.565C17.29,141.859,3.294,132.824.488,119a24.44,24.44,0,0,1,1.024-13.323L33.758,17.153c.15-.414.312-.827.483-1.23A26.285,26.285,0,0,1,54.641.349,28.053,28.053,0,0,1,67.719,1.371a26.574,26.574,0,0,1,11.5,7.495l64.049,70.958a24.474,24.474,0,0,1,4.536,26.289M35.441,16.39c-.162.385-.319.78-.461,1.174L2.735,106.084c-4.616,12.681,2.393,26.539,15.655,30.954a26.549,26.549,0,0,0,13.119.921L127.8,120.4c13.792-2.515,22.841-15.245,20.212-28.434a23.893,23.893,0,0,0-5.728-11.33L78.237,9.675A26.243,26.243,0,0,0,42.374,7.159a24.372,24.372,0,0,0-6.933,9.231" transform="translate(0 0)" fill="#41c9a5"/>
      </g>
    </g>
    <g id="Enmascarar_grupo_1108078" data-name="Enmascarar grupo 1108078" transform="translate(224.664 3712)" clip-path="url(#clip-path-2)">
      <g id="Grupo_1112547" data-name="Grupo 1112547" transform="translate(3.866 2.218)">
        <g id="Grupo_1112546" data-name="Grupo 1112546" clip-path="url(#clip-path-3)">
          <path id="Trazado_886844" data-name="Trazado 886844" d="M189.768,128.294c.226.234,1.6,1.7,1.628,1.813a.744.744,0,0,1-.569.971c-.926.066-2.809-2.6-3.656-3.147l-1.322,1.322,5.489,5.527a.747.747,0,0,1-1.124.962l-5.436-5.414c-2.175,1.671-3.588.131-5.114-1.432a11.879,11.879,0,1,1,7.162-7.139c1.571,1.543,3.184,2.9,1.415,5.1.05.29,1.267,1.162,1.528,1.433m-15.29-20.9c-13.264,1.419-11.491,21.887,2.186,20.686,13.482-1.183,11.733-22.175-2.186-20.686m6.734,20.691c-.16.215,1.191,1.829,2.23,1.35l3.839-3.816c.624-1.084-.4-1.63-1.045-2.319-1.3,1.952-2.786,3.887-5.023,4.784" transform="translate(-137.674 -88.974)" fill="#fff"/>
          <path id="Trazado_886845" data-name="Trazado 886845" d="M0,1.867A2.709,2.709,0,0,1,1.622.14C13.417-.009,25.31-.1,37.087.185a2.786,2.786,0,0,1,1.507,1.682V15.423c0,.5-1.435.5-1.435,0V2.345a1.428,1.428,0,0,0-1.348-.885H2.783a1.428,1.428,0,0,0-1.348.885V45.724c0,.5-1.435.5-1.435,0Z" transform="translate(0 0)" fill="#fff"/>
          <path id="Trazado_886846" data-name="Trazado 886846" d="M29.625,201.07c12.6-1.433,14.086,17.279,2.027,18.294-11.911,1-13.5-16.989-2.027-18.294m.514,1.551a7.453,7.453,0,0,0-6.457,4.786c-2.741,7.428,5.983,13.653,12.036,8.69l-5.579-5.582Zm8.293,6.858a7.257,7.257,0,0,0-6.858-6.858v6.858Zm0,1.435H32.691l4.067,4.143c.464,0,2.032-3.461,1.675-4.143" transform="translate(-18.338 -168.937)" fill="#fff"/>
          <path id="Trazado_886847" data-name="Trazado 886847" d="M1.435,271.021c.118.7.7.872,1.349.883l33.463-.04a1.22,1.22,0,0,0,.9-1.012c.411-2.632-.353-6.257,0-8.929a.737.737,0,0,1,.232-.566c.757-.348,1.128-.039,1.211.731a61.19,61.19,0,0,1,0,8.934,2.71,2.71,0,0,1-1.75,2.237l-34.692.075A2.644,2.644,0,0,1,0,271.5v-3.828c0-.5,1.435-.5,1.435,0a26.325,26.325,0,0,0,0,3.349" transform="translate(0 -219.557)" fill="#fff"/>
          <path id="Trazado_886848" data-name="Trazado 886848" d="M66.818,32.205c.575.173.555,3.565.133,3.839-1.66.655-1.08-1.394-1.169-2.4H63.868V47.356c.433-.079,1.732.224,1.891-.262l.027-8.745c.157-.825,1.308-.833,1.431.312a65.262,65.262,0,0,1,.007,9.1c-.063.755-.08.945-.881,1.03a20.128,20.128,0,0,1-3.591-.079,1.3,1.3,0,0,1-.486-1.109c.335-4.626-.418-9.811,0-14.368a1.287,1.287,0,0,1,.406-1.029Z" transform="translate(-52.226 -27.069)" fill="#fff"/>
          <path id="Trazado_886849" data-name="Trazado 886849" d="M21.6,52.974a26.672,26.672,0,0,1,3.792-.028c.438.085.539.395.652.783-.164,3.541.458,7.79.069,11.254-.044.388-.174,1.041-.589,1.166a26.936,26.936,0,0,1-3.793.026.615.615,0,0,1-.531-.426l.047-12.488a.607.607,0,0,1,.352-.286m2.918,1.4H22.6V64.743h1.914Z" transform="translate(-17.82 -44.457)" fill="#fff"/>
          <path id="Trazado_886850" data-name="Trazado 886850" d="M106.6,73.971a26.213,26.213,0,0,1,3.791-.028.614.614,0,0,1,.531.426l-.047,9.139a.607.607,0,0,1-.352.286,26.214,26.214,0,0,1-3.791.028.615.615,0,0,1-.531-.426l.047-9.139a.607.607,0,0,1,.352-.286m2.918,1.4H107.6v7.017h1.914Z" transform="translate(-89.264 -62.105)" fill="#fff"/>
          <path id="Trazado_886851" data-name="Trazado 886851" d="M190.688,284.984c.7-.129,3.467-.194,3.856.373a12.773,12.773,0,0,1,.089,4.05,1.1,1.1,0,0,1-.305.333,13.793,13.793,0,0,1-4.073.066,1.1,1.1,0,0,1-.333-.305,14.1,14.1,0,0,1-.139-3.667c.09-.573.354-.748.905-.849m2.434,1.555h-1.756v1.915h1.756Z" transform="translate(-159.471 -239.461)" fill="#fff"/>
          <path id="Trazado_886852" data-name="Trazado 886852" d="M152.567,247.575c-.164.542-3.326.483-3.9.389a1.285,1.285,0,0,1-.739-.378c-.27-.381-.268-4.166.118-4.41a15.177,15.177,0,0,1,4.2-.065,1.427,1.427,0,0,1,.321.317Zm-1.435-3.111-1.765.07c-.309.215-.084,1.43-.15,1.845h1.915Z" transform="translate(-124.18 -204.244)" fill="#fff"/>
          <path id="Trazado_886853" data-name="Trazado 886853" d="M152.449,290.591a1.255,1.255,0,0,1-.321.317,13.21,13.21,0,0,1-4.266-.115,12.38,12.38,0,0,1-.115-4.266,1.427,1.427,0,0,1,.317-.321h4.146l.239.239Zm-1.435-2.951H149.1c.066.415-.159,1.63.15,1.845l1.765.07Z" transform="translate(-124.061 -240.561)" fill="#fff"/>
          <path id="Trazado_886854" data-name="Trazado 886854" d="M148.206,63.666c-.5-.8-.01-1.3.833-1.4a65.851,65.851,0,0,1,9.575,0c1.326.157,1.328,1.444,0,1.6a67.534,67.534,0,0,1-9.418,0,3.237,3.237,0,0,1-.99-.2" transform="translate(-124.403 -52.189)" fill="#fff"/>
          <path id="Trazado_886855" data-name="Trazado 886855" d="M159.275,85.2c.584.182.511,1.329-.629,1.445-3.094.313-6.734-.24-9.888-.024a.758.758,0,0,1-.328-1.42Z" transform="translate(-124.429 -71.617)" fill="#fff"/>
          <path id="Trazado_886856" data-name="Trazado 886856" d="M179.928,43.147a.81.81,0,0,1,.529-1.386,34.894,34.894,0,0,1,5.089-.007.772.772,0,0,1,.392,1.344c-.471.355-5.616.391-6.011.05" transform="translate(-151.022 -35.019)" fill="#fff"/>
          <path id="Trazado_886857" data-name="Trazado 886857" d="M191.227,125.288a8.82,8.82,0,0,1,9.582,9.742c-.047.47-.4,2.224-.776,2.415-1.957.462-.659-2.062-.631-3.187a7.286,7.286,0,1,0-10.8,6.164c3.649,1.959,7.27.542,9.791-2.4l.823.4c.27.817-1.239,2.115-1.84,2.576a8.762,8.762,0,1,1-6.146-15.714" transform="translate(-154.102 -105.273)" fill="#fff"/>
          <path id="Trazado_886858" data-name="Trazado 886858" d="M223.75,143.613c.026.044.706.283.919.438.741.54,1.875,2.762.559,2.943-1.087.15-.743-1.041-1.254-1.611a1.343,1.343,0,0,0-2.334.726c-.187,1.739,1.27,1.393,2.368,1.792a2.876,2.876,0,0,1,.411,5.131,4.592,4.592,0,0,1-.676.2c-.11.137.146.746-.409,1.106-1.067.692-1-.776-1.246-1.086-.094-.117-.729-.294-1-.516-.59-.485-1.6-2.5-.609-2.847,1.361-.472.952,1,1.414,1.564a1.4,1.4,0,0,0,2.4-1.278c-.34-1.068-1.224-.834-1.976-1.058a2.886,2.886,0,0,1-1.6-4.573c.386-.5,1.383-.872,1.492-1.059.184-.316-.042-1.158.773-1.082.88.082.618.963.77,1.213" transform="translate(-184.969 -119.686)" fill="#fff"/>
          <path id="Trazado_886859" data-name="Trazado 886859" d="M206.22,179.279a.861.861,0,0,1,.849,1.343c-.924,1.277-2.383-1.054-.849-1.343" transform="translate(-172.77 -150.675)" fill="#fff"/>
          <path id="Trazado_886860" data-name="Trazado 886860" d="M265.183,179.257c.781.788-.527,2.163-1.249,1.169a.86.86,0,0,1,1.249-1.169" transform="translate(-221.684 -150.478)" fill="#fff"/>
        </g>
      </g>
    </g>
  </g>
</svg>
