<svg xmlns="http://www.w3.org/2000/svg" xmlns:xlink="http://www.w3.org/1999/xlink" width="122" height="122" viewBox="0 0 122 122">
  <defs>
    <clipPath id="clip-path">
      <path id="Trazado_883582" data-name="Trazado 883582" d="M0,0H122V122H0Z" fill="#1d6350"/>
    </clipPath>
    <clipPath id="clip-path-2">
      <rect id="Rect치ngulo_404925" data-name="Rect치ngulo 404925" width="60" height="60" transform="translate(-0.289 0.481)" fill="#fff" stroke="#707070" stroke-width="1"/>
    </clipPath>
    <clipPath id="clip-path-3">
      <rect id="Rect치ngulo_406749" data-name="Rect치ngulo 406749" width="54" height="48" fill="#fff"/>
    </clipPath>
  </defs>
  <g id="Grupo_1112305" data-name="Grupo 1112305" transform="translate(-179.664 -3667)">
    <g id="Grupo_1110094" data-name="Grupo 1110094" transform="translate(179.664 3667)">
      <g id="Enmascarar_grupo_1108079" data-name="Enmascarar grupo 1108079" clip-path="url(#clip-path)">
        <path id="Trazado_883529" data-name="Trazado 883529" d="M4.833,30,18.4,105.124c1.993,11.036,12.965,18.438,24.506,16.532a21.661,21.661,0,0,0,9.963-4.4l61.257-48.8A19.672,19.672,0,0,0,116.844,39.9a21.222,21.222,0,0,0-8.966-6.05L33.054,7.521C22.063,3.652,9.874,9.037,5.829,19.546A19.436,19.436,0,0,0,4.833,30" transform="translate(0.242 0.045)" fill="#0354a5"/>
        <path id="Trazado_883530" data-name="Trazado 883530" d="M120.213,86.305h0a20.942,20.942,0,0,1-6.082,8.079,21.885,21.885,0,0,1-9.986,4.527L25.824,113.2C14.063,115.378,2.679,108.03.4,96.785A19.878,19.878,0,0,1,1.23,85.949l26.226-72c.122-.336.254-.673.393-1A21.378,21.378,0,0,1,44.442.284a22.817,22.817,0,0,1,10.636.831,21.614,21.614,0,0,1,9.353,6.1l52.094,57.712a19.905,19.905,0,0,1,3.689,21.382M28.825,13.331c-.132.313-.259.635-.375.955l-26.225,72C-1.53,96.6,4.171,107.867,14.957,111.458a21.593,21.593,0,0,0,10.67.749l78.319-14.284c11.218-2.046,18.578-12.4,16.439-23.126a19.433,19.433,0,0,0-4.659-9.215L63.632,7.869A21.344,21.344,0,0,0,34.464,5.823a19.823,19.823,0,0,0-5.639,7.508" transform="translate(0 0)" fill="#1d6350"/>
      </g>
    </g>
    <g id="Enmascarar_grupo_1108078" data-name="Enmascarar grupo 1108078" transform="translate(210.664 3698)" clip-path="url(#clip-path-2)">
      <g id="Grupo_1113676" data-name="Grupo 1113676" transform="translate(2.711 7.481)">
        <g id="Grupo_1113675" data-name="Grupo 1113675" clip-path="url(#clip-path-3)">
          <path id="Trazado_887142" data-name="Trazado 887142" d="M14.131,3.782V24.107l3.521.8V20.022a1.955,1.955,0,0,1,.483-.677c.477-.323,4.569-.322,5.358-.224.344.043.862.137.985.534l.039,10.918a15.864,15.864,0,0,1,1.475,12.661l1.919-.027.3-.47L28.3,24.1c.332-.541,4.426-.469,5.2-.4a1.929,1.929,0,0,1,1.383.506V42.937l.278.3h3.15l.278-.3V19.624a1.717,1.717,0,0,1,.373-.4,38.472,38.472,0,0,1,5.645-.1c.2.042.653.344.653.493V43.236h5.374c-.43-.734-2.2-1.426-1.963-2.4.146-.6.573-.678,1.088-.557a30.616,30.616,0,0,1,4.114,3.355.961.961,0,0,1-.093,1.089c-.867.431-3.774,3.463-4.5,3.263-1.783-1.257.506-1.954,1.165-2.961H1.807c-.667,0-1.315-2.585-1.45-3.223-1.741-8.21,3.064-15.735,10.577-17.45.538-.123,1.175.146,1.529-.349V3.782c-.706.5-1.311,2.614-2.411,1.9a1.153,1.153,0,0,1-.336-.95C9.763,4.484,12.136,1.085,12.47.7c.562-.647.8-1.045,1.553-.288A45.106,45.106,0,0,1,16.917,4.69a.883.883,0,0,1-1.18,1.058Zm8.71,17.137H19.6l-.278.3V25.6l3.521,2.69Zm20.755,0H40.075V42.937l.278.3H43.6ZM29.975,25.5l-.278.3V42.937l.278.3h3.15l.278-.3V25.8l-.278-.3Zm-17.514.4a10.821,10.821,0,0,0-6.656,3.116l.922,1.555c-.509,1.391-1.535.547-2.14-.283a11.731,11.731,0,0,0-2.873,7.369c2.561-.454,2.531,2.188,0,1.792l.768,3.758,21.659-.068c.552-.358.7-2.97.923-3.689-1.187.616-2.932-1.252-1.544-1.762.442-.163,1.6.256,1.534-.316a14.037,14.037,0,0,0-2.862-7.086c-1.611,2.237-3.221.394-1.208-1.3A11.953,11.953,0,0,0,14.132,25.9l-.171,1.858-.5.282c-1.05-.1-1.053-1.221-1-2.14" transform="translate(0 0)" fill="#fff"/>
          <path id="Trazado_887143" data-name="Trazado 887143" d="M136.652,26.238c10.3-.288,10.362,16.736.134,16.682-9.8-.052-10.147-16.4-.134-16.682m-.182,1.788c-9.383.789-5.879,16.519,2.889,12.482,6.054-2.788,3.69-13.035-2.889-12.482" transform="translate(-105.328 -21.007)" fill="#fff"/>
          <path id="Trazado_887144" data-name="Trazado 887144" d="M62.613,162.97a.688.688,0,0,1,.607.061c1.51,1-2.019,3.359-2.324,4.1s.775,2.07-.458,3.876c-2.924,4.283-8.365-2.282-4.022-4.922,1.595-.97,2.708.022,3.275-.25.731-.35,2-2.661,2.923-2.865M57.8,167.357c-1.9.337-1.643,3.438.491,3.149,1.835-.249,1.291-3.464-.491-3.149" transform="translate(-44.641 -130.464)" fill="#fff"/>
          <path id="Trazado_887145" data-name="Trazado 887145" d="M159,50.44c-.365.413-1.162.588-1.494.885-.39.35-.361,1.206-1.1,1.131s-.72-.967-.9-1.109c-.506-.393-2.66-.123-2.064-1.784.393-1.034,2.631.642,4.008-.1,1.846-.992-1.644-1.3-2.1-1.441-1.575-.481-2.722-2.171-1.48-3.743.4-.509,1.35-.7,1.624-1,.247-.269.16-.879.783-1.064.863-.257.847.794,1.119,1.015.543.442,3.406.517,1.535,2.267-.68.207-1.848-1.015-3.31-.386-2.289.983,2.151,1.5,2.645,1.767A2.331,2.331,0,0,1,159,50.44" transform="translate(-124.922 -33.774)" fill="#fff"/>
        </g>
      </g>
    </g>
  </g>
</svg>
