<svg xmlns="http://www.w3.org/2000/svg" xmlns:xlink="http://www.w3.org/1999/xlink" width="70" height="70" viewBox="0 0 70 70">
  <defs>
    <clipPath id="clip-path">
      <rect id="Rectángulo_406916" data-name="Rectángulo 406916" width="38.884" height="46.182" fill="#023263"/>
    </clipPath>
  </defs>
  <g id="Grupo_1112354" data-name="Grupo 1112354" transform="translate(-268.711 -957.971)">
    <circle id="Elipse_5614" data-name="Elipse 5614" cx="35" cy="35" r="35" transform="translate(268.711 957.971)" fill="#fff"/>
    <g id="Grupo_1113836" data-name="Grupo 1113836" transform="translate(284.711 969.971)">
      <g id="Grupo_1113835" data-name="Grupo 1113835" clip-path="url(#clip-path)">
        <path id="Trazado_887756" data-name="Trazado 887756" d="M12.225,151.583c.461-.322,1.8,2.652,2.7,2.622l2.838-2.185a33.205,33.205,0,0,0,2.186,3.869c.515.731.721,1.157,1.54.366,1.374-1.327,2.68-3.812,4.011-5.324.078-.089.355-.42.43-.369L38.5,169.423a3.727,3.727,0,0,1-3.449,5.355H3.83a3.727,3.727,0,0,1-3.449-5.355Zm2.546,5.6c-.252.013-.488.276-.652.453-.34.367-1.549,2.176-1.437,2.591.488.75.8.694,1.365.108a20.112,20.112,0,0,0,1.471-2.188.743.743,0,0,0-.746-.964M6.716,169.632c.264.26,1.012.288,1.2-.118.973-2.042,3.358-4.322,4.225-6.282.485-1.1-.388-1.747-1.289-.7A46.755,46.755,0,0,0,6.8,168.548c-.165.333-.428.747-.085,1.084" transform="translate(0 -128.596)" fill="#023263"/>
        <path id="Trazado_887757" data-name="Trazado 887757" d="M97.9,16.29l4.784,7.169L98.7,28.908c-.618-.707-2.115-4.115-2.737-4.418a.741.741,0,0,0-.327-.094l-2.9,2.171-1.65-2.109,5.5-8.168V3.6a.973.973,0,0,1,1.313,0Z" transform="translate(-77.804 -2.857)" fill="#023263"/>
        <path id="Trazado_887758" data-name="Trazado 887758" d="M147.8.524c3.39,1.341,7.253-2.037,10.356.365V8.473c0,.763-1.79.014-2.152-.035-2.579-.343-5.634,1.744-8.2.472Z" transform="translate(-126.239 0)" fill="#023263"/>
      </g>
    </g>
  </g>
</svg>
