<svg xmlns="http://www.w3.org/2000/svg" xmlns:xlink="http://www.w3.org/1999/xlink" width="104.664" height="150" viewBox="0 0 104.664 150">
  <defs>
    <clipPath id="clip-path">
      <rect id="Rectángulo_404919" data-name="Rectángulo 404919" width="73" height="73" fill="none"/>
    </clipPath>
    <clipPath id="clip-path-2">
      <rect id="Rectángulo_404925" data-name="Rectángulo 404925" width="38" height="38" fill="#0354a5" stroke="#707070" stroke-width="1"/>
    </clipPath>
    <clipPath id="clip-path-3">
      <rect id="Rectángulo_406753" data-name="Rectángulo 406753" width="33.898" height="34" fill="#0354a5"/>
    </clipPath>
  </defs>
  <g id="Grupo_1113905" data-name="Grupo 1113905" transform="translate(-600 -6423.513)">
    <rect id="Rectángulo_405925" data-name="Rectángulo 405925" width="85" height="150" transform="translate(600 6423.513)" fill="#92d8fe"/>
    <g id="Grupo_1112309" data-name="Grupo 1112309" transform="translate(530 2821.512)">
      <g id="Grupo_1110094" data-name="Grupo 1110094" transform="translate(101.664 3641.001)">
        <g id="Grupo_1110058" data-name="Grupo 1110058" clip-path="url(#clip-path)">
          <path id="Trazado_883529" data-name="Trazado 883529" d="M4.709,20.467,12.826,65.42A12.647,12.647,0,0,0,27.49,75.312a12.961,12.961,0,0,0,5.961-2.634l36.654-29.2a11.771,11.771,0,0,0,1.627-17.088,12.7,12.7,0,0,0-5.365-3.62L21.6,7.017a12.86,12.86,0,0,0-16.29,7.2,11.63,11.63,0,0,0-.6,6.254" transform="translate(-1.672 -2.49)" fill="#0354a5"/>
          <path id="Trazado_883530" data-name="Trazado 883530" d="M71.931,51.642h0a12.531,12.531,0,0,1-3.639,4.834,13.1,13.1,0,0,1-5.975,2.709L15.452,67.733C8.415,69.038,1.6,64.641.238,57.912a11.894,11.894,0,0,1,.5-6.484L16.429,8.348c.073-.2.152-.4.235-.6A12.792,12.792,0,0,1,26.592.17a13.653,13.653,0,0,1,6.364.5,12.933,12.933,0,0,1,5.6,3.648L69.724,38.848a11.911,11.911,0,0,1,2.207,12.794M17.248,7.977c-.079.187-.155.38-.224.571L1.331,51.628A11.711,11.711,0,0,0,8.95,66.692a12.92,12.92,0,0,0,6.384.448L62.2,58.594a11.873,11.873,0,0,0,9.837-13.838,11.628,11.628,0,0,0-2.788-5.514L38.075,4.708A12.772,12.772,0,0,0,20.622,3.484a11.861,11.861,0,0,0-3.374,4.493" transform="translate(0 0)" fill="#41c9a5"/>
          <path id="Trazado_883583" data-name="Trazado 883583" d="M4.695,19.425l7.523,41.657a11.72,11.72,0,0,0,13.588,9.167,12.011,12.011,0,0,0,5.524-2.441L65.3,40.75A10.908,10.908,0,0,0,66.8,24.915a11.767,11.767,0,0,0-4.972-3.354L20.343,6.962a11.917,11.917,0,0,0-15.1,6.667,10.777,10.777,0,0,0-.553,5.8" transform="translate(7.354 -5.272) rotate(9)" fill="#fff"/>
        </g>
      </g>
      <g id="Enmascarar_grupo_1108078" data-name="Enmascarar grupo 1108078" transform="translate(118.309 3657.379)" clip-path="url(#clip-path-2)">
        <g id="Grupo_1113684" data-name="Grupo 1113684" transform="translate(1.793 2)">
          <g id="Grupo_1113683" data-name="Grupo 1113683" clip-path="url(#clip-path-3)">
            <path id="Trazado_887164" data-name="Trazado 887164" d="M13.646,9.117h5.871c.154,0,.825.548.825.729v7.241a9.376,9.376,0,0,1,7.592-.656c7.892,2.795,7.971,14.139.123,16.986a9.093,9.093,0,0,1-11.6-11.86H13.646c.036.735.075,2.027-.847,2.213a15.628,15.628,0,0,1-2.866,0c-.318-.057-.848-.514-.848-.8V21.558H4.67l-.146.146v1.458c0,.191-.615.591-.83.627a16.3,16.3,0,0,1-2.615,0,1.074,1.074,0,0,1-1.013-.929A23.462,23.462,0,0,1,.084,19.1c.161-.914,1.122-.907,1.148-1.005V9.949c-.041-.287.641-.832.819-.832H3.457V.9A1.272,1.272,0,0,1,4.474.076c2.561.184,5.441-.238,7.963,0a1.129,1.129,0,0,1,1,.553,4.489,4.489,0,0,1,.209.471ZM6.271,1.245H4.525V8.972l.146.146h7.811V1.245H10.735v3.45a2.028,2.028,0,0,1-.456.417c-.867.26-1.39-.709-1.8-.648-.531.3-1.371,1.064-1.967.478A1.556,1.556,0,0,1,6.271,4.5Zm3.4,0H7.436V3.772c.89-.765,1.33-.661,2.232,0ZM4.04,10.284H2.293v7.873H10.25V10.284H8.5v3.353a1.17,1.17,0,0,1-.35.426c-.885.506-1.371-.537-1.84-.575-.491-.04-1.045,1.077-1.923.575a1.172,1.172,0,0,1-.35-.426Zm3.4,0H5.107v2.527a1.557,1.557,0,0,1,2.329,0Zm5.628,0H11.317v7.873h7.617a1.911,1.911,0,0,0,.34-.194V10.284H17.527v3.353a1.867,1.867,0,0,1-.333.444c-.818.493-1.422-.573-1.85-.586-.462-.014-1.059,1.068-1.931.569a1.171,1.171,0,0,1-.35-.426Zm3.4,0H14.131v2.527c.4-.078.78-.61,1.206-.582.332.022.8.457,1.123.582Zm7.256,6.831c-4.833.546-7.8,5.818-6.312,10.351a7.914,7.914,0,1,0,6.312-10.351m-5.9,2.209H1.226v3.4H3.457V21.218c0-.336.8-.773,1.124-.818a28.872,28.872,0,0,1,4.626.015c1.175.2,1.07,1.374,1.042,2.309h2.232V21.315a1.4,1.4,0,0,1,.436-.632c.82-.627,3.107-.117,4.157-.307Z" transform="translate(0 -0.001)" fill="#0354a5"/>
            <path id="Trazado_887165" data-name="Trazado 887165" d="M196.856,187.817a1.513,1.513,0,0,1,.181,1.239l-7.962,8.062c-1.042.542-1.546.058-1.939-.877a6.807,6.807,0,0,1,7.54-9.3,6.321,6.321,0,0,1,2.18.878m-8.994,4.635a5.756,5.756,0,0,0,.368,3.47c.07.123.136.308.313.178l7.368-7.4c.049-.219-.672-.446-.848-.5a6.126,6.126,0,0,0-3.89.178c-.155.924.288,3.007-.316,3.718a1.943,1.943,0,0,1-.521.353ZM190,191.384v-2.235a4.281,4.281,0,0,0-1.747,2.235Z" transform="translate(-168.491 -168.659)" fill="#0354a5"/>
            <path id="Trazado_887166" data-name="Trazado 887166" d="M226.666,217.97c.946-.088,1.444,1.29,1.627,2.02a6.791,6.791,0,0,1-8.735,8.166c-.983-.325-2.07-.927-1.31-2.092l7.761-7.778a1.394,1.394,0,0,1,.657-.317m.121,1.146-7.522,7.682a5.676,5.676,0,0,0,7.522-7.682" transform="translate(-196.84 -196.78)" fill="#0354a5"/>
            <path id="Trazado_887167" data-name="Trazado 887167" d="M58.852,157.847c.846-.155.911,1.279.468,1.545-1.026.617-1.291-1.394-.468-1.545" transform="translate(-52.702 -142.495)" fill="#0354a5"/>
            <path id="Trazado_887168" data-name="Trazado 887168" d="M36.228,157.842c.231.231.306,1.5-.352,1.58s-.7-.9-.575-1.34a.606.606,0,0,1,.927-.24" transform="translate(-31.824 -142.384)" fill="#0354a5"/>
            <path id="Trazado_887169" data-name="Trazado 887169" d="M82.569,66.22c-1.329.757-1.4-1.845-.242-1.515.5.144.431,1.128.242,1.515" transform="translate(-73.604 -58.389)" fill="#0354a5"/>
            <path id="Trazado_887170" data-name="Trazado 887170" d="M58.815,64.844c.932-.171.916,1.527.263,1.638-.95.162-.96-1.51-.263-1.638" transform="translate(-52.665 -58.53)" fill="#0354a5"/>
            <path id="Trazado_887171" data-name="Trazado 887171" d="M151.808,157.849c1.05-.193.967,2.094-.167,1.586-.47-.211-.44-1.474.167-1.586" transform="translate(-136.634 -142.496)" fill="#0354a5"/>
            <path id="Trazado_887172" data-name="Trazado 887172" d="M129.413,158.008c.516.488.206,2-.784,1.439-.214-.136-.216-1.056-.113-1.271a.651.651,0,0,1,.9-.168" transform="translate(-115.986 -142.548)" fill="#0354a5"/>
          </g>
        </g>
      </g>
    </g>
  </g>
</svg>
