<svg xmlns="http://www.w3.org/2000/svg" xmlns:xlink="http://www.w3.org/1999/xlink" width="104.664" height="150" viewBox="0 0 104.664 150">
  <defs>
    <clipPath id="clip-path">
      <rect id="Rectángulo_404919" data-name="Rectángulo 404919" width="73" height="73" fill="none"/>
    </clipPath>
    <clipPath id="clip-path-2">
      <rect id="Rectángulo_404925" data-name="Rectángulo 404925" width="38" height="38" fill="#0354a5" stroke="#707070" stroke-width="1"/>
    </clipPath>
    <clipPath id="clip-path-3">
      <rect id="Rectángulo_406752" data-name="Rectángulo 406752" width="33.534" height="33.513" fill="#0354a5"/>
    </clipPath>
  </defs>
  <g id="Grupo_1113904" data-name="Grupo 1113904" transform="translate(-180 -6423.513)">
    <rect id="Rectángulo_405919" data-name="Rectángulo 405919" width="85" height="150" transform="translate(180 6423.513)" fill="#92d8fe"/>
    <g id="Grupo_1112308" data-name="Grupo 1112308" transform="translate(110 2821.512)">
      <g id="Grupo_1110094" data-name="Grupo 1110094" transform="translate(101.664 3641.001)">
        <g id="Grupo_1110058" data-name="Grupo 1110058" clip-path="url(#clip-path)">
          <path id="Trazado_883529" data-name="Trazado 883529" d="M4.709,20.467,12.826,65.42A12.647,12.647,0,0,0,27.49,75.312a12.961,12.961,0,0,0,5.961-2.634l36.654-29.2a11.771,11.771,0,0,0,1.627-17.088,12.7,12.7,0,0,0-5.365-3.62L21.6,7.017a12.86,12.86,0,0,0-16.29,7.2,11.63,11.63,0,0,0-.6,6.254" transform="translate(-1.672 -2.49)" fill="#0354a5"/>
          <path id="Trazado_883530" data-name="Trazado 883530" d="M71.931,51.642h0a12.531,12.531,0,0,1-3.639,4.834,13.1,13.1,0,0,1-5.975,2.709L15.452,67.733C8.415,69.038,1.6,64.641.238,57.912a11.894,11.894,0,0,1,.5-6.484L16.429,8.348c.073-.2.152-.4.235-.6A12.792,12.792,0,0,1,26.592.17a13.653,13.653,0,0,1,6.364.5,12.933,12.933,0,0,1,5.6,3.648L69.724,38.848a11.911,11.911,0,0,1,2.207,12.794M17.248,7.977c-.079.187-.155.38-.224.571L1.331,51.628A11.711,11.711,0,0,0,8.95,66.692a12.92,12.92,0,0,0,6.384.448L62.2,58.594a11.873,11.873,0,0,0,9.837-13.838,11.628,11.628,0,0,0-2.788-5.514L38.075,4.708A12.772,12.772,0,0,0,20.622,3.484a11.861,11.861,0,0,0-3.374,4.493" transform="translate(0 0)" fill="#41c9a5"/>
          <path id="Trazado_883583" data-name="Trazado 883583" d="M4.695,19.425l7.523,41.657a11.72,11.72,0,0,0,13.588,9.167,12.011,12.011,0,0,0,5.524-2.441L65.3,40.75A10.908,10.908,0,0,0,66.8,24.915a11.767,11.767,0,0,0-4.972-3.354L20.343,6.962a11.917,11.917,0,0,0-15.1,6.667,10.777,10.777,0,0,0-.553,5.8" transform="translate(7.354 -5.272) rotate(9)" fill="#fff"/>
        </g>
      </g>
      <g id="Enmascarar_grupo_1108078" data-name="Enmascarar grupo 1108078" transform="translate(118.309 3657.379)" clip-path="url(#clip-path-2)">
        <g id="Grupo_1113682" data-name="Grupo 1113682" transform="translate(2.158 2.776)">
          <g id="Grupo_1113681" data-name="Grupo 1113681" clip-path="url(#clip-path-3)">
            <path id="Trazado_887160" data-name="Trazado 887160" d="M9.758,11.8a6.582,6.582,0,0,1,3.975-.524L14.655,8.5a4.548,4.548,0,0,1-1.22-6.973,4.456,4.456,0,1,1,2.413,7.328l-1.089,2.886a6.335,6.335,0,0,1,2.614,2.612L24.646,11.6c-.933-4.553,4.9-7.453,7.857-3.779,3.411,4.24-2.4,9.759-6.437,6.131-.437-.393-.69-.91-1.115-1.228L17.74,15.45a6.15,6.15,0,0,1-.628,4.172l8.6,6.257c.267.083.408-.264.624-.412a4.47,4.47,0,1,1-1.591,2.3c.079-.3.438-.724.263-.978l-8.551-6.269a5.753,5.753,0,0,1-6.9,1.152l-2.03,2.89a4.632,4.632,0,0,1,.822,5.623,4.474,4.474,0,0,1-7.809-.2A4.5,4.5,0,0,1,6.588,23.93l2-2.824,0-.2a5.621,5.621,0,0,1,.22-8.541L6.478,8.533c-4.74,2.232-8.922-4.188-4.794-7.51,4.039-3.25,9.484,1.905,6.375,6.17-.172.235-.71.574-.641.853ZM3.9,1.194C-.128,1.781.4,8.331,4.989,7.8,9.153,7.328,8.58.513,3.9,1.194m12.273,0c-4.029.587-3.5,7.136,1.087,6.61,4.155-.476,3.59-7.292-1.087-6.61M28.447,7.331c-4.061.592-3.475,7.163,1.087,6.61,4.178-.506,3.569-7.288-1.087-6.61m-13,6.248c-4.213-4.133-10.494,2.245-6.259,6.412,4.143,4.076,10.429-2.321,6.259-6.412M2.121,25.545C-1.02,28.686,3.8,33.438,6.9,30.269c3.051-3.127-1.665-7.834-4.775-4.724m26.222.193c-3.569.559-3.524,6.343.381,6.627,4.955.359,4.758-7.431-.381-6.627" transform="translate(0 0.001)" fill="#0354a5"/>
            <path id="Trazado_887161" data-name="Trazado 887161" d="M262.249,84.5l.745.746-2.82,2.813-.292.108c-.416,0-1.129-1-1.481-1.271l.765-.765c.263.182.5.733.867.564.406-.188,1.942-2.147,2.215-2.195" transform="translate(-231.973 -75.855)" fill="#0354a5"/>
            <path id="Trazado_887162" data-name="Trazado 887162" d="M142.249,24.5l.746.746-2.859,2.879-.244.052c-.444-.023-1.12-1-1.49-1.28l.765-.765c.263.182.5.733.867.564.406-.188,1.942-2.147,2.215-2.195" transform="translate(-124.246 -21.992)" fill="#0354a5"/>
            <path id="Trazado_887163" data-name="Trazado 887163" d="M22.249,253.5l.745.746-2.859,2.879-.244.052c-.444-.023-1.12-1-1.49-1.28l.765-.765c.263.182.5.733.867.564.407-.188,1.94-2.146,2.215-2.195" transform="translate(-16.52 -227.571)" fill="#0354a5"/>
          </g>
        </g>
      </g>
    </g>
  </g>
</svg>
