<svg xmlns="http://www.w3.org/2000/svg" xmlns:xlink="http://www.w3.org/1999/xlink" width="150" height="150" viewBox="0 0 150 150">
  <defs>
    <clipPath id="clip-path">
      <rect id="Rectángulo_404919" data-name="Rectángulo 404919" width="150" height="150" fill="none"/>
    </clipPath>
    <clipPath id="clip-path-2">
      <rect id="Rectángulo_404925" data-name="Rectángulo 404925" width="60" height="60" transform="translate(-0.121)" fill="#fff" stroke="#707070" stroke-width="1"/>
    </clipPath>
    <clipPath id="clip-path-3">
      <rect id="Rectángulo_406052" data-name="Rectángulo 406052" width="53.21" height="46.988" fill="#fff"/>
    </clipPath>
  </defs>
  <g id="Grupo_1112268" data-name="Grupo 1112268" transform="translate(-179.664 -3667)">
    <g id="Grupo_1110094" data-name="Grupo 1110094" transform="translate(179.664 3667)">
      <g id="Grupo_1110058" data-name="Grupo 1110058" clip-path="url(#clip-path)">
        <path id="Trazado_883529" data-name="Trazado 883529" d="M4.9,35.444l16.68,92.369c2.45,13.569,15.941,22.669,30.131,20.326a26.632,26.632,0,0,0,12.25-5.412l75.316-60a24.187,24.187,0,0,0,3.343-35.112A26.093,26.093,0,0,0,131.6,40.179l-92-32.37C26.088,3.052,11.1,9.673,6.129,22.593A23.9,23.9,0,0,0,4.9,35.444" transform="translate(1.335 1.494)" fill="#023263"/>
        <path id="Trazado_883530" data-name="Trazado 883530" d="M147.8,106.113h0a25.748,25.748,0,0,1-7.478,9.933,26.908,26.908,0,0,1-12.278,5.565l-96.3,17.565C17.29,141.859,3.294,132.824.488,119a24.44,24.44,0,0,1,1.024-13.323L33.758,17.153c.15-.414.312-.827.483-1.23A26.285,26.285,0,0,1,54.641.349,28.053,28.053,0,0,1,67.719,1.371a26.574,26.574,0,0,1,11.5,7.495l64.049,70.958a24.474,24.474,0,0,1,4.536,26.289M35.441,16.39c-.162.385-.319.78-.461,1.174L2.735,106.084c-4.616,12.681,2.393,26.539,15.655,30.954a26.549,26.549,0,0,0,13.119.921L127.8,120.4c13.792-2.515,22.841-15.245,20.212-28.434a23.893,23.893,0,0,0-5.728-11.33L78.237,9.675A26.243,26.243,0,0,0,42.374,7.159a24.372,24.372,0,0,0-6.933,9.231" transform="translate(0 0)" fill="#41c9a5"/>
      </g>
    </g>
    <g id="Enmascarar_grupo_1108078" data-name="Enmascarar grupo 1108078" transform="translate(224.664 3712)" clip-path="url(#clip-path-2)">
      <g id="Grupo_1112549" data-name="Grupo 1112549" transform="translate(3.879 6)">
        <g id="Grupo_1112548" data-name="Grupo 1112548" clip-path="url(#clip-path-3)">
          <path id="Trazado_886861" data-name="Trazado 886861" d="M9.071,82.8,5.893,81.636A10.637,10.637,0,0,1,2.6,65.692c.538-.671,2.01-2.385,2.888-1.533.924.9-1.252,2.383-1.839,3.264a8.716,8.716,0,1,0,15.51,2.134c-.3-.953-1.76-2.8-1.553-3.493,1.177-1.717,2.4.786,2.87,1.835a10.564,10.564,0,0,1-5.335,14.079l-2.5.821h6.9a2.346,2.346,0,0,1,1.919,1.656,17.946,17.946,0,0,1,.043,3.37c-.323,2.682-3.4,1.835-5.283,1.953.462,2.587-2.369,2.684-1.872,0H1.92v3.065H19.883c.461,0,1.408,1.031,1.537,1.527a12.152,12.152,0,0,1-.107,4.159,1.966,1.966,0,0,1-1.677,1.218L4.43,99.784c-1.4.086-1.2-3.321-.563-3.714,1.245-.766,1.689.913,1.457,1.883h9.621c.915-.169-.2-2.286,1.524-2.048.836.115.832,1.388.774,2.049.757-.107,1.794.265,2.385-.256v-2.98H1.495A4.1,4.1,0,0,1,.317,93.682,10.374,10.374,0,0,1,.16,89.3c.114-.368,1.018-1.39,1.335-1.39H19.627v-2.98l-.255-.255H5.325c.142,1.376-.084,2.7-1.716,1.76a6.169,6.169,0,0,1,.057-3.25,7.036,7.036,0,0,1,.722-.383Z" transform="translate(0 -53.042)" fill="#fff"/>
          <path id="Trazado_886862" data-name="Trazado 886862" d="M162.758,123.52a3.32,3.32,0,0,0,1.995-1.58l.053-23.623a2.555,2.555,0,0,0-2.382-1.7L137.909,96.6c-.891-.014-.981-1.143-.492-1.7l25.176-.163a4.556,4.556,0,0,1,4.166,3.836c-.5,7.354.658,15.572.006,22.823-.219,2.437-2.22,3.8-4.521,3.992-7.621.648-16.12-.479-23.834,0-1.94-.218-1.257-1.873-.851-1.873Z" transform="translate(-113.761 -78.609)" fill="#fff"/>
          <path id="Trazado_886863" data-name="Trazado 886863" d="M158.805,116.775c.815.234.349,2.746,1.447,3.831.945.934,1.923.189,2.635,1.11l.085,13.017c-.217,1.16-1.988.456-2.892,1.535-1.189,1.42.058,3.488-1.949,3.67-6.332.574-13.516-.454-19.939,0-1.207.09-1.651-1.712-.319-1.872l19.652-.013c.038-2.019,1.391-4.184,3.569-4.262l.017-10.3c-.027-.719-1.1-.775-1.7-1.193a4.88,4.88,0,0,1-1.885-3.649l-19.484-.011c-1.438-.236-.954-1.863-.521-1.863Z" transform="translate(-113.724 -96.893)" fill="#fff"/>
          <path id="Trazado_886864" data-name="Trazado 886864" d="M135.341,7.792c-.135.866.363,3.049-.442,3.559a14.955,14.955,0,0,1-4.5.113c-1.135-.369-.519-2.71-.67-3.672-1.729.249-2.939-.774-2.478-2.563l4.17-4.852c1.28-.849,2.1-.124,2.992.774A34.451,34.451,0,0,1,137.815,5.4c.436,1.648-.934,2.651-2.474,2.388M131.6,6.516v3.15h1.873V6.516c0-.683,2.116-.575,2.553-.68l-3.49-4-3.489,4c.574.187,2.319-.137,2.553.68" transform="translate(-105.499 0.001)" fill="#fff"/>
          <path id="Trazado_886865" data-name="Trazado 886865" d="M222.541,24.091c-.157.158.249,3.049-.21,3.536a17.978,17.978,0,0,1-4.779.178c-1.02-.3-.511-2.861-.628-3.714-2.343.285-3.285-1.4-1.87-3.315a42.414,42.414,0,0,1,3.393-3.928c1.257-.976,2.241-.337,3.161.6.588.6,3.335,3.814,3.45,4.384.354,1.749-.922,2.532-2.517,2.258M218.8,22.815v3.15h1.873v-2.98c0-.712,1.71-.567,2.131-.6.254-.017.492.13.421-.254L219.9,18.3c-.36-.089-3.037,3.332-3.483,3.834-.045.346.014.221.25.252.527.07,1.947-.232,2.131.425" transform="translate(-177.886 -13.574)" fill="#fff"/>
          <path id="Trazado_886866" data-name="Trazado 886866" d="M48.065,24.3c-.114.822.351,3.252-.51,3.662a22.886,22.886,0,0,1-4.612.01c-.9-.247-.345-2.856-.495-3.672-1.973.418-3.368-1.221-2.216-2.981a41.5,41.5,0,0,1,3.832-4.34,2,2,0,0,1,2.54.185,36.59,36.59,0,0,1,2.989,3.481c.618.818,1.309,1.461.868,2.562a2.063,2.063,0,0,1-2.4,1.093M44.32,23.189c.193.7-.142,2.177,0,2.98h1.873v-3.15c0-.6,1.736-.373,2.131-.425.236-.031.3.094.25-.252-.445-.5-3.123-3.923-3.483-3.834L41.768,22.34c-.071.384.167.236.421.254.583.04,1.915-.188,2.131.6" transform="translate(-33.036 -13.778)" fill="#fff"/>
          <path id="Trazado_886867" data-name="Trazado 886867" d="M143.546,151.011c1.588,1.687,1.037,3.635-.732,4.851-.228.157-.715.178-.834.358-.216.328.083,1.271-.36,1.553-2.077.758-1.3-1.063-1.612-1.523-.156-.231-1.794-.27-2.326-1.676-.382-1.008-.42-2.845,1.062-2.6,1.2.2-.076,2.016,1.407,2.347,1.875.419,3.4-.9,1.662-2.342-.88-.732-2.1-.874-3.065-1.7-1.482-1.278-2.174-3.267-.308-4.573.375-.262,1.236-.461,1.421-.622.3-.265.1-1.8,1.407-1.419.88.256.476,1.267.716,1.675.272.463,2.4.811,2.063,2.042-.459,1.675-2-.089-2.65-.263-.762-.2-2.166-.2-2.194.814.855,1.783,3.077,1.739,4.341,3.082" transform="translate(-113.934 -119.15)" fill="#fff"/>
          <path id="Trazado_886868" data-name="Trazado 886868" d="M27.281,95.791a6.534,6.534,0,0,1-.88-8.166c.457-.709.758-1.145,1.727-.943,1.141.914-.24,1.835-.6,2.75-2.337,5.921,7.276,9.494,8.844,2.2.131-.61-.165-1.972.963-1.917,1.732.085.679,3.476.193,4.436a6.572,6.572,0,0,1-10.248,1.636" transform="translate(-21.045 -71.882)" fill="#fff"/>
        </g>
      </g>
    </g>
  </g>
</svg>
