<svg xmlns="http://www.w3.org/2000/svg" xmlns:xlink="http://www.w3.org/1999/xlink" width="150" height="150" viewBox="0 0 150 150">
  <defs>
    <clipPath id="clip-path">
      <rect id="Rectángulo_404919" data-name="Rectángulo 404919" width="150" height="150" fill="#41c9a5"/>
    </clipPath>
    <clipPath id="clip-path-2">
      <rect id="Rectángulo_404925" data-name="Rectángulo 404925" width="60" height="60" fill="#fff" stroke="#707070" stroke-width="1"/>
    </clipPath>
    <clipPath id="clip-path-3">
      <rect id="Rectángulo_406752" data-name="Rectángulo 406752" width="54.245" height="54.212" fill="#fafafa"/>
    </clipPath>
  </defs>
  <g id="Grupo_1113907" data-name="Grupo 1113907" transform="translate(-179.664 -3667)">
    <g id="Grupo_1110094" data-name="Grupo 1110094" transform="translate(179.664 3667)">
      <g id="Grupo_1110058" data-name="Grupo 1110058" clip-path="url(#clip-path)">
        <path id="Trazado_883529" data-name="Trazado 883529" d="M4.9,35.444l16.68,92.369c2.45,13.569,15.941,22.669,30.131,20.326a26.632,26.632,0,0,0,12.25-5.412l75.316-60a24.187,24.187,0,0,0,3.343-35.112A26.093,26.093,0,0,0,131.6,40.179l-92-32.37C26.088,3.052,11.1,9.673,6.129,22.593A23.9,23.9,0,0,0,4.9,35.444" transform="translate(1.335 1.494)" fill="#023263"/>
        <path id="Trazado_883530" data-name="Trazado 883530" d="M147.8,106.113h0a25.748,25.748,0,0,1-7.478,9.933,26.908,26.908,0,0,1-12.278,5.565l-96.3,17.565C17.29,141.859,3.294,132.824.488,119a24.44,24.44,0,0,1,1.024-13.323L33.758,17.153c.15-.414.312-.827.483-1.23A26.285,26.285,0,0,1,54.641.349,28.053,28.053,0,0,1,67.719,1.371a26.574,26.574,0,0,1,11.5,7.495l64.049,70.958a24.474,24.474,0,0,1,4.536,26.289M35.441,16.39c-.162.385-.319.78-.461,1.174L2.735,106.084c-4.616,12.681,2.393,26.539,15.655,30.954a26.549,26.549,0,0,0,13.119.921L127.8,120.4c13.792-2.515,22.841-15.245,20.212-28.434a23.893,23.893,0,0,0-5.728-11.33L78.237,9.675A26.243,26.243,0,0,0,42.374,7.159a24.372,24.372,0,0,0-6.933,9.231" transform="translate(0 0)" fill="#41c9a5"/>
      </g>
    </g>
    <g id="Enmascarar_grupo_1108078" data-name="Enmascarar grupo 1108078" transform="translate(222.664 3712)" clip-path="url(#clip-path-2)">
      <g id="Grupo_1113910" data-name="Grupo 1113910" transform="translate(3.089 3.001)">
        <g id="Grupo_1113681" data-name="Grupo 1113681" clip-path="url(#clip-path-3)">
          <path id="Trazado_887160" data-name="Trazado 887160" d="M15.784,19.1a10.647,10.647,0,0,1,6.43-.848l1.491-4.5c-3.979-2.443-5.2-7.654-1.973-11.28a7.209,7.209,0,1,1,3.9,11.854l-1.762,4.669A10.248,10.248,0,0,1,28.1,23.212L39.868,18.77c-1.51-7.365,7.927-12.057,12.71-6.113,5.518,6.858-3.886,15.786-10.413,9.917-.706-.635-1.116-1.472-1.8-1.987L28.7,24.992a9.948,9.948,0,0,1-1.015,6.749L41.587,41.863c.432.134.66-.427,1.01-.667,7.378-5.056,15.265,4.174,9.832,10.493-4.964,5.775-14.431.832-12.406-6.781.127-.477.708-1.171.426-1.582L26.616,33.186a9.306,9.306,0,0,1-11.169,1.863l-3.284,4.675c2.354,2.578,3.139,5.96,1.329,9.1A7.238,7.238,0,0,1,.86,48.492c-3.244-6.36,3.505-12.839,9.8-9.781l3.229-4.568,0-.319a9.093,9.093,0,0,1,.356-13.815l-3.766-6.2C2.812,17.415-3.954,7.029,2.724,1.655,9.259-3.6,18.066,4.737,13.036,11.636c-.277.38-1.148.928-1.038,1.38ZM6.311,1.932C-.207,2.882.642,13.477,8.07,12.625c6.737-.772,5.81-11.8-1.759-10.693m19.853,0c-6.518.949-5.669,11.544,1.759,10.693,6.721-.77,5.807-11.8-1.759-10.693m19.853,9.927c-6.57.957-5.622,11.586,1.758,10.692,6.758-.819,5.773-11.789-1.758-10.692M24.987,21.966C18.172,15.281,8.013,25.6,14.863,32.339c6.7,6.594,16.87-3.754,10.124-10.372M3.431,41.323C-1.65,46.4,6.154,54.09,11.155,48.965c4.936-5.059-2.693-12.673-7.724-7.642m42.417.312c-5.773.9-5.7,10.261.616,10.719,8.015.581,7.7-12.02-.616-10.719" transform="translate(0 0.001)" fill="#fafafa"/>
          <path id="Trazado_887161" data-name="Trazado 887161" d="M264.625,84.5l1.206,1.206-4.561,4.551-.473.175c-.673,0-1.826-1.625-2.4-2.057l1.238-1.238c.425.295.811,1.186,1.4.912.657-.3,3.142-3.473,3.583-3.551" transform="translate(-215.651 -70.518)" fill="#fafafa"/>
          <path id="Trazado_887162" data-name="Trazado 887162" d="M144.625,24.5l1.206,1.206-4.625,4.657-.394.084c-.718-.037-1.812-1.615-2.411-2.071l1.238-1.238c.425.295.811,1.186,1.4.912.657-.3,3.142-3.473,3.583-3.551" transform="translate(-115.504 -20.444)" fill="#fafafa"/>
          <path id="Trazado_887163" data-name="Trazado 887163" d="M24.626,253.5l1.206,1.206-4.625,4.657-.394.084c-.718-.037-1.812-1.615-2.411-2.071l1.238-1.238c.425.295.811,1.186,1.4.912.659-.3,3.139-3.472,3.583-3.551" transform="translate(-15.358 -211.558)" fill="#fafafa"/>
        </g>
      </g>
    </g>
  </g>
</svg>
