<svg xmlns="http://www.w3.org/2000/svg" xmlns:xlink="http://www.w3.org/1999/xlink" width="104.664" height="150" viewBox="0 0 104.664 150">
  <defs>
    <clipPath id="clip-path">
      <rect id="Rectángulo_404919" data-name="Rectángulo 404919" width="73" height="73" fill="none"/>
    </clipPath>
    <clipPath id="clip-path-2">
      <rect id="Rectángulo_404925" data-name="Rectángulo 404925" width="38" height="38" fill="#0354a5" stroke="#707070" stroke-width="1"/>
    </clipPath>
    <clipPath id="clip-path-3">
      <rect id="Rectángulo_406754" data-name="Rectángulo 406754" width="32.62" height="32.699" fill="#0354a5"/>
    </clipPath>
  </defs>
  <g id="Grupo_1113906" data-name="Grupo 1113906" transform="translate(-1020 -6423.513)">
    <rect id="Rectángulo_405927" data-name="Rectángulo 405927" width="85" height="150" transform="translate(1020 6423.513)" fill="#92d8fe"/>
    <g id="Grupo_1112310" data-name="Grupo 1112310" transform="translate(950 2821.512)">
      <g id="Grupo_1110094" data-name="Grupo 1110094" transform="translate(101.664 3641.001)">
        <g id="Grupo_1110058" data-name="Grupo 1110058" clip-path="url(#clip-path)">
          <path id="Trazado_883529" data-name="Trazado 883529" d="M4.709,20.467,12.826,65.42A12.647,12.647,0,0,0,27.49,75.312a12.961,12.961,0,0,0,5.961-2.634l36.654-29.2a11.771,11.771,0,0,0,1.627-17.088,12.7,12.7,0,0,0-5.365-3.62L21.6,7.017a12.86,12.86,0,0,0-16.29,7.2,11.63,11.63,0,0,0-.6,6.254" transform="translate(-1.672 -2.49)" fill="#0354a5"/>
          <path id="Trazado_883530" data-name="Trazado 883530" d="M71.931,51.642h0a12.531,12.531,0,0,1-3.639,4.834,13.1,13.1,0,0,1-5.975,2.709L15.452,67.733C8.415,69.038,1.6,64.641.238,57.912a11.894,11.894,0,0,1,.5-6.484L16.429,8.348c.073-.2.152-.4.235-.6A12.792,12.792,0,0,1,26.592.17a13.653,13.653,0,0,1,6.364.5,12.933,12.933,0,0,1,5.6,3.648L69.724,38.848a11.911,11.911,0,0,1,2.207,12.794M17.248,7.977c-.079.187-.155.38-.224.571L1.331,51.628A11.711,11.711,0,0,0,8.95,66.692a12.92,12.92,0,0,0,6.384.448L62.2,58.594a11.873,11.873,0,0,0,9.837-13.838,11.628,11.628,0,0,0-2.788-5.514L38.075,4.708A12.772,12.772,0,0,0,20.622,3.484a11.861,11.861,0,0,0-3.374,4.493" transform="translate(0 0)" fill="#41c9a5"/>
          <path id="Trazado_883583" data-name="Trazado 883583" d="M4.695,19.425l7.523,41.657a11.72,11.72,0,0,0,13.588,9.167,12.011,12.011,0,0,0,5.524-2.441L65.3,40.75A10.908,10.908,0,0,0,66.8,24.915a11.767,11.767,0,0,0-4.972-3.354L20.343,6.962a11.917,11.917,0,0,0-15.1,6.667,10.777,10.777,0,0,0-.553,5.8" transform="translate(7.354 -5.272) rotate(9)" fill="#fff"/>
        </g>
      </g>
      <g id="Enmascarar_grupo_1108078" data-name="Enmascarar grupo 1108078" transform="translate(118.309 3657.379)" clip-path="url(#clip-path-2)">
        <g id="Grupo_1113686" data-name="Grupo 1113686" transform="translate(1.689 3.442)">
          <g id="Grupo_1113685" data-name="Grupo 1113685" clip-path="url(#clip-path-3)">
            <path id="Trazado_887173" data-name="Trazado 887173" d="M17.865,1.164c1.36.027,2.958-.235,3.644,1.265.768,1.678-.545,2.677-.952,4.177a1.633,1.633,0,0,1,.75,3.133,13.054,13.054,0,0,1,4.65,6.2c.153.42.643,2.444.723,2.55.163.218,2.939.025,3.464.089a1.634,1.634,0,0,1,1.26,2.244,1.591,1.591,0,0,1,0,3.092l.044,1.218a1.685,1.685,0,0,1-.019,3.215L31.4,29.514a1.622,1.622,0,0,1,.077,3.119L2.367,32.7a2.459,2.459,0,0,1-1-4.654c.253-.112,1.1-.235,1.121-.348l-.35-2.9c-.1-5.561,1.006-11.716,5.888-15.054a1.644,1.644,0,0,1,.843-3.133C8.259,5.153,7.077,4.028,7.886,2.4,8.63.9,10.01,1.211,11.426,1.169c.39-.576.684-1,1.428-1.1a21.643,21.643,0,0,1,3.705.014,1.738,1.738,0,0,1,1.305,1.078m.075,1.048V4.6c0,.223-.8.609-1.051.022-.276-.656.163-2.977-.209-3.344-.093-.092-.162-.083-.278-.1a23.092,23.092,0,0,0-3.282,0,1.039,1.039,0,0,0-.448.09c-.354.224-.019,2.7-.2,3.285a.566.566,0,0,1-1.08-.051V2.212H9.757c-.35,0-.937.586-1.031.932-.257.943,1.036,2.494,1.349,3.4l9.112.045A18.537,18.537,0,0,0,20.45,4.209c.226-.59.352-.931-.08-1.482a1.725,1.725,0,0,0-.794-.515ZM8.751,7.658c-.788.141-.848,1.015-.024,1.1l12.258-.088.22-.428c-.068-.437-.391-.563-.788-.608ZM25.513,18.576A11.586,11.586,0,0,0,19.5,9.953c-2.909.075-6.314-.348-9.188-.076-2.288.216-5.055,4.149-5.819,6.15a23.11,23.11,0,0,0-.87,11.766c.221.159,1.584-.058,2,.06a.523.523,0,0,1-.076,1.006c-1.324.246-4.866-.8-4.434,1.728.052.3.621.986.883.986H21.773l.094-1.119a1.591,1.591,0,0,1,0-3.089,2.144,2.144,0,0,1,0-1.308,1.591,1.591,0,0,1,0-3.089,1.7,1.7,0,0,1,0-1.21,1.643,1.643,0,0,1-.749-2.735,4.418,4.418,0,0,1,.7-.447Zm-3.3,1.049a.558.558,0,0,0,.069,1.107c2.393-.215,5.244.271,7.581,0,.9-.106.691-1.052-.093-1.126Zm9.168,3.137a.535.535,0,0,0-.4-.915c-2.37-.274-5.248.212-7.674,0a.52.52,0,0,0,0,1.038c2.455-.165,5.158.2,7.583,0,.145-.012.385-.016.488-.12M22.12,24.019c-.658.464-.418,1.016.354,1.1,2.235.251,4.916-.187,7.2,0,.84,0,1.144-1.012.189-1.124Zm1.122,2.15c-.641.424-.543,1.019.262,1.1,2.319.24,5.027-.18,7.389,0,.836-.064.838-1.061,0-1.126Zm-1.216,2.244c-.476.14-.271,1.04.257,1.015,2.393-.215,5.244.271,7.581,0,.334-.039.55-.159.6-.516l-.22-.427Zm9.357,2.248c-.1-.1-.343-.107-.488-.12-2.424-.2-5.128.164-7.583,0a.52.52,0,0,0,0,1.038l8-.051c.261-.127.238-.7.071-.867" transform="translate(0 0)" fill="#0354a5"/>
            <path id="Trazado_887174" data-name="Trazado 887174" d="M124.528,152.867a3.243,3.243,0,0,1-.9-6.095c.189-.092.829-.236.882-.288.108-.106.173-.645.615-.609.549.045.439.5.551.613.044.045.584.134.764.218a3.384,3.384,0,0,1,1.744,1.9c.147.433.418,1.412-.187,1.6-.812.256-.688-.7-.815-1.161a2.12,2.12,0,0,0-1.526-1.42v4.3a3.271,3.271,0,0,1,.747,6.218c-.2.094-.519.1-.651.191-.208.14-.159.636-.7.6-.463-.029-.411-.445-.619-.6-.23-.174-.932-.31-1.3-.571a3.589,3.589,0,0,1-1.317-2.43c-.023-.493.265-.83.777-.677.441.131.325.762.436,1.154a1.937,1.937,0,0,0,1.5,1.351Zm0-5.236a2.122,2.122,0,0,0,0,4.114Zm1.122,9.631a2.182,2.182,0,0,0,0-4.208Z" transform="translate(-110.423 -132.233)" fill="#0354a5"/>
          </g>
        </g>
      </g>
    </g>
  </g>
</svg>
