<svg xmlns="http://www.w3.org/2000/svg" xmlns:xlink="http://www.w3.org/1999/xlink" width="150" height="150" viewBox="0 0 150 150">
  <defs>
    <clipPath id="clip-path">
      <rect id="Rectángulo_404919" data-name="Rectángulo 404919" width="150" height="150" fill="none"/>
    </clipPath>
    <clipPath id="clip-path-2">
      <rect id="Rectángulo_404925" data-name="Rectángulo 404925" width="60" height="60" transform="translate(0 0)" fill="#fafafa" stroke="#707070" stroke-width="1"/>
    </clipPath>
    <clipPath id="clip-path-3">
      <rect id="Rectángulo_406754" data-name="Rectángulo 406754" width="54.974" height="55.108" fill="#fafafa"/>
    </clipPath>
  </defs>
  <g id="Grupo_1113909" data-name="Grupo 1113909" transform="translate(-179.664 -3667)">
    <g id="Grupo_1110094" data-name="Grupo 1110094" transform="translate(179.664 3667)">
      <g id="Grupo_1110058" data-name="Grupo 1110058" clip-path="url(#clip-path)">
        <path id="Trazado_883529" data-name="Trazado 883529" d="M4.9,35.444l16.68,92.369c2.45,13.569,15.941,22.669,30.131,20.326a26.632,26.632,0,0,0,12.25-5.412l75.316-60a24.187,24.187,0,0,0,3.343-35.112A26.093,26.093,0,0,0,131.6,40.179l-92-32.37C26.088,3.052,11.1,9.673,6.129,22.593A23.9,23.9,0,0,0,4.9,35.444" transform="translate(1.335 1.494)" fill="#023263"/>
        <path id="Trazado_883530" data-name="Trazado 883530" d="M147.8,106.113h0a25.748,25.748,0,0,1-7.478,9.933,26.908,26.908,0,0,1-12.278,5.565l-96.3,17.565C17.29,141.859,3.294,132.824.488,119a24.44,24.44,0,0,1,1.024-13.323L33.758,17.153c.15-.414.312-.827.483-1.23A26.285,26.285,0,0,1,54.641.349,28.053,28.053,0,0,1,67.719,1.371a26.574,26.574,0,0,1,11.5,7.495l64.049,70.958a24.474,24.474,0,0,1,4.536,26.289M35.441,16.39c-.162.385-.319.78-.461,1.174L2.735,106.084c-4.616,12.681,2.393,26.539,15.655,30.954a26.549,26.549,0,0,0,13.119.921L127.8,120.4c13.792-2.515,22.841-15.245,20.212-28.434a23.893,23.893,0,0,0-5.728-11.33L78.237,9.675A26.243,26.243,0,0,0,42.374,7.159a24.372,24.372,0,0,0-6.933,9.231" transform="translate(0 0)" fill="#41c9a5"/>
      </g>
    </g>
    <g id="Enmascarar_grupo_1108078" data-name="Enmascarar grupo 1108078" transform="translate(224.664 3712)" clip-path="url(#clip-path-2)">
      <g id="Grupo_1113912" data-name="Grupo 1113912" transform="translate(3 2)">
        <g id="Grupo_1113685" data-name="Grupo 1113685" clip-path="url(#clip-path-3)">
          <path id="Trazado_887173" data-name="Trazado 887173" d="M30.107,1.962c2.293.046,4.985-.4,6.142,2.132,1.294,2.829-.919,4.512-1.6,7.04,3.181-.051,4.009,3.761,1.264,5.28a22,22,0,0,1,7.837,10.441c.258.708,1.084,4.119,1.218,4.3.275.367,4.952.042,5.838.15a2.753,2.753,0,0,1,2.123,3.781,2.681,2.681,0,0,1,0,5.21L53,42.346a2.84,2.84,0,0,1-.031,5.418l-.043,1.975A2.734,2.734,0,0,1,53.056,55l-49.067.112c-4.261-.089-5.547-6.14-1.686-7.843.426-.188,1.852-.4,1.889-.586L3.6,41.784c-.161-9.371,1.7-19.744,9.923-25.37a2.77,2.77,0,0,1,1.421-5.281c-1.028-2.449-3.021-4.345-1.657-7.092,1.254-2.525,3.579-2,5.965-2.071C19.912,1,20.409.281,21.662.122a36.475,36.475,0,0,1,6.245.023,2.93,2.93,0,0,1,2.2,1.817m.126,1.766V7.747c0,.377-1.355,1.027-1.771.038C28,6.68,28.736,2.768,28.11,2.149c-.157-.155-.274-.14-.468-.162a38.917,38.917,0,0,0-5.531,0,1.751,1.751,0,0,0-.755.151c-.6.377-.033,4.548-.334,5.536A.954.954,0,0,1,19.2,7.59V3.729H16.444c-.59,0-1.579.988-1.738,1.571-.434,1.59,1.746,4.2,2.273,5.735l15.356.075a31.24,31.24,0,0,0,2.129-4.016c.381-.995.593-1.569-.135-2.5a2.907,2.907,0,0,0-1.339-.868ZM14.748,12.906c-1.329.238-1.43,1.711-.04,1.856l20.658-.149.372-.721c-.114-.736-.659-.949-1.328-1.024ZM43,31.307A19.526,19.526,0,0,0,32.868,16.773c-4.9.126-10.641-.586-15.485-.128-3.857.365-8.519,6.993-9.806,10.365-2.3,6.035-2.592,13.516-1.466,19.83.372.269,2.67-.1,3.366.1a.882.882,0,0,1-.128,1.7c-2.232.415-8.2-1.349-7.472,2.912.087.51,1.046,1.662,1.488,1.662h33.33l.158-1.886a2.681,2.681,0,0,1,0-5.207,3.613,3.613,0,0,1,0-2.2,2.681,2.681,0,0,1,0-5.207,2.861,2.861,0,0,1,0-2.039A2.769,2.769,0,0,1,35.59,32.06a7.445,7.445,0,0,1,1.183-.753Zm-5.561,1.767a.941.941,0,0,0,.116,1.866c4.033-.363,8.837.456,12.776-.005,1.52-.178,1.165-1.774-.157-1.9ZM52.888,38.36a.9.9,0,0,0-.669-1.541c-3.995-.462-8.845.357-12.933-.005a.876.876,0,0,0,0,1.749c4.137-.278,8.693.343,12.779,0,.244-.021.649-.027.823-.2M37.279,40.48c-1.11.782-.7,1.712.6,1.858,3.767.422,8.285-.315,12.134,0,1.415,0,1.927-1.705.318-1.894Zm1.89,3.624c-1.079.714-.915,1.717.441,1.858,3.908.4,8.473-.3,12.452,0,1.408-.108,1.413-1.788,0-1.9Zm-2.05,3.781c-.8.236-.456,1.753.433,1.71,4.033-.363,8.837.456,12.776-.005.563-.066.927-.269,1.01-.87L50.967,48Zm15.769,3.788c-.174-.174-.578-.181-.823-.2-4.085-.345-8.642.277-12.779,0a.876.876,0,0,0,0,1.749l13.482-.086c.44-.214.4-1.178.119-1.46" transform="translate(0 0)" fill="#fafafa"/>
          <path id="Trazado_887174" data-name="Trazado 887174" d="M126.389,157.659c-5.224-.7-6.193-7.984-1.525-10.271.318-.156,1.4-.4,1.486-.485.181-.179.291-1.087,1.037-1.027.925.075.739.842.928,1.033.074.075.984.226,1.288.367a5.7,5.7,0,0,1,2.939,3.207c.247.73.7,2.379-.315,2.7-1.369.431-1.16-1.175-1.374-1.956a3.574,3.574,0,0,0-2.572-2.392v7.249a5.512,5.512,0,0,1,1.26,10.478c-.334.158-.874.171-1.1.321-.351.236-.267,1.073-1.175,1.017-.78-.048-.693-.751-1.042-1.015-.388-.293-1.571-.522-2.19-.962a6.048,6.048,0,0,1-2.22-4.1c-.039-.831.446-1.4,1.309-1.142.743.221.547,1.285.736,1.945a3.265,3.265,0,0,0,2.529,2.277Zm0-8.825a3.577,3.577,0,0,0,0,6.934Zm1.891,16.232a3.678,3.678,0,0,0,0-7.091Z" transform="translate(-102.617 -122.886)" fill="#fafafa"/>
        </g>
      </g>
    </g>
  </g>
</svg>
