<svg xmlns="http://www.w3.org/2000/svg" xmlns:xlink="http://www.w3.org/1999/xlink" width="70" height="70" viewBox="0 0 70 70">
  <defs>
    <clipPath id="clip-path">
      <rect id="Rectángulo_406915" data-name="Rectángulo 406915" width="44.615" height="38" fill="#023263"/>
    </clipPath>
  </defs>
  <g id="Grupo_1112353" data-name="Grupo 1112353" transform="translate(-268.711 -957.971)">
    <circle id="Elipse_5614" data-name="Elipse 5614" cx="35" cy="35" r="35" transform="translate(268.711 957.971)" fill="#fff"/>
    <g id="Grupo_1113834" data-name="Grupo 1113834" transform="translate(281.711 974.971)">
      <g id="Grupo_1113833" data-name="Grupo 1113833" clip-path="url(#clip-path)">
        <path id="Trazado_887748" data-name="Trazado 887748" d="M164.406,66l20.853.074c1.44.617-.4,3.558-.466,4.632a33.349,33.349,0,0,0,.618,3.283,49.487,49.487,0,0,1,.291,10.644c-.135,1.549-.906,4.191-.882,5.472.026,1.375,2.352,4.619-.269,4.859l-20.319-.133c-1.587-.644.343-3.517.35-4.727.008-1.251-.677-3.479-.815-4.924a50.236,50.236,0,0,1,0-9.432c.138-1.432.82-3.693.815-4.925,0-1.03-1.1-2.858-1.046-3.809A1.241,1.241,0,0,1,164.406,66m4.16,5.271c.152.152.5.157.71.175,3.529.3,7.474-.242,11.049,0a.75.75,0,0,0,.714-.737,1.053,1.053,0,0,0-.99-.777c-3.323-.387-7.368.3-10.77,0a.844.844,0,0,0-.714,1.337m2.079,3.861h8.039a.786.786,0,0,0-.165-1.475c-2.311.107-4.924-.242-7.2-.036-1.271.115-1.265,1.345-.675,1.511m0,12.033h8.039c.51,0,1.044-1.381-.812-1.51a44.053,44.053,0,0,0-6.786.038c-1.025.183-.975,1.322-.441,1.472m-2.079,3.523c.152.152.5.157.71.175,3.529.3,7.474-.242,11.049,0a.69.69,0,0,0,.412-1.248l-12.07-.059a.877.877,0,0,0-.1,1.131" transform="translate(-141.249 -56.971)" fill="#023263"/>
        <path id="Trazado_887749" data-name="Trazado 887749" d="M31.856,118.784a58.309,58.309,0,0,0-.119,13.177c.129,1.048.631,2.661.651,3.588a1.219,1.219,0,0,1-.328.873H27.837l-.184-.226c-.041-5.66-7.949-7.482-10.378-2.372-.336.265-1.16-2.328-1.228-2.526-1.413-4.116-2.465-8.377-3.812-12.514Z" transform="translate(-10.568 -102.542)" fill="#023263"/>
        <path id="Trazado_887750" data-name="Trazado 887750" d="M21.152,84.784a21.959,21.959,0,0,1,.654,2.254c.008.365-.1,1.138-.58,1.035L.8,88.049.2,87.9c-.255-.435-.338-3.112.171-3.112Z" transform="translate(0 -73.191)" fill="#023263"/>
        <path id="Trazado_887751" data-name="Trazado 887751" d="M55.942,218.153c4.311-4.224,10.137,3.223,5.088,6.4-4.2,2.646-8.432-3.128-5.088-6.4m2.365,1.348a1.686,1.686,0,0,0,.279,3.222,1.662,1.662,0,1,0-.279-3.222" transform="translate(-47.277 -187.233)" fill="#023263"/>
        <path id="Trazado_887752" data-name="Trazado 887752" d="M84.729,41.119H77.235V36.538c0-.262.625-.462.877-.487a40.517,40.517,0,0,1,5.875,0c.222.03.742.313.742.486Z" transform="translate(-66.711 -31.03)" fill="#023263"/>
        <path id="Trazado_887753" data-name="Trazado 887753" d="M15.793,33.274c-.371-.7-1.93-2.471-1.234-3.153l5.626-3.248c.5-.176,1.238,1.169,1.335,1.49.068.224-.073.284-.073.33v4.581Z" transform="translate(-12.422 -23.185)" fill="#023263"/>
        <path id="Trazado_887754" data-name="Trazado 887754" d="M101.235.449A1.027,1.027,0,0,1,101.982.1a39.986,39.986,0,0,1,5.731,0c.294.025.88.084.88.484V5.576l-1.644-.06c-.039-.774-1.075-1.991-1.831-1.991h-3.883Z" transform="translate(-87.441 0.001)" fill="#023263"/>
        <path id="Trazado_887755" data-name="Trazado 887755" d="M148.072,51.784a1.1,1.1,0,0,1,.341.409c-1.823-.252-3.884.49-3.815,2.6h-1.363V51.784Z" transform="translate(-123.718 -44.703)" fill="#023263"/>
      </g>
    </g>
  </g>
</svg>
