<svg xmlns="http://www.w3.org/2000/svg" xmlns:xlink="http://www.w3.org/1999/xlink" width="505" height="258.008" viewBox="0 0 505 258.008">
  <defs>
    <clipPath id="clip-path">
      <path id="Trazado_885829" data-name="Trazado 885829" d="M-25,0H480V258.008H-25Z" transform="translate(25)" fill="none"/>
    </clipPath>
    <clipPath id="clip-path-2">
      <rect id="Rectángulo_405661" data-name="Rectángulo 405661" width="508.197" height="260.542" transform="translate(-28.197)" fill="none"/>
    </clipPath>
    <clipPath id="clip-path-3">
      <rect id="Rectángulo_405639" data-name="Rectángulo 405639" width="6.295" height="70.47" fill="none"/>
    </clipPath>
    <clipPath id="clip-path-4">
      <rect id="Rectángulo_405640" data-name="Rectángulo 405640" width="10.644" height="24" fill="none"/>
    </clipPath>
    <clipPath id="clip-path-5">
      <rect id="Rectángulo_405641" data-name="Rectángulo 405641" width="36.42" height="55.066" fill="none"/>
    </clipPath>
    <clipPath id="clip-path-6">
      <rect id="Rectángulo_405642" data-name="Rectángulo 405642" width="14.687" height="13.17" fill="none"/>
    </clipPath>
    <clipPath id="clip-path-7">
      <rect id="Rectángulo_405643" data-name="Rectángulo 405643" width="10.748" height="66.172" fill="none"/>
    </clipPath>
    <clipPath id="clip-path-8">
      <rect id="Rectángulo_405644" data-name="Rectángulo 405644" width="4.319" height="22.365" fill="none"/>
    </clipPath>
    <clipPath id="clip-path-9">
      <rect id="Rectángulo_405645" data-name="Rectángulo 405645" width="1.561" height="41.654" fill="none"/>
    </clipPath>
    <clipPath id="clip-path-10">
      <rect id="Rectángulo_405646" data-name="Rectángulo 405646" width="45.923" height="47.852" fill="none"/>
    </clipPath>
    <clipPath id="clip-path-11">
      <rect id="Rectángulo_405647" data-name="Rectángulo 405647" width="16.199" height="13.535" fill="none"/>
    </clipPath>
    <clipPath id="clip-path-12">
      <rect id="Rectángulo_405648" data-name="Rectángulo 405648" width="7.134" height="19.541" fill="none"/>
    </clipPath>
    <clipPath id="clip-path-13">
      <rect id="Rectángulo_405649" data-name="Rectángulo 405649" width="60.751" height="26.565" fill="none"/>
    </clipPath>
    <clipPath id="clip-path-14">
      <rect id="Rectángulo_405650" data-name="Rectángulo 405650" width="60.864" height="20.169" fill="none"/>
    </clipPath>
    <clipPath id="clip-path-15">
      <rect id="Rectángulo_405651" data-name="Rectángulo 405651" width="47.155" height="53.129" fill="none"/>
    </clipPath>
    <clipPath id="clip-path-16">
      <rect id="Rectángulo_405652" data-name="Rectángulo 405652" width="43.928" height="51.583" fill="none"/>
    </clipPath>
    <clipPath id="clip-path-17">
      <rect id="Rectángulo_405654" data-name="Rectángulo 405654" width="59.669" height="59.675" fill="none"/>
    </clipPath>
    <clipPath id="clip-path-18">
      <rect id="Rectángulo_405655" data-name="Rectángulo 405655" width="49.515" height="50.361" fill="none"/>
    </clipPath>
    <clipPath id="clip-path-19">
      <rect id="Rectángulo_405656" data-name="Rectángulo 405656" width="43.362" height="44.261" fill="none"/>
    </clipPath>
  </defs>
  <g id="Grupo_1111893" data-name="Grupo 1111893" transform="translate(25 -30.534)">
    <g id="Enmascarar_grupo_1108103" data-name="Enmascarar grupo 1108103" transform="translate(-25 30.534)" clip-path="url(#clip-path)">
      <g id="Grupo_1111891" data-name="Grupo 1111891" transform="translate(25 -2.534)">
        <g id="Grupo_1111890" data-name="Grupo 1111890" clip-path="url(#clip-path-2)">
          <path id="Trazado_885701" data-name="Trazado 885701" d="M437.728,252.433,24.735,254.922a123.248,123.248,0,0,1-6.872-27.011c-.025-.155-.05-.31-.062-.465a84.511,84.511,0,0,1-.65-10.3c-.075-68.677,78.432-82.227,81.574-127.742,0-90.733,70.773-100.278,154.362-64.828a87.05,87.05,0,0,0,50.694.918c.626-.166,1.239-.343,1.853-.52q1.6-.464,3.154-.962c26.674-8.56,47.891-25.4,69.683-23.924a39.075,39.075,0,0,1,5.007.663,41.178,41.178,0,0,1,12.28,4.69c11.8,6.526,17.486,15.208,19.439,25.23a42.382,42.382,0,0,1,.613,4.424c1.615,18.206-7.122,40.185-13.205,61.565-.263.917-.525,1.836-.776,2.765l-.45,1.66c-5.908,22.166-7.974,43.358,8.512,58.667,20.215,18.781,27.688,40,29.866,57.395.35,2.687.563,5.265.676,7.743.05,1.028.075,2.035.087,3.02.251,14.589-2.791,24.522-2.791,24.522" transform="translate(-5.655 5.564)" fill="#d2ecf1"/>
          <path id="Trazado_885702" data-name="Trazado 885702" d="M566.682,82.659a15.949,15.949,0,0,0,1.517-4.746l.006-.044-2.644-.408a13.2,13.2,0,0,0-.031-4.144l2.644-.437a15.848,15.848,0,0,0-1.576-4.729l-2.381,1.236a13.385,13.385,0,0,0-2.459-3.336l1.886-1.909a15.867,15.867,0,0,0-4.051-2.906l-1.2,2.4a13.185,13.185,0,0,0-3.919-1.252l-.032,0,.4-2.645a15.9,15.9,0,0,0-4.982.027L550.3,62.4a13.218,13.218,0,0,0-3.932,1.31l-1.235-2.382a15.983,15.983,0,0,0-4.011,2.951l1.907,1.888a13.218,13.218,0,0,0-2.422,3.363l-2.394-1.2a15.918,15.918,0,0,0-1.505,4.723l0,.022,2.645.394a13.214,13.214,0,0,0,.023,4.158l-2.644.432a15.864,15.864,0,0,0,1.568,4.732l2.382-1.232a13.369,13.369,0,0,0,2.455,3.341l-1.889,1.9a15.873,15.873,0,0,0,4.046,2.912l1.2-2.394a13.233,13.233,0,0,0,3.939,1.262h.011l-.406,2.643a15.918,15.918,0,0,0,4.982-.02l-.431-2.644a13.229,13.229,0,0,0,3.934-1.3l1.23,2.384a15.967,15.967,0,0,0,4.016-2.945l-1.9-1.89a13.232,13.232,0,0,0,2.426-3.36Zm-15.3-.255a7,7,0,1,1,7.988-5.853,7.01,7.01,0,0,1-7.988,5.853" transform="translate(-176.96 -47.634)" fill="#fff"/>
          <path id="Trazado_885703" data-name="Trazado 885703" d="M134.688,39.815a12.957,12.957,0,0,0,1.234-3.862l.005-.036-2.151-.332a10.758,10.758,0,0,0-.025-3.372l2.152-.356a12.907,12.907,0,0,0-1.282-3.848l-1.938,1.006a10.857,10.857,0,0,0-2-2.715l1.536-1.553a12.915,12.915,0,0,0-3.3-2.365l-.977,1.95a10.731,10.731,0,0,0-3.189-1.019l-.025,0,.326-2.152a12.949,12.949,0,0,0-4.054.023l.355,2.152a10.76,10.76,0,0,0-3.2,1.065l-1-1.938a13.011,13.011,0,0,0-3.264,2.4L115.44,26.4a10.773,10.773,0,0,0-1.971,2.737l-1.949-.978A12.948,12.948,0,0,0,110.3,32l0,.017,2.152.321a10.754,10.754,0,0,0,.018,3.383l-2.152.352a12.924,12.924,0,0,0,1.276,3.851l1.938-1a10.9,10.9,0,0,0,2,2.719l-1.536,1.55a12.891,12.891,0,0,0,3.292,2.37l.979-1.948a10.741,10.741,0,0,0,3.2,1.027h.009l-.33,2.15a12.949,12.949,0,0,0,4.054-.016l-.351-2.152a10.778,10.778,0,0,0,3.2-1.061l1,1.94a13,13,0,0,0,3.268-2.4l-1.549-1.538a10.751,10.751,0,0,0,1.974-2.733Zm-12.447-.207a5.7,5.7,0,1,1,6.5-4.762,5.7,5.7,0,0,1-6.5,4.762" transform="translate(-42.447 -8.026)" fill="#d2f1e8"/>
          <path id="Trazado_885704" data-name="Trazado 885704" d="M641.9,268.308a7.045,7.045,0,0,0,.672-2.1l0-.019-1.171-.18a5.868,5.868,0,0,0-.014-1.836l1.171-.193a7.019,7.019,0,0,0-.7-2.095l-1.054.547a5.934,5.934,0,0,0-1.09-1.477l.836-.845a7.023,7.023,0,0,0-1.794-1.288l-.531,1.062a5.837,5.837,0,0,0-1.736-.554l-.014,0,.178-1.172a7.04,7.04,0,0,0-2.207.012l.192,1.172a5.871,5.871,0,0,0-1.741.581l-.547-1.056a7.1,7.1,0,0,0-1.776,1.307l.845.836a5.855,5.855,0,0,0-1.072,1.489l-1.061-.532a7.07,7.07,0,0,0-.667,2.092v.009l1.172.175a5.844,5.844,0,0,0,.01,1.841l-1.171.192a7.024,7.024,0,0,0,.695,2.1l1.055-.546a5.924,5.924,0,0,0,1.087,1.479l-.837.844a7.008,7.008,0,0,0,1.792,1.29l.533-1.06a5.851,5.851,0,0,0,1.745.559h0l-.18,1.17a7.036,7.036,0,0,0,2.206-.009l-.19-1.171a5.851,5.851,0,0,0,1.742-.578l.545,1.056a7.074,7.074,0,0,0,1.779-1.3l-.843-.837a5.846,5.846,0,0,0,1.075-1.488Zm-6.775-.113a3.1,3.1,0,1,1,3.538-2.592,3.1,3.1,0,0,1-3.538,2.592" transform="translate(-207.265 -113.091)" fill="#d2f1e8"/>
          <path id="Trazado_885705" data-name="Trazado 885705" d="M243.35,57.936h-2.139V55.8h-1.444v2.139h-2.139V59.38h2.139v2.139h1.444V59.38h2.139Z" transform="translate(-78.35 -39.644)" fill="#fff"/>
          <path id="Trazado_885706" data-name="Trazado 885706" d="M37.888,329.439H34.461v-3.426H32.149v3.426H28.723v2.313h3.426v3.427h2.312v-3.427h3.426Z" transform="translate(-9.47 -135.492)" fill="#fff"/>
          <path id="Trazado_885707" data-name="Trazado 885707" d="M510.611,28.444h-3.426V25.017h-2.312v3.426h-3.426v2.312h3.426v3.426h2.312V30.756h3.426Z" transform="translate(-165.335 -36.249)" fill="#fff"/>
          <path id="Trazado_885708" data-name="Trazado 885708" d="M631.786,362.554h-4.664V357.89h-3.148v4.664H619.31V365.7h4.664v4.664h3.148V365.7h4.664Z" transform="translate(-204.197 -146.002)" fill="#fff"/>
          <path id="Trazado_885709" data-name="Trazado 885709" d="M152.172,299.519a7.863,7.863,0,0,0,.749-2.344l0-.021-1.306-.2a6.52,6.52,0,0,0-.015-2.046l1.306-.216a7.856,7.856,0,0,0-.778-2.336l-1.176.611a6.6,6.6,0,0,0-1.215-1.648l.932-.943a7.857,7.857,0,0,0-2-1.435l-.593,1.184a6.525,6.525,0,0,0-1.936-.618l-.015,0,.2-1.306a7.868,7.868,0,0,0-2.461.013l.215,1.306a6.531,6.531,0,0,0-1.942.647l-.61-1.177a7.909,7.909,0,0,0-1.981,1.458l.942.932a6.529,6.529,0,0,0-1.2,1.661l-1.182-.594a7.872,7.872,0,0,0-.743,2.333l0,.011,1.306.2a6.524,6.524,0,0,0,.011,2.053l-1.306.214a7.824,7.824,0,0,0,.774,2.337l1.177-.609a6.584,6.584,0,0,0,1.212,1.65l-.933.941a7.855,7.855,0,0,0,2,1.438l.6-1.182a6.517,6.517,0,0,0,1.944.623h.005l-.2,1.305a7.87,7.87,0,0,0,2.461-.009l-.213-1.306a6.52,6.52,0,0,0,1.943-.644l.607,1.178a7.877,7.877,0,0,0,1.983-1.455l-.94-.934a6.523,6.523,0,0,0,1.2-1.659Zm-7.555-.125a3.458,3.458,0,1,1,3.945-2.89,3.462,3.462,0,0,1-3.945,2.89" transform="translate(-45.292 -122.993)" fill="#fff"/>
          <path id="Trazado_885710" data-name="Trazado 885710" d="M499.391,428.821H2.412a2.412,2.412,0,0,1,0-4.824H499.391a2.412,2.412,0,1,1,0,4.824" transform="translate(-25 -168.039)" fill="#a5d1c1"/>
          <rect id="Rectángulo_405622" data-name="Rectángulo 405622" width="49.664" height="67.728" transform="translate(201.06 182.347)" fill="#919395"/>
          <rect id="Rectángulo_405623" data-name="Rectángulo 405623" width="113.753" height="8.051" transform="translate(169.015 248.397)" fill="#babcbe"/>
          <path id="Trazado_885711" data-name="Trazado 885711" d="M399.706,93.591V245.485c0,5.77-4.288,10.45-9.571,10.45H162.542c-5.283,0-9.57-4.679-9.57-10.45V93.591c0-5.781,4.288-10.46,9.57-10.46H390.135c5.283,0,9.571,4.68,9.571,10.46" transform="translate(-50.437 -55.41)" fill="#434244"/>
          <path id="Trazado_885712" data-name="Trazado 885712" d="M399.706,293.332v21.461c0,5.77-4.288,10.449-9.571,10.449H162.542c-5.283,0-9.57-4.679-9.57-10.449V293.332Z" transform="translate(-50.437 -124.716)" fill="#babcbe"/>
          <path id="Trazado_885713" data-name="Trazado 885713" d="M390.8,95.367H170.062a4.678,4.678,0,0,0-4.678,4.678V214.912a4.677,4.677,0,0,0,4.678,4.677H390.8a4.677,4.677,0,0,0,4.678-4.677V100.045a4.678,4.678,0,0,0-4.678-4.678" transform="translate(-54.53 -59.444)" fill="#6d6e70"/>
          <rect id="Rectángulo_405624" data-name="Rectángulo 405624" width="217.523" height="136.936" transform="translate(116.715 43.081)" fill="#fff"/>
          <rect id="Rectángulo_405625" data-name="Rectángulo 405625" width="12.878" height="43.152" transform="translate(126.245 125.701)" fill="#df922f"/>
          <rect id="Rectángulo_405626" data-name="Rectángulo 405626" width="12.878" height="50.32" transform="translate(142.579 118.533)" fill="#cfd0d2"/>
          <rect id="Rectángulo_405627" data-name="Rectángulo 405627" width="12.878" height="60.462" transform="translate(159.077 108.39)" fill="#df922f"/>
          <rect id="Rectángulo_405628" data-name="Rectángulo 405628" width="12.878" height="68.532" transform="translate(175.412 100.32)" fill="#cfd0d2"/>
          <rect id="Rectángulo_405629" data-name="Rectángulo 405629" width="12.878" height="63.808" transform="translate(191.91 105.044)" fill="#df922f"/>
          <rect id="Rectángulo_405630" data-name="Rectángulo 405630" width="12.878" height="60.462" transform="translate(208.245 108.39)" fill="#cfd0d2"/>
          <rect id="Rectángulo_405631" data-name="Rectángulo 405631" width="12.878" height="57.211" transform="translate(224.743 111.64)" fill="#df922f"/>
          <rect id="Rectángulo_405632" data-name="Rectángulo 405632" width="12.878" height="60.462" transform="translate(241.078 108.39)" fill="#cfd0d2"/>
          <rect id="Rectángulo_405633" data-name="Rectángulo 405633" width="12.878" height="68.532" transform="translate(257.576 100.32)" fill="#df922f"/>
          <rect id="Rectángulo_405634" data-name="Rectángulo 405634" width="12.878" height="77.154" transform="translate(273.91 91.698)" fill="#cfd0d2"/>
          <rect id="Rectángulo_405635" data-name="Rectángulo 405635" width="12.878" height="87.13" transform="translate(290.409 81.723)" fill="#df922f"/>
          <rect id="Rectángulo_405636" data-name="Rectángulo 405636" width="12.878" height="92.854" transform="translate(306.743 75.997)" fill="#cfd0d2"/>
          <rect id="Rectángulo_405637" data-name="Rectángulo 405637" width="6.294" height="6.295" transform="translate(126.245 65.501)" fill="#df922f"/>
          <path id="Trazado_885714" data-name="Trazado 885714" d="M231.911,144.861H204.749a.84.84,0,0,1-.838-.838v-.962a.84.84,0,0,1,.838-.838h27.162a.841.841,0,0,1,.838.838v.962a.84.84,0,0,1-.838.838" transform="translate(-67.233 -74.893)" fill="#cfd1d2"/>
          <rect id="Rectángulo_405638" data-name="Rectángulo 405638" width="6.294" height="6.295" transform="translate(126.245 74.733)" fill="#babcbe"/>
          <path id="Trazado_885715" data-name="Trazado 885715" d="M231.911,158.634H204.749a.84.84,0,0,1-.838-.838v-.962a.84.84,0,0,1,.838-.838h27.162a.841.841,0,0,1,.838.838v.962a.84.84,0,0,1-.838.838" transform="translate(-67.233 -79.434)" fill="#cfd1d2"/>
          <path id="Trazado_885716" data-name="Trazado 885716" d="M386.539,127.445l-11.968,1.4,1.79,3.113L298.33,174.469l-58.958-13.315-51.028,30.221.025,3.1L239.818,164l58.9,13.3L377.7,134.277l1.717,2.985Z" transform="translate(-62.1 -70.021)" fill="#0354a5"/>
          <path id="Trazado_885717" data-name="Trazado 885717" d="M550.5,404.943l-.411,2.316s-5.753,2.615-6.677,2.615-12.02-2.548-10.787,8.126h27.738l-.822-13.057Z" transform="translate(-175.582 -161.516)" fill="#434244"/>
          <path id="Trazado_885718" data-name="Trazado 885718" d="M588.421,415.6v2.566s10.787,3.616,15.92-.914a9.262,9.262,0,0,0-.184-2.273,11.528,11.528,0,0,0-3.716-6.551l-.981-5.762-8.161,2.046v3.28s-2.574,5.972-2.851,7.407a1.089,1.089,0,0,0-.025.2" transform="translate(-194.012 -160.764)" fill="#434244"/>
          <path id="Trazado_885719" data-name="Trazado 885719" d="M494.621,180.573s-2.011,3.225-2.318,3.5a9.509,9.509,0,0,1-2.085.855c-.538.178-1.361-.156-1.054-1.766.362-1.432.356-2.062.664-2.34s3.692-1.98,3.692-1.98Z" transform="translate(-161.263 -86.967)" fill="#cd9088"/>
          <path id="Trazado_885720" data-name="Trazado 885720" d="M486.77,181.514c.418-1.753.388-2.445.725-2.794a26.5,26.5,0,0,1,2.333-1.516,5.845,5.845,0,0,0,2.166,1.464,33.634,33.634,0,0,0-2.923,1.815c-.338.347-.373,2.773-.988,3.024s-1.571-.056-1.313-1.992" transform="translate(-160.482 -86.427)" fill="#dca79e"/>
          <path id="Trazado_885721" data-name="Trazado 885721" d="M495.119,182.489s-3.405-4.6-4.41-5.617-6.844-2.331-8.342-3.04c-1.643-.584-2.209.688-.2,1.831,2.14,1.269,5.968,2.9,6.264,3.083a9,9,0,0,1,.711,3.059c-.061.267-2.162.094-2.481-.05s-1.69-2.136-3.418-1.716,1.831,3.916,2.691,4.339,3.674,2.158,6.162,1.827l3.114-2.464Z" transform="translate(-158.554 -85.267)" fill="#e5b7ac"/>
          <path id="Trazado_885722" data-name="Trazado 885722" d="M534.249,206.953s-.487.637-1.275,1.627c-2.148,2.726-6.567,8.086-9.545,10.182l-.008.009c-.269.184-.52.344-.763.478-5.058,3.036-27.512-28.132-27.512-28.132l5.662-6.584s18.57,22.387,18.906,21.3c7.406-13.42,9.344-17.321,9.344-17.321s13.865,3.162,5.192,18.445" transform="translate(-163.257 -88.843)" fill="#3a526a"/>
          <path id="Trazado_885723" data-name="Trazado 885723" d="M584.972,259.647l3.9,97.8-11.506,1.028-10-79.538v79.538h-12.8l-3.389-98.417Z" transform="translate(-181.731 -113.61)" fill="#0354a5"/>
          <g id="Grupo_1111841" data-name="Grupo 1111841" transform="translate(379.34 161.898)" style="mix-blend-mode: multiply;isolation: isolate">
            <g id="Grupo_1111840" data-name="Grupo 1111840">
              <g id="Grupo_1111839" data-name="Grupo 1111839" clip-path="url(#clip-path-3)">
                <path id="Trazado_885724" data-name="Trazado 885724" d="M565.94,283.31l3.782,5.342,2.513,65.129V286.739Z" transform="translate(-565.94 -283.31)" fill="#cfd1d2"/>
              </g>
            </g>
          </g>
          <path id="Trazado_885725" data-name="Trazado 885725" d="M584.522,229.785c-1.258,2.323-6.039,15.056-6.039,15.056a35.849,35.849,0,0,1-10.912,1.443,13.9,13.9,0,0,1-2.533-6.165s-.789,4.228-2.726,5.922c-3.825-.411-10.753-1.619-14.209-4.982l.126-3.1,1.434-34.231-3.926-19.8s8.321-11.306,19.267-13.286c12.465,1.5,24.929,13.286,24.929,13.286s-4.169,11.056-7.666,20.407c-1.552,4.136,2.256,25.449,2.256,25.449" transform="translate(-179.938 -84.264)" fill="#3a526a"/>
          <g id="Grupo_1111844" data-name="Grupo 1111844" transform="translate(360.171 105.919)" style="mix-blend-mode: multiply;isolation: isolate">
            <g id="Grupo_1111843" data-name="Grupo 1111843">
              <g id="Grupo_1111842" data-name="Grupo 1111842" clip-path="url(#clip-path-4)">
                <path id="Trazado_885726" data-name="Trazado 885726" d="M547.985,199.8l-1.1,13.818c-2.148,2.726-6.568,8.086-9.546,10.182l7.918-9.721.924-7.046-.886-4.181,1.589,1.666Z" transform="translate(-537.341 -199.795)" fill="#cfd1d2"/>
              </g>
            </g>
          </g>
          <path id="Trazado_885727" data-name="Trazado 885727" d="M574.171,244.7l-.233-7.519-.168-7.519-.234-15.039-.088-15.042.008-7.521.074-7.522.234,7.519.168,7.519.233,15.04.087,15.04-.008,7.521Z" transform="translate(-189.075 -88.844)" fill="#383838"/>
          <path id="Trazado_885728" data-name="Trazado 885728" d="M569.5,199.958a.7.7,0,1,0,.7-.7.7.7,0,0,0-.7.7" transform="translate(-187.772 -93.699)" fill="#383838"/>
          <path id="Trazado_885729" data-name="Trazado 885729" d="M569.5,215.131a.7.7,0,1,0,.7-.7.7.7,0,0,0-.7.7" transform="translate(-187.772 -98.702)" fill="#383838"/>
          <path id="Trazado_885730" data-name="Trazado 885730" d="M569.5,230.3a.7.7,0,1,0,.7-.7.7.7,0,0,0-.7.7" transform="translate(-187.772 -103.704)" fill="#383838"/>
          <path id="Trazado_885731" data-name="Trazado 885731" d="M569.5,245.477a.7.7,0,1,0,.7-.7.7.7,0,0,0-.7.7" transform="translate(-187.772 -108.707)" fill="#383838"/>
          <path id="Trazado_885732" data-name="Trazado 885732" d="M569.5,260.65a.7.7,0,1,0,.7-.7.7.7,0,0,0-.7.7" transform="translate(-187.772 -113.71)" fill="#383838"/>
          <g id="Grupo_1111847" data-name="Grupo 1111847" transform="translate(368.164 106.954)" style="mix-blend-mode: multiply;isolation: isolate">
            <g id="Grupo_1111846" data-name="Grupo 1111846">
              <g id="Grupo_1111845" data-name="Grupo 1111845" clip-path="url(#clip-path-5)">
                <path id="Trazado_885733" data-name="Trazado 885733" d="M585.686,239.906c-1.258,2.323-6.039,15.056-6.039,15.056a35.848,35.848,0,0,1-10.912,1.443,13.906,13.906,0,0,1-2.533-6.165s-.789,4.227-2.726,5.922c-3.825-.411-10.753-1.619-14.209-4.982l.126-3.1c33.291-4.4,31.932-32.821,31.932-32.821a22.345,22.345,0,0,1-1.158-6.291,17.454,17.454,0,0,1,1.678-7.633s-.579,3.632-.646,5.226,2.231,7.893,2.231,7.893c-1.552,4.136,2.256,25.449,2.256,25.449" transform="translate(-549.266 -201.338)" fill="#e5e5e6"/>
              </g>
            </g>
          </g>
          <path id="Trazado_885734" data-name="Trazado 885734" d="M606.536,190.461a199.625,199.625,0,0,1,7.281,32.342c.663,5.592-13.307,32.342-13.307,32.342l-4.423-6.153s6.2-18.907,6.979-25.049a129.856,129.856,0,0,0-4.2-13.073c-7.9-15.693,7.671-20.409,7.671-20.409" transform="translate(-196.54 -90.798)" fill="#3a526a"/>
          <path id="Trazado_885735" data-name="Trazado 885735" d="M564.344,169.108s.747,4.522,7.767,4.522,8.941-5.579,8.941-5.579l-.881-3.614-1.032-5.855-1.266-7.121-6.325,7.85-7.1-1.124-.059,6.056Z" transform="translate(-186.073 -77.939)" fill="#e5b7ac"/>
          <path id="Trazado_885736" data-name="Trazado 885736" d="M583.214,170.819l-9.645,9.193,3.443,7.318,9.635-12.686Z" transform="translate(-189.115 -84.322)" fill="#4e7690"/>
          <path id="Trazado_885737" data-name="Trazado 885737" d="M563.139,171.833l6.155,8.513-4.408,6.305-4.282-12Z" transform="translate(-184.84 -84.656)" fill="#4e7690"/>
          <path id="Trazado_885738" data-name="Trazado 885738" d="M500.427,184.535l3.146,2.6-2.028,1.888-2.516-1.4,1.188,2.586-3.98,3.914L494,190.839Z" transform="translate(-162.878 -88.844)" fill="#4e7690"/>
          <g id="Grupo_1111850" data-name="Grupo 1111850" transform="translate(378.38 73.522)" opacity="0.5">
            <g id="Grupo_1111849" data-name="Grupo 1111849">
              <g id="Grupo_1111848" data-name="Grupo 1111848" clip-path="url(#clip-path-6)">
                <path id="Trazado_885739" data-name="Trazado 885739" d="M564.507,163.823c3.169,2.306,7.75-.6,14.687-5.241l-1.267-7.121-6.324,7.851-7.1-1.124Z" transform="translate(-564.507 -151.461)" fill="#ca7e86"/>
              </g>
            </g>
          </g>
          <path id="Trazado_885740" data-name="Trazado 885740" d="M554.645,133.279s-1.587,3.122-.4,5.851l2.85-5.018Z" transform="translate(-182.598 -71.944)" fill="#383838"/>
          <path id="Trazado_885741" data-name="Trazado 885741" d="M564.127,123.34v-.006s8.338-2.1,12.749,7.94c0,0,2.623,6.49-.078,12.788,0,0-5.837,8.337-12.671,10.7-4.8,1.477-8.659-7.143-9.748-15.743-.673-7.924,4.285-14.968,9.747-15.673" transform="translate(-182.768 -68.605)" fill="#e5b7ac"/>
          <path id="Trazado_885742" data-name="Trazado 885742" d="M561.434,157.055s2.725,1.843,6.7-.258c0,0-.981,2.655-3.058,2.806a3.847,3.847,0,0,1-3.64-2.548" transform="translate(-185.114 -79.698)" fill="#fff"/>
          <path id="Trazado_885743" data-name="Trazado 885743" d="M586.985,147.388v3.889c3.289,1.184,5.987-2.06,6.479-4.711.246-1.337-.07-2.521-1.146-2.928-2.275-.846-3.988,1.368-4.8,2.743a9.279,9.279,0,0,0-.53,1.007" transform="translate(-193.538 -75.298)" fill="#e5b7ac"/>
          <path id="Trazado_885744" data-name="Trazado 885744" d="M577.933,120.341a4.8,4.8,0,0,0-4.964-1.634c-9.315-15.913-25.7,4.171-25.7,4.171h4.1l-7.456,2.936c7.13,4.089,17.866,4.022,17.866,4.022v0a67.323,67.323,0,0,0,7.139-.175,4.132,4.132,0,0,0,2.762,3.985,49.3,49.3,0,0,0,.558,7.509,21.832,21.832,0,0,0,1.418-5.6h0a8.871,8.871,0,0,1,1.72-1.751,4.8,4.8,0,0,1,1.922-.521s2.465-10.428.635-12.936" transform="translate(-179.336 -65.117)" fill="#383838"/>
          <path id="Trazado_885745" data-name="Trazado 885745" d="M591.62,147.126a4.631,4.631,0,0,0-3.673,2.126.191.191,0,0,0,.061.263.188.188,0,0,0,.1.03.193.193,0,0,0,.163-.091,5.013,5.013,0,0,1,1.377-1.353c.792.519.385,1.86.381,1.874a.192.192,0,0,0,.125.241.179.179,0,0,0,.058.009.191.191,0,0,0,.183-.134c.021-.065.449-1.476-.386-2.2a3.359,3.359,0,0,1,1.544-.387h.059a.19.19,0,0,0,.2-.188.193.193,0,0,0-.189-.2" transform="translate(-193.846 -76.51)" fill="#ca7e86"/>
          <path id="Trazado_885746" data-name="Trazado 885746" d="M576.7,151.584c.026.184.5.268,1.058.189s.989-.293.963-.477-.5-.269-1.058-.189-.989.293-.963.477" transform="translate(-190.148 -77.813)" fill="#ca7e86"/>
          <path id="Trazado_885747" data-name="Trazado 885747" d="M576.561,153.37c.026-.184.5-.269,1.058-.189s.989.293.963.477-.5.269-1.058.189-.989-.293-.963-.477" transform="translate(-190.101 -78.496)" fill="#ca7e86"/>
          <path id="Trazado_885748" data-name="Trazado 885748" d="M555.831,153.37c-.027-.184-.5-.269-1.058-.189s-.989.293-.963.477.5.269,1.058.189.989-.293.964-.477" transform="translate(-182.599 -78.496)" fill="#ca7e86"/>
          <path id="Trazado_885749" data-name="Trazado 885749" d="M555.974,151.584c-.026.184-.5.268-1.058.189s-.989-.293-.963-.477.5-.269,1.058-.189.989.293.963.477" transform="translate(-182.647 -77.813)" fill="#ca7e86"/>
          <path id="Trazado_885750" data-name="Trazado 885750" d="M571.428,147.017c0,1.387.308,2.51.688,2.51s.688-1.123.688-2.51-.308-2.509-.688-2.509-.688,1.123-.688,2.509" transform="translate(-188.409 -75.647)" fill="#383838"/>
          <path id="Trazado_885751" data-name="Trazado 885751" d="M559.289,146.868c0,1.3.274,2.361.611,2.361s.612-1.057.612-2.361-.274-2.361-.612-2.361-.611,1.057-.611,2.361" transform="translate(-184.407 -75.646)" fill="#383838"/>
          <path id="Trazado_885752" data-name="Trazado 885752" d="M564.648,152.407c-.024,0-.046,0-.07,0-.289-.025-.968-.271-1.04-2.007a14.817,14.817,0,0,1,.362-4.479.192.192,0,0,1,.369.111,14.7,14.7,0,0,0-.346,4.352c.048,1.17.387,1.615.69,1.641.442.044,1.11-.713,1.391-2a.192.192,0,0,1,.375.082c-.3,1.352-1.016,2.3-1.731,2.3" transform="translate(-185.801 -76.066)" fill="#ca7e86"/>
          <path id="Trazado_885753" data-name="Trazado 885753" d="M555.047,143.712c.213,0,.853-1.364,1.739-1.79a2.537,2.537,0,0,1,1.991.007.512.512,0,1,0,.343-.965,3.515,3.515,0,0,0-2.79.04c-1.282.623-1.336,2.707-1.283,2.707" transform="translate(-183.003 -74.39)" fill="#383838"/>
          <path id="Trazado_885754" data-name="Trazado 885754" d="M575.716,143.779c.3-.1-.184-2.315-1.627-3.017a3.954,3.954,0,0,0-3.141-.046.576.576,0,0,0,.387,1.086,2.852,2.852,0,0,1,2.25,0,9.859,9.859,0,0,1,2.131,1.98" transform="translate(-188.124 -74.297)" fill="#383838"/>
          <path id="Trazado_885755" data-name="Trazado 885755" d="M588.421,421.653v2.566s10.787,3.616,15.92-.914a9.262,9.262,0,0,0-.184-2.273c-7.171,3.825-15.232.613-15.71.42a1.089,1.089,0,0,0-.025.2" transform="translate(-194.012 -166.821)" fill="#383838"/>
          <path id="Trazado_885756" data-name="Trazado 885756" d="M560.369,423.141l-.164-2.606-27.645.333.072,2.273Z" transform="translate(-175.594 -166.657)" fill="#383838"/>
          <path id="Trazado_885757" data-name="Trazado 885757" d="M120.934,417.434H93.259l.15-2.382.671-10.641H103.1l.414,2.306,6.662,2.613s8.636.859,10.447,5.722a5.338,5.338,0,0,1,.313,2.382" transform="translate(-30.749 -161.341)" fill="#434244"/>
          <path id="Trazado_885758" data-name="Trazado 885758" d="M120.934,422.668H93.259l.15-2.382h27.212a5.338,5.338,0,0,1,.313,2.382" transform="translate(-30.749 -166.575)" fill="#383838"/>
          <path id="Trazado_885759" data-name="Trazado 885759" d="M69.544,415.038V417.6s-10.761,3.6-15.887-.915a9.332,9.332,0,0,1,.151-2.118,11.488,11.488,0,0,1,3.742-6.681l.977-5.747,8.147,2.031v3.284s2.87,6.662,2.87,7.583" transform="translate(-17.688 -160.592)" fill="#434244"/>
          <path id="Trazado_885760" data-name="Trazado 885760" d="M69.544,421.151v2.563s-10.761,3.6-15.887-.915a9.332,9.332,0,0,1,.151-2.118c6.636,4.061,15.736.47,15.736.47" transform="translate(-17.688 -166.705)" fill="#fff"/>
          <path id="Trazado_885761" data-name="Trazado 885761" d="M69.544,421.151v2.563s-10.761,3.6-15.887-.915a9.332,9.332,0,0,1,.151-2.118c6.636,4.061,15.736.47,15.736.47" transform="translate(-17.688 -166.705)" fill="#383838"/>
          <path id="Trazado_885762" data-name="Trazado 885762" d="M96.183,259.893l-3.551,97.97H79.859l-2.78-75.731-7.2,75.731L58.4,356.838l.849-97.95Z" transform="translate(-19.256 -113.36)" fill="#59595b"/>
          <g id="Grupo_1111853" data-name="Grupo 1111853" transform="translate(51.854 165.393)" style="mix-blend-mode: multiply;isolation: isolate">
            <g id="Grupo_1111852" data-name="Grupo 1111852">
              <g id="Grupo_1111851" data-name="Grupo 1111851" clip-path="url(#clip-path-7)">
                <path id="Trazado_885763" data-name="Trazado 885763" d="M83.33,291.9l4.78-3.38-8.635,1.145L77.361,354.7Z" transform="translate(-77.361 -288.524)" fill="#cfd1d2"/>
              </g>
            </g>
          </g>
          <path id="Trazado_885764" data-name="Trazado 885764" d="M98.288,181.294,108.7,185.2s3.109,8.055,9.04,22.777c0,0,5.962,11.977-.034,14.059-5.721,1.735-16.268-20.779-16.268-20.779Z" transform="translate(-32.407 -87.776)" fill="#434244"/>
          <path id="Trazado_885765" data-name="Trazado 885765" d="M56.169,220.687c.013.54.04,3.876.04,4.27a47.952,47.952,0,0,1-1.79,10.664c0,6.915,19.923,6.7,25.081,5.642,16.64-1.447,14.2-4.365,14.2-4.365-.158-.73-.336-1.7-.533-2.842-1.5-8.8-3.9-27.984-3.869-29.108.013-.494.033-.967.052-1.434-.388-1.217,2.408-22.292,1.586-22.351a44.98,44.98,0,0,0-9.231-7.35c-.56-.335-1.139-.671-1.744-.98-.151-.073-.3-.158-.447-.231-.375-.2-.757-.395-1.152-.572a25.81,25.81,0,0,0-8.593-2.422,32.282,32.282,0,0,0-7.612,2.639c-.757.355-1.5.743-2.237,1.145-.276.151-.546.309-.816.46-.434.243-.855.5-1.27.75A33.454,33.454,0,0,0,46.628,186.44s.855,1.178.875,1.218c.579,1.085,5.191,12.073,7.073,16.975.178.757.349,1.566.494,2.415.059.329.112.658.164,1a.375.375,0,0,1,.013.086,100.838,100.838,0,0,1,.921,12.554" transform="translate(-15.374 -83.923)" fill="#fff"/>
          <path id="Trazado_885766" data-name="Trazado 885766" d="M108.995,245.1c-3.917,4.932-15.844,5.981-15.844,5.981-.168-.6-4.764-8.07-4.764-8.07-.21-1.518-.394-3.061-.562-4.614a281.267,281.267,0,0,1-.939-37.065l5.041-28.2a58.732,58.732,0,0,1,12.934,9.377s-2.014,15.945-1.77,22.849c.176,5.2,3.431,25.1,5.033,34.608.528,3.128.872,5.133.872,5.133" transform="translate(-28.571 -85.083)" fill="#434244"/>
          <g id="Grupo_1111856" data-name="Grupo 1111856" transform="translate(71.505 103.457)" style="mix-blend-mode: multiply;isolation: isolate">
            <g id="Grupo_1111855" data-name="Grupo 1111855">
              <g id="Grupo_1111854" data-name="Grupo 1111854" clip-path="url(#clip-path-8)">
                <path id="Trazado_885767" data-name="Trazado 885767" d="M111,218.486l-1.582-10.945,1.317-6.317-1.317,2.168-2.737-7.27,3.145,20.515Z" transform="translate(-106.678 -196.121)" fill="#cfd1d2"/>
              </g>
            </g>
          </g>
          <g id="Grupo_1111859" data-name="Grupo 1111859" transform="translate(58.294 116.243)" style="mix-blend-mode: multiply;isolation: isolate">
            <g id="Grupo_1111858" data-name="Grupo 1111858">
              <g id="Grupo_1111857" data-name="Grupo 1111857" clip-path="url(#clip-path-9)">
                <path id="Trazado_885768" data-name="Trazado 885768" d="M86.985,215.2s-.28,29.167,1.5,41.654c0,0,.438-28.089-1.5-41.654" transform="translate(-86.969 -215.197)" fill="#cfd1d2"/>
              </g>
            </g>
          </g>
          <path id="Trazado_885769" data-name="Trazado 885769" d="M91.994,173.921l-5,27.568L96.133,189.6l-2.952-3.436,3.587-3.62-1.95-7.618Z" transform="translate(-28.683 -85.345)" fill="#59595b"/>
          <path id="Trazado_885770" data-name="Trazado 885770" d="M75.422,243.073s-5.209,7.138-5.486,8.832c0,0-14.234-.965-19.829-4.588,0,0,2.382-25.315,3.012-34.683v-.017c.008-.168.025-.326.034-.478.042-.587.067-1.091.084-1.518a23.679,23.679,0,0,0-.117-3.154c-.8-8.178-5.784-21.04-5.784-21.04s5.683-8.695,14.465-13.1l12.12,28.065,1.342,37.2Z" transform="translate(-15.607 -85.149)" fill="#434244"/>
          <g id="Grupo_1111862" data-name="Grupo 1111862" transform="translate(34.501 118.904)" style="mix-blend-mode: multiply;isolation: isolate">
            <g id="Grupo_1111861" data-name="Grupo 1111861">
              <g id="Grupo_1111860" data-name="Grupo 1111860" clip-path="url(#clip-path-10)">
                <path id="Trazado_885771" data-name="Trazado 885771" d="M97.4,260.276c-3.917,4.932-15.844,5.981-15.844,5.981-.168-.6-4.764-8.07-4.764-8.07s-5.209,7.138-5.486,8.832c0,0-14.234-.965-19.829-4.588,0,0,2.382-25.315,3.012-34.683v-.017c.008-.168.025-.327.034-.478-.185-.311-.361-.629-.537-.965,0,0-.26-.444-.68-1.225l1.183-2.483,1.635-3.414,7.188,1.518,4.538.965s-3.146,10.308-4.588,11.986-4.347.559-4.347.559a25.984,25.984,0,0,0,17.315,19.379,3.686,3.686,0,0,0,.4.135c5.032,1.711,11.525,2.457,19.9,1.434.528,3.128.872,5.133.872,5.133" transform="translate(-51.472 -219.167)" fill="#cfd1d2"/>
              </g>
            </g>
          </g>
          <path id="Trazado_885772" data-name="Trazado 885772" d="M68.916,166.529a28.309,28.309,0,0,0,12.495,9.7,14.193,14.193,0,0,0,4.3-10.495l-2.158-9.383-7.3,1.79L69,150.5v.474l-.04,7.237Z" transform="translate(-22.723 -77.623)" fill="#e5b7ac"/>
          <path id="Trazado_885773" data-name="Trazado 885773" d="M67.882,172.123l12.077,28.871-11.482-9.645,2.144-3.99L66.339,184.6l-.68-10.458Z" transform="translate(-21.649 -84.752)" fill="#59595b"/>
          <g id="Grupo_1111865" data-name="Grupo 1111865" transform="translate(46.233 73.352)" opacity="0.5">
            <g id="Grupo_1111864" data-name="Grupo 1111864">
              <g id="Grupo_1111863" data-name="Grupo 1111863" clip-path="url(#clip-path-11)">
                <path id="Trazado_885774" data-name="Trazado 885774" d="M68.975,158.445c8.027,5.659,12.093,7.053,16.2,5.948l-2.672-4.54-.395-1.968-7.461.9-5.632-7.574Z" transform="translate(-68.975 -151.208)" fill="#ca7e86"/>
              </g>
            </g>
          </g>
          <path id="Trazado_885775" data-name="Trazado 885775" d="M79.417,120.866v-.007s-9.075-1.961-13.472,9.028c0,0-2.6,7.1.546,13.8,0,0,6.6,8.786,14.061,11.085,5.229,1.421,10.265-7.959,9.951-17.342-.3-8.877-5.165-16-11.084-16.562" transform="translate(-21.41 -67.804)" fill="#e5b7ac"/>
          <path id="Trazado_885776" data-name="Trazado 885776" d="M97.172,148.619c0,1.192.324,2.158.725,2.158s.725-.967.725-2.158-.324-2.158-.725-2.158-.725.967-.725,2.158" transform="translate(-32.039 -76.291)" fill="#383838"/>
          <path id="Trazado_885777" data-name="Trazado 885777" d="M84.97,148.7c0,1.235.363,2.235.811,2.235s.812-1,.812-2.235-.363-2.235-.812-2.235-.811,1-.811,2.235" transform="translate(-28.016 -76.291)" fill="#383838"/>
          <path id="Trazado_885778" data-name="Trazado 885778" d="M86.768,160.887a.212.212,0,0,1-.094-.4c.163-.08,4-1.938,5.43-.4a.212.212,0,0,1-.311.288c-1.006-1.091-3.9-.015-4.932.491a.222.222,0,0,1-.093.021" transform="translate(-28.539 -80.582)" fill="#ca7e86"/>
          <path id="Trazado_885779" data-name="Trazado 885779" d="M64.5,147.516l.141,4.2c-3.508,1.4-6.536-2.006-7.163-4.85-.314-1.434-.016-2.723,1.13-3.2,2.425-.995,4.354,1.332,5.283,2.788a10.007,10.007,0,0,1,.609,1.067" transform="translate(-18.914 -75.288)" fill="#e5b7ac"/>
          <path id="Trazado_885780" data-name="Trazado 885780" d="M60.871,147.389a5,5,0,0,1,4.041,2.161.207.207,0,0,1-.056.288.2.2,0,0,1-.109.035.206.206,0,0,1-.179-.091,5.387,5.387,0,0,0-1.534-1.409c-.837.588-.349,2.02-.344,2.035a.207.207,0,0,1-.125.265.192.192,0,0,1-.063.013.207.207,0,0,1-.2-.137c-.025-.07-.538-1.577.337-2.385a3.624,3.624,0,0,0-1.68-.362l-.064,0a.2.2,0,0,1-.218-.2.208.208,0,0,1,.2-.218" transform="translate(-20.005 -76.595)" fill="#ca7e86"/>
          <path id="Trazado_885781" data-name="Trazado 885781" d="M78.223,152.924c-.025.2-.536.3-1.139.22s-1.072-.3-1.047-.5.536-.3,1.139-.22,1.072.3,1.047.5" transform="translate(-25.07 -78.248)" fill="#ca7e86"/>
          <path id="Trazado_885782" data-name="Trazado 885782" d="M78.407,154.846c-.032-.2-.544-.282-1.146-.188s-1.063.331-1.032.529.544.282,1.145.188,1.064-.332,1.033-.53" transform="translate(-25.134 -78.98)" fill="#ca7e86"/>
          <path id="Trazado_885783" data-name="Trazado 885783" d="M101.222,154.529c.025-.2.536-.3,1.139-.22s1.072.3,1.047.5-.536.3-1.139.22-1.072-.3-1.047-.5" transform="translate(-33.374 -78.869)" fill="#ca7e86"/>
          <path id="Trazado_885784" data-name="Trazado 885784" d="M101.042,152.6c.031.2.544.282,1.144.188s1.064-.331,1.033-.529-.544-.283-1.145-.188-1.064.331-1.032.53" transform="translate(-33.315 -78.126)" fill="#ca7e86"/>
          <path id="Trazado_885785" data-name="Trazado 885785" d="M90.6,154.109c.025,0,.05,0,.076,0,.313-.01,1.06-.237,1.237-2.1a15.994,15.994,0,0,0-.132-4.85.208.208,0,0,0-.4.1,15.927,15.927,0,0,1,.122,4.713c-.119,1.259-.511,1.719-.838,1.729-.479.023-1.156-.832-1.385-2.233a.209.209,0,0,0-.239-.171.206.206,0,0,0-.171.238c.242,1.474.963,2.539,1.733,2.58" transform="translate(-29.298 -76.467)" fill="#ca7e86"/>
          <path id="Trazado_885786" data-name="Trazado 885786" d="M97.945,143.022a2.545,2.545,0,0,0-1.922.552.514.514,0,1,1-.6-.838,3.528,3.528,0,0,1,2.706-.725c1.409.251,2.364,2.033,2.129,2.193a8.764,8.764,0,0,0-2.319-1.182" transform="translate(-31.393 -74.808)" fill="#7f5e40"/>
          <path id="Trazado_885787" data-name="Trazado 885787" d="M79.624,145.789c-.311-.146.486-2.461,2.122-3.033a4.269,4.269,0,0,1,3.374.343.622.622,0,0,1-.55,1.117,3.081,3.081,0,0,0-2.413-.284,10.646,10.646,0,0,0-2.533,1.858" transform="translate(-26.232 -75)" fill="#7f5e40"/>
          <path id="Trazado_885788" data-name="Trazado 885788" d="M93.2,287.167l-.006-.019v0Z" transform="translate(-30.726 -122.676)" fill="#e5e5e6"/>
          <path id="Trazado_885789" data-name="Trazado 885789" d="M132.865,162.361l-11.436.684a1.258,1.258,0,0,0-1.406,1.092l-3.115,24.834a1.7,1.7,0,0,0,1.493,1.921l11.036-1.2a1.259,1.259,0,0,0,1.4-1.093l3.622-24.689c.086-.689-.91-1.465-1.6-1.551" transform="translate(-38.542 -81.533)" fill="#6d6e70"/>
          <path id="Trazado_885790" data-name="Trazado 885790" d="M133.921,163.339l-11.436.684a1.258,1.258,0,0,0-1.406,1.092l-3.115,24.834a1.259,1.259,0,0,0,1.093,1.406l11.436-.684a1.258,1.258,0,0,0,1.4-1.093l3.115-24.833a1.259,1.259,0,0,0-1.093-1.406" transform="translate(-38.892 -81.855)" fill="#a5a6a9"/>
          <path id="Trazado_885791" data-name="Trazado 885791" d="M132.9,176.2c-.263,1.836-1.289,3.208-2.29,3.065s-1.6-1.749-1.337-3.585,1.289-3.208,2.29-3.065,1.6,1.749,1.337,3.585" transform="translate(-42.602 -84.911)" fill="#cfd1d2"/>
          <path id="Trazado_885792" data-name="Trazado 885792" d="M126.782,165.708l-2.219.139a.621.621,0,1,0,.078,1.24l2.219-.139a.623.623,0,0,0,.581-.659h0a.623.623,0,0,0-.659-.581" transform="translate(-40.879 -82.636)" fill="#434244"/>
          <path id="Trazado_885793" data-name="Trazado 885793" d="M141.014,192.767s1.436-4.185.515-7.744c-.408-2.1-4.534-5.712-5.19-6.27s-5.169-2.473-5.791-1.9,0,1.484,1.28,2.15,3.013,1.512,3.145,1.605,2.576,3.4,2.576,3.4-3.46-1.178-4.217-1.335-4.7-.274-5.022.119-.225,1.192,1.081,1.332a4.387,4.387,0,0,0-1.827.44c-.321.259-.889,1.629,3.012,1.544,0,0-1.922-.118-1.967.639s4.217.932,4.217.932.38,2.931,2.639,3.8l-.451,4.008Z" transform="translate(-41.985 -86.276)" fill="#e5b7ac"/>
          <path id="Trazado_885794" data-name="Trazado 885794" d="M132.631,199.139a60.157,60.157,0,0,1-8.139,15.189c-4.089,5.8-3.67,11.683-1.331,13.209s6.588-.729,8.657-5.008c2.038-3.689,8.065-21.7,8.065-21.7Z" transform="translate(-40.029 -93.659)" fill="#434244"/>
          <path id="Trazado_885795" data-name="Trazado 885795" d="M63.523,217.671s-2.292,8.576-8.322,3.408a17.685,17.685,0,0,1-2.709-3.732c-.184-.31-.361-.629-.537-.965,0,0-.26-.444-.68-1.225-2.357-4.37-9.671-19.242-3.573-24.711,6.584-5.922,11.147,9.453,12.741,17.623.294.931.578,1.845.839,2.709,1.2,3.9,2.241,6.891,2.241,6.891" transform="translate(-14.946 -90.357)" fill="#434244"/>
          <path id="Trazado_885796" data-name="Trazado 885796" d="M74.407,114.71c-9.688-2.083-10.961,5.841-11.109,7.267,0,0-.362-.433-2.664.719s-2,8.009-.528,11.2c0,0,3.947.931,5.061,7.531a9.658,9.658,0,0,0,0-6.888,7.631,7.631,0,0,0,3.307-4.963,22.377,22.377,0,0,0,9.525.139s-3.975,1.451-6.236,2.193c0,0,8.238,1.479,11.684-1.536a26.13,26.13,0,0,1-2.253,2.522c-.3.217,3.418-.479,6.839-1.749h0a27.033,27.033,0,0,1,.51,6.649,14.067,14.067,0,0,0,1.367-7.429c1.828-.855,3.282-1.881,3.516-3.013.713-3.454-9.33-10.556-19.019-12.64" transform="translate(-19.438 -65.708)" fill="#7f5e40"/>
          <path id="Trazado_885797" data-name="Trazado 885797" d="M90.931,170.232c1.282.183,1.546-.848,1.053-1.439s-3.565-1.64-4.321-1.345a30.985,30.985,0,0,0-3.471,2.406L86.65,166.6s1.3-.169,3.732-.675c2.042-.553,1.581-1.564.761-1.658-.71-.359-5.217-.19-6.019.544a32.757,32.757,0,0,0-4.01,4.561c-.414.737-2.221,5.878-2.721,7.463.884,2.359,3.286,1.219,4.549,3.064,5.206-2.039,5.064-6.24,5.351-6.395s.368,2.494,2.113,1.235a11.337,11.337,0,0,0-.463-2.88s-.446,2.371,1.426,1.436c.86-.716-.438-3.06-.438-3.06" transform="translate(-25.847 -82.1)" fill="#d8a49e"/>
          <path id="Trazado_885798" data-name="Trazado 885798" d="M61.146,204.887c-3.323,9.171.657,19.466,6.279,12.332,3.12-6.466,10.316-28.533,10.914-31.18-1.259-1.837-7.019-4.514-7.019-4.514Z" transform="translate(-19.761 -87.851)" fill="#434244"/>
          <g id="Grupo_1111868" data-name="Grupo 1111868" transform="translate(40.819 101.95)" style="mix-blend-mode: multiply;isolation: isolate">
            <g id="Grupo_1111867" data-name="Grupo 1111867">
              <g id="Grupo_1111866" data-name="Grupo 1111866" clip-path="url(#clip-path-12)">
                <path id="Trazado_885799" data-name="Trazado 885799" d="M61.528,197.4l1.328,5.736L60.9,209.08l2.237-3.22.469,7.554.789-10.066,3.64-9.475L63.6,201.847Z" transform="translate(-60.899 -193.873)" fill="#cfd1d2"/>
              </g>
            </g>
          </g>
          <path id="Trazado_885800" data-name="Trazado 885800" d="M440.458,341.254a31.124,31.124,0,0,1-3.361,42.379q-.771.71-1.609,1.377a31.134,31.134,0,0,1-50.326-27.943,30.3,30.3,0,0,1,1.211-5.71,31.14,31.14,0,0,1,54.086-10.1" transform="translate(-126.925 -136.643)" fill="#c8953d"/>
          <path id="Trazado_885801" data-name="Trazado 885801" d="M437.515,343.6a31.124,31.124,0,0,1-3.36,42.379q-.772.711-1.61,1.378a31.134,31.134,0,0,1-50.326-27.943,30.252,30.252,0,0,1,1.211-5.71,31.14,31.14,0,0,1,54.085-10.1" transform="translate(-125.955 -137.415)" fill="#eac95b"/>
          <g id="Grupo_1111871" data-name="Grupo 1111871" transform="translate(256.056 221.995)" style="mix-blend-mode: soft-light;isolation: isolate">
            <g id="Grupo_1111870" data-name="Grupo 1111870">
              <g id="Grupo_1111869" data-name="Grupo 1111869" clip-path="url(#clip-path-13)">
                <path id="Trazado_885802" data-name="Trazado 885802" d="M442.762,386.2a30.91,30.91,0,0,1-8.607,13.338l-49.69-10.859a31.045,31.045,0,0,1-2.245-15.706Z" transform="translate(-382.011 -372.969)" fill="#e5e5e6"/>
              </g>
            </g>
          </g>
          <g id="Grupo_1111874" data-name="Grupo 1111874" transform="translate(257.475 209.362)" style="mix-blend-mode: soft-light;isolation: isolate">
            <g id="Grupo_1111873" data-name="Grupo 1111873">
              <g id="Grupo_1111872" data-name="Grupo 1111872" clip-path="url(#clip-path-14)">
                <path id="Trazado_885803" data-name="Trazado 885803" d="M444.777,366.7a31.089,31.089,0,0,1-.038,7.59l-60.612-13.247a30.93,30.93,0,0,1,3.124-6.923Z" transform="translate(-384.128 -354.121)" fill="#e5e5e6"/>
              </g>
            </g>
          </g>
          <path id="Trazado_885804" data-name="Trazado 885804" d="M435.5,351.325A24.192,24.192,0,0,1,432.036,385a5.19,5.19,0,0,1-.4.338,24.208,24.208,0,0,1-30.153-37.88,5.19,5.19,0,0,1,.418-.311,24.192,24.192,0,0,1,33.6,4.175" transform="translate(-129.366 -140.827)" fill="#c8953d"/>
          <path id="Trazado_885805" data-name="Trazado 885805" d="M435.9,351.325a23.7,23.7,0,1,1-33.6-4.175,24.192,24.192,0,0,1,33.6,4.175" transform="translate(-129.762 -140.827)" fill="#dcaf3f"/>
          <path id="Trazado_885806" data-name="Trazado 885806" d="M432.474,379.171l2.556,3.211-4.079,3.248-2.441-3.067a21.741,21.741,0,0,1-9.045,3.892L417.7,379.73a17.746,17.746,0,0,0,8.156-3.468c1.938-1.543,2.31-2.5,1.757-3.195-2.026-2.545-11.587,8.419-17.6.869-2.6-3.268-2.418-7.9,1.8-12.346l-2.51-3.153,4.079-3.247,2.463,3.095a19.308,19.308,0,0,1,7.208-3l1.884,6.581a15.975,15.975,0,0,0-6.838,2.987c-2,1.589-2.172,2.673-1.619,3.367,1.934,2.43,11.517-8.507,17.457-1.043,2.487,3.124,2.395,7.639-1.467,11.989" transform="translate(-134.626 -145.112)" fill="#eac95b"/>
          <path id="Trazado_885807" data-name="Trazado 885807" d="M495.981,361.819a31.124,31.124,0,0,1-29.022,31.064q-1.047.075-2.117.075a31.134,31.134,0,0,1-21.973-53.2,30.28,30.28,0,0,1,4.5-3.713,31.139,31.139,0,0,1,48.608,25.778" transform="translate(-142.999 -137.03)" fill="#c8953d"/>
          <path id="Trazado_885808" data-name="Trazado 885808" d="M492.22,361.819A31.124,31.124,0,0,1,463.2,392.883q-1.047.075-2.117.075a31.134,31.134,0,0,1-21.973-53.2,30.273,30.273,0,0,1,4.5-3.713,31.139,31.139,0,0,1,48.608,25.778" transform="translate(-141.758 -137.03)" fill="#eac95b"/>
          <g id="Grupo_1111877" data-name="Grupo 1111877" transform="translate(289.325 202.724)" style="mix-blend-mode: soft-light;isolation: isolate">
            <g id="Grupo_1111876" data-name="Grupo 1111876">
              <g id="Grupo_1111875" data-name="Grupo 1111875" clip-path="url(#clip-path-15)">
                <path id="Trazado_885809" data-name="Trazado 885809" d="M478.8,392.272a30.9,30.9,0,0,1-15.041,5.075l-32.114-39.441a31.047,31.047,0,0,1,8.024-13.688Z" transform="translate(-431.646 -344.218)" fill="#e5e5e6"/>
              </g>
            </g>
          </g>
          <g id="Grupo_1111880" data-name="Grupo 1111880" transform="translate(301.854 195.54)" style="mix-blend-mode: soft-light;isolation: isolate">
            <g id="Grupo_1111879" data-name="Grupo 1111879">
              <g id="Grupo_1111878" data-name="Grupo 1111878" clip-path="url(#clip-path-16)">
                <path id="Trazado_885810" data-name="Trazado 885810" d="M494.265,379.168a31.048,31.048,0,0,1-4.756,5.915l-39.173-48.112a30.932,30.932,0,0,1,6.756-3.471Z" transform="translate(-450.337 -333.5)" fill="#e5e5e6"/>
              </g>
            </g>
          </g>
          <path id="Trazado_885811" data-name="Trazado 885811" d="M488.7,365.229a24.192,24.192,0,0,1-23.687,24.191c-.168.017-.345.017-.521.017a24.208,24.208,0,1,1,0-48.415,5.121,5.121,0,0,1,.521.017A24.192,24.192,0,0,1,488.7,365.229" transform="translate(-145.169 -140.44)" fill="#c8953d"/>
          <path id="Trazado_885812" data-name="Trazado 885812" d="M489.208,365.238a23.7,23.7,0,1,1-23.687-24.191,24.192,24.192,0,0,1,23.687,24.191" transform="translate(-145.677 -140.449)" fill="#dcaf3f"/>
          <path id="Trazado_885813" data-name="Trazado 885813" d="M473.711,381.862v4.1H468.5v-3.92a21.735,21.735,0,0,1-9.5-2.588l2.809-6.358a17.759,17.759,0,0,0,8.541,2.366c2.477,0,3.364-.519,3.364-1.406,0-3.253-14.309-.628-14.309-10.279,0-4.177,3.032-7.689,9.1-8.539v-4.03h5.214v3.955a19.306,19.306,0,0,1,7.506,2.145l-2.625,6.322a15.977,15.977,0,0,0-7.21-1.922c-2.552,0-3.364.739-3.364,1.627,0,3.106,14.309.517,14.309,10.056,0,3.993-2.884,7.469-8.615,8.467" transform="translate(-151.339 -143.801)" fill="#eac95b"/>
          <line id="Línea_3199" data-name="Línea 3199" x1="8.708" y2="15.866" transform="translate(149.675 180.621)" fill="#6d6e70"/>
          <rect id="Rectángulo_405653" data-name="Rectángulo 405653" width="18.099" height="6.804" transform="translate(146.693 194.852) rotate(-61.241)" fill="#6d6e70"/>
          <path id="Trazado_885814" data-name="Trazado 885814" d="M193.1,376.435a4.88,4.88,0,0,1-6.586,2.076l-2.172-1.206-.177-.1-3.889-2.112a4.915,4.915,0,0,1-1.8-6.693l22.783-41.511a4.914,4.914,0,0,1,6.606-2.075l4.192,2.309.011,0,2.035,1.111a4.892,4.892,0,0,1,1.777,6.692Z" transform="translate(-58.638 -134.911)" fill="#434244"/>
          <path id="Trazado_885815" data-name="Trazado 885815" d="M196.211,377.784a4.88,4.88,0,0,1-6.586,2.076l-2.172-1.206-.177-.1,27.657-50.214.239.131.011,0,2.035,1.111a4.892,4.892,0,0,1,1.777,6.692Z" transform="translate(-61.748 -136.26)" fill="#59595b"/>
          <g id="Grupo_1111883" data-name="Grupo 1111883" transform="translate(144.238 122.202)" opacity="0.4">
            <g id="Grupo_1111882" data-name="Grupo 1111882">
              <g id="Grupo_1111881" data-name="Grupo 1111881" clip-path="url(#clip-path-17)">
                <path id="Trazado_885816" data-name="Trazado 885816" d="M273.672,245.571a29.875,29.875,0,0,1-20.311,37.006,29.437,29.437,0,0,1-9.706,1.15,29.791,29.791,0,0,1-12.249-3.283,29.71,29.71,0,0,1-15.03-18.184c-.241-.828-.438-1.667-.607-2.492a29.839,29.839,0,0,1,49.515-27.746,29.421,29.421,0,0,1,5.83,7.444,28.565,28.565,0,0,1,2.558,6.106" transform="translate(-215.19 -224.087)" fill="#9ec8dd"/>
              </g>
            </g>
          </g>
          <path id="Trazado_885817" data-name="Trazado 885817" d="M231.418,215.382a36.647,36.647,0,1,0,45.433,24.937,36.647,36.647,0,0,0-45.433-24.937m-18.4,43.53a29.843,29.843,0,1,1,37,20.307,29.876,29.876,0,0,1-37-20.307" transform="translate(-67.595 -98.53)" fill="#d25a30"/>
          <g id="Grupo_1111886" data-name="Grupo 1111886" transform="translate(144.818 122.621)" opacity="0.4">
            <g id="Grupo_1111885" data-name="Grupo 1111885">
              <g id="Grupo_1111884" data-name="Grupo 1111884" clip-path="url(#clip-path-18)">
                <path id="Trazado_885818" data-name="Trazado 885818" d="M265.569,232.228l-41.5,42.847a29.617,29.617,0,0,1-7.4-12.608c-.241-.828-.439-1.668-.608-2.493l34.191-35.26a30.134,30.134,0,0,1,15.323,7.515" transform="translate(-216.054 -224.713)" fill="#fff"/>
              </g>
            </g>
          </g>
          <g id="Grupo_1111889" data-name="Grupo 1111889" transform="translate(160.455 137.58)" opacity="0.4">
            <g id="Grupo_1111888" data-name="Grupo 1111888">
              <g id="Grupo_1111887" data-name="Grupo 1111887" clip-path="url(#clip-path-19)">
                <path id="Trazado_885819" data-name="Trazado 885819" d="M281.648,253.136a30.1,30.1,0,0,1,1.1,6.037l-31.113,32.119a29.792,29.792,0,0,1-12.249-3.283l39.708-40.978a28.563,28.563,0,0,1,2.558,6.106" transform="translate(-239.383 -247.03)" fill="#fff"/>
              </g>
            </g>
          </g>
          <path id="Trazado_885820" data-name="Trazado 885820" d="M368.61,28.414H287.69a6.779,6.779,0,0,0-6.779,6.779V80.116A6.779,6.779,0,0,0,287.69,86.9h35.229l5.231,9.06,5.231-9.06H368.61a6.779,6.779,0,0,0,6.779-6.779V35.193a6.779,6.779,0,0,0-6.779-6.779" transform="translate(-95.911 -8.261)" fill="#0354a5"/>
          <path id="Trazado_885821" data-name="Trazado 885821" d="M328.653,46.014c-.055.864,0,18.782,0,18.782l14.1-12.146a18.251,18.251,0,0,0-14.1-6.635" transform="translate(-117.006 -16.041)" fill="#df922f"/>
          <path id="Trazado_885822" data-name="Trazado 885822" d="M351.09,70.373A18.212,18.212,0,0,0,346.9,58.719L332.8,70.865h18.277c0-.165.012-.327.012-.493" transform="translate(-118.851 -21.658)" fill="#e5e5e6"/>
          <path id="Trazado_885823" data-name="Trazado 885823" d="M311.116,50.074a18.289,18.289,0,1,0,15.205,28.439l-15.205-9.657s-.055-17.917,0-18.782" transform="translate(-101.179 -17.836)" fill="#fff"/>
          <path id="Trazado_885824" data-name="Trazado 885824" d="M330.815,83.322,346.02,92.98a18.2,18.2,0,0,0,3.071-9.658Z" transform="translate(-117.973 -32.535)" fill="#cfd1d2"/>
          <rect id="Rectángulo_405657" data-name="Rectángulo 405657" width="4.661" height="4.661" transform="translate(246.136 35.307)" fill="#fff"/>
          <path id="Trazado_885825" data-name="Trazado 885825" d="M423.11,59.738H405.866a.433.433,0,0,1-.431-.432V59.06a.433.433,0,0,1,.431-.432H423.11a.433.433,0,0,1,.432.432v.246a.433.433,0,0,1-.432.432" transform="translate(-150.961 -21.618)" fill="#fff"/>
          <rect id="Rectángulo_405658" data-name="Rectángulo 405658" width="4.661" height="4.661" transform="translate(246.136 43.144)" fill="#df922f"/>
          <path id="Trazado_885826" data-name="Trazado 885826" d="M423.11,73.786H405.866a.433.433,0,0,1-.431-.432v-.246a.433.433,0,0,1,.431-.432H423.11a.433.433,0,0,1,.432.432v.246a.433.433,0,0,1-.432.432" transform="translate(-150.961 -27.828)" fill="#fff"/>
          <rect id="Rectángulo_405659" data-name="Rectángulo 405659" width="4.661" height="4.661" transform="translate(246.136 50.982)" fill="#e5e5e6"/>
          <path id="Trazado_885827" data-name="Trazado 885827" d="M423.11,87.834H405.866a.433.433,0,0,1-.431-.432v-.246a.433.433,0,0,1,.431-.432H423.11a.433.433,0,0,1,.432.432V87.4a.433.433,0,0,1-.432.432" transform="translate(-150.961 -34.039)" fill="#fff"/>
          <rect id="Rectángulo_405660" data-name="Rectángulo 405660" width="4.661" height="4.661" transform="translate(246.136 58.82)" fill="#cfd1d2"/>
          <path id="Trazado_885828" data-name="Trazado 885828" d="M423.11,101.882H405.866a.433.433,0,0,1-.431-.432V101.2a.433.433,0,0,1,.431-.432H423.11a.433.433,0,0,1,.432.432v.246a.433.433,0,0,1-.432.432" transform="translate(-150.961 -40.249)" fill="#fff"/>
        </g>
      </g>
    </g>
  </g>
</svg>
