<svg xmlns="http://www.w3.org/2000/svg" xmlns:xlink="http://www.w3.org/1999/xlink" width="150" height="150" viewBox="0 0 150 150">
  <defs>
    <clipPath id="clip-path">
      <rect id="Rectángulo_404919" data-name="Rectángulo 404919" width="150" height="150" fill="#41c9a5"/>
    </clipPath>
    <clipPath id="clip-path-2">
      <rect id="Rectángulo_404925" data-name="Rectángulo 404925" width="60" height="60" transform="translate(-0.121)" fill="#fff" stroke="#707070" stroke-width="1"/>
    </clipPath>
    <clipPath id="clip-path-3">
      <rect id="Rectángulo_405764" data-name="Rectángulo 405764" width="50.858" height="58.667" fill="#fff"/>
    </clipPath>
  </defs>
  <g id="Grupo_1112009" data-name="Grupo 1112009" transform="translate(-179.664 -3667)">
    <g id="Grupo_1110094" data-name="Grupo 1110094" transform="translate(179.664 3667)">
      <g id="Grupo_1110058" data-name="Grupo 1110058" clip-path="url(#clip-path)">
        <path id="Trazado_883529" data-name="Trazado 883529" d="M4.9,35.444l16.68,92.369c2.45,13.569,15.941,22.669,30.131,20.326a26.632,26.632,0,0,0,12.25-5.412l75.316-60a24.187,24.187,0,0,0,3.343-35.112A26.093,26.093,0,0,0,131.6,40.179l-92-32.37C26.088,3.052,11.1,9.673,6.129,22.593A23.9,23.9,0,0,0,4.9,35.444" transform="translate(1.335 1.494)" fill="#023263"/>
        <path id="Trazado_883530" data-name="Trazado 883530" d="M147.8,106.113h0a25.748,25.748,0,0,1-7.478,9.933,26.908,26.908,0,0,1-12.278,5.565l-96.3,17.565C17.29,141.859,3.294,132.824.488,119a24.44,24.44,0,0,1,1.024-13.323L33.758,17.153c.15-.414.312-.827.483-1.23A26.285,26.285,0,0,1,54.641.349,28.053,28.053,0,0,1,67.719,1.371a26.574,26.574,0,0,1,11.5,7.495l64.049,70.958a24.474,24.474,0,0,1,4.536,26.289M35.441,16.39c-.162.385-.319.78-.461,1.174L2.735,106.084c-4.616,12.681,2.393,26.539,15.655,30.954a26.549,26.549,0,0,0,13.119.921L127.8,120.4c13.792-2.515,22.841-15.245,20.212-28.434a23.893,23.893,0,0,0-5.728-11.33L78.237,9.675A26.243,26.243,0,0,0,42.374,7.159a24.372,24.372,0,0,0-6.933,9.231" transform="translate(0 0)" fill="#41c9a5"/>
      </g>
    </g>
    <g id="Enmascarar_grupo_1108078" data-name="Enmascarar grupo 1108078" transform="translate(221.664 3712)" clip-path="url(#clip-path-2)">
      <g id="Grupo_1112008" data-name="Grupo 1112008" transform="translate(4.879 0.999)">
        <g id="Grupo_1112007" data-name="Grupo 1112007" clip-path="url(#clip-path-3)">
          <path id="Trazado_886151" data-name="Trazado 886151" d="M44.179,62.812c7.055,2.6,7.05,12.929-.023,15.563a9.059,9.059,0,0,1-7.1-.39c-2.737,1.625-5.293,3.847-8.038,5.419a6.328,6.328,0,0,1-7.2,0c-3.291-1.884-7.548-4.895-10.655-7.159C-2.488,66.294.3,53.291.123,38.207A4.331,4.331,0,0,1,1.3,35.518c.678-.656,5.858-2.8,6.972-3.11,1.48-.417,2.15.693,1.09,1.425C7.8,34.912,4.6,35.4,2.929,36.476a2.389,2.389,0,0,0-1.045,1.476C2.012,52.156-.9,65.114,11.91,74.661a112.565,112.565,0,0,0,10.854,7.3c2.155,1.185,3.288,1.126,5.416-.065,2.519-1.41,4.939-3.49,7.4-5.028l-2.1-2.767c-.435-.032-6.171,4.262-7.261,4.834-.333.175-.661.469-1.059.3L13.25,71.3a21.559,21.559,0,0,1-4.789-5.294c-5-7.932-2.582-17.7-3.088-26.586l.288-.384L25.42,31.083,44.982,38.9l.528.816c-.29,5.508.356,11.354,0,16.82a42.843,42.843,0,0,1-1.33,6.275M25.294,32.948,7.1,40.31C7.175,45.4,6.723,50.8,7.01,55.866a20.036,20.036,0,0,0,2.332,8.255C12.789,70.4,19.907,73.287,25.42,77.4l7.4-4.993c.106-.768-.13-1.463-.094-2.276A8.406,8.406,0,0,1,42.21,62.3c.694-.156,1.554-5.272,1.61-6.107.335-5.03-.254-10.4.011-15.468l-.09-.414ZM40.766,63.885A6.65,6.65,0,1,0,47.213,73.2a6.681,6.681,0,0,0-6.447-9.313" transform="translate(0 -25.859)" fill="#fff"/>
          <path id="Trazado_886152" data-name="Trazado 886152" d="M90.277.046a4,4,0,0,1,2.17.263c6.751,3.088,14.337,5.245,21.007,8.4a4.036,4.036,0,0,1,2.75,3.636c-.571,7.059.987,15.61-.588,22.446-.162.705-.206,1.612-1.041,1.807a1.14,1.14,0,0,1-.815-.468c-.274-.558.467-3.123.568-3.971.74-6.192-.166-13.041.2-19.31a2.653,2.653,0,0,0-.931-2.094L91.054,1.687c-3.442.867-6.605,2.631-9.937,3.818a5.288,5.288,0,0,1-1.768.521c-.682-.18-.92-1.331-.184-1.632Z" transform="translate(-65.486 0)" fill="#fff"/>
          <path id="Trazado_886153" data-name="Trazado 886153" d="M76,83.808h8.655a6.57,6.57,0,0,1,.868.56c1.04,1.087.223,2.745.651,3.8.632,1.561,3.611,4.119,4.15,5.764.712,2.174-1.385,4.6-3.353,5.3a5.345,5.345,0,0,1-6.855-3.488c-.438-1.565-.015-1.848.79-3.081.706-1.083,3.1-3.743,3.407-4.66a3.709,3.709,0,0,0-.161-2.514H76v15.377l4.914,4.832c.428,1.293-.067,2.358-1.461,2.486a62.459,62.459,0,0,1-8.918,0,1.708,1.708,0,0,1-1.165-2.685l4.782-4.629V85.489H66A3.709,3.709,0,0,0,65.837,88c.311.916,2.7,3.577,3.407,4.66.8,1.233,1.228,1.516.79,3.081a5.345,5.345,0,0,1-6.855,3.488c-1.968-.693-4.066-3.122-3.353-5.3.539-1.645,3.518-4.2,4.15-5.764.428-1.058-.389-2.716.651-3.8a6.57,6.57,0,0,1,.868-.56h8.655c.106-.852-.436-2.93.93-2.867,1.271.058.864,1.99.919,2.867m-8.4,9.747-2.282-3.348-.489-.351-2.606,3.7Zm14.956,0h5.378l-2.606-3.7-.489.351ZM68.267,95.236H61.545c.924,3.341,5.948,3.461,6.722,0m20.334,0H81.879c.738,3.474,5.832,3.322,6.722,0M79.19,106.5a38.267,38.267,0,0,0-4.117-4.039c-.386,0-3.593,3.489-4.117,4.039Z" transform="translate(-49.653 -67.338)" fill="#fff"/>
          <path id="Trazado_886154" data-name="Trazado 886154" d="M231.741,250.107a.876.876,0,0,1,.928,1.275,44.167,44.167,0,0,1-3.954,3.953.848.848,0,0,1-.372.112c-.789-.34-2.77-1.913-2.35-2.842.552-1.22,1.861.056,2.35.665.235,0,2.689-3.052,3.4-3.164" transform="translate(-187.966 -208.066)" fill="#fff"/>
        </g>
      </g>
    </g>
  </g>
</svg>
