<svg xmlns="http://www.w3.org/2000/svg" xmlns:xlink="http://www.w3.org/1999/xlink" width="90.184" height="90.184" viewBox="0 0 90.184 90.184">
  <defs>
    <clipPath id="clip-path">
      <rect id="Rectángulo_406941" data-name="Rectángulo 406941" width="58" height="56.197" fill="none"/>
    </clipPath>
    <clipPath id="clip-path-3">
      <rect id="Rectángulo_406927" data-name="Rectángulo 406927" width="23.235" height="18.55" fill="none"/>
    </clipPath>
    <clipPath id="clip-path-4">
      <rect id="Rectángulo_406930" data-name="Rectángulo 406930" width="22.751" height="12.067" fill="none"/>
    </clipPath>
    <clipPath id="clip-path-5">
      <rect id="Rectángulo_406931" data-name="Rectángulo 406931" width="22.926" height="11.265" fill="none"/>
    </clipPath>
  </defs>
  <g id="Grupo_1113899" data-name="Grupo 1113899" transform="translate(-754.711 -11469)">
    <g id="Grupo_1112371" data-name="Grupo 1112371" transform="translate(754.711 11469)">
      <g id="Grupo_1073526" data-name="Grupo 1073526" transform="translate(0 0)">
        <g id="Grupo_1072785" data-name="Grupo 1072785" transform="translate(0 0)">
          <path id="Trazado_608385" data-name="Trazado 608385" d="M45.092,0A45.092,45.092,0,1,1,0,45.092,45.092,45.092,0,0,1,45.092,0Z" transform="translate(0 0)" fill="none"/>
        </g>
        <g id="Grupo_1073383" data-name="Grupo 1073383" transform="translate(0 0)">
          <path id="Trazado_608385-2" data-name="Trazado 608385" d="M45.092,0A45.092,45.092,0,1,1,0,45.092,45.092,45.092,0,0,1,45.092,0Z" transform="translate(0 0)" fill="#fff"/>
        </g>
      </g>
    </g>
    <g id="Grupo_1112377" data-name="Grupo 1112377" transform="translate(352.574 5442.531)">
      <rect id="Rectángulo_401104" data-name="Rectángulo 401104" width="59" height="59" transform="translate(418.137 6042.469)" fill="none"/>
      <g id="Grupo_1113856" data-name="Grupo 1113856" transform="translate(419.137 6043.969)">
        <g id="Grupo_1113855" data-name="Grupo 1113855" clip-path="url(#clip-path)">
          <path id="Trazado_887832" data-name="Trazado 887832" d="M0,0,10.759-.207l-.421,21.065-10.759.207Z" transform="translate(34.765 34.486) rotate(-67.198)" fill="#75bd38"/>
          <g id="Grupo_1113854" data-name="Grupo 1113854" transform="translate(0 0)">
            <g id="Grupo_1113853" data-name="Grupo 1113853" clip-path="url(#clip-path)">
              <path id="Trazado_887801" data-name="Trazado 887801" d="M55.264,38.258,53.77,42.013c.663.385,1.8.994,1.244,3.106L67.9,50.843c1.106-2.017,2.417-1.445,3.1-1.191l1.489-3.743c-.663-.345-2.005-.965-1.327-3.317L58.7,37.057c-1.289,2.491-2.948,1.451-3.436,1.2" transform="translate(-16.779 -10.126)" fill="#ffffd0"/>
              <path id="Trazado_887802" data-name="Trazado 887802" d="M60.268,43.217a1.238,1.238,0,0,1-1.652.711,1.362,1.362,0,0,1-.674-1.743,1.239,1.239,0,0,1,1.65-.713,1.361,1.361,0,0,1,.675,1.746" transform="translate(-18.051 -11.304)" fill="#75bd38"/>
              <path id="Trazado_887803" data-name="Trazado 887803" d="M75.021,49.419a1.236,1.236,0,0,1-1.649.711,1.36,1.36,0,0,1-.676-1.743,1.239,1.239,0,0,1,1.653-.712,1.361,1.361,0,0,1,.671,1.744" transform="translate(-22.655 -12.999)" fill="#75bd38"/>
              <path id="Trazado_887804" data-name="Trazado 887804" d="M68.934,46.509a3.107,3.107,0,0,1-4.145,1.785A3.414,3.414,0,0,1,63.1,43.917a3.106,3.106,0,0,1,4.146-1.786,3.415,3.415,0,0,1,1.692,4.379" transform="translate(-19.612 -11.441)" fill="#75bd38"/>
              <path id="Trazado_887805" data-name="Trazado 887805" d="M67.668,46.874a1.115,1.115,0,0,0-.477-1.315c-.116-.054-.22-.108-.313-.163l.5-1.266a.506.506,0,0,1,.065.732l.724.322a1.208,1.208,0,0,0-.487-1.814l.041-.1a.292.292,0,0,0-.149-.373.267.267,0,0,0-.358.148l-.036.09a1.148,1.148,0,0,0-1.7.815c-.162.452-.3,1.05.676,1.754l-.5,1.265c-.371-.363-.02-.926-.02-.926l-.834-.37c-.2.392-.477,1.172.651,1.8l-.085.214a.293.293,0,0,0,.151.373.265.265,0,0,0,.356-.148l.082-.206c.85.321,1.346.113,1.71-.831m-1.453-2.559a.62.62,0,0,1,.66-.414l-.453,1.14a.668.668,0,0,1-.207-.726m-.054,2.88.463-1.163a.638.638,0,0,1-.463,1.163" transform="translate(-20.165 -11.715)" fill="#ffffd0"/>
              <g id="Grupo_1113846" data-name="Grupo 1113846" transform="translate(34.765 24.487)" style="mix-blend-mode: multiply;isolation: isolate">
                <g id="Grupo_1113845" data-name="Grupo 1113845">
                  <g id="Grupo_1113844" data-name="Grupo 1113844" clip-path="url(#clip-path-3)">
                    <path id="Trazado_887833" data-name="Trazado 887833" d="M0,0,10.759-.207l-.421,21.065-10.759.207Z" transform="translate(0 9.998) rotate(-67.198)" fill="#b1c0c0"/>
                  </g>
                </g>
              </g>
              <path id="Trazado_887835" data-name="Trazado 887835" d="M0,0,22.6-.018,22.59,11.716l-22.6.018Z" transform="matrix(1, -0.014, 0.014, 1, 33.188, 40.7)" fill="#75bd38"/>
              <path id="Trazado_887806" data-name="Trazado 887806" d="M50.042,60.019l.058,4.407c.815.078,2.19.163,2.508,2.51l15.124-.223c.269-2.505,1.8-2.539,2.585-2.6l-.058-4.392c-.8-.038-2.384-.039-2.676-2.681l-14.628.216c-.256,3.059-2.327,2.788-2.913,2.763" transform="translate(-15.616 -15.587)" fill="#ffffd0"/>
              <path id="Trazado_887807" data-name="Trazado 887807" d="M56.436,63.412a1.366,1.366,0,1,1-1.385-1.422,1.407,1.407,0,0,1,1.385,1.422" transform="translate(-16.76 -16.939)" fill="#75bd38"/>
              <path id="Trazado_887808" data-name="Trazado 887808" d="M73.749,63.17a1.366,1.366,0,1,1-1.381-1.422,1.406,1.406,0,0,1,1.381,1.422" transform="translate(-22.162 -16.873)" fill="#75bd38"/>
              <path id="Trazado_887809" data-name="Trazado 887809" d="M66.686,62.437a3.43,3.43,0,1,1-3.473-3.567,3.532,3.532,0,0,1,3.473,3.567" transform="translate(-18.672 -16.087)" fill="#75bd38"/>
              <path id="Trazado_887810" data-name="Trazado 887810" d="M65.7,63.58A1.144,1.144,0,0,0,64.684,62.5c-.138,0-.263-.007-.378-.018l-.019-1.486a.536.536,0,0,1,.365.7l.85-.012A1.264,1.264,0,0,0,64.276,60.1l0-.123a.3.3,0,1,0-.594.009v.106a1.3,1.3,0,0,0-1.348,1.585c.024.522.132,1.178,1.389,1.429l.019,1.485c-.517-.191-.4-.909-.4-.909l-.978.015c-.033.479.008,1.379,1.386,1.49l0,.251a.3.3,0,1,0,.6-.009l0-.241c.975-.071,1.381-.5,1.355-1.607m-2.49-1.872A.708.708,0,0,1,63.692,61l.017,1.338c-.529-.23-.5-.625-.5-.625m1.128,2.88-.018-1.365a.7.7,0,0,1,.018,1.365" transform="translate(-19.449 -16.307)" fill="#ffffd0"/>
              <g id="Grupo_1113849" data-name="Grupo 1113849" transform="translate(33.188 40.367)" style="mix-blend-mode: multiply;isolation: isolate">
                <g id="Grupo_1113848" data-name="Grupo 1113848">
                  <g id="Grupo_1113847" data-name="Grupo 1113847" clip-path="url(#clip-path-4)">
                    <path id="Trazado_887836" data-name="Trazado 887836" d="M0,0,22.6-.018,22.59,11.717l-22.6.018Z" transform="translate(0 0.333) rotate(-0.798)" fill="#c5d6d6"/>
                  </g>
                </g>
              </g>
              <g id="Grupo_1113852" data-name="Grupo 1113852" transform="translate(9.885 40.908)" style="mix-blend-mode: multiply;isolation: isolate">
                <g id="Grupo_1113851" data-name="Grupo 1113851">
                  <g id="Grupo_1113850" data-name="Grupo 1113850" clip-path="url(#clip-path-5)">
                    <path id="Trazado_887811" data-name="Trazado 887811" d="M32.936,56.289s-8.99,3.306-11.314,4.522c-2.951,1.544-4.264,5.28-7.254,6.743H37.294Z" transform="translate(-14.368 -56.289)" fill="#d0d0d0"/>
                  </g>
                </g>
              </g>
              <rect id="Rectángulo_406932" data-name="Rectángulo 406932" width="37.588" height="48.45" transform="translate(8.902 6.735)" fill="#e4fff7"/>
              <rect id="Rectángulo_406933" data-name="Rectángulo 406933" width="15.171" height="12.615" transform="translate(12.638 11.424)" fill="#92d8fe"/>
              <path id="Trazado_887812" data-name="Trazado 887812" d="M56.886,17.633h-11.6l.528-1.914h11.6Z" transform="translate(-14.131 -4.295)" fill="#1d6350"/>
              <path id="Trazado_887813" data-name="Trazado 887813" d="M56.886,25h-11.6l.528-1.913h11.6Z" transform="translate(-14.131 -6.307)" fill="#1d6350"/>
              <path id="Trazado_887814" data-name="Trazado 887814" d="M56.886,32.358h-11.6l.528-1.914h11.6Z" transform="translate(-14.131 -8.319)" fill="#1d6350"/>
              <rect id="Rectángulo_406934" data-name="Rectángulo 406934" width="30.117" height="1.914" transform="translate(12.638 30.004)" fill="#1d6350"/>
              <rect id="Rectángulo_406935" data-name="Rectángulo 406935" width="30.117" height="1.914" transform="translate(12.638 34.389)" fill="#1d6350"/>
              <rect id="Rectángulo_406936" data-name="Rectángulo 406936" width="30.117" height="1.914" transform="translate(12.638 38.773)" fill="#1d6350"/>
              <rect id="Rectángulo_406937" data-name="Rectángulo 406937" width="30.117" height="1.914" transform="translate(12.638 43.158)" fill="#1d6350"/>
              <rect id="Rectángulo_406938" data-name="Rectángulo 406938" width="30.117" height="1.914" transform="translate(12.638 47.543)" fill="#1d6350"/>
              <path id="Trazado_887815" data-name="Trazado 887815" d="M68.814,69.573l-.03.031c-.821.868-2.433.571-3.6-.661L51.093,54.056l3-3.173L68.188,65.771c1.167,1.232,1.447,2.935.626,3.8" transform="translate(-15.944 -13.904)" fill="#35aaaa"/>
              <path id="Trazado_887816" data-name="Trazado 887816" d="M38.015,26.822C31.381,26.822,26,32.5,26,39.511S31.381,52.2,38.015,52.2s12.012-5.682,12.012-12.69S44.648,26.822,38.015,26.822m0,22.917a9.238,9.238,0,0,1-4.891-1.411,10.333,10.333,0,0,1-4.792-8.817,9.966,9.966,0,0,1,9.682-10.227,9.587,9.587,0,0,1,8.346,5.061A10.609,10.609,0,0,1,47.7,39.511a9.966,9.966,0,0,1-9.682,10.228" transform="translate(-8.114 -7.329)" fill="#35aaaa"/>
              <path id="Trazado_887817" data-name="Trazado 887817" d="M67.019,68.676l-.03.031c-.821.868-2.433.571-3.6-.661L49.3,53.16l3-3.174L66.393,64.874c1.167,1.232,1.447,2.935.626,3.8" transform="translate(-15.384 -13.659)" fill="#64bdc5"/>
              <path id="Trazado_887818" data-name="Trazado 887818" d="M46.959,39.539a9.967,9.967,0,0,1-9.683,10.227,9.967,9.967,0,0,1-9.682-10.227,9.967,9.967,0,0,1,9.682-10.228,9.967,9.967,0,0,1,9.683,10.228" transform="translate(-8.611 -8.009)" fill="#a3dadd"/>
              <path id="Trazado_887819" data-name="Trazado 887819" d="M40.733,32.961a9.238,9.238,0,0,1,4.891,1.411,9.588,9.588,0,0,0-8.346-5.061,9.966,9.966,0,0,0-9.682,10.228,10.332,10.332,0,0,0,4.792,8.816,10.607,10.607,0,0,1-1.336-5.166,9.967,9.967,0,0,1,9.682-10.227" transform="translate(-8.611 -8.009)" fill="#64bdc5"/>
              <path id="Trazado_887820" data-name="Trazado 887820" d="M47.191,35.746A9.231,9.231,0,0,0,42.3,34.335a9.966,9.966,0,0,0-9.682,10.227,10.6,10.6,0,0,0,1.336,5.166,9.233,9.233,0,0,0,4.891,1.412,9.966,9.966,0,0,0,9.682-10.228,10.611,10.611,0,0,0-1.336-5.166" transform="translate(-10.179 -9.382)" fill="#a3dadd"/>
              <path id="Trazado_887821" data-name="Trazado 887821" d="M29.681,41.458a1.1,1.1,0,0,1-1.073-1.133,9.615,9.615,0,0,1,4.08-7.954,1.039,1.039,0,0,1,1.485.33,1.172,1.172,0,0,1-.312,1.568,7.322,7.322,0,0,0-3.107,6.057,1.1,1.1,0,0,1-1.073,1.133" transform="translate(-8.927 -8.795)" fill="#fff"/>
              <path id="Trazado_887822" data-name="Trazado 887822" d="M40.733,32.961a9.238,9.238,0,0,1,4.891,1.411,9.588,9.588,0,0,0-8.346-5.061,9.966,9.966,0,0,0-9.682,10.228,10.332,10.332,0,0,0,4.792,8.816,10.607,10.607,0,0,1-1.336-5.166,9.967,9.967,0,0,1,9.682-10.227" transform="translate(-8.611 -8.009)" fill="#a3dadd"/>
              <path id="Trazado_887823" data-name="Trazado 887823" d="M47.191,35.746A9.231,9.231,0,0,0,42.3,34.335a9.966,9.966,0,0,0-9.682,10.227,10.6,10.6,0,0,0,1.336,5.166,9.233,9.233,0,0,0,4.891,1.412,9.966,9.966,0,0,0,9.682-10.228,10.611,10.611,0,0,0-1.336-5.166" transform="translate(-10.179 -9.382)" fill="#c4f7f7"/>
              <path id="Trazado_887824" data-name="Trazado 887824" d="M50.957,46.614H38.467L40.05,41.24H50.957Z" transform="translate(-12.004 -11.269)" fill="#70efeb"/>
              <path id="Trazado_887825" data-name="Trazado 887825" d="M36.22,25.925c-6.634,0-12.012,5.681-12.012,12.69S29.586,51.3,36.22,51.3s12.012-5.682,12.012-12.689-5.378-12.69-12.012-12.69m0,22.917a9.24,9.24,0,0,1-4.891-1.411,10.333,10.333,0,0,1-4.792-8.816A9.967,9.967,0,0,1,36.22,28.386a9.587,9.587,0,0,1,8.346,5.062A10.612,10.612,0,0,1,45.9,38.615,9.966,9.966,0,0,1,36.22,48.842" transform="translate(-7.554 -7.084)" fill="#64bdc5"/>
              <path id="Trazado_887826" data-name="Trazado 887826" d="M30.087,40.871a.635.635,0,0,1-.617-.652A8.02,8.02,0,0,1,37.253,32a.653.653,0,0,1,0,1.3A6.747,6.747,0,0,0,30.7,40.219a.636.636,0,0,1-.618.652" transform="translate(-9.196 -8.743)" fill="#fff"/>
              <path id="Trazado_887834" data-name="Trazado 887834" d="M0,0,27.291-.525l-.258,13.96L-.258,13.96Z" transform="translate(0 10.58) rotate(-21.704)" fill="#75bd38"/>
              <path id="Trazado_887827" data-name="Trazado 887827" d="M4.21,15.3l1.849,4.907C7,19.931,8.576,19.4,9.882,21.889l16.841-7.081c-.713-2.926.991-3.656,1.842-4.078L26.722,5.839c-.91.318-2.684,1.033-4.081-1.793L6.353,10.895C7.3,14.435,4.876,15.068,4.21,15.3" transform="translate(-1.314 -1.106)" fill="#e8f2de"/>
              <path id="Trazado_887828" data-name="Trazado 887828" d="M12.524,19.009a1.761,1.761,0,0,1-.917,2.243,1.607,1.607,0,0,1-2.122-.965,1.761,1.761,0,0,1,.913-2.244,1.609,1.609,0,0,1,2.126.967" transform="translate(-2.924 -4.897)" fill="#75bd38"/>
              <path id="Trazado_887829" data-name="Trazado 887829" d="M31.8,11.336a1.76,1.76,0,0,1-.913,2.241,1.607,1.607,0,0,1-2.124-.964,1.762,1.762,0,0,1,.916-2.245,1.608,1.608,0,0,1,2.122.968" transform="translate(-8.94 -2.8)" fill="#75bd38"/>
              <path id="Trazado_887830" data-name="Trazado 887830" d="M23.858,13.019a4.42,4.42,0,0,1-2.3,5.63,4.035,4.035,0,0,1-5.331-2.423,4.42,4.42,0,0,1,2.3-5.632,4.035,4.035,0,0,1,5.332,2.424" transform="translate(-4.973 -2.811)" fill="#75bd38"/>
              <path id="Trazado_887831" data-name="Trazado 887831" d="M23.14,15.141a1.309,1.309,0,0,0-1.585-.728c-.153.065-.3.116-.427.158l-.651-1.643a.615.615,0,0,1,.7.6l.94-.416a1.449,1.449,0,0,0-2.03-1.172l-.054-.136a.344.344,0,0,0-.462-.192.38.38,0,0,0-.2.483l.047.117a1.62,1.62,0,0,0-.829,2.4c.248.569.646,1.248,2.149.934l.651,1.642c-.655.032-.829-.821-.829-.821l-1.082.478c.166.548.593,1.53,2.172,1l.11.277a.345.345,0,0,0,.463.191.377.377,0,0,0,.195-.482l-.106-.267c1.053-.539,1.322-1.213.826-2.426m-3.561-.906a.878.878,0,0,1,.238-1.022l.585,1.479c-.686-.006-.823-.457-.823-.457M22.053,16.9l-.6-1.509c1.024-.077,1.23.962.6,1.509" transform="translate(-5.726 -3.165)" fill="#e8f2de"/>
            </g>
          </g>
        </g>
      </g>
    </g>
  </g>
</svg>
