<svg xmlns="http://www.w3.org/2000/svg" xmlns:xlink="http://www.w3.org/1999/xlink" width="70" height="70" viewBox="0 0 70 70">
  <defs>
    <clipPath id="clip-path">
      <rect id="Rect치ngulo_406919" data-name="Rect치ngulo 406919" width="42.86" height="42.85" fill="#023263"/>
    </clipPath>
  </defs>
  <g id="Grupo_1112356" data-name="Grupo 1112356" transform="translate(-269 -958)">
    <circle id="Elipse_5614" data-name="Elipse 5614" cx="35" cy="35" r="35" transform="translate(269 958)" fill="#fff"/>
    <g id="Grupo_1113840" data-name="Grupo 1113840" transform="translate(283 972)">
      <g id="Grupo_1113839" data-name="Grupo 1113839" clip-path="url(#clip-path)">
        <path id="Trazado_887764" data-name="Trazado 887764" d="M42.86,87.043v16.886a9.183,9.183,0,0,1-.346,1c-1.322,2.84-4.5,1.828-7.023,2a14.077,14.077,0,0,0-28.122,0c-2.519-.177-5.7.835-7.023-2a9.21,9.21,0,0,1-.346-1V87.043ZM5.982,89.771a1.251,1.251,0,0,0-.019,2.423l7.973,0a1.262,1.262,0,0,0-.251-2.445Zm23.09,0a1.26,1.26,0,0,0-.148,2.425l7.973,0a1.253,1.253,0,0,0-.123-2.442c-2.23-.354-5.375.227-7.7.021" transform="translate(0 -76.353)" fill="#023263"/>
        <path id="Trazado_887765" data-name="Trazado 887765" d="M91.055,160.161a11.6,11.6,0,1,1-9.721,16.648,11.628,11.628,0,0,1,9.721-16.648m2.009,5.716c-.064-.1,0-.406-.077-.6a1.275,1.275,0,0,0-1.953-.718c-.629.413-.454,1.165-.687,1.4-.153.154-1.008.435-1.348.739a3.28,3.28,0,0,0-.477,4.271c.958,1.368,4.7,1.894,4.991,2.872.442,1.476-1.841,1.537-2.8,1.2-1-.353-1.68-1.83-2.872-.9-1.39,1.083.487,2.478,1.411,2.976.222.119,1.159.411,1.193.465.063.1,0,.407.076.6a1.266,1.266,0,0,0,1.972.737c.5-.357.477-1.128.672-1.293.123-.1.507-.138.725-.258,3.122-1.721,2.916-5.085-.272-6.579-.537-.252-3.009-1-3.134-1.416-.166-1.2,1.259-1.273,2.136-1.025.576.163,1.235.8,1.725.863a1.276,1.276,0,0,0,1.21-1.956c-.519-.829-2.415-1.255-2.492-1.377" transform="translate(-70.326 -140.47)" fill="#023263"/>
        <path id="Trazado_887766" data-name="Trazado 887766" d="M42.86,3.2H0A3.725,3.725,0,0,1,3.495,0L39.6.007A3.761,3.761,0,0,1,42.86,3.2" fill="#023263"/>
        <rect id="Rect치ngulo_406918" data-name="Rect치ngulo 406918" width="42.86" height="2.579" transform="translate(0 5.655)" fill="#023263"/>
      </g>
    </g>
  </g>
</svg>
