<svg xmlns="http://www.w3.org/2000/svg" xmlns:xlink="http://www.w3.org/1999/xlink" width="122" height="122" viewBox="0 0 122 122">
  <defs>
    <clipPath id="clip-path">
      <rect id="Rectángulo_404919" data-name="Rectángulo 404919" width="122" height="122" fill="none"/>
    </clipPath>
    <clipPath id="clip-path-2">
      <rect id="Rectángulo_404925" data-name="Rectángulo 404925" width="60" height="60" fill="#fff" stroke="#707070" stroke-width="1"/>
    </clipPath>
    <clipPath id="clip-path-3">
      <rect id="Rectángulo_406049" data-name="Rectángulo 406049" width="52.99" height="52.223" fill="#fff"/>
    </clipPath>
  </defs>
  <g id="Grupo_1112261" data-name="Grupo 1112261" transform="translate(-179.664 -3667)">
    <g id="Grupo_1110094" data-name="Grupo 1110094" transform="translate(179.664 3667)">
      <g id="Grupo_1110058" data-name="Grupo 1110058" clip-path="url(#clip-path)">
        <path id="Trazado_883529" data-name="Trazado 883529" d="M4.833,30,18.4,105.124c1.993,11.036,12.965,18.438,24.506,16.532a21.661,21.661,0,0,0,9.963-4.4l61.257-48.8A19.672,19.672,0,0,0,116.844,39.9a21.222,21.222,0,0,0-8.966-6.05L33.054,7.521C22.063,3.652,9.874,9.037,5.829,19.546A19.436,19.436,0,0,0,4.833,30" transform="translate(0.242 0.045)" fill="#0354a5"/>
        <path id="Trazado_883530" data-name="Trazado 883530" d="M120.213,86.305h0a20.942,20.942,0,0,1-6.082,8.079,21.885,21.885,0,0,1-9.986,4.527L25.824,113.2C14.063,115.378,2.679,108.03.4,96.785A19.878,19.878,0,0,1,1.23,85.949l26.226-72c.122-.336.254-.673.393-1A21.378,21.378,0,0,1,44.442.284a22.817,22.817,0,0,1,10.636.831,21.614,21.614,0,0,1,9.353,6.1l52.094,57.712a19.905,19.905,0,0,1,3.689,21.382M28.825,13.331c-.132.313-.259.635-.375.955l-26.225,72C-1.53,96.6,4.171,107.867,14.957,111.458a21.593,21.593,0,0,0,10.67.749l78.319-14.284c11.218-2.046,18.578-12.4,16.439-23.126a19.433,19.433,0,0,0-4.659-9.215L63.632,7.869A21.344,21.344,0,0,0,34.464,5.823a19.823,19.823,0,0,0-5.639,7.508" transform="translate(0 0)" fill="#1d6350"/>
      </g>
    </g>
    <g id="Enmascarar_grupo_1108078" data-name="Enmascarar grupo 1108078" transform="translate(207.664 3698)" clip-path="url(#clip-path-2)">
      <g id="Grupo_1112543" data-name="Grupo 1112543" transform="translate(3.389 4.333)">
        <g id="Grupo_1112542" data-name="Grupo 1112542" clip-path="url(#clip-path-3)">
          <path id="Trazado_886831" data-name="Trazado 886831" d="M39.1,10.129l5.243-5.2c.095-.541-2.807-1.991-1.422-3,2.323.072,5.3-.376,7.555-.064.694.1.679.384.732,1.013a47.783,47.783,0,0,1,0,6.861c-.093.7-.643.919-1.279.626-.45-.207-1.451-1.836-1.912-1.6-1.439,1.035-7.828,8.475-8.877,8.663-.968.174-1.275-.733-.846-1.5l9.559-9.4c.715-.224,1.07.6,1.6.892V3.6H45.629l.93,1.23-.295.761L28.748,23.1l-1.042-.068L21.828,17.3l-9,6.447,1.632.848c1.105-.515,6.414-5,7.168-4.884.863.134,5.451,5.553,6.564,6.342l7.725-7.716c.9-.334,1.612.058,1.365,1.037l-8.212,8.357a1.053,1.053,0,0,1-1.366.244l-6.224-6.2L15.535,25.9c-.055.078.862,1.38.983,1.641a8.717,8.717,0,0,1-3.424,11.28,16.125,16.125,0,0,0-4.965,3.792A32.842,32.842,0,0,0,3.137,50.2c-.373.754-.694,2.65-1.987,1.82-.778-.5.594-2.917.9-3.545a31.242,31.242,0,0,1,6.16-8.407A8.783,8.783,0,0,1,.36,28.79c.247-.882.809-2.514,1.882-2.435,1.495.11.128,2-.088,2.636a6.964,6.964,0,0,0,9.141,8.823c7.484-2.906,4.758-14.563-3.922-13.317-.97.139-3.563,1.972-3.739.339-.129-1.2,2.32-1.429,2.485-1.911l.013-8.108a.9.9,0,0,1,.876-.876,44.426,44.426,0,0,1,5.5.091,2.758,2.758,0,0,1,.481.475v6.767a5.424,5.424,0,0,0,1.673-1.113c.5-1.021-.86-4.328,1.6-3.349l.314,2.073,3.424-2.627V11.4h-3.5v2.787a.882.882,0,0,1-1.717-.034c.092-2.186-.239-4.67-.041-6.82.071-.779.217-1.093,1.039-1.19a35.254,35.254,0,0,1,5.347.073c.458.148.579.525.631.962.136,1.152-.286,7.759,0,8.037.035.033.421-.011.621.091.406.208.668.848,1.123,1.031V9.253a1.821,1.821,0,0,1,.519-.437A32.01,32.01,0,0,1,29.458,8.7c.234.037.885.372.885.548v9.633l1.748-1.835.075-6.772c.309-1.009,1.68-.64,1.68-.072v5.175l3.5-3.423V5.352h-3.5c-.088.686.226,1.7-.225,2.242a.858.858,0,0,1-1.492-.445,40.739,40.739,0,0,1-.038-6.02c.069-.595.26-.958.871-1.039A39.142,39.142,0,0,1,38.381.1c.266.052.72.507.72.713Zm-1.752-8.28h-3.5V3.6h3.5ZM19.993,7.9h-3.5V9.651h3.5Zm8.6,2.548H25.248v2.707h3.344Zm0,4.458H25.248V18.17l2.946,2.943c.075-.1.4-.346.4-.395Zm-17.356.8H7.892v2.548h3.344Zm0,4.3H7.892v2.707c.4-.2,3.344.4,3.344-.08Z" transform="translate(0 -0.001)" fill="#fff"/>
          <path id="Trazado_886832" data-name="Trazado 886832" d="M119.815,162.165c.47-.471,6.769-.049,8.007-.193a1.3,1.3,0,0,0,.311-2.548c-2.682.159-5.625-.229-8.274,0-.955.082-2.669.793-3.352.773-.913-.027-1.279-1.256-.163-1.741,2.445-1.062,5.5-.691,8.1-.82,2.267-1.48,4.425-4.035,6.653-5.449,1.685-1.07,3.206-.664,4.664.534,1.471-1.312,2.953-2.57,4.992-1.453.454.249.936,1.084,1.368.971.273-.071,2.281-2.041,2.861-2.409,3.733-2.367,6.987,2.056,4.115,5.076.964,1.311,1.473,2.945.384,4.359a52.085,52.085,0,0,1-4.523,4.378.9.9,0,0,1-.891-1.353c.678-.987,3.966-3.483,4.182-4.414.3-1.306-.518-1.984-1.763-1.765l-9.436,7.6-16.708,0a.976.976,0,0,1-.523-1.55m13.656-.2h3.105c.614,0,8.011-7.326,9.623-7.574,2.63.171,3.242-4.173.128-3.374Zm-2.865,0,9.642-8.109c.773-.808-1.072-1.63-1.737-1.1-.925.865-7.761,6.2-7.871,6.761-.05.254.245.739.252,1.093.008.436-.269.915-.286,1.355m-3.185-4.3,2.07.4,4.773-4.142c0-.149-.862-.658-1.069-.686-1.083-.144-3.856,2.882-4.9,3.476Z" transform="translate(-97.236 -125.407)" fill="#fff"/>
          <path id="Trazado_886833" data-name="Trazado 886833" d="M6.456,1.666c4.651-4.651,11.993,2.023,7.668,7.111C9.536,14.173,1.4,6.726,6.456,1.666M10.7,8.773c-.254-.737-1.561-3.04-1.37-3.664.258-.846,2.586-.9,3.373-1.258.755-.345-.1-1.028-.58-1.356a3.534,3.534,0,0,0-4.9.971A3.484,3.484,0,0,0,10.7,8.773m2.865-3.342-2.228.479.8,2.068c.754.042,1.769-2.156,1.431-2.547" transform="translate(-4.081 -0.08)" fill="#fff"/>
          <path id="Trazado_886834" data-name="Trazado 886834" d="M140.872,244.837a1.031,1.031,0,0,1,.047,1.164,34.334,34.334,0,0,1-2.714,2.7c-5.213,4.39-13.73,2.665-19.782,4.58a6.045,6.045,0,0,0-2.671,1.947c-.628.859-.828,2.981-2.117,2.6-.771-.46-.48-1.1-.233-1.77a6.979,6.979,0,0,1,5.5-4.691c5.707-1.2,14-.447,18.509-4.261.688-.581,2.558-3.183,3.463-2.272" transform="translate(-95.122 -205.69)" fill="#fff"/>
          <path id="Trazado_886835" data-name="Trazado 886835" d="M268.254,299.643l-11.55.091a.362.362,0,0,1-.208-.159,19.919,19.919,0,0,1-.116-4.4,1.137,1.137,0,0,1,1-.592l10.441.075a1.358,1.358,0,0,1,.482.314,13.239,13.239,0,0,1-.049,4.671m-8.4-1.554c-.059-.393.151-1.473-.15-1.683l-1.6-.07v1.753Zm3.344-1.753c-.393.059-1.473-.151-1.683.15l-.07,1.6H263.2Zm3.5,0h-1.753v1.753H266.7Z" transform="translate(-215.497 -247.675)" fill="#fff"/>
          <path id="Trazado_886836" data-name="Trazado 886836" d="M41.628,160.456c1.265.094,2.575,2.96,1.132,3.344-1.492.4-.768-2.764-2.671-1.411-.393,1.579.628,1.24,1.52,1.508a2.686,2.686,0,0,1,1.178,4.217c-.288.333-1.077.662-1.159.911-.21.635.375,1.729-.9,1.662-1.149-.061-.486-1.247-.8-1.766-.114-.19-.72-.413-.953-.639-.882-.853-1.23-3.186.445-2.676.584.178.46.947.739,1.332.57.787,1.727.114,1.412-.931-.154-.511-1.158-.459-1.718-.672a2.567,2.567,0,0,1-1.116-3.977c.279-.372,1.1-.846,1.195-1.035.335-.688-.358-2.491,1.592-1.436Z" transform="translate(-32.118 -133.315)" fill="#fff"/>
          <path id="Trazado_886837" data-name="Trazado 886837" d="M244.685,82.623c.717-.152,1.116.286,1.133.971L236.05,93.58c-.992.831-2.071-.371-1.194-1.352l9.232-9.239a1.335,1.335,0,0,1,.6-.367" transform="translate(-197.188 -69.441)" fill="#fff"/>
          <path id="Trazado_886838" data-name="Trazado 886838" d="M112.42,153.55a1.3,1.3,0,0,1,1.147.21,32.73,32.73,0,0,1,3.116,3.094c.376.479.823,1.137.167,1.608a1.051,1.051,0,0,1-1.044.064c-.556-.256-2.778-3.039-3.106-3.063-.827.338-1.768,1.545-2.7,1.4-.649-.1-.722-.864-.417-1.366a28.745,28.745,0,0,1,2.837-1.943" transform="translate(-91.989 -129.055)" fill="#fff"/>
        </g>
      </g>
    </g>
  </g>
</svg>
