<svg xmlns="http://www.w3.org/2000/svg" xmlns:xlink="http://www.w3.org/1999/xlink" width="147" height="147" viewBox="0 0 147 147">
  <defs>
    <clipPath id="clip-path">
      <rect id="Rectángulo_404919" data-name="Rectángulo 404919" width="147" height="147" fill="none"/>
    </clipPath>
    <clipPath id="clip-path-2">
      <rect id="Rectángulo_405775" data-name="Rectángulo 405775" width="78.518" height="78.519" transform="translate(0.297 3.296)" fill="#92d8fe" stroke="#707070" stroke-width="1"/>
    </clipPath>
    <clipPath id="clip-path-3">
      <rect id="Rectángulo_405828" data-name="Rectángulo 405828" width="69.208" height="64.274" fill="#92d8fe"/>
    </clipPath>
  </defs>
  <g id="Grupo_1113896" data-name="Grupo 1113896" transform="translate(-1145 -849.07)">
    <g id="Grupo_1112016" data-name="Grupo 1112016" transform="translate(1145 849.07)">
      <g id="Grupo_1110058" data-name="Grupo 1110058" transform="translate(0 0)" clip-path="url(#clip-path)">
        <path id="Trazado_883529" data-name="Trazado 883529" d="M4.9,34.861l16.347,90.521c2.4,13.3,15.622,22.216,29.528,19.92a26.1,26.1,0,0,0,12-5.3l73.81-58.8a23.7,23.7,0,0,0,3.276-34.409,25.571,25.571,0,0,0-10.8-7.289L38.9,7.778C25.657,3.116,10.971,9.6,6.1,22.267A23.419,23.419,0,0,0,4.9,34.861" transform="translate(1.218 1.339)" fill="#023263"/>
        <path id="Trazado_883530" data-name="Trazado 883530" d="M144.847,103.991h0a25.234,25.234,0,0,1-7.329,9.735,26.37,26.37,0,0,1-12.033,5.454l-94.37,17.213C16.945,139.021,3.228,130.168.478,116.617a23.952,23.952,0,0,1,1-13.056l31.6-86.751c.147-.405.306-.811.473-1.205A25.759,25.759,0,0,1,53.549.342a27.492,27.492,0,0,1,12.816,1,26.043,26.043,0,0,1,11.27,7.345L140.4,78.227a23.984,23.984,0,0,1,4.445,25.763M34.732,16.063c-.159.377-.312.765-.452,1.151l-31.6,86.749C-1.843,116.39,5.026,129.971,18.022,134.3a26.018,26.018,0,0,0,12.856.9l94.368-17.211c13.516-2.465,22.385-14.94,19.808-27.865a23.415,23.415,0,0,0-5.614-11.1L76.672,9.481A25.718,25.718,0,0,0,41.526,7.016a23.885,23.885,0,0,0-6.794,9.047" transform="translate(0 0)" fill="#41c9a5"/>
      </g>
    </g>
    <g id="Enmascarar_grupo_1108112" data-name="Enmascarar grupo 1108112" transform="translate(1176.414 879.704)" clip-path="url(#clip-path-2)">
      <g id="Grupo_1112148" data-name="Grupo 1112148" transform="translate(5.089 10.889)">
        <g id="Grupo_1112147" data-name="Grupo 1112147" clip-path="url(#clip-path-3)">
          <path id="Trazado_886264" data-name="Trazado 886264" d="M65.03,55.642a1,1,0,0,1,1.993.188,51.272,51.272,0,0,1-.015,7.143,2.029,2.029,0,0,1-1.7,1.275l-61.053.026a2.233,2.233,0,0,1-2.033-1.139L2.186,33.441c.026-.372.267-.481.523-.667C3.48,32.212,8,30.505,8.1,30.047L.191,11.242a1.687,1.687,0,0,1,.861-2.329C7.329,6.8,13.756,2.861,19.97.869a2.079,2.079,0,0,1,2.629.55c.148-.841.935-1.1,1.689-1.189,6.391-.719,14.088.537,20.618,0,.649-.246,1.618.925,1.781.939.28.024.8-.638,1.735-.5.735.1,8.885,3.419,9.61,3.886a1.13,1.13,0,0,1,.622,1.495.993.993,0,0,1-1.162.452l-9.2-3.7c-.205.663-1.5,3.01-1.5,3.478V13.71l2.065-4.575c.8-.891,1.579-.152,2.365-.411.482-.159.49-1.572,1.786-1.5l7.571,3.106c.834.841.048,1.66.321,2.454.153.445,1.369.672,1.374,1.614a67.1,67.1,0,0,1-2.486,6.259c-.816,1.388-2.106.85-1.882-.69.158-1.089,2.159-4.582,2.114-5.172-.014-.188-.783-.743-.977-1.144a14.486,14.486,0,0,1-.455-1.924L53.393,9.585c-.413-.005-.752.684-1.2.909-.5.251-1.8.335-2,.48-.264.194-1.614,4.583-2.134,5.3-.361.5-.7.428-1.277.409l0,.991a9.036,9.036,0,1,1,0,17.05v4.758l3.631-1.176c.748-1.069.776-3.336,2.618-2.4.532.475.025,1.3.1,1.391l3.582-1.323L66.984,10.6l-.169-.352c-.961-.519-3.6-.825-3.141-2.343A1.253,1.253,0,0,1,64.7,7.213a24.832,24.832,0,0,1,4.1,1.833,1.7,1.7,0,0,1,.305,1.7l-7.852,19.5c.028.289,4.506,1.994,5.231,2.523.256.186.5.3.522.667V48.7c-.224,1.177-1.977.689-1.977.006V35.122L34.6,46.21,4.165,35.122V62.085H65.03c.27-1.834-.364-4.753,0-6.443M44.808,2.41H24.387V40.178l10.207,3.846,10.214-3.846Zm-22.4,11.1V6.276c0-.2-1.5-3.479-1.847-3.446L2.178,10.641,12.909,35.993l3.546,1.31L16.636,36c2.017-1.372,1.916,1.765,2.646,2.448A12.489,12.489,0,0,0,22.4,39.484v-4.56a9.3,9.3,0,0,1-10.513-4.257A9.1,9.1,0,0,1,22.4,17.476l-.011-.779a1.2,1.2,0,0,1-1.258-.627c-.447-.692-1.89-4.939-2.139-5.1-.148-.094-1.286-.172-1.742-.339-.677-.248-.912-.719-1.453-1.067l-5.269,2.181a4.979,4.979,0,0,1-1.181,3.412c.373,1.389,2.1,4.006,2.247,5.264.132,1.149-1.132,1.666-1.924.565a45.032,45.032,0,0,1-2.292-5.242c-.815-2.673.75-1.829,1.06-3.02.148-.568-.512-1.632.173-2.2,2.081-.825,4.369-2.17,6.457-2.861.634-.21,1.4-.535,2.046-.119.3.2.286,1,.864,1.169.785.235,1.485-.405,2.258.319Zm0,6.146a7.039,7.039,0,0,0-9.419,8.328A7.116,7.116,0,0,0,22.4,32.743Zm32.444,1.656a7.05,7.05,0,0,0-7.963-1.462c0,1.5-.393,12.387.1,12.794,1.121.927,4.528.494,5.827-.127a7.132,7.132,0,0,0,2.036-11.206M9.1,32.163c-.325-.229-2.586,1.179-3.154,1.273a21.543,21.543,0,0,0,4.361,1.684ZM63.245,33.34l-2.677-1.187-1.088,2.77c.36-.1,4.018-1.258,3.765-1.583" transform="translate(0 0)" fill="#92d8fe"/>
          <path id="Trazado_886265" data-name="Trazado 886265" d="M254.493,264.876l-.056,1.322a1.292,1.292,0,0,1-.98.412c-3.174.371-7.048-.272-10.3-.016-1.488-.234-1.543-1.968.385-2.168a66.734,66.734,0,0,1,9.719-.006,3.114,3.114,0,0,1,1.233.455" transform="translate(-194.073 -211.857)" fill="#92d8fe"/>
          <path id="Trazado_886266" data-name="Trazado 886266" d="M243.01,247.208l11.06-.034a1,1,0,0,1,0,1.974h-10.9a1.008,1.008,0,0,1-.164-1.94" transform="translate(-194.298 -198.17)" fill="#92d8fe"/>
          <path id="Trazado_886267" data-name="Trazado 886267" d="M254.468,285.4a1.91,1.91,0,0,1-1.037.256,75.4,75.4,0,0,1-10.321-.008c-1.624-.177-1.257-1.77.016-1.97,3.252.256,7.127-.387,10.3-.016a1.294,1.294,0,0,1,.98.412Z" transform="translate(-194.043 -227.326)" fill="#92d8fe"/>
          <path id="Trazado_886268" data-name="Trazado 886268" d="M136.9,72.995c12.822-1.634,14.142,16.809,2.5,17.966-11.947,1.188-13.412-16.576-2.5-17.966m.4,1.983c-9.636,1.32-6.337,16.875,3.463,13.574,7.737-2.606,5.284-14.773-3.463-13.574" transform="translate(-103.838 -58.441)" fill="#92d8fe"/>
          <path id="Trazado_886269" data-name="Trazado 886269" d="M149.965,24.8c.245.392,1.931.224,2.137,1.333a47.207,47.207,0,0,1,.015,6.745c-.165,1.272-1.836,1.446-2-.4-.152-1.693.123-3.617.021-5.338a3.2,3.2,0,0,1-2.224-2.272h-6.083a3.2,3.2,0,0,1-2.224,2.272c-.1,1.72.173,3.645.021,5.338-.165,1.842-1.831,1.669-2,.4a54.766,54.766,0,0,1,.051-6.906c.252-.875,1.517-.638,1.951-1.221.588-.789-.038-1.9,1.67-2.1a49.673,49.673,0,0,1,7.5.047c1.355.3.861,1.6,1.172,2.1" transform="translate(-110.273 -18.07)" fill="#92d8fe"/>
          <path id="Trazado_886270" data-name="Trazado 886270" d="M141.845,166.5h6.1c.1-1.306,1.3-1.774,2.171-2.487.324-1.331-.367-4.991.129-6.016a1.01,1.01,0,0,1,1.894.486,45.727,45.727,0,0,1-.052,6.708c-.281,1.225-1.558.7-1.961,1.212l-.625,1.852a1.77,1.77,0,0,1-1.031.259,53.709,53.709,0,0,1-7.154,0c-1.938-.165-1.015-1.288-1.656-2.11-.384-.492-1.584-.034-1.915-1.059a47.978,47.978,0,0,1-.1-6.861,1.01,1.01,0,0,1,1.894-.486c.5,1.025-.194,4.685.129,6.016.87.713,2.075,1.181,2.171,2.487" transform="translate(-110.299 -126.245)" fill="#92d8fe"/>
        </g>
      </g>
    </g>
  </g>
</svg>
