<svg xmlns="http://www.w3.org/2000/svg" xmlns:xlink="http://www.w3.org/1999/xlink" width="99" height="99" viewBox="0 0 99 99">
  <defs>
    <clipPath id="clip-path">
      <rect id="Rectángulo_401223" data-name="Rectángulo 401223" width="99" height="99" transform="translate(0)" fill="#fce898"/>
    </clipPath>
    <clipPath id="clip-path-2">
      <rect id="Rectángulo_401223-2" data-name="Rectángulo 401223" width="88.539" height="88.539" fill="#f3f9ff"/>
    </clipPath>
    <clipPath id="clip-path-3">
      <rect id="Rectángulo_405763" data-name="Rectángulo 405763" width="67.156" height="63.999" fill="none"/>
    </clipPath>
    <clipPath id="clip-path-5">
      <rect id="Rectángulo_405758" data-name="Rectángulo 405758" width="17.989" height="8.506" fill="none"/>
    </clipPath>
    <clipPath id="clip-path-6">
      <rect id="Rectángulo_405761" data-name="Rectángulo 405761" width="27.535" height="29.695" fill="none"/>
    </clipPath>
  </defs>
  <g id="Grupo_1111563" data-name="Grupo 1111563" transform="translate(-619.922 -5755.73)">
    <g id="Grupo_1100724" data-name="Grupo 1100724" transform="translate(619.921 5755.73)">
      <g id="Grupo_1099654" data-name="Grupo 1099654" transform="translate(0 0)">
        <g id="Grupo_1099652" data-name="Grupo 1099652" clip-path="url(#clip-path)">
          <path id="Trazado_873521" data-name="Trazado 873521" d="M99,77.066A22,22,0,0,1,77.066,99H21.934A22,22,0,0,1,0,77.066V21.933A22,22,0,0,1,21.934,0H77.066A22,22,0,0,1,99,21.934Z" transform="translate(0)" fill="#023263"/>
        </g>
      </g>
      <g id="Grupo_1099659" data-name="Grupo 1099659" transform="translate(4.77 5.723)">
        <g id="Grupo_1099652-2" data-name="Grupo 1099652" transform="translate(0 0)" clip-path="url(#clip-path-2)">
          <path id="Trazado_873521-2" data-name="Trazado 873521" d="M88.539,68.922A19.674,19.674,0,0,1,68.923,88.539H19.616A19.674,19.674,0,0,1,0,68.922V19.616A19.674,19.674,0,0,1,19.616,0H68.923A19.674,19.674,0,0,1,88.539,19.616Z" fill="#f3f9ff"/>
        </g>
      </g>
    </g>
    <g id="Grupo_1100725" data-name="Grupo 1100725" transform="translate(636.343 5771.293)">
      <rect id="Rectángulo_401104" data-name="Rectángulo 401104" width="68" height="69" transform="translate(-0.422 0.438)" fill="none"/>
      <g id="Grupo_1112006" data-name="Grupo 1112006" transform="translate(0.579 2.438)">
        <g id="Grupo_1112005" data-name="Grupo 1112005" clip-path="url(#clip-path-3)">
          <path id="Trazado_886097" data-name="Trazado 886097" d="M46.744,67.856H27.119l1.914-13.194h15.8Z" transform="translate(-3.354 -6.76)" fill="#bbb"/>
          <g id="Grupo_1112004" data-name="Grupo 1112004" transform="translate(0 0)">
            <g id="Grupo_1112003" data-name="Grupo 1112003" clip-path="url(#clip-path-3)">
              <g id="Grupo_1111999" data-name="Grupo 1111999" transform="translate(24.445 47.901)" opacity="0.5" style="mix-blend-mode: multiply;isolation: isolate">
                <g id="Grupo_1111998" data-name="Grupo 1111998">
                  <g id="Grupo_1111997" data-name="Grupo 1111997" clip-path="url(#clip-path-5)">
                    <path id="Trazado_886098" data-name="Trazado 886098" d="M45.884,61.258,27.9,63.167l1.233-8.506h15.8Z" transform="translate(-27.895 -54.661)" fill="#bbb"/>
                  </g>
                </g>
              </g>
              <path id="Trazado_886099" data-name="Trazado 886099" d="M65.584,50.249H1.572A1.572,1.572,0,0,1,0,48.677V1.571A1.572,1.572,0,0,1,1.572,0H65.584a1.572,1.572,0,0,1,1.572,1.571V48.677a1.572,1.572,0,0,1-1.572,1.572" transform="translate(0 0)" fill="#e5e5e5"/>
              <path id="Trazado_886100" data-name="Trazado 886100" d="M50.95,72.539l-29.678-.031c-.688,0-.953-.379-.609-.826l1.547-2a2.117,2.117,0,0,1,1.515-.618l24.792.025a2.111,2.111,0,0,1,1.516.623l1.531,2.008c.34.446.072.822-.613.821" transform="translate(-2.537 -8.541)" fill="#474656"/>
              <rect id="Rectángulo_405759" data-name="Rectángulo 405759" width="58.992" height="36.781" transform="translate(3.868 3.468)" fill="#474656"/>
              <rect id="Rectángulo_405760" data-name="Rectángulo 405760" width="56.384" height="33.764" transform="translate(5.172 4.976)" fill="#ededed"/>
              <path id="Trazado_886101" data-name="Trazado 886101" d="M39.367,52.142a1.223,1.223,0,1,1-1.223-1.223,1.223,1.223,0,0,1,1.223,1.223" transform="translate(-4.566 -6.297)" fill="#bbb"/>
              <path id="Trazado_886102" data-name="Trazado 886102" d="M13.565,40.425h12.5c.148-.627.207-1.579-.359-2.024-.5-.4-1.389-.557-1.7-1.159-.191-.367.121-.664.3-.96a1.589,1.589,0,0,0,.079-1.559c-.365-.747-1.3-1.275-1.485-2.1-.209-.932.94-1.768,1.5-2.316.426-.414.847-.833,1.244-1.275a3.89,3.89,0,0,0,.771-1.036c.1-.244-.058-.319-.286-.278A4.047,4.047,0,0,1,24.6,27.9a2.1,2.1,0,0,1-1.175-.63,10.074,10.074,0,0,0-.223-1.42.838.838,0,0,0-.256-.5c-.288-.2-.5-.2-.695-.551a3.961,3.961,0,0,0-.524-.871,3.165,3.165,0,0,0-.746-.538c-.476-.272-.862-.558-.776-1.166.147-1.044.906-1.921,1.143-2.954.067-.3.109-1.145-.386-.653a3.082,3.082,0,0,0-.57.916c-.085.185-.207.494-.409.586-.332.151-.089-.88-.065-.959.572-1.875,2.2-2.9,3.6-4.117.121-.1.989-.748.859-.961a1.587,1.587,0,0,1-.968-.31,22.633,22.633,0,0,0-10.576,24.02,21.5,21.5,0,0,0,.731,2.633" transform="translate(-1.53 -1.703)" fill="#8cd8e5"/>
              <path id="Trazado_886103" data-name="Trazado 886103" d="M25.328,22.1a1.2,1.2,0,0,1,.739.165c-.373.347-.779.654-1.158.994-.175.157-.291.314,0,.4s.745.032.958.277c.183.209-.021.592-.1.806-.174.5-.507,1.655,0,2.085.372.316,1.287-.094,1.681-.18,1.941-.427,4.072-.35,5.226,1.507a3.323,3.323,0,0,0,.556.858,3.561,3.561,0,0,0,.985.528,1.374,1.374,0,0,1,.687.453c.216.363-.158.821-.318,1.123-.263.5-.818,1.325-.711,1.932a.179.179,0,0,0,.255.146,8.3,8.3,0,0,1,4.383,1.353,1.755,1.755,0,0,1,.888,1.4c-.042.84-.919,1.36-1.478,1.855a5.916,5.916,0,0,0-1.695,2.219H52.115c.165-.239.432-.409.6-.66a1.913,1.913,0,0,0,.142-2.249c-.2-.224-.637-.351-.724-.66-.064-.228.191-.417.343-.539.484-.387,1.078-.8.875-1.507-.17-.593-.71.106-1.049.077-.462-.039-.325-.992-.4-1.3-.081-.348-1.258.147-1.429.195-.709.2-1.761.538-2.378-.06-.521-.507-.6-1.347-.864-1.988a12.829,12.829,0,0,0-1.489-2.13c-.39-.575.507-.4.847-.529.667-.26.777-1.052.783-1.681.006-.572-.092-1.137-.124-1.707a2.113,2.113,0,0,1,.108-1.047c.232-.454.888-.29,1.28-.461.31-.135.308-.456.349-.744.063-.445.351-.521.743-.619a10.313,10.313,0,0,1,2.306-.7.589.589,0,0,1,.626.456c.054.215-.033.7.133.875.065.067.278.054.368.1a3.883,3.883,0,0,1,1.1,1.126c.1.131.308.5.507.516.174.012.42-.267.555-.352.362-.227.9-.336,1.146-.7.234-.344-.23-.575-.494-.664-.523-.179-1.081-.109-1.6-.258-.31-.089-.3-.279-.3-.552,0-.364-.293-.556-.6-.679a2.2,2.2,0,0,1-1.106-.932c-.183-.306-.868-1.321-1.2-.623-.317.671-.613,1.263-1.488,1.23a1.422,1.422,0,0,1-1.283-1.406c-.013-.844,1.13-.8,1.038-1.693-.1-.986-1.237-1.543-2-1.967-.034-.019-.546-.3-.474-.348.25-.162.907.109,1.13.225.466.244,1.134,1.244,1.757.859s-.7-1.454-.994-1.6c-.31-.155-.776-.121-1.007-.4-.2-.242-.188-.613-.308-.892a2.96,2.96,0,0,0-2.113-1.412c-.58-.1-1.364-.45-1.421-1.108-.192-.072-.386-.138-.579-.2-.695.324-1.343.739-2.043,1.052-.315.141-.915.45-1.261.223-.554-.365.105-1.463-.337-1.938-.324-.35-1.057-.053-1.461-.055-.1,0-.485-.127-.542.013s.074.324.122.435c.188.439.153.836-.454.748a1.8,1.8,0,0,1-1.105-.79l-1,.433c.556,1.336-2.912-.085-3.093.6-.058.22.356.485.538.479.123,0,.36-.248.46-.159.221.2.233.76.256,1.035,0,.044-.021.406.061.33.559-.521,1.266-.807,1.833-1.317a1.687,1.687,0,0,1,.613-.456c.315-.081.617.219.819.416a3.876,3.876,0,0,1,1.449,2.872c-.017.166-.092.5-.327.464-.321-.055-.5-.624-.708-.833-.44-.445-1.611-.954-1.96-.124-.235.558.57.839.946,1.017.131.062.411.158.451.322.056.226-.482.358-.613.376-.714.1-1.246-.493-1.74-.908-.457-.385-.22.393-.049.589.047.055.23.2.173.289-.116.182-.656.162-.83.179a5.657,5.657,0,0,0-2.895,1.018,8.448,8.448,0,0,0-1.541,1.412c-.03.035-.06.071-.089.108a13.4,13.4,0,0,1-.753,2.4c-.195.408-.289.17-.3-.169-.029-.772.2-1.711-.3-2.387-.887-1.216-2.886.519-3.548,1.169-.535.523-1.422,1.593-.788,2.364.623.755,1.281-.338,1.916-.4" transform="translate(-2.868 -1.295)" fill="#8cd8e5"/>
              <path id="Trazado_886104" data-name="Trazado 886104" d="M21.437,19.082c.868-1.9,1.649-1.2.261,1.489s.73,1.821,1.447,3.468.982-.346,1.328,2.776a2.235,2.235,0,0,0,2.429.521c1.562-.521-.26,1.385-1.908,2.948s-1.129,2.08-.26,3.036,1.215,1.734.434,2.776,1.215,1.386,1.734,1.993a2.359,2.359,0,0,1,.205,1.885h8.778c.223-.635.74-1.421,2.376-2.751,2.774-2.257-1.908-3.991-4.421-4.078,0,0-.922.377.695-2.515.7-1.263-1.389-.953-1.909-2.08a3.8,3.8,0,0,0-4.163-2.169c-2.429.261-3.125,1.13-3.209-.346s1.039-2.167-.175-2.342-.606-.261.7-1.475a1.231,1.231,0,0,0-1.563.261c-.781.782-2.169-.433-.521-2.167s4.25-3.038,4.077.259,1.041-1.489,1.041-1.489,1.822-2.328,4.078-2.5.866-.261.866-1.042,1.04,1.3,2.3.781-1.346-.694-1.086-1.56,1.737-.609,2.342.52,1.3-.606-.259-2.43-1.3-.692-2.777.087-.866,1.215-1.127-.087-.345.087-1.04-.6,1.237-.374,2.255-.261.694-.607.694-.607l1-.433s.651.953,1.43.779-.521-1.389.259-1.215,1.821-.52,1.909.522-.607,2.428,2.257.866c.577-.314.962-.518,1.226-.641a22.587,22.587,0,0,0-18.67,2.069,1.585,1.585,0,0,0,.963.307s.435,0-2.34,2.167-2.517,5.177-1.649,3.284" transform="translate(-2.578 -1.252)" fill="#75bd38"/>
              <path id="Trazado_886105" data-name="Trazado 886105" d="M47.388,12.348c1.126.692.781.085,2.253.953s.521,1.821,1.648,2,2.168,1.734,1.3,1.821-.955-.953-2.254-1.13.521.433,1.386,1.216.868,1.7,0,2.067-.226,2.356,1.188,2.1.891-1.734,1.673-1.386.52,1.212,1.822,1.734-.175,1.212,1.387,1.3,2.341.693.953,1.3-.691,1.127-1.908-.348-1.094-.061-1.215-1.473-2.08-.087-3.119.087-.175,1.215-1.13,1.386-1.388-.085-1.127,2.169S49.9,28.91,48.861,28.91s.87,1.215,1.387,2.776.61,2.516,2.864,1.909,1.561-.607,1.822.607,1.213-.695,1.385.52-2.168,1.476-.868,2.254.35,2.6-.26,3.036a.641.641,0,0,0-.126.151H60.73A22.625,22.625,0,0,0,46.939,11.65a.848.848,0,0,0,.449.7" transform="translate(-5.805 -1.441)" fill="#75bd38"/>
              <path id="Trazado_886106" data-name="Trazado 886106" d="M46.505,11.493c.128.044.253.092.38.138v0c-.127-.047-.254-.09-.38-.134" transform="translate(-5.751 -1.422)" fill="#fff"/>
              <g id="Grupo_1112002" data-name="Grupo 1112002" transform="translate(28.572 9.027)" style="mix-blend-mode: multiply;isolation: isolate">
                <g id="Grupo_1112001" data-name="Grupo 1112001">
                  <g id="Grupo_1112000" data-name="Grupo 1112000" clip-path="url(#clip-path-6)">
                    <path id="Trazado_886107" data-name="Trazado 886107" d="M46.94,11.65c8.728,3.142,0,0,0,0" transform="translate(-34.376 -10.468)" fill="#b9cece"/>
                    <path id="Trazado_886108" data-name="Trazado 886108" d="M44.587,40H58.951A22.76,22.76,0,0,0,60,30.247c-.009-.078-.016-.145-.024-.215.008.072.016.146.024.215A22.85,22.85,0,0,0,45.167,11.484v0c-.1-.037-.208-.065-.307-.105a21.951,21.951,0,0,0-4.848-1.067,23.162,23.162,0,0,0-3.343.161c-2.846,1.855-3.162,5.091-3.991,8.833-.463,2.088,1.4,9.27,1.4,9.27Z" transform="translate(-32.604 -10.301)" fill="#b9cece"/>
                    <path id="Trazado_886109" data-name="Trazado 886109" d="M63.832,32.745c-.018-.165-.038-.336-.056-.5.017.15.036.32.056.5" transform="translate(-36.458 -13.014)" fill="#b9cece"/>
                  </g>
                </g>
              </g>
              <path id="Trazado_886110" data-name="Trazado 886110" d="M61.206,18.659A14.587,14.587,0,1,1,46.62,4.071,14.586,14.586,0,0,1,61.206,18.659" transform="translate(-3.961 -0.504)" fill="#fff"/>
              <path id="Trazado_886111" data-name="Trazado 886111" d="M47.648,9.517a.9.9,0,1,0-.9-.9.9.9,0,0,0,.9.9" transform="translate(-5.781 -0.956)" fill="#8e8d97"/>
              <path id="Trazado_886112" data-name="Trazado 886112" d="M49.369,10.485c0-.287-.317-.521-.709-.521h-2.3c-.392,0-.709.233-.709.521v2c0,.3.138.429.306.429h.006c.169,0,.306-.124.306-.429V10.943a.094.094,0,0,1,.1-.094h0a.1.1,0,0,1,.092.094v4.742c0,.43.2.78.437.78h.009c.242,0,.438-.35.438-.78V13.739a.094.094,0,0,1,.095-.094h.14a.093.093,0,0,1,.095.094v1.945c0,.43.2.78.438.78h.009c.242,0,.438-.35.438-.78V10.943a.094.094,0,0,1,.092-.094h0a.094.094,0,0,1,.1.094v1.539c0,.3.138.429.306.429h.006c.169,0,.306-.124.306-.429v-2Z" transform="translate(-5.646 -1.232)" fill="#8e8d97"/>
              <path id="Trazado_886113" data-name="Trazado 886113" d="M52.782,9.517a.9.9,0,1,0-.9-.9.9.9,0,0,0,.9.9" transform="translate(-6.416 -0.956)" fill="#8e8d97"/>
              <path id="Trazado_886114" data-name="Trazado 886114" d="M54.5,10.485c0-.287-.317-.521-.709-.521H51.5c-.392,0-.709.233-.709.521v2c0,.3.138.429.306.429H51.1c.169,0,.306-.124.306-.429V10.943a.094.094,0,0,1,.1-.094h0a.094.094,0,0,1,.091.094v4.742c0,.43.2.78.438.78h.009c.243,0,.438-.35.438-.78V13.739a.094.094,0,0,1,.095-.094h.14a.093.093,0,0,1,.095.094v1.945c0,.43.2.78.438.78h.009c.242,0,.438-.35.438-.78V10.943a.094.094,0,0,1,.091-.094h0a.094.094,0,0,1,.1.094v1.539c0,.3.137.429.3.429H54.2c.169,0,.306-.124.306-.429v-2Z" transform="translate(-6.281 -1.232)" fill="#8e8d97"/>
              <path id="Trazado_886115" data-name="Trazado 886115" d="M57.915,9.517a.9.9,0,1,0-.9-.9.9.9,0,0,0,.9.9" transform="translate(-7.051 -0.956)" fill="#8e8d97"/>
              <path id="Trazado_886116" data-name="Trazado 886116" d="M59.636,10.485c0-.287-.318-.521-.71-.521h-2.3c-.392,0-.709.233-.709.521v2c0,.3.138.429.307.429h.006c.168,0,.3-.124.3-.429V10.943a.094.094,0,0,1,.1-.094h0a.1.1,0,0,1,.092.094v4.742c0,.43.2.78.437.78h.009c.242,0,.438-.35.438-.78V13.739a.094.094,0,0,1,.095-.094h.14a.092.092,0,0,1,.095.094v1.945c0,.43.2.78.438.78h.009c.242,0,.438-.35.438-.78V10.943a.1.1,0,0,1,.092-.094h0a.094.094,0,0,1,.1.094v1.539c0,.3.137.429.3.429h.006c.169,0,.307-.124.307-.429v-2Z" transform="translate(-6.915 -1.232)" fill="#8e8d97"/>
              <path id="Trazado_886117" data-name="Trazado 886117" d="M62.414,16.772h.009c.242,0,.438-.35.438-.781V14.045a.093.093,0,0,1,.095-.093H63c-.042-.063-.081-.128-.127-.188a15.933,15.933,0,0,1-.9-1.325v3.552c0,.431.2.781.438.781" transform="translate(-7.664 -1.538)" fill="#8e8d97"/>
              <path id="Trazado_886118" data-name="Trazado 886118" d="M61.361,13.033h.006c.169,0,.306-.124.306-.429v-.655c-.2-.33-.407-.667-.618-1V12.6c0,.306.137.429.306.429" transform="translate(-7.55 -1.354)" fill="#8e8d97"/>
              <path id="Trazado_886119" data-name="Trazado 886119" d="M63.8,17.028h.009a.313.313,0,0,0,.223-.112,6.324,6.324,0,0,0-.67-2.4v1.733c0,.431.2.781.438.781" transform="translate(-7.835 -1.795)" fill="#8e8d97"/>
              <path id="Trazado_886120" data-name="Trazado 886120" d="M33,16.876h.009c.242,0,.438-.35.438-.781v-2.81a10.467,10.467,0,0,0-.885,2.113v.7c0,.431.2.781.438.781" transform="translate(-4.027 -1.643)" fill="#8e8d97"/>
              <path id="Trazado_886121" data-name="Trazado 886121" d="M37.41,9.536a.893.893,0,0,0,.465-1.657c-.369.454-.763.891-1.16,1.32a.889.889,0,0,0,.695.337" transform="translate(-4.54 -0.975)" fill="#8e8d97"/>
              <path id="Trazado_886122" data-name="Trazado 886122" d="M35.389,12.482c0,.3.137.429.306.429H35.7c.168,0,.3-.124.3-.429V10.943a.093.093,0,0,1,.1-.093h0a.093.093,0,0,1,.092.093v4.742c0,.431.2.781.438.781h.009c.242,0,.438-.35.438-.781V13.739a.094.094,0,0,1,.095-.094h.14a.094.094,0,0,1,.095.094v1.945c0,.431.2.781.438.781h.009c.242,0,.437-.35.437-.781V10.943a.093.093,0,0,1,.092-.093h0a.092.092,0,0,1,.1.093v1.539c0,.3.137.429.306.429H38.8c.168,0,.306-.124.306-.429v-2c0-.287-.317-.521-.709-.521H36.1l-.022,0c-.234.251-.464.5-.687.748Z" transform="translate(-4.376 -1.232)" fill="#8e8d97"/>
              <path id="Trazado_886123" data-name="Trazado 886123" d="M42.515,9.517a.9.9,0,1,0-.9-.9.9.9,0,0,0,.9.9" transform="translate(-5.147 -0.956)" fill="#8e8d97"/>
              <path id="Trazado_886124" data-name="Trazado 886124" d="M44.236,10.485c0-.287-.317-.521-.709-.521h-2.3c-.391,0-.709.233-.709.521v2c0,.3.138.429.306.429h.006c.169,0,.306-.124.306-.429V10.943a.094.094,0,0,1,.1-.094h0a.1.1,0,0,1,.092.094v4.742c0,.43.2.78.437.78h.01c.242,0,.437-.35.437-.78V13.739a.094.094,0,0,1,.095-.094h.14a.093.093,0,0,1,.095.094v1.945c0,.43.2.78.438.78h.009c.242,0,.438-.35.438-.78V10.943a.094.094,0,0,1,.092-.094h0a.094.094,0,0,1,.1.094v1.539c0,.3.137.429.3.429h.006c.169,0,.306-.124.306-.429v-2Z" transform="translate(-5.011 -1.232)" fill="#8e8d97"/>
              <path id="Trazado_886125" data-name="Trazado 886125" d="M40.005,19.507a.9.9,0,1,0-.9-.9.9.9,0,0,0,.9.9" transform="translate(-4.836 -2.191)" fill="#8e8d97"/>
              <path id="Trazado_886126" data-name="Trazado 886126" d="M41.726,20.475c0-.287-.317-.521-.709-.521h-2.3c-.392,0-.709.233-.709.521v2c0,.3.138.429.306.429h.006c.169,0,.306-.124.306-.429V20.933a.094.094,0,0,1,.1-.094h0a.1.1,0,0,1,.092.094v4.741c0,.431.2.781.437.781h.009c.242,0,.438-.35.438-.781V23.729a.094.094,0,0,1,.095-.094h.14a.093.093,0,0,1,.095.094v1.945c0,.431.2.781.438.781h.009c.242,0,.438-.35.438-.781V20.933a.094.094,0,0,1,.092-.094h0a.094.094,0,0,1,.1.094v1.539c0,.3.137.429.3.429h.006c.169,0,.306-.124.306-.429v-2Z" transform="translate(-4.701 -2.468)" fill="#8e8d97"/>
              <path id="Trazado_886127" data-name="Trazado 886127" d="M45.139,19.507a.9.9,0,1,0-.9-.9.9.9,0,0,0,.9.9" transform="translate(-5.471 -2.191)" fill="#8e8d97"/>
              <path id="Trazado_886128" data-name="Trazado 886128" d="M46.859,20.475c0-.287-.317-.521-.709-.521h-2.3c-.392,0-.709.233-.709.521v2c0,.3.138.429.306.429h.006c.169,0,.306-.124.306-.429V20.933a.094.094,0,0,1,.1-.094h0a.1.1,0,0,1,.092.094v4.741c0,.431.2.781.437.781H44.4c.242,0,.438-.35.438-.781V23.729a.094.094,0,0,1,.095-.094h.14a.093.093,0,0,1,.095.094v1.945c0,.431.2.781.438.781h.009c.242,0,.438-.35.438-.781V20.933a.094.094,0,0,1,.092-.094h0a.094.094,0,0,1,.095.094v1.539c0,.3.138.429.306.429h.006c.169,0,.306-.124.306-.429v-2Z" transform="translate(-5.335 -2.468)" fill="#8e8d97"/>
              <path id="Trazado_886129" data-name="Trazado 886129" d="M50.272,19.507a.9.9,0,1,0-.9-.9.9.9,0,0,0,.9.9" transform="translate(-6.106 -2.191)" fill="#8e8d97"/>
              <path id="Trazado_886130" data-name="Trazado 886130" d="M51.993,20.475c0-.287-.317-.521-.709-.521h-2.3c-.392,0-.709.233-.709.521v2c0,.3.138.429.306.429h.006c.169,0,.306-.124.306-.429V20.933a.094.094,0,0,1,.1-.094h0a.094.094,0,0,1,.091.094v4.741c0,.431.2.781.438.781h.009c.243,0,.438-.35.438-.781V23.729a.094.094,0,0,1,.095-.094h.14a.093.093,0,0,1,.095.094v1.945c0,.431.2.781.438.781h.009c.242,0,.438-.35.438-.781V20.933a.094.094,0,0,1,.091-.094h0a.094.094,0,0,1,.095.094v1.539c0,.3.138.429.306.429h.006c.169,0,.306-.124.306-.429v-2Z" transform="translate(-5.97 -2.468)" fill="#8e8d97"/>
              <path id="Trazado_886131" data-name="Trazado 886131" d="M55.4,19.507a.9.9,0,1,0-.9-.9.9.9,0,0,0,.9.9" transform="translate(-6.741 -2.191)" fill="#8e8d97"/>
              <path id="Trazado_886132" data-name="Trazado 886132" d="M57.126,20.475c0-.287-.317-.521-.709-.521h-2.3c-.391,0-.709.233-.709.521v2c0,.3.138.429.306.429h.006c.169,0,.306-.124.306-.429V20.933a.094.094,0,0,1,.1-.094h0a.1.1,0,0,1,.092.094v4.741c0,.431.2.781.437.781h.01c.241,0,.437-.35.437-.781V23.729a.094.094,0,0,1,.095-.094h.14a.093.093,0,0,1,.095.094v1.945c0,.431.2.781.438.781h.009c.242,0,.438-.35.438-.781V20.933a.094.094,0,0,1,.092-.094h0a.094.094,0,0,1,.1.094v1.539c0,.3.137.429.3.429h.006c.169,0,.306-.124.306-.429v-2Z" transform="translate(-6.605 -2.468)" fill="#8e8d97"/>
              <path id="Trazado_886133" data-name="Trazado 886133" d="M60.538,19.507a.9.9,0,1,0-.9-.9.9.9,0,0,0,.9.9" transform="translate(-7.375 -2.191)" fill="#8e8d97"/>
              <path id="Trazado_886134" data-name="Trazado 886134" d="M62.259,20.475c0-.287-.317-.521-.709-.521h-2.3c-.392,0-.709.233-.709.521v2c0,.3.138.429.306.429h.006c.169,0,.306-.124.306-.429V20.933a.094.094,0,0,1,.1-.094h0a.1.1,0,0,1,.092.094v4.741c0,.431.2.781.437.781H59.8c.242,0,.438-.35.438-.781V23.729a.094.094,0,0,1,.095-.094h.14a.093.093,0,0,1,.095.094v1.945c0,.431.2.781.438.781h.009c.242,0,.438-.35.438-.781V20.933a.094.094,0,0,1,.092-.094h0a.094.094,0,0,1,.1.094v1.539c0,.3.138.429.306.429h.006c.169,0,.306-.124.306-.429v-2Z" transform="translate(-7.24 -2.468)" fill="#8e8d97"/>
              <path id="Trazado_886135" data-name="Trazado 886135" d="M64.13,20a.553.553,0,0,0-.451.485v2c0,.306.137.429.3.429h.006c.011,0,.02-.005.032-.006.009-.177.025-.351.027-.531.005-.711.056-1.527.082-2.373" transform="translate(-7.875 -2.473)" fill="#8e8d97"/>
              <path id="Trazado_886136" data-name="Trazado 886136" d="M31.6,22.914H31.6c.169,0,.306-.124.306-.429v-2a.5.5,0,0,0-.314-.433,15.33,15.33,0,0,0-.227,2.732.266.266,0,0,0,.229.126" transform="translate(-3.878 -2.48)" fill="#8e8d97"/>
              <path id="Trazado_886137" data-name="Trazado 886137" d="M34.872,19.507a.9.9,0,1,0-.9-.9.9.9,0,0,0,.9.9" transform="translate(-4.202 -2.191)" fill="#8e8d97"/>
              <path id="Trazado_886138" data-name="Trazado 886138" d="M36.593,20.475c0-.287-.317-.521-.709-.521h-2.3c-.392,0-.709.233-.709.521v2c0,.3.137.429.306.429h.006c.169,0,.306-.124.306-.429V20.933a.094.094,0,0,1,.1-.094h0a.094.094,0,0,1,.091.094v4.741c0,.431.2.781.438.781h.009c.242,0,.438-.35.438-.781V23.729a.094.094,0,0,1,.095-.094h.14a.093.093,0,0,1,.095.094v1.945c0,.431.2.781.438.781h.009c.242,0,.438-.35.438-.781V20.933a.094.094,0,0,1,.091-.094h0a.094.094,0,0,1,.1.094v1.539c0,.3.137.429.306.429h.006c.169,0,.306-.124.306-.429v-2Z" transform="translate(-4.066 -2.468)" fill="#8e8d97"/>
              <path id="Trazado_886139" data-name="Trazado 886139" d="M37.5,29.5a.9.9,0,1,0-.9-.9.9.9,0,0,0,.9.9" transform="translate(-4.526 -3.427)" fill="#8e8d97"/>
              <path id="Trazado_886140" data-name="Trazado 886140" d="M38.5,30.829h0a.094.094,0,0,1,.1.094v1.538c0,.306.137.429.306.429h.006c.168,0,.3-.124.3-.429v-2c0-.288-.317-.521-.708-.521h-2.3c-.392,0-.709.233-.709.521v1.274c.192.237.4.469.617.691V30.923a.094.094,0,0,1,.1-.094h0a.094.094,0,0,1,.092.094v1.69a12.663,12.663,0,0,0,2.1,1.608v-3.3a.094.094,0,0,1,.092-.094" transform="translate(-4.39 -3.703)" fill="#8e8d97"/>
              <path id="Trazado_886141" data-name="Trazado 886141" d="M42.629,29.5a.9.9,0,1,0-.9-.9.9.9,0,0,0,.9.9" transform="translate(-5.161 -3.427)" fill="#8e8d97"/>
              <path id="Trazado_886142" data-name="Trazado 886142" d="M40.942,32.891h.006c.169,0,.306-.124.306-.429V30.924a.094.094,0,0,1,.1-.094h0a.093.093,0,0,1,.091.094v4.533c.289.123.58.242.877.353,0-.047.008-.1.008-.145V33.719a.093.093,0,0,1,.095-.093h.14a.093.093,0,0,1,.095.093v1.945a1.328,1.328,0,0,0,.03.277c.244.087.492.169.74.248a1.173,1.173,0,0,0,.116-.525V30.924a.093.093,0,0,1,.091-.094h0a.094.094,0,0,1,.1.094v1.538c0,.306.137.429.306.429h.006c.169,0,.306-.124.306-.429v-2c0-.288-.317-.521-.709-.521h-2.3c-.392,0-.709.233-.709.521v2c0,.306.137.429.306.429" transform="translate(-5.025 -3.703)" fill="#8e8d97"/>
              <path id="Trazado_886143" data-name="Trazado 886143" d="M47.762,29.5a.9.9,0,1,0-.9-.9.9.9,0,0,0,.9.9" transform="translate(-5.796 -3.427)" fill="#8e8d97"/>
              <path id="Trazado_886144" data-name="Trazado 886144" d="M49.483,30.465c0-.287-.317-.521-.709-.521h-2.3c-.392,0-.709.233-.709.521v2c0,.3.138.429.306.429h.006c.169,0,.306-.124.306-.429V30.923a.094.094,0,0,1,.1-.094h0a.093.093,0,0,1,.091.094v4.741c0,.432.2.781.438.781h.009c.242,0,.438-.349.438-.781V33.719a.093.093,0,0,1,.095-.094h.14a.093.093,0,0,1,.095.094v1.945c0,.432.2.781.438.781h.009c.242,0,.438-.349.438-.781V30.923a.094.094,0,0,1,.092-.094h0a.094.094,0,0,1,.1.094v1.539c0,.3.138.429.306.429h.006c.169,0,.306-.124.306-.429v-2Z" transform="translate(-5.66 -3.703)" fill="#8e8d97"/>
              <path id="Trazado_886145" data-name="Trazado 886145" d="M52.895,29.5a.9.9,0,1,0-.9-.9.9.9,0,0,0,.9.9" transform="translate(-6.43 -3.427)" fill="#8e8d97"/>
              <path id="Trazado_886146" data-name="Trazado 886146" d="M51.618,30.829a.093.093,0,0,1,.091.094v4.741c0,.431.2.781.438.781h.01c.242,0,.437-.35.437-.781V33.718a.093.093,0,0,1,.095-.093h.14a.093.093,0,0,1,.095.093v1.945a1.207,1.207,0,0,0,.1.485,5.956,5.956,0,0,1,.788-.688V30.923a.093.093,0,0,1,.091-.094h0a.094.094,0,0,1,.1.094v1.538c0,.306.137.429.3.429h.006c.169,0,.306-.124.306-.429v-2c0-.288-.317-.521-.709-.521h-2.3c-.391,0-.709.233-.709.521v2c0,.306.138.429.306.429h.006c.169,0,.306-.124.306-.429V30.923a.094.094,0,0,1,.1-.094Z" transform="translate(-6.295 -3.703)" fill="#8e8d97"/>
              <path id="Trazado_886147" data-name="Trazado 886147" d="M58.028,29.5a.9.9,0,1,0-.9-.9.9.9,0,0,0,.9.9" transform="translate(-7.065 -3.427)" fill="#8e8d97"/>
              <path id="Trazado_886148" data-name="Trazado 886148" d="M58.942,32.828v-1.9a.094.094,0,0,1,.092-.094h0a.094.094,0,0,1,.1.094v1.538a.709.709,0,0,0,.028.2,6.938,6.938,0,0,0,.59-.5v-1.7c0-.288-.317-.521-.709-.521h-2.3c-.391,0-.709.233-.709.521v2c0,.306.138.429.306.429h.006c.169,0,.306-.124.306-.429V30.924a.094.094,0,0,1,.1-.094h0a.094.094,0,0,1,.092.094v3.14a17.911,17.911,0,0,0,2.1-1.236" transform="translate(-6.929 -3.703)" fill="#8e8d97"/>
              <path id="Trazado_886149" data-name="Trazado 886149" d="M71.634,47.483l-.043.039c-1.13,1.02-2.951.563-4.2-1.051L58.04,34.921l2.472-2.231L71.225,43.014c1.479,1.4,1.538,3.449.408,4.469" transform="translate(-7.177 -4.043)" fill="#474656"/>
              <path id="Trazado_886150" data-name="Trazado 886150" d="M38.25,6.589a15.072,15.072,0,1,0,17.375.889A15.083,15.083,0,0,0,38.25,6.589m17.72,20.335a12.291,12.291,0,1,1,.726-14.17,12.3,12.3,0,0,1-.726,14.17" transform="translate(-3.864 -0.526)" fill="#474656"/>
            </g>
          </g>
        </g>
      </g>
    </g>
  </g>
</svg>
