<svg xmlns="http://www.w3.org/2000/svg" xmlns:xlink="http://www.w3.org/1999/xlink" width="85" height="85" viewBox="0 0 85 85">
  <defs>
    <clipPath id="clip-path">
      <rect id="Rectángulo_405244" data-name="Rectángulo 405244" width="75" height="75" transform="translate(-0.289)" fill="#d5f1ff" stroke="#707070" stroke-width="1"/>
    </clipPath>
    <clipPath id="clip-path-2">
      <rect id="Rectángulo_405727" data-name="Rectángulo 405727" width="62.038" height="62.667" fill="#d5f1ff"/>
    </clipPath>
  </defs>
  <g id="Grupo_1113906" data-name="Grupo 1113906" transform="translate(-1020 -2830)">
    <rect id="Rectángulo_405242" data-name="Rectángulo 405242" width="85" height="85" transform="translate(1020 2830)" fill="#0354a5"/>
    <g id="Enmascarar_grupo_1108096" data-name="Enmascarar grupo 1108096" transform="translate(1025 2835)" clip-path="url(#clip-path)">
      <g id="Grupo_1111947" data-name="Grupo 1111947" transform="translate(6.711 6)">
        <g id="Grupo_1111946" data-name="Grupo 1111946" clip-path="url(#clip-path-2)">
          <path id="Trazado_885990" data-name="Trazado 885990" d="M30.014,14.4l-.008-2.487a5.6,5.6,0,1,1,2.011,0L32.008,14.4A18.577,18.577,0,0,1,42.5,18.721l2.421-2.429c-7.081-7.533.989-19.443,10.658-15.5C67.1,5.487,60.1,23.368,48.211,18.568c-.464-.188-1.338-.832-1.627-.9-.546-.137-2.207,1.985-2.726,2.422.411.794,3.213,3.609,2.021,4.387-1.244.812-1.9-1.2-2.5-1.972-4.78-6.116-12.806-8.129-19.761-4.354a15.351,15.351,0,0,0-3.113,24.623c.126-2.225,1.529-3.517,3.47-4.341.638-.271,2.668-.688,2.95-.905.09-.069.117-.3.185-.413-3.553-2.628-4.29-5.738-3.887-10.025.1-1.018,1.113-5.314,2.661-3.964,1.012.882-1.113,2.772-.708,4.031.83-.621,1.452-1.592,2.6-1.632,1.062-.037,2.313.7,3.232.7,1.062,0,2.342-.872,3.579-.679.934.145,1.526,1.13,2.253,1.608a6.044,6.044,0,0,0-5.832-5.706c-1.163,0-3.4,1.4-3.787-.034-.246-.912,1.232-1.37,1.9-1.536,5.055-1.262,9.334,2.566,9.706,7.538.313,4.176-.472,7.142-3.917,9.7.068.118.094.344.185.413.281.217,2.312.634,2.95.905a5.3,5.3,0,0,1,3.557,4.34A15.883,15.883,0,0,0,46.356,30.3c-.082-1.089-.813-2.414-.1-3.34,1.652-1.28,1.951,2.956,1.9,3.787l2.5-.02a5.616,5.616,0,1,1,0,1.832l-2.5-.019a17.138,17.138,0,0,1-4.293,10.528L46.267,45.6c7.71-5.985,18.535,1.5,15.124,10.857-2.845,7.808-13.912,8.39-17.579.977-1.81-3.658-1.1-7.313,1.084-10.6l-2.4-2.442a16.246,16.246,0,0,1-10.5,4.3l.009,2.686c5.7.73,6.2,8.953.93,10.729-7.59,2.56-10.869-9.265-2.92-10.729l.009-2.686a16.122,16.122,0,0,1-10.5-4.3l-2.4,2.447c2.555,3.75,2.947,7.962.3,11.788C12.808,65.294,2.086,63.26.278,55.371a9.635,9.635,0,0,1,15.476-9.76l2.409-2.418c-2.419-3.1-4.2-6.625-4.295-10.657l-2.5.019a5.638,5.638,0,1,1,0-1.832l2.5.02a16.844,16.844,0,0,1,4.3-10.526l-2.448-2.56a14.151,14.151,0,0,1-4.454,1.594C-.3,20.3-3.526,4.377,6.82.627c9.6-3.482,17.211,8.318,10.291,15.688a13.215,13.215,0,0,0,2.267,2.38c.347.091,1.648-1.128,2.113-1.422A18.51,18.51,0,0,1,30.014,14.4m-13.456-.171C20.6,8.154,15.142.2,8.007,2.173a7.746,7.746,0,0,0-4.1,12.053A6.429,6.429,0,0,1,6.34,11.074C3.456,6.656,8.885,1.455,13.029,4.744c2.045,1.622,2.016,4.09,1.041,6.3a15.9,15.9,0,0,1,2.487,3.179m41.471,0C61.467,10.146,59.173,3.7,54.157,2.21,47,.081,41.368,8.082,45.464,14.226a15.907,15.907,0,0,1,2.487-3.179,15.559,15.559,0,0,1-.709-2.656A4.761,4.761,0,0,1,50.8,3.858c4.363-.74,7.024,3.472,4.882,7.216a5.539,5.539,0,0,1,2.347,3.153M30.7,2.6a3.783,3.783,0,1,0,3.762,2.252A4.069,4.069,0,0,0,30.7,2.6M9.51,5.652c-2.865.6-2.708,4.909-.029,5.332,4.754.75,4.253-6.21.029-5.332m41.647,0a2.76,2.76,0,1,0,1.534,5.3c3.072-.633,2.349-6.109-1.534-5.3M14.73,15.987c.464-.79-1.257-3.421-2.209-3.671a4.812,4.812,0,0,1-3.718.426c-.319-.08-.62-.361-.844-.406-.817-.164-2.647,2.5-2.458,3.426a7.23,7.23,0,0,0,7.152,1.288,15.305,15.305,0,0,0,2.077-1.063m32.563,0A15.316,15.316,0,0,0,49.37,17.05a7.23,7.23,0,0,0,7.152-1.288,4.681,4.681,0,0,0-2.139-3.381c-.4-.176-.739.254-1.163.36a4.812,4.812,0,0,1-3.718-.426c-.952.25-2.674,2.881-2.209,3.671M37,29.146c-.922.216-2.424-1.7-2.782-1.772-.546-.106-2.343.688-3.211.688s-2.665-.794-3.211-.688c-.358.069-1.86,1.988-2.782,1.772-.627,3.511,3.115,7.815,6.7,7.324,2.824-.388,5.956-4.4,5.29-7.324M5.025,27.912c-4.443.758-3.68,7.942,1.192,7.479,4.944-.47,4.213-8.4-1.192-7.479m50.26,0c-3.975.819-3.694,7.252.684,7.5,5.586.318,5.1-8.693-.684-7.5M33.972,39.175l-.8-1.213a5.255,5.255,0,0,1-4.322,0l-.8.951c-.077.363.09.217.229.3.852.525,1.751.982,2.583,1.541Zm5.707,5.173A3.643,3.643,0,0,0,36.558,39.9c-1.184-.043-4,2.7-5.547,2.7-1.587,0-4.434-2.842-5.7-2.678a4.738,4.738,0,0,0-2.625,1.7c-.312.534-.654,2.343-.27,2.773a24.385,24.385,0,0,0,3.068,1.555,15.81,15.81,0,0,0,14.19-1.609M15.664,57.489c.357.329,1.191-1.573,1.286-1.854A7.777,7.777,0,1,0,3.367,57.667a9,9,0,0,1,2.394-3.346c-1.256-2.285-.9-5.082,1.407-6.493a4.6,4.6,0,0,1,6.16,6.605,4.771,4.771,0,0,1,2.335,3.056m42.9.179c3.506-4.08,1.034-10.711-3.991-12.077C47.322,43.619,42.024,51.516,46,57.668c.907-1.162,1.34-2.5,2.675-3.32A4.558,4.558,0,0,1,49.709,48a4.634,4.634,0,0,1,6.548,6.317,7.816,7.816,0,0,1,2.31,3.347M8.793,49.093c-2.6.535-2.524,4.742.178,5.3,4.281.888,4.666-6.3-.178-5.3m42.9,0c-2.8.58-2.665,5.014.314,5.347,4.355.488,4.073-6.258-.314-5.347M30.521,53.046c-4.746.586-4.245,8.22,1.193,7.478,4.627-.631,3.726-8.085-1.193-7.478M7.177,55.721c-.964.147-2.23,2.5-2.256,3.457a7.659,7.659,0,0,0,7.653,1.056,5.41,5.41,0,0,0,1.57-.951c.462-.933-1.128-2.943-1.9-3.506-.456-.2-1.143.357-1.715.44a7.377,7.377,0,0,1-1.428.022c-.664-.055-1.571-.572-1.926-.518m40.654,3.708c.408.695,3.846,1.5,4.723,1.483.826-.018,4.56-.922,4.542-1.862-.016-.837-1.29-2.982-2.131-3.271-.271-.093-1.921.629-2.592.63a16.683,16.683,0,0,1-2.306-.678c-.914.083-2.694,2.918-2.236,3.7" transform="translate(0 0)" fill="#d5f1ff"/>
        </g>
      </g>
    </g>
  </g>
</svg>
