<svg xmlns="http://www.w3.org/2000/svg" xmlns:xlink="http://www.w3.org/1999/xlink" width="505" height="178.705" viewBox="0 0 505 178.705">
  <defs>
    <clipPath id="clip-path">
      <rect id="Rectángulo_405723" data-name="Rectángulo 405723" width="505" height="178.672" fill="none"/>
    </clipPath>
    <clipPath id="clip-path-2">
      <rect id="Rectángulo_406900" data-name="Rectángulo 406900" width="402" height="175.083" fill="none"/>
    </clipPath>
  </defs>
  <g id="Grupo_1113813" data-name="Grupo 1113813" transform="translate(-810 -8654.468)">
    <g id="Grupo_1112328" data-name="Grupo 1112328" transform="translate(810 8654.5)">
      <g id="Grupo_1111937" data-name="Grupo 1111937" clip-path="url(#clip-path)">
        <path id="Trazado_885979" data-name="Trazado 885979" d="M263.434,114.453h-55.12a25.344,25.344,0,0,0-1.588-20.838H306.807c17.483,0,31.657-12.6,31.657-28.153S324.29,37.309,306.807,37.309H160.279c-17.484,0-31.657,12.6-31.657,28.153a25.5,25.5,0,0,0,3.115,12.192H31.657C14.173,77.655,0,90.259,0,105.808s14.173,28.153,31.657,28.153h55.12a25.288,25.288,0,0,0-1.527,8.645,26.085,26.085,0,0,0,6.488,17.069H56.085c-17.484,0-31.657,12.6-31.657,28.153S38.6,215.981,56.085,215.981H249.02c17.484,0,31.657-12.6,31.657-28.153a26.306,26.306,0,0,0-7.686-18.378c12.812-3.6,22.1-14.258,22.1-26.844,0-15.548-14.173-28.153-31.657-28.153" transform="translate(69 -37.309)" fill="#e4fff7"/>
        <path id="Trazado_885980" data-name="Trazado 885980" d="M74.8,54.833c15.694,0,28.417-12.274,28.417-27.416S90.5,0,74.8,0,46.385,12.275,46.385,27.417,59.107,54.833,74.8,54.833" transform="translate(-39.452 0)" fill="#e4fff7"/>
        <path id="Trazado_885981" data-name="Trazado 885981" d="M676.006,296.46c-36.977,0-66.953,31.016-66.953,69.276s29.976,69.276,66.953,69.276S742.959,404,742.959,365.736s-29.976-69.276-66.953-69.276" transform="translate(-244.009 -259.512)" fill="#e4fff7"/>
      </g>
    </g>
    <g id="Grupo_1113812" data-name="Grupo 1113812" transform="translate(846.711 8654.472)">
      <g id="Grupo_1113811" data-name="Grupo 1113811" transform="translate(0 -0.004)">
        <g id="Grupo_1113810" data-name="Grupo 1113810" transform="translate(0 0)" clip-path="url(#clip-path-2)">
          <path id="Trazado_887547" data-name="Trazado 887547" d="M875.253,262.552H761.813a7.05,7.05,0,0,1-7.05-7.05V105.656a7.05,7.05,0,0,1,7.05-7.05h113.44a7.05,7.05,0,0,1,7.05,7.05V255.5a7.05,7.05,0,0,1-7.05,7.05" transform="translate(-669.518 -87.469)" fill="#023263"/>
          <rect id="Rectángulo_406855" data-name="Rectángulo 406855" width="111.651" height="144.423" transform="translate(93.189 20.899)" fill="#fff"/>
          <path id="Trazado_887548" data-name="Trazado 887548" d="M1197.1,8.559a8.654,8.654,0,0,0-17.307,0h-8.018V22.271h33.344V8.559Zm-8.653,1.37a3.052,3.052,0,1,1,3.052-3.052,3.052,3.052,0,0,1-3.052,3.052" transform="translate(-1039.428 0.004)" fill="#f0c36a"/>
          <rect id="Rectángulo_406856" data-name="Rectángulo 406856" width="75.574" height="4.616" transform="translate(124.706 35.981)" fill="#f1f2f5"/>
          <rect id="Rectángulo_406857" data-name="Rectángulo 406857" width="75.574" height="4.616" transform="translate(124.706 44.996)" fill="#f1f2f5"/>
          <rect id="Rectángulo_406858" data-name="Rectángulo 406858" width="36.83" height="4.616" transform="translate(124.706 54.01)" fill="#f1f2f5"/>
          <path id="Trazado_887549" data-name="Trazado 887549" d="M909.341,338.9H888.086V315.577h21.255Zm-20.578-.678h19.9V316.255h-19.9Z" transform="translate(-787.783 -279.934)" fill="#9ea9bd"/>
          <path id="Trazado_887550" data-name="Trazado 887550" d="M933.38,308.1l4.981,6.929,13.733-12.917,2.438,3.149-16.883,16.131-7.279-10.553Z" transform="translate(-825.291 -267.992)" fill="#0354a5"/>
          <rect id="Rectángulo_406859" data-name="Rectángulo 406859" width="75.574" height="4.616" transform="translate(124.706 65.723)" fill="#f1f2f5"/>
          <rect id="Rectángulo_406860" data-name="Rectángulo 406860" width="75.574" height="4.616" transform="translate(124.706 74.738)" fill="#f1f2f5"/>
          <rect id="Rectángulo_406861" data-name="Rectángulo 406861" width="36.83" height="4.616" transform="translate(124.706 83.752)" fill="#f1f2f5"/>
          <path id="Trazado_887551" data-name="Trazado 887551" d="M909.341,602.237H888.086V578.914h21.255Zm-20.578-.678h19.9V579.592h-19.9Z" transform="translate(-787.783 -513.529)" fill="#9ea9bd"/>
          <path id="Trazado_887552" data-name="Trazado 887552" d="M933.38,571.439l4.981,6.929,13.733-12.917,2.438,3.149-16.883,16.131-7.279-10.553Z" transform="translate(-825.291 -501.587)" fill="#0354a5"/>
          <rect id="Rectángulo_406862" data-name="Rectángulo 406862" width="75.574" height="4.616" transform="translate(124.706 95.465)" fill="#f1f2f5"/>
          <rect id="Rectángulo_406863" data-name="Rectángulo 406863" width="75.574" height="4.616" transform="translate(124.706 104.48)" fill="#f1f2f5"/>
          <rect id="Rectángulo_406864" data-name="Rectángulo 406864" width="36.83" height="4.616" transform="translate(124.706 113.494)" fill="#f1f2f5"/>
          <path id="Trazado_887553" data-name="Trazado 887553" d="M909.341,865.574H888.086V842.251h21.255Zm-20.578-.678h19.9V842.929h-19.9Z" transform="translate(-787.783 -747.124)" fill="#9ea9bd"/>
          <path id="Trazado_887554" data-name="Trazado 887554" d="M933.38,834.776l4.981,6.929,13.733-12.917,2.438,3.149-16.883,16.131-7.279-10.553Z" transform="translate(-825.291 -735.182)" fill="#0354a5"/>
          <rect id="Rectángulo_406865" data-name="Rectángulo 406865" width="75.574" height="4.616" transform="translate(124.706 125.207)" fill="#f1f2f5"/>
          <rect id="Rectángulo_406866" data-name="Rectángulo 406866" width="75.574" height="4.616" transform="translate(124.706 134.222)" fill="#f1f2f5"/>
          <rect id="Rectángulo_406867" data-name="Rectángulo 406867" width="36.83" height="4.616" transform="translate(124.706 143.236)" fill="#f1f2f5"/>
          <path id="Trazado_887555" data-name="Trazado 887555" d="M909.341,1128.911H888.086v-23.323h21.255Zm-20.578-.678h19.9v-21.968h-19.9Z" transform="translate(-787.783 -980.719)" fill="#9ea9bd"/>
          <path id="Trazado_887556" data-name="Trazado 887556" d="M933.38,1098.113l4.981,6.929,13.733-12.917,2.438,3.149-16.883,16.131-7.279-10.553Z" transform="translate(-825.291 -968.777)" fill="#0354a5"/>
          <rect id="Rectángulo_406868" data-name="Rectángulo 406868" width="35.106" height="35.255" transform="translate(233.935 139.828)" fill="#9ea9bd"/>
          <rect id="Rectángulo_406869" data-name="Rectángulo 406869" width="4.231" height="5.582" transform="translate(249.373 139.828)" fill="#1d2238"/>
          <rect id="Rectángulo_406870" data-name="Rectángulo 406870" width="25.136" height="35.255" transform="translate(269.041 139.828)" fill="#d2d6e1"/>
          <rect id="Rectángulo_406871" data-name="Rectángulo 406871" width="3.217" height="5.582" transform="translate(280.001 139.828)" fill="#1d2238"/>
          <rect id="Rectángulo_406872" data-name="Rectángulo 406872" width="35.106" height="67.472" transform="translate(227.169 72.356)" fill="#edb248"/>
          <rect id="Rectángulo_406873" data-name="Rectángulo 406873" width="4.231" height="10.683" transform="translate(242.607 72.356)" fill="#1d2238"/>
          <rect id="Rectángulo_406874" data-name="Rectángulo 406874" width="25.136" height="67.472" transform="translate(262.276 72.356)" fill="#f0c36a"/>
          <rect id="Rectángulo_406875" data-name="Rectángulo 406875" width="3.217" height="10.683" transform="translate(273.235 72.356)" fill="#1d2238"/>
          <rect id="Rectángulo_406876" data-name="Rectángulo 406876" width="45.151" height="35.255" transform="translate(168.143 139.828)" fill="#f0c36a"/>
          <rect id="Rectángulo_406877" data-name="Rectángulo 406877" width="5.442" height="5.582" transform="translate(187.997 139.828)" fill="#1d2238"/>
          <rect id="Rectángulo_406878" data-name="Rectángulo 406878" width="29.877" height="35.255" transform="translate(213.294 139.828)" fill="#f6dba6"/>
          <rect id="Rectángulo_406879" data-name="Rectángulo 406879" width="5.442" height="5.582" transform="translate(226.39 139.828)" fill="#1d2238"/>
          <rect id="Rectángulo_406880" data-name="Rectángulo 406880" width="35.106" height="35.255" transform="translate(173.693 104.573)" fill="#d2d6e1"/>
          <rect id="Rectángulo_406881" data-name="Rectángulo 406881" width="4.231" height="5.582" transform="translate(189.131 104.573)" fill="#1d2238"/>
          <rect id="Rectángulo_406882" data-name="Rectángulo 406882" width="25.136" height="35.255" transform="translate(208.799 104.573)" fill="#f1f2f5"/>
          <rect id="Rectángulo_406883" data-name="Rectángulo 406883" width="3.217" height="5.582" transform="translate(219.759 104.573)" fill="#1d2238"/>
          <rect id="Rectángulo_406884" data-name="Rectángulo 406884" width="35.106" height="35.255" transform="translate(341.758 139.828)" fill="#9ea9bd"/>
          <rect id="Rectángulo_406885" data-name="Rectángulo 406885" width="4.231" height="5.582" transform="translate(357.195 139.828)" fill="#1d2238"/>
          <rect id="Rectángulo_406886" data-name="Rectángulo 406886" width="25.136" height="35.255" transform="translate(376.864 139.828)" fill="#d2d6e1"/>
          <rect id="Rectángulo_406887" data-name="Rectángulo 406887" width="3.217" height="5.582" transform="translate(387.823 139.828)" fill="#1d2238"/>
          <rect id="Rectángulo_406888" data-name="Rectángulo 406888" width="35.106" height="67.472" transform="translate(334.992 72.356)" fill="#edb248"/>
          <rect id="Rectángulo_406889" data-name="Rectángulo 406889" width="4.231" height="10.683" transform="translate(350.429 72.356)" fill="#1d2238"/>
          <rect id="Rectángulo_406890" data-name="Rectángulo 406890" width="25.136" height="67.472" transform="translate(370.098 72.356)" fill="#f0c36a"/>
          <rect id="Rectángulo_406891" data-name="Rectángulo 406891" width="3.217" height="10.683" transform="translate(381.058 72.356)" fill="#1d2238"/>
          <rect id="Rectángulo_406892" data-name="Rectángulo 406892" width="45.151" height="35.255" transform="translate(275.966 139.828)" fill="#f0c36a"/>
          <rect id="Rectángulo_406893" data-name="Rectángulo 406893" width="5.442" height="5.582" transform="translate(295.82 139.828)" fill="#1d2238"/>
          <rect id="Rectángulo_406894" data-name="Rectángulo 406894" width="29.877" height="35.255" transform="translate(321.117 139.828)" fill="#f6dba6"/>
          <rect id="Rectángulo_406895" data-name="Rectángulo 406895" width="5.442" height="5.582" transform="translate(334.212 139.828)" fill="#1d2238"/>
          <rect id="Rectángulo_406896" data-name="Rectángulo 406896" width="35.106" height="35.255" transform="translate(281.516 104.573)" fill="#d2d6e1"/>
          <rect id="Rectángulo_406897" data-name="Rectángulo 406897" width="4.231" height="5.582" transform="translate(296.953 104.573)" fill="#1d2238"/>
          <rect id="Rectángulo_406898" data-name="Rectángulo 406898" width="25.136" height="35.255" transform="translate(316.622 104.573)" fill="#f1f2f5"/>
          <rect id="Rectángulo_406899" data-name="Rectángulo 406899" width="3.217" height="5.582" transform="translate(327.581 104.573)" fill="#1d2238"/>
          <path id="Trazado_887557" data-name="Trazado 887557" d="M278.173,554.228l-1.165.779-6.207-9.283a.7.7,0,1,1,1.165-.779Z" transform="translate(-240.111 -483.121)" fill="#1d2238"/>
          <path id="Trazado_887558" data-name="Trazado 887558" d="M282.556,617.57s.48-3.988,1.477-4.172a23.223,23.223,0,0,1,4.541,0,4.438,4.438,0,0,1,2.548,2.178l-6.314,6.129Z" transform="translate(-250.643 -544.018)" fill="#eb9481"/>
          <path id="Trazado_887559" data-name="Trazado 887559" d="M203.452,354.628a9.032,9.032,0,0,1,1.644,3.734,2.015,2.015,0,0,1-.871,2.193l-4.283-5.926Z" transform="translate(-177.36 -314.575)" fill="#1d2238"/>
          <path id="Trazado_887560" data-name="Trazado 887560" d="M109.774,345.356h0a6.973,6.973,0,0,0-6.952,6.443l-.057-.009-1.508,9.409a3.8,3.8,0,0,0,3.149,4.351c2.071.332,3.66.921,4.351-3.149l.107-.667a6.963,6.963,0,0,0,7.882-6.913V352.33a6.974,6.974,0,0,0-6.974-6.974" transform="translate(-89.778 -306.35)" fill="#eb9481"/>
          <path id="Trazado_887561" data-name="Trazado 887561" d="M214.307,396.472a5.019,5.019,0,0,1,.132.548c.02.091.032.183.046.274s.029.183.038.274c.021.183.042.365.051.548l.018.274.006.274-.309-.309c.116,0,.233-.008.349-.005.06,0,.106,0,.206.009a.968.968,0,0,1,.255.069.861.861,0,0,1,.512.832.849.849,0,0,1-.177.455.774.774,0,0,1-.386.255.7.7,0,0,1-.222.024,1.314,1.314,0,0,1-.189-.031c-.116-.026-.233-.056-.349-.091h0a.017.017,0,0,1,0-.034l.349,0c.058,0,.117,0,.172-.006a.663.663,0,0,0,.161-.043.566.566,0,0,0,0-1.043.625.625,0,0,0-.159-.04c-.053,0-.113,0-.171,0h-.383v-.034c0-.731,0-1.461.016-2.192a.017.017,0,0,1,.034,0Z" transform="translate(-190.057 -351.678)" fill="#1d2238"/>
          <path id="Trazado_887562" data-name="Trazado 887562" d="M224.167,393.265a.484.484,0,1,1-.484-.484.484.484,0,0,1,.484.484" transform="translate(-197.99 -348.419)" fill="#1d2238"/>
          <path id="Trazado_887563" data-name="Trazado 887563" d="M199.241,431.476s-.8-1.169-3.142-1.139Z" transform="translate(-173.951 -381.733)" fill="#fff"/>
          <path id="Trazado_887564" data-name="Trazado 887564" d="M216.646,378.412c-.044.18.331.426.838.549s.952.076,1-.1-.331-.426-.838-.549-.952-.076-1,.1" transform="translate(-192.174 -335.519)" fill="#1d2238"/>
          <path id="Trazado_887565" data-name="Trazado 887565" d="M199.32,395.256a.484.484,0,1,1-.484-.484.484.484,0,0,1,.484.484" transform="translate(-175.95 -350.185)" fill="#1d2238"/>
          <path id="Trazado_887566" data-name="Trazado 887566" d="M191.825,380.806c.046.18.493.22,1,.09s.876-.382.829-.561-.493-.22-1-.09-.876.381-.829.561" transform="translate(-170.156 -337.23)" fill="#1d2238"/>
          <path id="Trazado_887567" data-name="Trazado 887567" d="M198.015,431.693a5.621,5.621,0,0,1-1.022-.187c-.167-.04-.328-.1-.492-.144s-.321-.113-.482-.17-.316-.126-.473-.194-.312-.138-.463-.219a5.683,5.683,0,0,1-.888-.539l0,0a.014.014,0,0,1,0-.02.014.014,0,0,1,.016,0l1.915.714,1.9.74a.014.014,0,0,1-.006.027Z" transform="translate(-172.254 -381.622)" fill="#1d2238"/>
          <path id="Trazado_887568" data-name="Trazado 887568" d="M89.7,323.379s6.075-5.352,11.955-5.351a3.8,3.8,0,0,1,3.517,2.062s-1.132-8.884-10.95-7.386-5.9,11.524-5.9,11.524Z" transform="translate(-77.663 -277.236)" fill="#f0c36a"/>
          <path id="Trazado_887569" data-name="Trazado 887569" d="M123.989,370.865s-1.2,1.453-3.7,4.093c-.618.653-1.689,1.556-1.689,1.556a4.565,4.565,0,0,0-.2-2.363,23.639,23.639,0,0,1,5.587-3.286" transform="translate(-105.029 -328.978)" fill="#1d2238"/>
          <path id="Trazado_887570" data-name="Trazado 887570" d="M189.278,360.024a3.312,3.312,0,0,0,2.729,1.488s-3.132,1.029-4.353-1.148Z" transform="translate(-166.459 -319.361)" fill="#1d2238"/>
          <path id="Trazado_887571" data-name="Trazado 887571" d="M96.265,405.319l-.463,2.728-1.421-4.1,2.384-1.545Z" transform="translate(-83.722 -356.952)" fill="#1d2238"/>
          <path id="Trazado_887572" data-name="Trazado 887572" d="M98.179,398.086a1.42,1.42,0,1,0,1.389-1.718,1.58,1.58,0,0,0-1.389,1.718" transform="translate(-87.09 -351.601)" fill="#eb9481"/>
          <path id="Trazado_887573" data-name="Trazado 887573" d="M105.7,403.5a1.045,1.045,0,0,0-.375-.215.511.511,0,0,0-.174-.026.466.466,0,0,0-.153.024.69.69,0,0,0-.4.425.966.966,0,0,0-.049.159c0,.028-.012.056-.015.084l0,.043,0,.031c0,.01,0,.007,0,.01s0-.006-.013-.02a.139.139,0,0,0-.087-.057c-.041,0,.023.018.081.01.124-.014.282-.048.44-.073a1.084,1.084,0,0,1,.5.02l.005,0a.017.017,0,0,1,.01.022.017.017,0,0,1-.015.011,1.361,1.361,0,0,0-.436.121c-.143.056-.283.12-.434.165a.466.466,0,0,1-.244.018.174.174,0,0,1-.106-.084.288.288,0,0,1-.033-.124,1.163,1.163,0,0,1,.076-.467.983.983,0,0,1,.269-.389.741.741,0,0,1,.434-.188.7.7,0,0,1,.455.122.923.923,0,0,1,.3.358.017.017,0,0,1-.026.021Z" transform="translate(-92.426 -357.482)" fill="#1d2238"/>
          <path id="Trazado_887574" data-name="Trazado 887574" d="M179.306,331.822s4.167-5.584,9.2-4.234-1.942,5.67-1.942,5.67-1.94-3.27-7.261-1.436" transform="translate(-159.055 -290.402)" fill="#f1f2f5"/>
          <path id="Trazado_887575" data-name="Trazado 887575" d="M122.958,314.333c.047.245-.477.553-1.172.687s-1.3.044-1.343-.2.477-.553,1.172-.687,1.3-.044,1.343.2" transform="translate(-106.838 -278.597)" fill="#1d2238"/>
          <path id="Trazado_887576" data-name="Trazado 887576" d="M144.607,471.147A14.736,14.736,0,0,1,141.5,468.7a5,5,0,0,0,3,3.114Z" transform="translate(-125.52 -415.764)" fill="#1d2238"/>
          <path id="Trazado_887577" data-name="Trazado 887577" d="M195.7,1474.126l10.555,4.6a4.247,4.247,0,0,1,2.549,3.973l-22.948-.05,1.221-8.543Z" transform="translate(-164.865 -1307.617)" fill="#4a4e60"/>
          <path id="Trazado_887578" data-name="Trazado 887578" d="M185.885,1534.466c1.89.109,3.78.168,5.671.21.945.025,1.89.033,2.836.048l2.836.02,2.836-.007c.945-.012,1.89-.015,2.836-.036,1.891-.033,3.781-.084,5.672-.186-1.89-.11-3.78-.169-5.671-.21-.945-.026-1.89-.032-2.836-.049l-2.836-.019-2.836.008c-.945.012-1.89.015-2.836.036-1.891.033-3.781.084-5.672.185" transform="translate(-164.891 -1360.956)" fill="#1d2238"/>
          <path id="Trazado_887579" data-name="Trazado 887579" d="M210.34,1489.889a2.084,2.084,0,1,0,2.089-2.079,2.084,2.084,0,0,0-2.089,2.079" transform="translate(-186.584 -1319.771)" fill="#1d2238"/>
          <path id="Trazado_887580" data-name="Trazado 887580" d="M336.639,1506.892a1.4,1.4,0,0,0-.779-.073,1.839,1.839,0,0,0-.693.275,1.753,1.753,0,0,0-.532.548,1.218,1.218,0,0,0-.181.778l.044.025a2.739,2.739,0,0,1,.2-.268c.036-.042.068-.088.107-.127l.116-.119a3.4,3.4,0,0,1,.525-.411,4.516,4.516,0,0,1,.583-.329c.1-.047.2-.092.308-.132s.209-.083.315-.116Z" transform="translate(-296.672 -1336.613)" fill="#1d2238"/>
          <path id="Trazado_887581" data-name="Trazado 887581" d="M312.789,1496.714a1.4,1.4,0,0,0-.779-.073,1.84,1.84,0,0,0-.693.275,1.754,1.754,0,0,0-.532.547,1.219,1.219,0,0,0-.181.778l.044.025a2.723,2.723,0,0,1,.2-.268c.036-.042.069-.088.107-.127l.117-.119a3.392,3.392,0,0,1,.525-.411,4.5,4.5,0,0,1,.583-.329q.152-.071.309-.132c.1-.043.209-.082.315-.116Z" transform="translate(-275.516 -1327.584)" fill="#1d2238"/>
          <path id="Trazado_887582" data-name="Trazado 887582" d="M290.718,1487.478a1.4,1.4,0,0,0-.779-.074,1.84,1.84,0,0,0-.693.275,1.755,1.755,0,0,0-.532.547,1.218,1.218,0,0,0-.181.778l.044.025a2.734,2.734,0,0,1,.2-.268c.036-.042.069-.088.107-.127l.116-.119a3.406,3.406,0,0,1,.525-.411,4.569,4.569,0,0,1,.583-.329q.152-.071.309-.132c.1-.043.209-.083.315-.116Z" transform="translate(-255.937 -1319.391)" fill="#1d2238"/>
          <path id="Trazado_887583" data-name="Trazado 887583" d="M73.92,1474.126l10.555,4.6a4.247,4.247,0,0,1,2.549,3.973l-22.948-.05,1.221-8.543Z" transform="translate(-56.838 -1307.617)" fill="#9ea9bd"/>
          <path id="Trazado_887584" data-name="Trazado 887584" d="M64.1,1534.466c1.89.109,3.78.168,5.671.21.945.025,1.89.033,2.836.048l2.836.02,2.836-.007c.945-.012,1.89-.015,2.836-.036,1.891-.033,3.781-.084,5.672-.186-1.89-.11-3.78-.169-5.671-.21-.945-.026-1.89-.032-2.836-.049l-2.836-.019-2.836.008c-.945.012-1.89.015-2.836.036-1.891.033-3.781.084-5.672.185" transform="translate(-56.864 -1360.956)" fill="#1d2238"/>
          <path id="Trazado_887585" data-name="Trazado 887585" d="M88.559,1489.889a2.084,2.084,0,1,0,2.089-2.079,2.084,2.084,0,0,0-2.089,2.079" transform="translate(-78.557 -1319.771)" fill="#1d2238"/>
          <path id="Trazado_887586" data-name="Trazado 887586" d="M214.858,1506.892a1.4,1.4,0,0,0-.779-.073,1.84,1.84,0,0,0-.693.275,1.754,1.754,0,0,0-.532.548,1.218,1.218,0,0,0-.181.778l.044.025a2.727,2.727,0,0,1,.2-.268c.036-.042.068-.088.107-.127l.116-.119a3.4,3.4,0,0,1,.525-.411,4.523,4.523,0,0,1,.583-.329c.1-.047.2-.092.309-.132s.209-.083.315-.116Z" transform="translate(-188.645 -1336.613)" fill="#1d2238"/>
          <path id="Trazado_887587" data-name="Trazado 887587" d="M191.008,1496.714a1.4,1.4,0,0,0-.779-.073,1.84,1.84,0,0,0-.693.275,1.753,1.753,0,0,0-.532.547,1.218,1.218,0,0,0-.181.778l.044.025a2.73,2.73,0,0,1,.2-.268c.036-.042.069-.088.107-.127l.117-.119a3.392,3.392,0,0,1,.525-.411,4.507,4.507,0,0,1,.583-.329q.152-.071.309-.132c.1-.043.209-.082.315-.116Z" transform="translate(-167.489 -1327.584)" fill="#1d2238"/>
          <path id="Trazado_887588" data-name="Trazado 887588" d="M168.937,1487.478a1.4,1.4,0,0,0-.779-.074,1.839,1.839,0,0,0-.693.275,1.755,1.755,0,0,0-.532.547,1.218,1.218,0,0,0-.181.778l.044.025a2.712,2.712,0,0,1,.2-.268c.036-.042.069-.088.107-.127l.116-.119a3.4,3.4,0,0,1,.525-.411,4.567,4.567,0,0,1,.583-.329q.152-.071.309-.132c.1-.043.209-.083.315-.116Z" transform="translate(-147.911 -1319.391)" fill="#1d2238"/>
          <path id="Trazado_887589" data-name="Trazado 887589" d="M37.975,916.349l-2.061-42.321a25.6,25.6,0,0,0-.421-3.542l-4.379-23L4.571,845.409a32.489,32.489,0,0,0,2.735,20.809l2.75,50.466,14.165-.09,0-.158Z" transform="translate(-3.491 -749.926)" fill="#0354a5"/>
          <path id="Trazado_887590" data-name="Trazado 887590" d="M164.4,876.053l.181,2.111.168,2.112.336,4.225.617,8.454.154,2.114.14,2.115.279,4.229.556,8.459.031.529c.009.176,0,.353,0,.53l0,1.06-.007,2.119-.014,4.239-.015,4.238-.009,2.119-.022,2.119-.09,8.477-.072,4.238-.037,2.119-.048,2.119h-.038L166.5,926.83l0-8.473,0-4.237v-3.178c0-.176,0-.353-.005-.529l-.033-.529-2.091-33.829Z" transform="translate(-145.798 -777.109)" fill="#4a4e60"/>
          <path id="Trazado_887591" data-name="Trazado 887591" d="M47.338,515.483,43.7,509.821,35.3,512.1l-2.2-15.059c-.022-.162-.041-.3-.059-.406-.55-3.313-6.411-9.075-6.411-9.075l-1.294,1.333-6.025-3.263a22.184,22.184,0,0,0-8.084,5.917c-3.076,3.9-2.315,34.718-2.315,34.718s6.219,5.04,10.719,5.868,16.307-2.407,16.307-2.407-.2-2.586-.505-6.318Z" transform="translate(-7.831 -430.777)" fill="#f0c36a"/>
          <path id="Trazado_887592" data-name="Trazado 887592" d="M96.139,488.888,93.3,491.323a1.242,1.242,0,0,1-1.611.008c-1.31-1.11-3.635-3.392-2.9-5.083l1.328-.623Z" transform="translate(-78.635 -430.777)" fill="#fff"/>
          <path id="Trazado_887593" data-name="Trazado 887593" d="M154.98,504.045l1.4,1.511a.824.824,0,0,0,1.323-.158l.411-.735-1.841-1.951Z" transform="translate(-137.476 -445.934)" fill="#fff"/>
          <path id="Trazado_887594" data-name="Trazado 887594" d="M10.012,541.889l5.237,14.972,16.29-8.249,2.578,6.321-14.5,12A8.759,8.759,0,0,1,7,565.4c-2.454-3.312-5.563-7.852-5.877-9.978-.527-3.561-3.215-10.347,2.273-17.4Z" transform="translate(0 -477.251)" fill="#f0c36a"/>
          <path id="Trazado_887595" data-name="Trazado 887595" d="M104.683,581.812q-1.323.736-2.657,1.451c-.888.479-1.78.95-2.671,1.422s-1.785.94-2.682,1.4-1.791.929-2.691,1.384l-.255.129-.059-.281c-.135-.646-.282-1.295-.435-1.94s-.306-1.291-.469-1.934c-.329-1.285-.671-2.567-1.055-3.836s-.794-2.53-1.273-3.766c-.242-.617-.5-1.228-.789-1.823a11.322,11.322,0,0,0-1-1.716,10.153,10.153,0,0,1,1.129,1.65c.324.584.622,1.183.89,1.8.541,1.222,1,2.478,1.412,3.745s.783,2.55,1.115,3.841.64,2.587.906,3.9l-.314-.152c.9-.455,1.806-.9,2.709-1.347s1.812-.887,2.718-1.33,1.816-.878,2.728-1.309,1.825-.861,2.743-1.28" transform="translate(-78.634 -507.665)" fill="#1d2238"/>
          <path id="Trazado_887596" data-name="Trazado 887596" d="M9.934,692.095l.543.983.537.986q.538.985,1.084,1.964c.362.654.727,1.307,1.1,1.955l.56.971c.188.325.373.652.555.978a19.908,19.908,0,0,0,2.438,3.7,7.523,7.523,0,0,0,.789.749c.137.119.286.219.432.325s.3.2.463.278a6.432,6.432,0,0,0,2.046.687,9.446,9.446,0,0,0,4.329-.368,11.146,11.146,0,0,0,2.027-.854q.482-.265.937-.577c.3-.208.585-.438.878-.676q1.743-1.413,3.5-2.811l1.761-1.391.881-.7.886-.689-.843.742-.848.735-1.7,1.47q-1.7,1.461-3.416,2.912c-.283.24-.575.489-.884.713a11.179,11.179,0,0,1-.964.614,11.549,11.549,0,0,1-2.09.915,10.8,10.8,0,0,1-2.237.468,8.9,8.9,0,0,1-2.295-.063,6.873,6.873,0,0,1-2.184-.746c-.172-.09-.334-.2-.5-.3s-.317-.224-.463-.351a7.3,7.3,0,0,1-.83-.8,12.881,12.881,0,0,1-1.333-1.847c-.394-.645-.747-1.309-1.1-1.97q-.262-.5-.529-.986c-.18-.328-.36-.657-.535-.988q-.527-.993-1.035-1.994t-1-2.013l-.491-1.009Z" transform="translate(-8.812 -613.927)" fill="#1d2238"/>
          <path id="Trazado_887597" data-name="Trazado 887597" d="M116.571,705.825c-.04-.135-.072-.273-.1-.412a2.923,2.923,0,0,1-.071-.42,5.1,5.1,0,0,1-.022-.853,5.519,5.519,0,0,1,.351-1.68,5.432,5.432,0,0,1,.843-1.5,4.033,4.033,0,0,1,1.29-1.107,14.7,14.7,0,0,0-.845,1.4,11.617,11.617,0,0,0-.653,1.442,11.8,11.8,0,0,0-.459,1.516c-.075.258-.11.524-.172.791s-.087.54-.158.82" transform="translate(-103.223 -620.813)" fill="#1d2238"/>
          <path id="Trazado_887598" data-name="Trazado 887598" d="M260.491,581.932l-6.724-2.81a.624.624,0,0,1-.183-1.033l17.346-16.067a.624.624,0,0,1,.981.177l3.671,7.284a.663.663,0,0,1-.172.812l-14.054,11.511a.848.848,0,0,1-.864.126" transform="translate(-224.765 -498.397)" fill="#4a4e60"/>
          <path id="Trazado_887599" data-name="Trazado 887599" d="M237.272,736.935c-.11-.691-.2-1.383-.279-2.076q-.062-.519-.114-1.04c-.036-.347-.072-.693-.1-1.04-.066-.694-.119-1.389-.172-2.083-.029-.347-.046-.7-.07-1.043s-.047-.7-.062-1.043l-.006-.136.111-.06c.341-.185.68-.375,1.023-.557s.685-.367,1.031-.544.691-.356,1.04-.528.7-.343,1.053-.506q-.48.335-.969.653c-.325.214-.653.422-.981.63s-.66.41-.99.615-.665.4-1,.6l.1-.2c.033.347.057.694.085,1.042s.057.694.077,1.042c.046.7.091,1.391.123,2.087.019.348.033.7.046,1.044s.026.7.034,1.045c.019.7.028,1.395.016,2.094" transform="translate(-209.76 -644.25)" fill="#1d2238"/>
          <path id="Trazado_887600" data-name="Trazado 887600" d="M342.5,662.144c-.026-.173-.075-.346-.117-.513-.087-.348-.17-.7-.254-1.046l-.354-1.455a.92.92,0,1,0-1.787.435l.034.139a.919.919,0,0,0-1.489.917q.056.23.112.459a.28.28,0,0,0-.106-.115.727.727,0,0,0-.987.169,1.017,1.017,0,0,0-.064.631c.072.977.213,1.953.32,2.927l-1.789,1.663.409.638c.369-.128.711-.2,1.081-.328.491-.17.995-.307,1.47-.518a4.229,4.229,0,0,0,1.019-.677,15.044,15.044,0,0,0,1.66-1.707c.236-.277.469-.558.689-.849a.971.971,0,0,0,.153-.772" transform="translate(-298.064 -584.062)" fill="#eb9481"/>
          <path id="Trazado_887601" data-name="Trazado 887601" d="M349.464,713.9a1.857,1.857,0,0,0,.177,1.338s-.664-.154-.432-1.1Z" transform="translate(-309.725 -633.267)" fill="#1d2238"/>
          <path id="Trazado_887602" data-name="Trazado 887602" d="M371.457,669.725a1.627,1.627,0,0,1,.55.8c.1.31.177.622.257.936s.151.628.216.944l.1.474c.028.159.06.318.084.478-.049-.154-.092-.31-.138-.465l-.128-.467c-.085-.311-.163-.624-.241-.937l-.231-.938a1.605,1.605,0,0,0-.179-.438,1.934,1.934,0,0,0-.288-.384" transform="translate(-329.504 -594.084)" fill="#1d2238"/>
          <path id="Trazado_887603" data-name="Trazado 887603" d="M359.269,681.927a1.21,1.21,0,0,1,.541.667c.082.278.141.558.2.838s.112.562.157.845l.067.425c.018.142.04.284.054.427-.039-.138-.072-.278-.109-.416l-.1-.418c-.066-.279-.123-.559-.183-.839s-.113-.562-.174-.838a.973.973,0,0,0-.172-.375,1.71,1.71,0,0,0-.286-.315" transform="translate(-318.692 -604.908)" fill="#1d2238"/>
          <path id="Trazado_887604" data-name="Trazado 887604" d="M264.023,585.112c.667-.652,1.345-1.292,2.019-1.935s1.355-1.281,2.034-1.918l2.049-1.9,2.06-1.889q2.069-1.879,4.15-3.747l1.041-.932,1.046-.927q1.045-.928,2.1-1.848l.169-.148.1.2.795,1.578.787,1.582.777,1.588q.391.792.769,1.592-.441-.766-.871-1.538l-.863-1.542-.853-1.548-.845-1.552.268.048q-1.023.953-2.055,1.895l-1.03.945-1.035.939c-1.378,1.255-2.768,2.5-4.157,3.739l-2.093,1.853-2.1,1.841c-.7.61-1.407,1.222-2.119,1.825s-1.416,1.212-2.134,1.808" transform="translate(-234.204 -505.502)" fill="#1d2238"/>
        </g>
      </g>
    </g>
  </g>
</svg>
