<svg xmlns="http://www.w3.org/2000/svg" xmlns:xlink="http://www.w3.org/1999/xlink" width="505" height="178.673" viewBox="0 0 505 178.673">
  <defs>
    <clipPath id="clip-path">
      <rect id="Rectángulo_405723" data-name="Rectángulo 405723" width="505" height="178.672" fill="none"/>
    </clipPath>
    <clipPath id="clip-path-2">
      <rect id="Rectángulo_406914" data-name="Rectángulo 406914" width="444.662" height="169.358" fill="none"/>
    </clipPath>
    <clipPath id="clip-path-3">
      <rect id="Rectángulo_406913" data-name="Rectángulo 406913" width="444.662" height="169.357" fill="none"/>
    </clipPath>
    <clipPath id="clip-path-4">
      <rect id="Rectángulo_406902" data-name="Rectángulo 406902" width="22.435" height="23.602" fill="none"/>
    </clipPath>
    <clipPath id="clip-path-5">
      <rect id="Rectángulo_406903" data-name="Rectángulo 406903" width="97.078" height="85.38" fill="#9e8627"/>
    </clipPath>
    <clipPath id="clip-path-6">
      <rect id="Rectángulo_406904" data-name="Rectángulo 406904" width="14.161" height="11.338" fill="none"/>
    </clipPath>
    <clipPath id="clip-path-7">
      <rect id="Rectángulo_406905" data-name="Rectángulo 406905" width="44.963" height="40.56" fill="none"/>
    </clipPath>
  </defs>
  <g id="Grupo_1113815" data-name="Grupo 1113815" transform="translate(-809.711 -8654.483)">
    <g id="Grupo_1112328" data-name="Grupo 1112328" transform="translate(809.711 8654.482)">
      <g id="Grupo_1111937" data-name="Grupo 1111937" clip-path="url(#clip-path)">
        <path id="Trazado_885979" data-name="Trazado 885979" d="M263.434,114.453h-55.12a25.344,25.344,0,0,0-1.588-20.838H306.807c17.483,0,31.657-12.6,31.657-28.153S324.29,37.309,306.807,37.309H160.279c-17.484,0-31.657,12.6-31.657,28.153a25.5,25.5,0,0,0,3.115,12.192H31.657C14.173,77.655,0,90.259,0,105.808s14.173,28.153,31.657,28.153h55.12a25.288,25.288,0,0,0-1.527,8.645,26.085,26.085,0,0,0,6.488,17.069H56.085c-17.484,0-31.657,12.6-31.657,28.153S38.6,215.981,56.085,215.981H249.02c17.484,0,31.657-12.6,31.657-28.153a26.306,26.306,0,0,0-7.686-18.378c12.812-3.6,22.1-14.258,22.1-26.844,0-15.548-14.173-28.153-31.657-28.153" transform="translate(69 -37.309)" fill="#e4fff7"/>
        <path id="Trazado_885980" data-name="Trazado 885980" d="M74.8,54.833c15.694,0,28.417-12.274,28.417-27.416S90.5,0,74.8,0,46.385,12.275,46.385,27.417,59.107,54.833,74.8,54.833" transform="translate(-39.452 0)" fill="#e4fff7"/>
        <path id="Trazado_885981" data-name="Trazado 885981" d="M676.006,296.46c-36.977,0-66.953,31.016-66.953,69.276s29.976,69.276,66.953,69.276S742.959,404,742.959,365.736s-29.976-69.276-66.953-69.276" transform="translate(-244.009 -259.512)" fill="#e4fff7"/>
      </g>
    </g>
    <g id="Grupo_1113831" data-name="Grupo 1113831" transform="translate(839.711 8659.483)">
      <g id="Grupo_1113830" data-name="Grupo 1113830" clip-path="url(#clip-path-2)">
        <g id="Grupo_1113829" data-name="Grupo 1113829" transform="translate(0 0.001)">
          <g id="Grupo_1113828" data-name="Grupo 1113828" clip-path="url(#clip-path-3)">
            <path id="Trazado_887606" data-name="Trazado 887606" d="M1221.514,117.424c28.995-31.679,51.46-70.271,66.212-113.742l51.445,29.431c-17.057,50.264-43.031,94.884-76.556,131.512l-41.1-47.2" transform="translate(-1015.245 -3.061)" fill="#3c8f7c"/>
            <path id="Trazado_887607" data-name="Trazado 887607" d="M1340.181,53.72l32.014,18.646c-1.586,4.552.127,10.082,3.935,12.422-15.446,41.337-37.113,78.558-64.188,110.265a7.352,7.352,0,0,0-11.134-.055l-25.837-29.257c2.78-3.1,2.4-8.46-.769-11.894,23.775-27.844,42.8-60.53,56.367-96.829,3.8,2.338,8.152.891,9.612-3.3" transform="translate(-1059.036 -44.649)" fill="#96d9c9"/>
            <path id="Trazado_887608" data-name="Trazado 887608" d="M1479.883,410.641c-8.533-8.02-10.6-21.519-5.2-30.646,5.426-9.11,16.814-11.3,26.023-4.421,9.193,6.867,12.236,21.18,6.138,31.434s-18.448,11.641-26.964,3.633" transform="translate(-1223.189 -308.796)" fill="#50bfa5"/>
            <path id="Trazado_887609" data-name="Trazado 887609" d="M1500.353,422.582l2.941,2.337a16.135,16.135,0,0,1,2.816-3.436,1.942,1.942,0,0,1,2.841.4l.095.116a2.58,2.58,0,0,1-.074,3.473,11.892,11.892,0,0,0-2.563,3.158c-1.051,1.888-1.11,3.719.12,4.719,1.167.947,2.518.491,4.677-1.383,3.111-2.714,5.992-4.032,9.031-1.708,2.754,2.1,3.776,5.945,2.365,10.2l2.947,2.327q-.953,1.723-1.922,3.432l-2.715-2.184a15.31,15.31,0,0,1-2.21,2.815,1.934,1.934,0,0,1-2.965-.373,2.694,2.694,0,0,1,.169-3.49,10.96,10.96,0,0,0,2.095-2.693c1.256-2.234.78-3.649-.088-4.333-1.026-.81-2.331-.112-4.948,1.967-3.586,2.971-6.22,3.137-8.959.85-2.714-2.272-3.8-6.234-2.292-10.476l-3.141-2.542q.9-1.583,1.78-3.178" transform="translate(-1245.519 -349.935)" fill="#3c8f7c"/>
            <path id="Trazado_887610" data-name="Trazado 887610" d="M1387.4,648.734q9.8-11.509,18.584-24.023l4.336,4.107q-8.9,12.678-18.844,24.36l-4.076-4.443" transform="translate(-1153.121 -519.221)" fill="#50bfa5"/>
            <path id="Trazado_887611" data-name="Trazado 887611" d="M1248.784,291.213c40.839-11.888,79.5-32.307,113.956-60.182l29.651,47.24c-39.835,32.23-84.539,55.839-131.758,69.584l-11.848-56.642" transform="translate(-1037.91 -192.019)" fill="#3c8f7c"/>
            <path id="Trazado_887612" data-name="Trazado 887612" d="M1390.459,285.755l18.286,29.661c-3.643,2.9-4.93,8.1-2.817,11.729a374.79,374.79,0,0,1-110.472,58.342,7.382,7.382,0,0,0-9.574-5.186l-7.655-35.276a8.263,8.263,0,0,0,5.282-9.845,329.115,329.115,0,0,0,97.011-51.233,6.506,6.506,0,0,0,9.938,1.807" transform="translate(-1062.383 -236)" fill="#96d9c9"/>
            <path id="Trazado_887613" data-name="Trazado 887613" d="M1538.2,523.624c-3.349-10.34,1.615-22.067,10.838-26.854a17.711,17.711,0,0,1,24.651,8.49c4.5,9.725-.036,22.55-10.42,27.916s-21.728.77-25.068-9.553" transform="translate(-1277.584 -411.132)" fill="#50bfa5"/>
            <path id="Trazado_887614" data-name="Trazado 887614" d="M1593.57,523.115l1.368,3.224a16.924,16.924,0,0,1,4.146-1.441,1.911,1.911,0,0,1,2.248,1.634l.024.137a2.378,2.378,0,0,1-1.8,2.737,12.469,12.469,0,0,0-3.789,1.336c-1.851,1.022-2.817,2.455-2.256,3.821.534,1.295,1.926,1.555,4.725,1.056,4.04-.729,7.182-.451,8.642,2.808,1.323,2.95.285,6.487-3.058,9.227l1.378,3.218q-1.682.934-3.373,1.85l-1.25-3a16.025,16.025,0,0,1-3.313,1.225,1.9,1.9,0,0,1-2.37-1.667,2.492,2.492,0,0,1,1.89-2.707,11.464,11.464,0,0,0,3.153-1.181c2.2-1.2,2.5-2.551,2.09-3.5-.479-1.121-1.954-1.166-5.25-.716-4.577.715-6.932-.37-8.15-3.459-1.2-3.066-.163-6.731,3.26-9.417l-1.438-3.478q1.566-.848,3.124-1.714" transform="translate(-1319.964 -434.781)" fill="#3c8f7c"/>
            <path id="Trazado_887615" data-name="Trazado 887615" d="M1238.934,670.856c34.843,7.761,71.959,7.952,109.4.562q.058,24.633.117,49.265c-43.285,8.544-86.2,8.323-126.486-.651l16.973-49.177" transform="translate(-1015.617 -557.574)" fill="#3c8f7c"/>
            <path id="Trazado_887616" data-name="Trazado 887616" d="M1374.185,702.176l-.166,30.795c-3.937.744-7.211,4.271-7.32,7.984-36.185,6-71.984,5.82-106.051-.545a6.112,6.112,0,0,0-4.575-8.045l10.371-30.742c3.383.72,7.089-1.779,8.251-5.484a267.9,267.9,0,0,0,93.129.479,5.207,5.207,0,0,0,6.36,5.559" transform="translate(-1043.969 -578.587)" fill="#96d9c9"/>
            <path id="Trazado_887617" data-name="Trazado 887617" d="M1497.384,774.33c2.242-9.472,11.111-16.558,19.927-16.447,8.812.134,15.113,7.43,13.971,16.918-1.137,9.47-10.189,17.594-20.1,17.451s-16.034-8.467-13.794-17.922" transform="translate(-1244.147 -629.905)" fill="#50bfa5"/>
            <path id="Trazado_887618" data-name="Trazado 887618" d="M1565.5,775.68q-.233,1.544-.465,3.088a13.4,13.4,0,0,1,3.643.605,1.614,1.614,0,0,1,.887,2.214l-.044.117a2.145,2.145,0,0,1-2.534,1.386,9.889,9.889,0,0,0-3.338-.538c-1.8.025-3.14.742-3.351,2.043-.2,1.234.69,2.018,2.935,2.8,3.245,1.117,5.389,2.646,4.974,5.8-.374,2.856-2.718,5.185-6.366,5.93q-.228,1.544-.456,3.088-1.635.028-3.269.037.223-1.43.448-2.861a12.723,12.723,0,0,1-2.944-.426,1.607,1.607,0,0,1-.96-2.29,2.239,2.239,0,0,1,2.584-1.325,9.107,9.107,0,0,0,2.809.393c2.13-.021,2.953-.95,3.085-1.859.159-1.075-.885-1.726-3.468-2.75-3.627-1.352-4.838-3.182-4.326-6.1.512-2.9,2.916-5.324,6.6-5.993q.264-1.658.529-3.316,1.513-.009,3.028-.035" transform="translate(-1291.996 -644.697)" fill="#3c8f7c"/>
            <path id="Trazado_887619" data-name="Trazado 887619" d="M1279.15,827.564q12.355,2.294,25.011,3.433L1303,835.824q-12.823-1.155-25.362-3.481l1.512-4.779" transform="translate(-1061.892 -687.819)" fill="#50bfa5"/>
            <path id="Trazado_887620" data-name="Trazado 887620" d="M1753.739,824.8q12.438-1.791,24.791-4.771.224,2.472.448,4.944-12.515,3.018-25.138,4.837-.051-2.506-.1-5.011" transform="translate(-1457.597 -681.559)" fill="#50bfa5"/>
            <path id="Trazado_887621" data-name="Trazado 887621" d="M1783.885,470.757q10.885-6.28,21.249-13.633l2.251,4.425q-10.5,7.448-21.547,13.824l-1.954-4.615" transform="translate(-1482.653 -379.933)" fill="#50bfa5"/>
            <path id="Trazado_887622" data-name="Trazado 887622" d="M1622.406,219.1q6.534-10.734,12.1-22.159l4.1,2.8q-5.637,11.575-12.267,22.469l-3.93-3.111" transform="translate(-1348.442 -163.687)" fill="#50bfa5"/>
            <path id="Trazado_887623" data-name="Trazado 887623" d="M2170.047,478.1c1.179-1.229,8.364-8.123,21.484-8.554a.638.638,0,0,1,.594.914c-1.545,3.219-6.581,14.074-8.046,21.774a.639.639,0,0,1-.656.52c-2.632-.116-13.653-1.367-13.553-14.221a.631.631,0,0,1,.177-.433" transform="translate(-1803.458 -390.261)" fill="#f47458"/>
            <path id="Trazado_887624" data-name="Trazado 887624" d="M1852.944,530.26l-1.988-14.283a2.961,2.961,0,0,0-1.648-2.26l-4.987-2.4a2.249,2.249,0,0,1-1.1-1.182c-6.257-15.375-22.71-26.352-42.022-26.352-18.429,0-34.253,10-41.1,24.271-.035.006-.07.01-.109.013a1.692,1.692,0,0,1-.457-.032,3.459,3.459,0,0,1-.546-.153,5.973,5.973,0,0,1-.583-.256,8.977,8.977,0,0,1-1.174-.729c-.192-.139-.382-.286-.567-.437-.079-.064-.155-.13-.231-.2.083-.074.165-.149.245-.226a9.152,9.152,0,0,0,.718-.778c.225-.271.435-.553.631-.843s.383-.587.554-.89c.044-.075.085-.152.127-.228s.084-.152.125-.234c.083-.16.16-.324.233-.491a6.421,6.421,0,0,0,.358-1.05,4.658,4.658,0,0,0,.142-1.164,3.17,3.17,0,0,0-.264-1.256,2.8,2.8,0,0,0-.841-1.069,3.171,3.171,0,0,0-1.2-.571,3.375,3.375,0,0,0-1.328-.059,2.756,2.756,0,0,0-1.316.575c-.048.04-.1.083-.144.121l-.106.1c-.07.07-.142.138-.21.21a5.911,5.911,0,0,0-.383.46c-.125.157-.229.329-.339.5s-.2.35-.279.534a5.8,5.8,0,0,0-.392,1.131,7.352,7.352,0,0,0-.163,2.327,8.926,8.926,0,0,0,.491,2.244,7.317,7.317,0,0,0,.49,1.087c.033.058.067.117.1.176a4.851,4.851,0,0,1-.887.1,4.738,4.738,0,0,1-.942-.074c-.157-.025-.31-.067-.464-.106s-.3-.093-.451-.158a5.469,5.469,0,0,1-1.631-1.033,8.082,8.082,0,0,1-1.288-1.5,13.3,13.3,0,0,1-.983-1.743,13.384,13.384,0,0,0,.852,1.825,8.322,8.322,0,0,0,1.2,1.638,5.858,5.858,0,0,0,1.657,1.235c.155.082.32.143.482.211s.333.116.5.157a5.33,5.33,0,0,0,1.049.164,5.45,5.45,0,0,0,1.065-.048q.142-.021.284-.049l.035.037c.048.051.092.1.147.151l.043.038.144.155.153.159c.1.1.205.207.31.307.209.2.424.4.646.584a11.665,11.665,0,0,0,1.445,1.058,7.13,7.13,0,0,0,1.792.8l.057.015a36.316,36.316,0,0,0-2.432,13.076,37.735,37.735,0,0,0,11.456,26.8,21.016,21.016,0,0,1,5.33,8.875l2.437,8.188a1.986,1.986,0,0,0,1.9,1.42h15.726a2.221,2.221,0,0,0,2.018-1.294l1.315-2.861a1.893,1.893,0,0,1,1.82-1.1q1.347.073,2.714.073,1.291,0,2.564-.066a1.894,1.894,0,0,1,1.817,1.1l1.2,2.622a2.621,2.621,0,0,0,2.381,1.526h15a2.62,2.62,0,0,0,2.512-1.873l2.808-9.436a13.222,13.222,0,0,1,3.72-5.969,40.075,40.075,0,0,0,9.356-12.73,5.571,5.571,0,0,1,2.74-2.739L1851,533.8a3.381,3.381,0,0,0,1.941-3.54m-97.176-24.614-.025-.033c-.036-.044-.071-.1-.107-.15a4.954,4.954,0,0,1-.391-.714,6.711,6.711,0,0,1-.5-1.637,4.487,4.487,0,0,1,.539-3.171c.068-.116.154-.221.234-.331.042-.053.089-.1.133-.156l.067-.078.045-.044a1,1,0,0,1,.483-.259,1.714,1.714,0,0,1,1.294.208,1.287,1.287,0,0,1,.429.458,1.732,1.732,0,0,1,.2.683,4.2,4.2,0,0,1-.262,1.7c-.05.144-.1.289-.165.431-.028.07-.062.144-.095.217s-.066.147-.1.219c-.136.291-.285.575-.443.852a9.52,9.52,0,0,1-.512.807,8.186,8.186,0,0,1-.588.746c-.077.086-.157.17-.237.253" transform="translate(-1452.029 -402.09)" fill="#d6b632"/>
            <path id="Trazado_887625" data-name="Trazado 887625" d="M2279.983,643.267c.231,1.374.013,2.555-.488,2.639s-1.093-.961-1.324-2.335-.013-2.555.487-2.639,1.093.961,1.324,2.335" transform="translate(-1893.396 -532.699)" fill="#184655"/>
            <g id="Grupo_1113818" data-name="Grupo 1113818" transform="translate(366.261 78.932)" opacity="0.5">
              <g id="Grupo_1113817" data-name="Grupo 1113817">
                <g id="Grupo_1113816" data-name="Grupo 1113816" clip-path="url(#clip-path-4)">
                  <path id="Trazado_887626" data-name="Trazado 887626" d="M2177.42,480.879c0-.283.012-.565.035-.841a11.323,11.323,0,0,1,3.378-7.108,19.348,19.348,0,0,1,10.583-5.366.635.635,0,0,0-.407-.128c-13.343.438-20.649,7.45-21.848,8.7a.642.642,0,0,0-.18.44c-.1,13.072,11.105,14.345,13.782,14.462a.649.649,0,0,0,.667-.529c.04-.212.084-.427.129-.644-3.608-1.151-5.7-2.751-6.14-8.985" transform="translate(-2168.98 -467.435)" fill="#e25a44"/>
                </g>
              </g>
            </g>
            <g id="Grupo_1113821" data-name="Grupo 1113821" transform="translate(295.011 81.692)" opacity="0.5">
              <g id="Grupo_1113820" data-name="Grupo 1113820">
                <g id="Grupo_1113819" data-name="Grupo 1113819" clip-path="url(#clip-path-5)">
                  <path id="Trazado_887627" data-name="Trazado 887627" d="M1844.115,537.146s-5.257,1.14-20.483,3.108c-22.21,2.871-39.714-11.284-36.684-31.221a39.776,39.776,0,0,1,14.926-25.245c-.226,0-.452-.006-.679-.006-18.429,0-34.253,10-41.1,24.271-.035.006-.07.01-.109.013a1.692,1.692,0,0,1-.457-.032,3.459,3.459,0,0,1-.546-.153,5.973,5.973,0,0,1-.583-.256,8.977,8.977,0,0,1-1.174-.729c-.192-.139-.382-.286-.567-.437-.079-.064-.155-.13-.231-.2.083-.074.165-.149.245-.226a9.152,9.152,0,0,0,.718-.778c.225-.271.435-.553.631-.843s.383-.587.554-.89c.044-.075.085-.152.127-.228s.084-.152.125-.234c.083-.16.16-.324.233-.491a6.421,6.421,0,0,0,.358-1.05,4.658,4.658,0,0,0,.142-1.164,3.17,3.17,0,0,0-.264-1.256,2.8,2.8,0,0,0-.841-1.069,3.171,3.171,0,0,0-1.2-.571,3.375,3.375,0,0,0-1.328-.059,2.756,2.756,0,0,0-1.316.575c-.048.04-.1.083-.144.121l-.106.1c-.07.07-.142.138-.21.21a5.911,5.911,0,0,0-.383.46c-.125.157-.229.329-.339.5s-.2.35-.279.534a5.8,5.8,0,0,0-.392,1.131,7.352,7.352,0,0,0-.163,2.327,8.926,8.926,0,0,0,.491,2.244,7.317,7.317,0,0,0,.49,1.087c.033.058.067.117.1.176a4.851,4.851,0,0,1-.887.1,4.738,4.738,0,0,1-.942-.074c-.157-.025-.31-.067-.464-.106s-.3-.093-.451-.158a5.469,5.469,0,0,1-1.631-1.033,8.082,8.082,0,0,1-1.288-1.5,13.3,13.3,0,0,1-.983-1.743,13.384,13.384,0,0,0,.852,1.825,8.322,8.322,0,0,0,1.2,1.638,5.858,5.858,0,0,0,1.657,1.235c.155.082.32.143.482.211s.333.116.5.157a5.33,5.33,0,0,0,1.049.164,5.45,5.45,0,0,0,1.065-.048q.142-.021.284-.049l.035.037c.048.051.092.1.147.151l.043.038.144.155.153.159c.1.1.205.207.31.307.209.2.424.4.646.584a11.665,11.665,0,0,0,1.445,1.058,7.13,7.13,0,0,0,1.792.8l.057.015a36.316,36.316,0,0,0-2.432,13.076,37.735,37.735,0,0,0,11.456,26.8,21.016,21.016,0,0,1,5.33,8.875l2.437,8.188a1.986,1.986,0,0,0,1.9,1.42h15.726a2.221,2.221,0,0,0,2.018-1.294l1.315-2.861a1.893,1.893,0,0,1,1.82-1.1q1.347.073,2.714.073,1.291,0,2.564-.066a1.894,1.894,0,0,1,1.817,1.1l1.2,2.622a2.621,2.621,0,0,0,2.381,1.526h15a2.62,2.62,0,0,0,2.512-1.873l2.808-9.436a13.222,13.222,0,0,1,3.72-5.969,40.075,40.075,0,0,0,9.356-12.73,5.58,5.58,0,0,1,1.562-2.007h0m-88.348-31.5-.025-.033c-.036-.044-.071-.1-.107-.15a4.954,4.954,0,0,1-.391-.714,6.711,6.711,0,0,1-.5-1.637,4.487,4.487,0,0,1,.539-3.171c.068-.116.154-.221.234-.331.042-.053.089-.1.133-.156l.067-.078.045-.044a1,1,0,0,1,.483-.259,1.714,1.714,0,0,1,1.294.208,1.287,1.287,0,0,1,.429.458,1.732,1.732,0,0,1,.2.683,4.2,4.2,0,0,1-.262,1.7c-.05.144-.1.289-.165.431-.028.07-.062.144-.095.217s-.066.147-.1.219c-.136.291-.285.575-.443.852a9.52,9.52,0,0,1-.512.807,8.186,8.186,0,0,1-.588.746c-.077.086-.157.17-.237.253" transform="translate(-1747.039 -483.782)" fill="#9e8627"/>
                </g>
              </g>
            </g>
            <g id="Grupo_1113824" data-name="Grupo 1113824" transform="translate(315.85 90.759)" opacity="0.2">
              <g id="Grupo_1113823" data-name="Grupo 1113823">
                <g id="Grupo_1113822" data-name="Grupo 1113822" clip-path="url(#clip-path-6)">
                  <path id="Trazado_887628" data-name="Trazado 887628" d="M1884.192,538.859c1.318,2.05-.6,5.63-4.278,8s-7.733,2.622-9.05.572.6-5.63,4.278-8,7.733-2.622,9.051-.572" transform="translate(-1870.448 -537.475)" fill="#fff"/>
                </g>
              </g>
            </g>
            <path id="Trazado_887629" data-name="Trazado 887629" d="M2007.547,500.58a40.658,40.658,0,0,0-24.5-.017l-.844-1.643a36.6,36.6,0,0,1,7.856-1.725A42.96,42.96,0,0,1,2008.3,498.9Z" transform="translate(-1647.479 -412.98)" fill="#184655"/>
            <path id="Trazado_887630" data-name="Trazado 887630" d="M2567.611,911.652s1.068,1.744.972,2.26-1.381,5.983-2.089,6.344-2.5.291-2.1,1c.3.537,3.508,1.25,5.645,1.667.624.122,2.638-4.592,3.065-5.252.619-.958,2.078-3.1,1.941-3.913a6.332,6.332,0,0,0-1.516-2.267,9.959,9.959,0,0,1-1.589-2.867Z" transform="translate(-2131.315 -755.192)" fill="#f48c7f"/>
            <path id="Trazado_887631" data-name="Trazado 887631" d="M2460.639,917s.362,3.909.361,3.918c-.05.592-.033,2.09-.164,2.607-.491,1.941-8.335-3.864-6.156-4.227a2.138,2.138,0,0,0,1.137-1.159,4.69,4.69,0,0,0-.156-2.481Z" transform="translate(-2039.858 -761.035)" fill="#f7a491"/>
            <path id="Trazado_887632" data-name="Trazado 887632" d="M2450.419,507.474s-2.266,6.269-2.291,6.364c-2.634,10.4-9.84,30.2-9.943,32.253-.251,5.012,3.884,31.952,3.884,31.952l5.733.744.125-30.969,5.637-11.051,9.645-22.223Z" transform="translate(-2026.457 -421.781)" fill="#1d6350"/>
            <path id="Trazado_887633" data-name="Trazado 887633" d="M2525.778,524.882l-.487,6.362-3.494,25.806,4.673,27.269s-2.434,3.179-4.818,3.109l-10.943-29.553-2.6-34.929,2.189-7.059Z" transform="translate(-2084.58 -428.772)" fill="#41c9a5"/>
            <path id="Trazado_887634" data-name="Trazado 887634" d="M2569.1,925.3s-5.6,8.379-6.994,8.5c-.37.032-2.077-.082-2.567.562a7.732,7.732,0,0,0-.46,1.164l7.027,2.022s1.9-4.356,2.691-6.052c0,0,2.907-3.9,2.807-4.345s-2.5-1.851-2.5-1.851" transform="translate(-2126.947 -769.051)" fill="#13375b"/>
            <path id="Trazado_887635" data-name="Trazado 887635" d="M2424.6,942.37l-.214-3.648a8.981,8.981,0,0,1-3.345-.057,32.89,32.89,0,0,1-2.92-1.529c-4.551.319-8.163.119-7.818,1.39Z" transform="translate(-2003.274 -778.889)" fill="#13375b"/>
            <path id="Trazado_887636" data-name="Trazado 887636" d="M2191.775,353.4c1.919,1.328,1.635,1.609,1.885,1.772a43.534,43.534,0,0,0,4.949.1s13.715-.191,14.456-.229l12.819-6.266,4.82,5.791s-14.122,6.428-14.917,6.628-19.378-1.8-21.019-1.921c0,0-2,.611-3.274.952a10.613,10.613,0,0,1-3,.109,11.183,11.183,0,0,1-2.856-.307c-1.339-.314.065-.657.065-.657s2.578.117,2.551-.1c-.021-.165-1.432-.142-2.917-.473-.382-.085-.759-.171-1.1-.252-.906-.214-1.044-.856-.062-.79a8.913,8.913,0,0,1,1.327.175,7.34,7.34,0,0,0,1.252.088,9.627,9.627,0,0,0,1.291.082c-.019-.044.138-.143-.264-.246a22.4,22.4,0,0,1-2.266-.392c-.4-.136-1.241-.369-1.241-.369s-1.44-.524-1.358-.722c.18-.432,1.141-.264,1.656,0a6,6,0,0,1,1.29.26s1.9.13,1.918-.15a12.534,12.534,0,0,0-2.088-.846c-1.12-.443-1.906-.817-1.864-1.055.067-.377.991-.092.991-.092s.814.252,1.09.314c.324.073,1.31.213,1.31.213s3.453.32,3.45.053a1.772,1.772,0,0,0-.48-1.05c-.207-.1-.677-.067-.885-.165s-.635-.35-.541-.625,1.5-.267,1.5-.267a3.609,3.609,0,0,1,1.508.447" transform="translate(-1814.3 -289.879)" fill="#f8a492"/>
            <path id="Trazado_887637" data-name="Trazado 887637" d="M2386.73,339.58s1.134,2.769,1.681,3.763c.455.826,3.051,4.054,3.051,4.054s5.8-3.536,8.49-5.412c3.266-2.276,6.709-6.334,6.349-6.66a6.816,6.816,0,0,0-4.358-1.931c-6.321-.09-15.213,6.185-15.213,6.185" transform="translate(-1983.699 -277.097)" fill="#0354a5"/>
            <path id="Trazado_887638" data-name="Trazado 887638" d="M2229.838,388.243c-.957-.283-1.786-.886-1.793-1.888-.549.924.687,2.1,1.793,1.888" transform="translate(-1851.699 -321.114)" fill="#fe875e"/>
            <path id="Trazado_887639" data-name="Trazado 887639" d="M2441.569,324.09a56.329,56.329,0,0,1,8.485-2.262,21.77,21.77,0,0,1,4.636-.8c1.721.194,8.729-2.746,15.779,43l-21.774.037c1.445-4.284-3.674-16.113-4.255-18.142-1.3-4.535-5.628-20.681-2.872-21.831" transform="translate(-2028.53 -266.809)" fill="#ffe064"/>
            <path id="Trazado_887640" data-name="Trazado 887640" d="M2453.2,290.508l3.984,5.865s-2.091,4.789-4.48,5.154c-2,.306-1.983-2.71-1.983-2.71s-.7-3.825-1.836-5.455,4.316-2.854,4.316-2.854" transform="translate(-2035.229 -241.452)" fill="#f7a491"/>
            <path id="Trazado_887641" data-name="Trazado 887641" d="M2453.139,293.025a12.813,12.813,0,0,1-3.138,2.895,9.932,9.932,0,0,0-1.116-2.557c-.525-.752.354-1.418,1.453-1.916,1.482-.56,2.863-.938,2.863-.938l.766,1.127a5.486,5.486,0,0,1-.827,1.39" transform="translate(-2035.229 -241.452)" fill="#f47458"/>
            <path id="Trazado_887642" data-name="Trazado 887642" d="M2438.268,225.831c.147-.071,2,7.745.173,10.129s-5.72,3.5-7.311,1.922c-1.76-1.741-2.514-10.265.432-12.825s6.706.773,6.706.773" transform="translate(-2019.313 -186.251)" fill="#f7a491"/>
            <path id="Trazado_887643" data-name="Trazado 887643" d="M2435.292,209.747a9.523,9.523,0,0,1,7.694,3.476c2.227,2.966,1.041,7.2-1.023,9.137s-1.642,3.8-1.642,3.8l-1.136-1.669a8.3,8.3,0,0,1,.189-3.073c.424-1.2-1.34-1.793-1.907-2.7-.437-.7-.619-2.377-1.313-3.533,0,0-2.405-1.53-4-1.423-2.714.182-.451-3.784,3.135-4.011" transform="translate(-2020.46 -174.317)" fill="#13375b"/>
            <path id="Trazado_887644" data-name="Trazado 887644" d="M2473.022,266.574c-.418.841-.348,1.726.157,1.977s1.254-.227,1.672-1.069.348-1.726-.157-1.977-1.254.227-1.672,1.068" transform="translate(-2055.193 -220.616)" fill="#f7a491"/>
            <path id="Trazado_887645" data-name="Trazado 887645" d="M2434.131,282.484l3.26-.653a1.471,1.471,0,0,1-1.252,1.6c-1.738.4-2.008-.951-2.008-.951" transform="translate(-2023.096 -234.241)" fill="#fff"/>
            <path id="Trazado_887646" data-name="Trazado 887646" d="M2086.36,279.1a28.256,28.256,0,1,1-31.416-24.971A28.352,28.352,0,0,1,2086.36,279.1" transform="translate(-1687.24 -211.051)" fill="#e59f39"/>
            <path id="Trazado_887647" data-name="Trazado 887647" d="M2101.422,298.56a24.423,24.423,0,1,1-27.156-21.584,24.507,24.507,0,0,1,27.156,21.584" transform="translate(-1706.108 -230.065)" fill="#f7cc7f"/>
            <path id="Trazado_887648" data-name="Trazado 887648" d="M2140.708,338.521l-.7-4.528a22.26,22.26,0,0,1-5.863-.138,2.789,2.789,0,0,1-2.322-3.025l.018-.176a2.782,2.782,0,0,1,3.248-2.474,16.241,16.241,0,0,0,5.307.094c2.717-.419,4.414-1.754,4.12-3.66-.279-1.811-1.981-2.72-5.691-3.368-5.364-.93-9.21-2.777-9.923-7.4-.646-4.194,1.8-7.938,6.747-9.725l-.7-4.528,4.671-.72.647,4.194a20.561,20.561,0,0,1,4.445-.043,2.788,2.788,0,1,1-.679,5.535,14.808,14.808,0,0,0-4.278.052c-3.1.477-3.893,1.966-3.687,3.3.243,1.573,2.065,2.316,6.351,3.217,5.98,1.128,8.672,3.4,9.333,7.686.654,4.242-1.791,8.327-7.125,10.125l.749,4.862Z" transform="translate(-1769.325 -248.405)" fill="#e59f39"/>
            <g id="Grupo_1113827" data-name="Grupo 1113827" transform="translate(350.528 46.742)" opacity="0.3" style="mix-blend-mode: multiply;isolation: isolate">
              <g id="Grupo_1113826" data-name="Grupo 1113826">
                <g id="Grupo_1113825" data-name="Grupo 1113825" clip-path="url(#clip-path-7)">
                  <path id="Trazado_887649" data-name="Trazado 887649" d="M2093.441,276.977a24.282,24.282,0,0,0-17.632,11.066,24.215,24.215,0,0,1,15.747-8.508,24.67,24.67,0,0,1,23.435,37.832,24.667,24.667,0,0,0-21.55-40.39" transform="translate(-2075.809 -276.807)" fill="#f7cc7f"/>
                </g>
              </g>
            </g>
            <path id="Trazado_887650" data-name="Trazado 887650" d="M2260.518,392.7c1.021-.593,1.888-1.737,3.182-2.309a8.222,8.222,0,0,1,1.735-.47c5.122-.435,18.433-1.506,19.062-1.782.746-.326,13.5-8.766,13.5-8.766l-5.706-4.5-11.507,8.06c-.719.166-14.134,2.772-14.134,2.772s-2.707.6-4.129.81a9.484,9.484,0,0,1-1.862-.047,10.811,10.811,0,0,0-2.369.04c-.37.105-1.125.347-1.577.5s-.99.311-1.22.42a2.438,2.438,0,0,1-.735.089.409.409,0,0,0-.265.714,1.771,1.771,0,0,0,1.075.237c.879,0,2.19-.489,2.184-.355s-1.828,1.662-2.025,1.85a28.965,28.965,0,0,0-2.6,2.458c-.294.482-.044.745.271.668.272-.066,3.364-2.321,3.364-2.321s.4-.287.372-.026-2.827,2.313-3.189,2.7-.422.811.072.851c.6.049,3.46-2.325,3.46-2.325s.363-.291.426-.1-2.353,1.9-2.495,2.159a.387.387,0,0,0,.433.585,18.138,18.138,0,0,0,3.074-2.209s.238-.108.226.042-1.968,1.751-2.039,2.087a.268.268,0,0,0,.192.34c.509.241,2.2-1.579,3.217-2.172" transform="translate(-1872.554 -311.574)" fill="#f8a492"/>
            <path id="Trazado_887651" data-name="Trazado 887651" d="M2459.534,341.206s-1.767-1.655-2.812-2.9c-.7-.836-3.677-4.637-3.677-4.637s5.063-6.3,7.417-8.307c8.636-7.378,10.3,1.341,10.23,3.154-.165,4.054-11.157,12.693-11.157,12.693" transform="translate(-2038.816 -267.993)" fill="#0354a5"/>
            <path id="Trazado_887652" data-name="Trazado 887652" d="M561.73,910.734v11.607c0,1.877,20.933,3.4,46.756,3.4s46.756-1.521,46.756-3.4V910.734Z" transform="translate(-466.875 -756.945)" fill="#e59f39"/>
            <path id="Trazado_887653" data-name="Trazado 887653" d="M595.566,925.608V910.735H561.73v11.607c0,1.551,14.3,2.859,33.836,3.266" transform="translate(-466.875 -756.946)" fill="#eab054"/>
            <path id="Trazado_887654" data-name="Trazado 887654" d="M771.433,925.638c3.632.066,7.432.1,11.345.1,5.83,0,11.41-.078,16.557-.219V910.734h-27.9Z" transform="translate(-641.166 -756.945)" fill="#eab054"/>
            <path id="Trazado_887655" data-name="Trazado 887655" d="M947.76,925.465c16.658-.52,28.325-1.723,28.325-3.124V910.735H947.76Z" transform="translate(-787.718 -756.946)" fill="#eab054"/>
            <path id="Trazado_887656" data-name="Trazado 887656" d="M655.241,893.282c0,1.876-20.933,3.4-46.756,3.4s-46.756-1.521-46.756-3.4,20.933-3.4,46.756-3.4,46.756,1.521,46.756,3.4" transform="translate(-466.875 -739.616)" fill="#e59f39"/>
            <path id="Trazado_887657" data-name="Trazado 887657" d="M687.612,898.41c0,1.3-17.238,2.356-38.5,2.356s-38.5-1.055-38.5-2.356,17.238-2.356,38.5-2.356,38.5,1.055,38.5,2.356" transform="translate(-507.498 -744.744)" fill="#f7cc7f"/>
            <path id="Trazado_887658" data-name="Trazado 887658" d="M514.357,838V849.6c0,1.877,20.933,3.4,46.756,3.4s46.756-1.521,46.756-3.4V838Z" transform="translate(-427.501 -696.492)" fill="#e59f39"/>
            <path id="Trazado_887659" data-name="Trazado 887659" d="M548.193,852.871V838H514.357V849.6c0,1.551,14.3,2.859,33.836,3.266" transform="translate(-427.501 -696.492)" fill="#eab054"/>
            <path id="Trazado_887660" data-name="Trazado 887660" d="M724.061,852.9c3.632.066,7.432.1,11.345.1,5.83,0,11.41-.078,16.557-.219V838h-27.9Z" transform="translate(-601.794 -696.492)" fill="#eab054"/>
            <path id="Trazado_887661" data-name="Trazado 887661" d="M900.387,852.729c16.658-.52,28.325-1.723,28.325-3.123V838H900.387Z" transform="translate(-748.345 -696.492)" fill="#eab054"/>
            <path id="Trazado_887662" data-name="Trazado 887662" d="M607.869,820.546c0,1.876-20.933,3.4-46.756,3.4s-46.756-1.521-46.756-3.4,20.933-3.4,46.756-3.4,46.756,1.521,46.756,3.4" transform="translate(-427.502 -679.162)" fill="#e59f39"/>
            <path id="Trazado_887663" data-name="Trazado 887663" d="M640.238,825.674c0,1.3-17.238,2.356-38.5,2.356s-38.5-1.055-38.5-2.356,17.238-2.356,38.5-2.356,38.5,1.055,38.5,2.356" transform="translate(-468.124 -684.29)" fill="#f7cc7f"/>
            <path id="Trazado_887664" data-name="Trazado 887664" d="M545.92,763.328v11.607c0,1.876,20.933,3.4,46.756,3.4s46.756-1.521,46.756-3.4V763.328Z" transform="translate(-453.734 -634.431)" fill="#e59f39"/>
            <path id="Trazado_887665" data-name="Trazado 887665" d="M579.756,778.2V763.328H545.92v11.607c0,1.551,14.3,2.859,33.836,3.266" transform="translate(-453.734 -634.431)" fill="#eab054"/>
            <path id="Trazado_887666" data-name="Trazado 887666" d="M755.623,778.232c3.632.066,7.432.1,11.345.1,5.83,0,11.41-.078,16.557-.219V763.328h-27.9Z" transform="translate(-628.026 -634.431)" fill="#eab054"/>
            <path id="Trazado_887667" data-name="Trazado 887667" d="M931.95,778.059c16.658-.52,28.325-1.723,28.325-3.123V763.329H931.95Z" transform="translate(-774.578 -634.431)" fill="#eab054"/>
            <path id="Trazado_887668" data-name="Trazado 887668" d="M639.431,745.876c0,1.876-20.933,3.4-46.756,3.4s-46.756-1.521-46.756-3.4,20.933-3.4,46.756-3.4,46.756,1.521,46.756,3.4" transform="translate(-453.734 -617.101)" fill="#e59f39"/>
            <path id="Trazado_887669" data-name="Trazado 887669" d="M671.8,751c0,1.3-17.238,2.356-38.5,2.356S594.8,752.3,594.8,751s17.238-2.356,38.5-2.356S671.8,749.7,671.8,751" transform="translate(-494.357 -622.229)" fill="#f7cc7f"/>
            <path id="Trazado_887670" data-name="Trazado 887670" d="M514.357,689.681v11.607c0,1.877,20.933,3.4,46.756,3.4s46.756-1.521,46.756-3.4V689.681Z" transform="translate(-427.501 -573.22)" fill="#e59f39"/>
            <path id="Trazado_887671" data-name="Trazado 887671" d="M548.193,704.554V689.681H514.357v11.607c0,1.551,14.3,2.859,33.836,3.266" transform="translate(-427.501 -573.22)" fill="#eab054"/>
            <path id="Trazado_887672" data-name="Trazado 887672" d="M724.061,704.585c3.632.066,7.432.1,11.345.1,5.83,0,11.41-.078,16.557-.219V689.681h-27.9Z" transform="translate(-601.794 -573.22)" fill="#eab054"/>
            <path id="Trazado_887673" data-name="Trazado 887673" d="M900.387,704.412c16.658-.52,28.325-1.723,28.325-3.123V689.681H900.387Z" transform="translate(-748.345 -573.22)" fill="#eab054"/>
            <path id="Trazado_887674" data-name="Trazado 887674" d="M607.869,672.229c0,1.876-20.933,3.4-46.756,3.4s-46.756-1.521-46.756-3.4,20.933-3.4,46.756-3.4,46.756,1.521,46.756,3.4" transform="translate(-427.502 -555.891)" fill="#e59f39"/>
            <path id="Trazado_887675" data-name="Trazado 887675" d="M640.238,677.357c0,1.3-17.238,2.356-38.5,2.356s-38.5-1.055-38.5-2.356S580.471,675,601.735,675s38.5,1.055,38.5,2.356" transform="translate(-468.124 -561.019)" fill="#f7cc7f"/>
            <rect id="Rectángulo_406906" data-name="Rectángulo 406906" width="81.91" height="29.812" transform="translate(159.239 137.937)" fill="#50bfa5"/>
            <rect id="Rectángulo_406907" data-name="Rectángulo 406907" width="81.91" height="3.835" transform="translate(159.239 142.281)" fill="#96d9c9"/>
            <rect id="Rectángulo_406908" data-name="Rectángulo 406908" width="81.91" height="3.835" transform="translate(159.239 149.773)" fill="#96d9c9"/>
            <rect id="Rectángulo_406909" data-name="Rectángulo 406909" width="81.91" height="3.835" transform="translate(159.239 157.264)" fill="#96d9c9"/>
            <rect id="Rectángulo_406910" data-name="Rectángulo 406910" width="81.91" height="3.835" transform="translate(159.239 163.914)" fill="#96d9c9"/>
            <rect id="Rectángulo_406911" data-name="Rectángulo 406911" width="17.035" height="29.812" transform="translate(193.621 137.937)" fill="#f7cc7f"/>
            <rect id="Rectángulo_406912" data-name="Rectángulo 406912" width="12.37" height="29.812" transform="translate(147.863 137.937)" fill="#3c8f7c"/>
            <path id="Trazado_887676" data-name="Trazado 887676" d="M1422.22,482.391a3.434,3.434,0,0,1-.362.877,33.3,33.3,0,0,1-3.458,4.6l-1.869-4.212s.3-1.323.833-3.213c1.806.471,3.525.744,4.856,1.947" transform="translate(-1177.331 -399.315)" fill="#f8a492"/>
            <path id="Trazado_887677" data-name="Trazado 887677" d="M1386.751,397.86s10.427,4.49,10.764,4.4c.217-.055,4.277-6.85,4.32-13.241.02-2.952-3.045-6.5-6.465-5.8-1.722.354-1.7.833-4.242,4.534s-4.377,10.1-4.377,10.1" transform="translate(-1152.58 -318.437)" fill="#96d9c9"/>
            <path id="Trazado_887678" data-name="Trazado 887678" d="M1303.922,947.061s.247,4.095.249,4.1a22.429,22.429,0,0,1,.449,2.277c0,1.776-8.431-1.507-6.542-2.294.171-.071,1.067-.61,1.123-1.214.087-.931.307-2.815.307-2.815Z" transform="translate(-1078.652 -787.138)" fill="#f7a491"/>
            <path id="Trazado_887679" data-name="Trazado 887679" d="M1265.131,970.8s1.979.543,2.993.679,2.35-1.007,3.068-.7c.789.34.758,3.4.758,3.4s-10.615.871-13.6-.03c-1.183-.357,2.734-2.085,6.781-3.35" transform="translate(-1045.683 -806.808)" fill="#355389"/>
            <path id="Trazado_887680" data-name="Trazado 887680" d="M1406.059,947.061s.247,4.095.249,4.1a22.426,22.426,0,0,1,.449,2.277c0,1.776-8.431-1.507-6.542-2.294.171-.071,1.333-1.012,1.389-1.616.087-.931.041-2.413.041-2.413Z" transform="translate(-1163.541 -787.138)" fill="#f7a491"/>
            <path id="Trazado_887681" data-name="Trazado 887681" d="M1367.294,970.8s1.98.543,2.993.679,2.35-1.007,3.067-.7c.789.34.821,3.4.821,3.4s-10.663,1.015-13.662-.03c-1.164-.406,2.734-2.085,6.781-3.35" transform="translate(-1130.599 -806.808)" fill="#355389"/>
            <path id="Trazado_887682" data-name="Trazado 887682" d="M1334.781,347.166l-7.426-10.4c-.031-.091-.1-.277-.2-.562-.374-1.032-1.152-3.18-1.83-5.317l-.007-.023c-.213-.747-.664-2.05-1.1-3.31-.486-1.4-1.088-3.139-1.109-3.436.019-.051.054-.142.1-.262a23.991,23.991,0,0,0,.771-3.122c.083-.466.166-1.6-.388-1.6-.871,0-.456,1.131-.857,1.838a17.829,17.829,0,0,1-.6-2.357l-.146-2.212c-.028-.167.149-1.387-.462-1.387h-.029c-.549.04-.536,1.337-.765,3.531-.072-.252-.144-.557-.2-.837a8.033,8.033,0,0,0-.186-1.158c.11-.611.046-1.576-.6-1.485-.326.046-.3,1.391-.3,1.391,0,.185.023,1.607.013,1.888-.067-.477-.328-2.513-.839-2.513-.423,0-.458.548-.449.981.005.257.271,2.463.286,2.719-.2-.335-.436-2.279-.634-2.279-.826,0-.527,2.764-.224,3.484a3.286,3.286,0,0,1,.094.386,6.779,6.779,0,0,0,.708,2.056c.519.887,1.234,2.3,1.343,2.514.08.441.328,2.025.641,4.018.134.853.28,1.788.433,2.757h.008c.028.21.183.876.77,3.377a29.812,29.812,0,0,0,.923,3.633c.349.618,8.355,11.49,8.7,11.953l.2.273Z" transform="translate(-1094.84 -261.821)" fill="#f7a491"/>
            <path id="Trazado_887683" data-name="Trazado 887683" d="M1339.13,353.854s.6-1.541,1.676-1.544a1.234,1.234,0,0,0-1.113.191,2.124,2.124,0,0,0-.562,1.353" transform="translate(-1113 -292.771)" fill="#f47458"/>
            <path id="Trazado_887684" data-name="Trazado 887684" d="M1403.106,342.359l.956,6.045s-3.642,2.924-5.766,2.308c-1.781-.518-.56-2.847-.56-2.847s.949-3.227.658-4.919,4.712-.587,4.712-.587" transform="translate(-1161.371 -284.253)" fill="#f7a491"/>
            <path id="Trazado_887685" data-name="Trazado 887685" d="M1407.191,344.189a14.892,14.892,0,0,1-4.123,1.162,8.023,8.023,0,0,0,.1-2.4c-.134-.781.859-.965,1.968-.938,1.451.124,2.744.351,2.744.351l.184,1.162a3.005,3.005,0,0,1-.87.666" transform="translate(-1166.142 -284.256)" fill="#fe875e"/>
            <path id="Trazado_887686" data-name="Trazado 887686" d="M1405.38,286.814c.151,0-1.44,6.754-3.9,7.915s-6.131.556-6.819-1.263c-.762-2.012,2.017-8.9,5.478-9.777s5.242,3.124,5.242,3.124" transform="translate(-1159.048 -235.681)" fill="#f7a491"/>
            <path id="Trazado_887687" data-name="Trazado 887687" d="M1422.448,264.489a7.749,7.749,0,0,1,3.171,3.5c.922.438,2.039,1.385,2.574,3.936.659,3.137-1.683,5.555-4.167,6.283s-2.867,2.371-2.867,2.371l-.282-1.769a7,7,0,0,1,1.383-2.311c.831-.771-.393-1.894-.5-2.81-.083-.706.437-2.075.324-3.233a7.988,7.988,0,0,0-2.74-2.608c-2.319-.881.582-4.819,3.1-3.364" transform="translate(-1178.964 -219.562)" fill="#13375b"/>
            <path id="Trazado_887688" data-name="Trazado 887688" d="M1434.842,321.967c-.322.78-.19,1.554.293,1.73s1.137-.315,1.458-1.095.19-1.554-.294-1.73-1.137.315-1.458,1.095" transform="translate(-1192.404 -266.66)" fill="#f7a491"/>
            <path id="Trazado_887689" data-name="Trazado 887689" d="M1310.927,474.714l-14.324-2.335s1.63-4.1,2.212-4.1,10.831,4.474,10.831,4.474l.815,1.637Z" transform="translate(-1077.655 -389.202)" fill="#f8a492"/>
            <path id="Trazado_887690" data-name="Trazado 887690" d="M1370.421,561.337s1.429,6.908.847,12.145-.628,23.844-.628,23.844l2.222,29.77-5.272.115s-6.252-29.755-6.135-28.991-2.1-20.951-2.1-20.951l7.453-16.586Z" transform="translate(-1129.813 -466.004)" fill="#13375b"/>
            <path id="Trazado_887691" data-name="Trazado 887691" d="M1314,551.341s.932,6.22-.233,8.948-9.988,29.494-10.1,31.677-3.051,26.3-3.051,26.3l-6.13-.173-1.326-26.819,2.777-33.707,2.7-8.522Z" transform="translate(-1074.786 -456.336)" fill="#0354a5"/>
            <path id="Trazado_887692" data-name="Trazado 887692" d="M1406.073,370.273a5.505,5.505,0,0,1-2.922.877,9.716,9.716,0,0,1-3.4-1.416l.277-.939s3.647-.531,3.74-.474,2.309,1.952,2.309,1.952" transform="translate(-1163.382 -306.122)" fill="#f7a491"/>
            <path id="Trazado_887693" data-name="Trazado 887693" d="M1293.607,442.128s-5.418,5.113-7.863,4.24-3.458-3.857,2.509-8.222c5.34-3.907,5.354,3.983,5.354,3.983" transform="translate(-1067.029 -363.256)" fill="#f8a492"/>
            <path id="Trazado_887694" data-name="Trazado 887694" d="M1310.877,397.8c.805-4.379,6.638-18,7.1-20.514.227-1.221,3.373-1.248,6.37-1.088,3.166.168,6.31.569,6.31.569s2.8.46,4.035,1.616,1.56,4.35-.212,10.415c-1.4,4.788-3.134,7.417-3.992,10.9-.174,1.17-.323,2.324-.52,3.672-.316,5.215,0,12.1,0,12.1s-15.256,3.164-20.962-1.637c0,0,1.039-11.554,1.863-16.04" transform="translate(-1087.97 -312.613)" fill="#92d8fe"/>
            <path id="Trazado_887695" data-name="Trazado 887695" d="M1297.012,389.243s5.986,4.941,6.336,4.941c.225,0,8.542-6.118,10.462-11.145,1.061-2.779-1.165-5.888-3.708-5.878-1.763.007-2.546.461-6.04,3.408s-7.05,8.674-7.05,8.674" transform="translate(-1077.995 -313.474)" fill="#0354a5"/>
            <path id="Trazado_887696" data-name="Trazado 887696" d="M1399.8,327.86a.986.986,0,0,0,.57,1.245c1.081.542,1.474-.293,1.474-.293Z" transform="translate(-1163.382 -272.497)" fill="#fff"/>
            <path id="Trazado_887697" data-name="Trazado 887697" d="M414.36,229.517a28.274,28.274,0,0,1-.988,3.7c-.23.523-1.241,2.541-1.241,2.541l-.471,5.484-4.145-.55s1.4-3.952.928-5.138a12.318,12.318,0,0,1-.582-3.383c.081-1.67,6.5-2.657,6.5-2.657" transform="translate(-338.701 -190.761)" fill="#f7a491"/>
            <path id="Trazado_887698" data-name="Trazado 887698" d="M141.995,247.032s4.2,2.713,5.009,3.448c.424.386,2.173,1.825,2.173,1.825l2.673,4.825,3.564-2.167s-2.9-3.05-2.949-4.326a12.317,12.317,0,0,0-.851-3.326c-.757-1.495-9.62-.279-9.62-.279" transform="translate(-118.017 -204.93)" fill="#f7a491"/>
            <path id="Trazado_887699" data-name="Trazado 887699" d="M288.3,344.33a2.333,2.333,0,0,0-3.9.488,1.737,1.737,0,0,0-2.276.581s-2.417-.721-3,2.86a1.208,1.208,0,0,0-1.408,1.232,3.6,3.6,0,0,0,.587,2.441s-.7.519-.381,1.866a1.675,1.675,0,0,0,1.226,1.32s.258,1.93,1.1,2.511a2.778,2.778,0,0,0,1.995.3,1.3,1.3,0,0,0,1.291.953c.986-.093,2.206-1.023,3.309-.6s3.966-.023,3.966-.023,3.215-1.418,2.253-4.673a2.367,2.367,0,0,0,.211-3.325s1.079-2.837-1.056-4.511a5.605,5.605,0,0,0-3.919-1.418" transform="translate(-230.797 -285.461)" fill="#07345a"/>
            <path id="Trazado_887700" data-name="Trazado 887700" d="M161.287,816.686a32.7,32.7,0,0,1-4.339-.721c-.617-.3-3.742,2.657-3.122,4.14.349.836,1.453.729,1.453.729l.893-.863,4.723.976Z" transform="translate(-127.783 -678.161)" fill="#f7a491"/>
            <path id="Trazado_887701" data-name="Trazado 887701" d="M311.357,912.373a32.125,32.125,0,0,1-2.5,3.59c-.535.427.846,4.483,2.465,4.554.912.04,1.282-1,1.282-1l-.412-1.167,2.891-3.827Z" transform="translate(-256.608 -758.307)" fill="#f7a491"/>
            <path id="Trazado_887702" data-name="Trazado 887702" d="M291.577,932.9a24.586,24.586,0,0,0,1.741,1.989,20.665,20.665,0,0,0,1.809,1.445s1.15,2.069,1.465,2.79c.7,1.607,1.486,3.4,1.373,4.3-.036.289-.691.594-1.237.428-2.272-.692-8.081-5.957-8.815-7.371-.846-1.63,3.665-3.58,3.665-3.58" transform="translate(-239.206 -775.366)" fill="#3c8f7c"/>
            <path id="Trazado_887703" data-name="Trazado 887703" d="M328.3,639.526c-.211-.585-.414-1.126-.609-1.635-2.417.523-5.146,1.1-7.954,1.69l-.342,10.2c0-.788,2.111,16.263,2.111,16.263s-5.736,11.287-9.467,18.262a15.1,15.1,0,0,0,4.926,4.013c5.793-6.88,13.195-19.006,13.51-21.1.181-1.2.344-20.668-2.175-27.689" transform="translate(-259.346 -530.175)" fill="#0354a5"/>
            <path id="Trazado_887704" data-name="Trazado 887704" d="M199.4,650.794c.657,7.068,1.743,17.768,1.941,21.368-4.612.659-15.51,3.906-17.541,3.9a8.1,8.1,0,0,0-.661,5.481c.106.336,21.5,1.011,27.019-2.48,1.44-.911,1.884-10.673,1.906-20.969l.342-10.2c-4.678.988-8.98,1.957-13.006,2.894" transform="translate(-152.014 -538.494)" fill="#0354a5"/>
            <path id="Trazado_887705" data-name="Trazado 887705" d="M292.9,450.568l-5.249.784s-3.956.061-5.013.071c-.092,0-4.21,19.9-5.211,27.392s-.226,8.816-.226,8.816,6.982,1.556,12.147,1.1c5.371-.471,11.414-3.345,11.414-3.345s-4.933-14.6-5.843-19.091-2.02-15.73-2.02-15.73" transform="translate(-230.157 -374.484)" fill="#96d9c9"/>
            <path id="Trazado_887706" data-name="Trazado 887706" d="M356.5,282.915s-.461,18.437-1.026,19.572c-.821,1.651-6.693,13.422-6.693,13.422s4.417,18.314,6.274,24.638c.187.637,1.015,4.751,1.015,5.152,0,.889-3.908,2.018-4.372,1.951-.415-.06-3.825-17.481-6-26.005a24.281,24.281,0,0,0-3.734-8.055l-1.514-2.131,8.972-10.757s1.942-17.023,1.942-18.087c0-.279,4.573-.747,5.136.3" transform="translate(-282.957 -234.603)" fill="#f7cc7f"/>
            <path id="Trazado_887707" data-name="Trazado 887707" d="M206.628,316.464l-8.989-13.43s-5.834-14.11-5.977-14.631-4.727.073-6.177-.066c-.465-.045,6.108,14.812,6.8,17.289.819,2.926,5.207,14.372,5.207,14.372s3.032,6.854,2.559,12.149c-.785,8.8-2.343,21.471-1.964,21.85,2.354,1.469,9.762,1.416,10.334.5,6.315-10.076-1.794-38.036-1.794-38.036" transform="translate(-154.143 -239.525)" fill="#f7cc7f"/>
            <path id="Trazado_887708" data-name="Trazado 887708" d="M315.459,417.03l.391,2.873s.876,4.139-.251,4.937-4.79-5.055-4.79-5.055l.387-7.279Z" transform="translate(-258.325 -342.849)" fill="#f7a491"/>
            <path id="Trazado_887709" data-name="Trazado 887709" d="M312.36,414.864a8.3,8.3,0,0,0,4.72,4.6l-.331-2.436-4.263-4.525Z" transform="translate(-259.614 -342.849)" fill="#f47458"/>
            <path id="Trazado_887710" data-name="Trazado 887710" d="M277.6,373.326c0,1.109.636,2.007,1.421,2.007s1.421-.9,1.421-2.007-.636-2.007-1.421-2.007-1.421.9-1.421,2.007" transform="translate(-230.724 -308.617)" fill="#07345a"/>
            <path id="Trazado_887711" data-name="Trazado 887711" d="M302.853,351.975c0,.637.774,1.154,1.729,1.154s1.729-.517,1.729-1.154-.774-1.154-1.729-1.154-1.729.517-1.729,1.154" transform="translate(-251.712 -291.581)" fill="#07345a"/>
            <path id="Trazado_887712" data-name="Trazado 887712" d="M309.861,366.195a3.876,3.876,0,0,1,5.071,3.059,28.758,28.758,0,0,1,.314,3.686c.061,3.355-1.692,6.621-3.23,6.621s-5.788-2.172-5.942-6.935c-.095-2.941,1.387-5.613,3.786-6.43" transform="translate(-254.386 -304.186)" fill="#f7a491"/>
            <path id="Trazado_887713" data-name="Trazado 887713" d="M301.917,400.93a1.127,1.127,0,1,1-1.106-1.34,1.24,1.24,0,0,1,1.106,1.34" transform="translate(-249.096 -332.115)" fill="#f7a491"/>
            <path id="Trazado_887714" data-name="Trazado 887714" d="M343.651,352.285c1.589,1.247,2.145,3.141,1.243,4.231s-2.921.963-4.509-.284-2.145-3.141-1.243-4.231,2.921-.963,4.509.284" transform="translate(-281.515 -291.945)" fill="#07345a"/>
            <path id="Trazado_887715" data-name="Trazado 887715" d="M328.857,358.554c0,.542-.66.981-1.475.981s-1.475-.439-1.475-.981.66-.981,1.475-.981,1.475.439,1.475.981" transform="translate(-270.873 -297.193)" fill="#07345a"/>
            <path id="Trazado_887716" data-name="Trazado 887716" d="M356.97,381.865a1.259,1.259,0,1,1-1.259-1.261,1.26,1.26,0,0,1,1.259,1.261" transform="translate(-294.598 -316.335)" fill="#07345a"/>
            <path id="Trazado_887717" data-name="Trazado 887717" d="M133.723,805.8a24.461,24.461,0,0,0-1.083,2.4,20.339,20.339,0,0,0-.556,2.235s-1.405,1.908-1.932,2.5c-1.173,1.308-2.61,2.856-3.481,3.134-.28.09-1.073-.146-1.066-.756.029-2.355,2.311-10.032,3.293-11.289,1.133-1.449,4.825,1.775,4.825,1.775" transform="translate(-104.396 -667.947)" fill="#3c8f7c"/>
            <path id="Trazado_887718" data-name="Trazado 887718" d="M162.792,258.69a4.707,4.707,0,0,0,2.4,1.409,3.244,3.244,0,0,0,2.465-1.158Z" transform="translate(-135.302 -215.007)" fill="#f47458"/>
            <path id="Trazado_887719" data-name="Trazado 887719" d="M411.736,241.179l.233.354s3.514.124,4.981-1.153Z" transform="translate(-342.209 -199.79)" fill="#f47458"/>
            <path id="Trazado_887720" data-name="Trazado 887720" d="M6.142,6.138A221.493,221.493,0,0,0,91.355,0l7.17,35.6A256.1,256.1,0,0,1,0,42.7L6.142,6.138" transform="translate(0 -0.003)" fill="#3c8f7c"/>
            <path id="Trazado_887721" data-name="Trazado 887721" d="M106.734,24.693l4.3,22.267c-2.957.773-5,3.518-4.549,6.208a254.246,254.246,0,0,1-82.607,5.948,5.066,5.066,0,0,0-4.717-5.541l3.654-22.84a5.168,5.168,0,0,0,5.633-4.457,223.271,223.271,0,0,0,72.542-5.223,4.54,4.54,0,0,0,5.748,3.637" transform="translate(-15.923 -17.501)" fill="#96d9c9"/>
            <path id="Trazado_887722" data-name="Trazado 887722" d="M200.672,94.54a14.169,14.169,0,0,1,13.144-13.079,12.315,12.315,0,0,1,13.3,11.392c.476,6.913-5.4,13.326-13.138,13.816s-13.694-5.161-13.309-12.129" transform="translate(-166.771 -67.683)" fill="#50bfa5"/>
            <path id="Trazado_887723" data-name="Trazado 887723" d="M250.426,94.328q.041,1.13.082,2.26a11.731,11.731,0,0,1,2.922.219,1.3,1.3,0,0,1,1.008,1.547l-.018.087a1.5,1.5,0,0,1-1.772,1.153,8.635,8.635,0,0,0-2.675-.189c-1.394.126-2.337.724-2.314,1.677.023.9.827,1.417,2.686,1.846,2.686.613,4.574,1.59,4.7,3.894.119,2.086-1.37,3.91-4.1,4.667q.044,1.13.089,2.259-1.269.118-2.539.222-.031-1.047-.062-2.095a11.071,11.071,0,0,1-2.353-.132,1.291,1.291,0,0,1-1.076-1.6,1.578,1.578,0,0,1,1.821-1.112,7.925,7.925,0,0,0,2.242.116c1.655-.143,2.161-.864,2.134-1.528-.031-.787-.937-1.195-3.094-1.78-3.017-.76-4.222-2.01-4.243-4.152-.018-2.125,1.5-4.023,4.273-4.727q-.032-1.214-.064-2.429,1.176-.1,2.351-.206" transform="translate(-202.686 -78.4)" fill="#3c8f7c"/>
            <path id="Trazado_887724" data-name="Trazado 887724" d="M379.961,124.787q9.991-1.358,19.916-3.558.27,1.739.541,3.478-10.056,2.231-20.2,3.608l-.262-3.528" transform="translate(-315.8 -100.758)" fill="#50bfa5"/>
            <path id="Trazado_887725" data-name="Trazado 887725" d="M59.684,149.354q9.944.919,19.957.986l-.21,3.558q-10.144-.068-20.237-1l.49-3.544" transform="translate(-49.198 -124.134)" fill="#50bfa5"/>
            <path id="Trazado_887726" data-name="Trazado 887726" d="M187.495,245.319a3.473,3.473,0,0,0,1.076-2.243c.008-.17-.459-1.685.129-1.788.978-.17,1.4,4.361,1.4,4.361a6.7,6.7,0,0,0-2.606-.331" transform="translate(-155.834 -200.541)" fill="#f7a491"/>
            <path id="Trazado_887727" data-name="Trazado 887727" d="M420.844,228.54a22.509,22.509,0,0,0,3.371-3.724c.077-.151.269-1.725.849-1.583.964.237-.238,3.653-.238,3.653s-2.786,2.014-3.981,1.653" transform="translate(-349.779 -185.531)" fill="#f7a491"/>
            <path id="Trazado_887728" data-name="Trazado 887728" d="M777.547,350.544c-1.058-2.547-2.135-5.1-4.881-6.389a6.145,6.145,0,0,0-6.519.834c-5.6,4.207-.72,8.843-7.089,16.822-1.979,2.479-4.374,4.481-5.56,7.386-1.66,4.066.317,6.019,3.485,7.967,15.16,9.318,23.107-9.814,22.822-14.191-.212-3.256-1.577-10.788-2.258-12.428" transform="translate(-625.76 -285.553)" fill="#13375b"/>
            <path id="Trazado_887729" data-name="Trazado 887729" d="M914.157,518.522c-.639-.1-2.191-1.213-2.739-1.314-.425-.079-1.343-.217-1.734-.276-.479-1.79-2.914-11.551-3.187-14.412-.3-3.1-2.487-16.51-2.487-16.51l-5.676,1.032s2.357,10.316,3.009,15.318c.56,4.3,5.274,13.957,5.873,14.976,0,.025,0,.048,0,.074.091,1.516.822,1.011.822,1.011l1.187.3s4.2.4,4.474.506,1.1-.607.457-.708" transform="translate(-746.638 -403.941)" fill="#f7a491"/>
            <path id="Trazado_887730" data-name="Trazado 887730" d="M882.453,439.588c4.012,1.361,6.294,12.269,6.294,12.269s-6.3,1.758-7.908.836c0,0-1.831-8.115-2.487-7.831Z" transform="translate(-730.031 -365.358)" fill="#e5b05c"/>
            <path id="Trazado_887731" data-name="Trazado 887731" d="M1086.441,790.153a42.943,42.943,0,0,1,1.922,6.734c.028.181-.229,1.062-.2,1.25,2.464,3.362,6.006,4.1,9.042,4.312-1.547-1.511-3.819-2.942-3.929-3.42a59.422,59.422,0,0,1-1.568-8.852c-1.889.874-3.17.181-5.263-.023" transform="translate(-902.981 -656.726)" fill="#f7a491"/>
            <path id="Trazado_887732" data-name="Trazado 887732" d="M852.955,575.635l-5.423,15.272s8.714,1.64,11.972,2.238,21.459,1.392,21.921,1.716c.342.24,4.1,12.4,5.782,19.106a15.779,15.779,0,0,0,6.9-.682c-.937-9.594-4.323-24.8-5.407-26.45-1.766-2.7-35.746-11.2-35.746-11.2" transform="translate(-704.415 -478.432)" fill="#13375b"/>
            <path id="Trazado_887733" data-name="Trazado 887733" d="M1005.091,829.8a42.917,42.917,0,0,1,.626,6.975c-.007.183-.423,1-.435,1.189,1.791,3.764,5.132,5.15,8.075,5.93-1.237-1.774-3.2-3.606-3.218-4.1a59.391,59.391,0,0,1,.118-8.989c-2.019.5-3.148-.416-5.166-1.009" transform="translate(-835.368 -689.678)" fill="#f7a491"/>
            <path id="Trazado_887734" data-name="Trazado 887734" d="M824.843,580.33l-2.1,3.592a10.3,10.3,0,0,0,5.161,14.8l.094.037c3.088,1.2,20.818,5.389,21.211,5.793.291.3,1.706,12.95,2.1,19.851a15.775,15.775,0,0,0,6.908.623c.877-9.6.4-25.166-.355-26.995-1.229-2.978-33.014-17.7-33.014-17.7" transform="translate(-682.634 -482.334)" fill="#0354a5"/>
            <path id="Trazado_887735" data-name="Trazado 887735" d="M995.682,871.424c-.472-.521-2.205,2.348-2.638,2.96a1.369,1.369,0,0,0-.29,1.315c.154.284,9.293,5.661,11.522,6.044a1.121,1.121,0,0,0,.667-.178c.871-.771-3.139-6.465-4.939-7.213a8.64,8.64,0,0,1-4.322-2.929" transform="translate(-825.061 -724.221)" fill="#f47458"/>
            <path id="Trazado_887736" data-name="Trazado 887736" d="M1088.606,830.451c-.562-.424-1.726,2.72-2.037,3.4a1.369,1.369,0,0,0-.038,1.347c.2.25,10.189,3.819,12.45,3.778a1.123,1.123,0,0,0,.622-.3c.711-.921-4.294-5.762-6.2-6.16a8.642,8.642,0,0,1-4.794-2.067" transform="translate(-902.933 -690.187)" fill="#f47458"/>
            <path id="Trazado_887737" data-name="Trazado 887737" d="M830.129,438.266h0a1.5,1.5,0,0,0,.4-.083,6.988,6.988,0,0,1,3.642.206c1.542.651,3.931,6.729,3.789,12.967-.057.954-.115,1.808-.164,2.4-.389,4.713-1.741,13.555-1.814,13.6-1.839,1.183-12.936-3.406-13.7-4.414s-1.212-13.257-1.583-13.868l-.729-10.653c1.287-.384,8.181-.175,10.154-.161" transform="translate(-681.511 -364.068)" fill="#f7cc7f"/>
            <path id="Trazado_887738" data-name="Trazado 887738" d="M853.471,406.683a28.38,28.38,0,0,1,.571,5.153c-.143,1.458.545,6.156,3.631,6.171s.586-5.973.3-7.4a54.662,54.662,0,0,1-.359-5.85Z" transform="translate(-709.351 -336.408)" fill="#f7a491"/>
            <path id="Trazado_887739" data-name="Trazado 887739" d="M857.672,406.975c-.048-1.21-.064-2.219-.064-2.219l-4.138,1.927s.146.756.293,1.719a3.613,3.613,0,0,0,3.909-1.427" transform="translate(-709.351 -336.408)" fill="#f47458"/>
            <path id="Trazado_887740" data-name="Trazado 887740" d="M832.9,353.366a5.126,5.126,0,0,0-2.177,2.8c-.583,1.917.08,6.864,4.2,8.058s5.9-2.723,5.055-5.786-2.693-6.941-7.077-5.074" transform="translate(-690.292 -293.29)" fill="#f7a491"/>
            <path id="Trazado_887741" data-name="Trazado 887741" d="M880.872,371.022c-.081.823-.534,1.451-1.014,1.4s-.8-.752-.721-1.574.535-1.451,1.014-1.4.8.752.722,1.574" transform="translate(-730.672 -307.06)" fill="#f7a491"/>
            <path id="Trazado_887742" data-name="Trazado 887742" d="M825.948,354.289s-.747,5.519-2.531,6.515-1.037,3.444-1.037,3.444-1.618-5.685-.208-7.51a7.853,7.853,0,0,1,3.776-2.448" transform="translate(-682.858 -294.463)" fill="#13375b"/>
            <path id="Trazado_887743" data-name="Trazado 887743" d="M828.2,393.432c.484.719.482,1.567,0,1.894s-1.272.009-1.756-.71-.482-1.567,0-1.894,1.272-.009,1.756.71" transform="translate(-686.585 -326.3)" fill="#f7a491"/>
            <path id="Trazado_887744" data-name="Trazado 887744" d="M859.894,399.377l-2.9.731a1.319,1.319,0,0,0,1.635.819c1.568-.346,1.268-1.549,1.268-1.549" transform="translate(-712.277 -331.937)" fill="#fff"/>
            <path id="Trazado_887745" data-name="Trazado 887745" d="M712.97,515.392c.052-.132.168-.135.286-.138a29.188,29.188,0,0,0,3.435-.257,2.483,2.483,0,0,0,.552-.141,1.44,1.44,0,0,1,.95-.035,1.921,1.921,0,0,0,.528.056c.577,0,2.225-.563,3.071-.711a.5.5,0,0,0,.395-.37c.833-3.293,2.619-10.682,2.85-13.112.3-3.107,2.442-17.115,2.442-17.115l5.741,1.6s-2.363,10.34-3.016,15.354c-.5,3.872-4.374,12.087-5.587,14.45a2.422,2.422,0,0,1-2.231,1.845.713.713,0,0,0-.455.243,3.211,3.211,0,0,1-.724.63,1.693,1.693,0,0,0-.494.492c-.244.356-.462.728-.678,1.1-.143.247-.293.326-.505.267a.451.451,0,0,1-.332-.508,2.275,2.275,0,0,1,.343-1.131.615.615,0,0,0-.046-.82,2.578,2.578,0,0,0-.431-.479.742.742,0,0,0-.587-.214,9.449,9.449,0,0,1-1.252.233l-.347.071-.189.04c-.029.008-.64.075-.849.075-.168,0-.44.011-.672.023a3.717,3.717,0,0,1-.667-.1.811.811,0,0,1-.536-.215c-.062-.056-.122-.119-.09-.214a.213.213,0,0,1,.186-.14,8.159,8.159,0,0,0,.843-.142c-.212,0-.875-.016-1.086-.021a1,1,0,0,1-.729-.321c-.078-.084-.168-.166-.116-.3" transform="translate(-592.563 -401.913)" fill="#f7a491"/>
            <path id="Trazado_887746" data-name="Trazado 887746" d="M794.111,440.146c-2.833-.515-5.171,12.162-5.171,12.162s6.3,1.758,7.908.836c0,0,1.831-8.115,2.487-7.831Z" transform="translate(-655.717 -365.809)" fill="#f7cc7f"/>
            <path id="Trazado_887747" data-name="Trazado 887747" d="M639.164,122.892l-2.993.07a1.32,1.32,0,0,0,1.413,1.16c1.606.01,1.58-1.23,1.58-1.23" transform="translate(-528.745 -102.141)" fill="#fff"/>
          </g>
        </g>
      </g>
    </g>
  </g>
</svg>
