<svg xmlns="http://www.w3.org/2000/svg" xmlns:xlink="http://www.w3.org/1999/xlink" width="150" height="150" viewBox="0 0 150 150">
  <defs>
    <clipPath id="clip-path">
      <rect id="Rectángulo_404919" data-name="Rectángulo 404919" width="150" height="150" fill="none"/>
    </clipPath>
    <clipPath id="clip-path-2">
      <rect id="Rectángulo_404925" data-name="Rectángulo 404925" width="60" height="60" fill="#fff" stroke="#707070" stroke-width="1"/>
    </clipPath>
    <clipPath id="clip-path-3">
      <rect id="Rectángulo_406753" data-name="Rectángulo 406753" width="55.472" height="55.639" fill="#fafafa"/>
    </clipPath>
  </defs>
  <g id="Grupo_1113908" data-name="Grupo 1113908" transform="translate(-179.664 -3667)">
    <g id="Grupo_1110094" data-name="Grupo 1110094" transform="translate(179.664 3667)">
      <g id="Grupo_1110058" data-name="Grupo 1110058" clip-path="url(#clip-path)">
        <path id="Trazado_883529" data-name="Trazado 883529" d="M4.9,35.444l16.68,92.369c2.45,13.569,15.941,22.669,30.131,20.326a26.632,26.632,0,0,0,12.25-5.412l75.316-60a24.187,24.187,0,0,0,3.343-35.112A26.093,26.093,0,0,0,131.6,40.179l-92-32.37C26.088,3.052,11.1,9.673,6.129,22.593A23.9,23.9,0,0,0,4.9,35.444" transform="translate(1.335 1.494)" fill="#023263"/>
        <path id="Trazado_883530" data-name="Trazado 883530" d="M147.8,106.113h0a25.748,25.748,0,0,1-7.478,9.933,26.908,26.908,0,0,1-12.278,5.565l-96.3,17.565C17.29,141.859,3.294,132.824.488,119a24.44,24.44,0,0,1,1.024-13.323L33.758,17.153c.15-.414.312-.827.483-1.23A26.285,26.285,0,0,1,54.641.349,28.053,28.053,0,0,1,67.719,1.371a26.574,26.574,0,0,1,11.5,7.495l64.049,70.958a24.474,24.474,0,0,1,4.536,26.289M35.441,16.39c-.162.385-.319.78-.461,1.174L2.735,106.084c-4.616,12.681,2.393,26.539,15.655,30.954a26.549,26.549,0,0,0,13.119.921L127.8,120.4c13.792-2.515,22.841-15.245,20.212-28.434a23.893,23.893,0,0,0-5.728-11.33L78.237,9.675A26.243,26.243,0,0,0,42.374,7.159a24.372,24.372,0,0,0-6.933,9.231" transform="translate(0 0)" fill="#41c9a5"/>
      </g>
    </g>
    <g id="Enmascarar_grupo_1108078" data-name="Enmascarar grupo 1108078" transform="translate(224.664 3712)" clip-path="url(#clip-path-2)">
      <g id="Grupo_1113911" data-name="Grupo 1113911" transform="translate(2.264 2)">
        <g id="Grupo_1113683" data-name="Grupo 1113683" clip-path="url(#clip-path-3)">
          <path id="Trazado_887164" data-name="Trazado 887164" d="M22.331,14.919h9.607c.253,0,1.35.9,1.35,1.193V27.962a15.343,15.343,0,0,1,12.424-1.073c12.914,4.574,13.044,23.137.2,27.8-12.231,4.438-23.4-7.382-18.978-19.407h-4.6c.058,1.2.122,3.317-1.386,3.621a25.573,25.573,0,0,1-4.689,0c-.52-.094-1.387-.84-1.387-1.314V35.278H7.643l-.238.239V37.9c0,.313-1.006.968-1.358,1.026a26.674,26.674,0,0,1-4.279.008A1.758,1.758,0,0,1,.111,37.415a38.393,38.393,0,0,1,.026-6.156c.264-1.5,1.836-1.485,1.879-1.645V16.28c-.067-.47,1.049-1.361,1.34-1.361h2.3V1.48A2.081,2.081,0,0,1,7.322.124c4.19.3,8.9-.389,13.03,0a1.848,1.848,0,0,1,1.637.9,7.346,7.346,0,0,1,.342.771ZM10.263,2.036H7.4V14.681l.238.239H20.425V2.036H17.567V7.683a3.319,3.319,0,0,1-.747.682c-1.419.426-2.274-1.16-2.948-1.06-.868.485-2.243,1.741-3.219.782a2.546,2.546,0,0,1-.39-.723Zm5.558,0H12.168V6.172c1.457-1.251,2.177-1.082,3.652,0ZM6.611,16.828H3.753V29.711H16.773V16.828H13.915v5.487a1.915,1.915,0,0,1-.573.7c-1.448.829-2.243-.878-3.011-.941-.8-.066-1.71,1.763-3.147.941a1.918,1.918,0,0,1-.573-.7Zm5.558,0H8.357v4.135c1.556-1.141,2.254-1.142,3.811,0Zm9.21,0H18.52V29.711H30.985a3.127,3.127,0,0,0,.556-.318V16.828H28.682v5.487a3.055,3.055,0,0,1-.545.727c-1.339.806-2.326-.938-3.027-.959-.756-.023-1.733,1.747-3.159.931a1.916,1.916,0,0,1-.573-.7Zm5.558,0H23.125v4.135c.66-.127,1.276-1,1.973-.953.544.036,1.316.749,1.838.953ZM38.809,28.006C30.9,28.9,26.037,37.526,28.48,44.944a12.941,12.941,0,0,0,20.443,5.916c10.05-8.336,3.145-24.354-10.114-22.855M29.159,31.62H2.006v5.567H5.658V34.722c0-.55,1.3-1.265,1.84-1.338a47.248,47.248,0,0,1,7.57.024c1.924.324,1.752,2.249,1.705,3.779h3.652V34.881a2.3,2.3,0,0,1,.714-1.035c1.342-1.026,5.084-.192,6.8-.5Z" transform="translate(0 0)" fill="#fafafa"/>
          <path id="Trazado_887165" data-name="Trazado 887165" d="M203.385,188.454a2.475,2.475,0,0,1,.3,2.028l-13.029,13.193c-1.706.887-2.53.1-3.173-1.435a11.139,11.139,0,0,1,12.339-15.223,10.343,10.343,0,0,1,3.567,1.437m-14.718,7.586a9.419,9.419,0,0,0,.6,5.679c.115.2.223.5.513.291l12.057-12.1c.08-.358-1.1-.73-1.388-.819a10.024,10.024,0,0,0-6.366.291c-.254,1.512.472,4.921-.517,6.084a3.179,3.179,0,0,1-.852.578Zm3.493-1.75v-3.658a7,7,0,0,0-2.858,3.658Z" transform="translate(-156.968 -157.103)" fill="#fafafa"/>
          <path id="Trazado_887166" data-name="Trazado 887166" d="M232.186,217.972c1.549-.144,2.363,2.112,2.662,3.306a11.113,11.113,0,0,1-14.294,13.364c-1.609-.532-3.387-1.517-2.143-3.423l12.7-12.727a2.282,2.282,0,0,1,1.075-.519m.2,1.876-12.31,12.57c8.071,3.858,16.138-4.547,12.31-12.57" transform="translate(-183.378 -183.298)" fill="#fafafa"/>
          <path id="Trazado_887167" data-name="Trazado 887167" d="M59.161,157.855c1.385-.254,1.491,2.093.766,2.529-1.678,1.009-2.112-2.282-.766-2.529" transform="translate(-49.098 -132.731)" fill="#fafafa"/>
          <path id="Trazado_887168" data-name="Trazado 887168" d="M36.855,157.924c.378.378.5,2.453-.575,2.585s-1.15-1.465-.941-2.192a.991.991,0,0,1,1.516-.393" transform="translate(-29.647 -132.628)" fill="#fafafa"/>
          <path id="Trazado_887169" data-name="Trazado 887169" d="M83.241,67.2c-2.176,1.239-2.285-3.019-.4-2.479.826.236.705,1.845.4,2.479" transform="translate(-68.57 -54.389)" fill="#fafafa"/>
          <path id="Trazado_887170" data-name="Trazado 887170" d="M59.127,64.851c1.525-.28,1.5,2.5.431,2.68-1.554.265-1.571-2.471-.431-2.68" transform="translate(-49.064 -54.52)" fill="#fafafa"/>
          <path id="Trazado_887171" data-name="Trazado 887171" d="M152.12,157.856c1.718-.315,1.583,3.427-.273,2.6-.769-.345-.72-2.413.273-2.6" transform="translate(-127.29 -132.733)" fill="#fafafa"/>
          <path id="Trazado_887172" data-name="Trazado 887172" d="M130.026,158.081c.845.8.337,3.265-1.283,2.355-.35-.222-.353-1.728-.185-2.08a1.065,1.065,0,0,1,1.468-.275" transform="translate(-108.054 -132.781)" fill="#fafafa"/>
        </g>
      </g>
    </g>
  </g>
</svg>
