<svg xmlns="http://www.w3.org/2000/svg" xmlns:xlink="http://www.w3.org/1999/xlink" width="70" height="70" viewBox="0 0 70 70">
  <defs>
    <clipPath id="clip-path">
      <rect id="Rectángulo_406917" data-name="Rectángulo 406917" width="37.777" height="42.86" fill="#023263"/>
    </clipPath>
  </defs>
  <g id="Grupo_1112355" data-name="Grupo 1112355" transform="translate(-269 -958)">
    <circle id="Elipse_5614" data-name="Elipse 5614" cx="35" cy="35" r="35" transform="translate(269 958)" fill="#fff"/>
    <g id="Grupo_1113838" data-name="Grupo 1113838" transform="translate(285.542 972)">
      <g id="Grupo_1113837" data-name="Grupo 1113837" clip-path="url(#clip-path)">
        <path id="Trazado_887759" data-name="Trazado 887759" d="M12.694,241.683a6.172,6.172,0,0,0,7.494,5.715,6.09,6.09,0,0,0,4.907-5.715c3.291-.208,6.342.272,8.906,2.453a10.858,10.858,0,0,1,3.747,9.156c-.061.878-.341,1.448-1.289,1.535l-35.645-.1c-1.178-.474-.782-3.308-.609-4.353a10.589,10.589,0,0,1,8.307-8.515,23.727,23.727,0,0,1,4.182-.179" transform="translate(0 -211.967)" fill="#023263"/>
        <path id="Trazado_887760" data-name="Trazado 887760" d="M101.463,99.99c2.414-.032,4.777.464,4.421-2.948h-1.229V92.009c1.771-.159,3.589.374,3.807,2.394a16.712,16.712,0,0,1-.276,5.006,4.852,4.852,0,0,1-3.961,3.161H99.866l1.6-2.579c-2.373.031-4.754-.071-7.126.058a1.271,1.271,0,0,0-.736,1.971,2.987,2.987,0,0,0,.8.55h5.219c-4.051,4.36-11.572,2.656-13.654-2.862a13.088,13.088,0,0,1-.59-2.357V92.193l.184-.184h6.017a14.907,14.907,0,0,0,3.252-.923,31.706,31.706,0,0,0,3.237-1.876l4.008,3.108c.13.091.116.223.132.359a30.359,30.359,0,0,1-.009,4.3,9.813,9.813,0,0,1-.735,3.01" transform="translate(-74.893 -78.256)" fill="#023263"/>
        <path id="Trazado_887761" data-name="Trazado 887761" d="M87.049,11.3H85.023c-.24,0-3.186-2.658-3.754-3-1.5-.9-2.215.581-3.414,1.358a11.429,11.429,0,0,1-4.5,1.642H65.315a10.875,10.875,0,1,1,21.734,0" transform="translate(-57.287 0)" fill="#023263"/>
        <path id="Trazado_887762" data-name="Trazado 887762" d="M130.72,233a3.8,3.8,0,1,1-7.488,0,10.462,10.462,0,0,0,7.488,0" transform="translate(-108.082 -204.393)" fill="#023263"/>
        <path id="Trazado_887763" data-name="Trazado 887763" d="M47.4,112v5.034a2.517,2.517,0,0,1,0-5.034" transform="translate(-39.374 -98.251)" fill="#023263"/>
      </g>
    </g>
  </g>
</svg>
