<svg xmlns="http://www.w3.org/2000/svg" xmlns:xlink="http://www.w3.org/1999/xlink" width="150" height="150" viewBox="0 0 150 150">
  <defs>
    <clipPath id="clip-path">
      <rect id="Rectángulo_404919" data-name="Rectángulo 404919" width="150" height="150" fill="#41c9a5"/>
    </clipPath>
    <clipPath id="clip-path-2">
      <rect id="Rectángulo_404925" data-name="Rectángulo 404925" width="60" height="60" transform="translate(-0.121)" fill="#fff" stroke="#707070" stroke-width="1"/>
    </clipPath>
    <clipPath id="clip-path-3">
      <rect id="Rectángulo_405766" data-name="Rectángulo 405766" width="54.738" height="54.73" fill="#fff"/>
    </clipPath>
  </defs>
  <g id="Grupo_1111897" data-name="Grupo 1111897" transform="translate(-179.664 -3667)">
    <g id="Grupo_1110094" data-name="Grupo 1110094" transform="translate(179.664 3667)">
      <g id="Grupo_1110058" data-name="Grupo 1110058" clip-path="url(#clip-path)">
        <path id="Trazado_883529" data-name="Trazado 883529" d="M4.9,35.444l16.68,92.369c2.45,13.569,15.941,22.669,30.131,20.326a26.632,26.632,0,0,0,12.25-5.412l75.316-60a24.187,24.187,0,0,0,3.343-35.112A26.093,26.093,0,0,0,131.6,40.179l-92-32.37C26.088,3.052,11.1,9.673,6.129,22.593A23.9,23.9,0,0,0,4.9,35.444" transform="translate(1.335 1.494)" fill="#023263"/>
        <path id="Trazado_883530" data-name="Trazado 883530" d="M147.8,106.113h0a25.748,25.748,0,0,1-7.478,9.933,26.908,26.908,0,0,1-12.278,5.565l-96.3,17.565C17.29,141.859,3.294,132.824.488,119a24.44,24.44,0,0,1,1.024-13.323L33.758,17.153c.15-.414.312-.827.483-1.23A26.285,26.285,0,0,1,54.641.349,28.053,28.053,0,0,1,67.719,1.371a26.574,26.574,0,0,1,11.5,7.495l64.049,70.958a24.474,24.474,0,0,1,4.536,26.289M35.441,16.39c-.162.385-.319.78-.461,1.174L2.735,106.084c-4.616,12.681,2.393,26.539,15.655,30.954a26.549,26.549,0,0,0,13.119.921L127.8,120.4c13.792-2.515,22.841-15.245,20.212-28.434a23.893,23.893,0,0,0-5.728-11.33L78.237,9.675A26.243,26.243,0,0,0,42.374,7.159a24.372,24.372,0,0,0-6.933,9.231" transform="translate(0 0)" fill="#41c9a5"/>
      </g>
    </g>
    <g id="Enmascarar_grupo_1108078" data-name="Enmascarar grupo 1108078" transform="translate(221.664 3712)" clip-path="url(#clip-path-2)">
      <g id="Grupo_1112013" data-name="Grupo 1112013" transform="translate(2.51 2.635)">
        <g id="Grupo_1112012" data-name="Grupo 1112012" clip-path="url(#clip-path-3)">
          <path id="Trazado_886156" data-name="Trazado 886156" d="M7.058,5.717C7.312,4,9.113,3.307,10.666,3.6c-.757-4.794,5.887-4.8,5.174,0,3.2-.486,3.865,1.829,3.629,4.527l1.7.8V5.717a7.256,7.256,0,0,1,.559-1.166c.777-1.092,1.836-1,3.049-.951-.767-4.791,5.919-4.809,5.174,0,1.6-.19,3.033.158,3.46,1.879a2.838,2.838,0,0,1,1.941.006C35.976,3.8,37.179,3.394,38.9,3.6c-.711-4.787,5.941-4.794,5.174,0,1.33-.407,3.608.594,3.608,2.117v4.47c1.792-1.006,3.389-.509,3.606,1.649a53.972,53.972,0,0,1,.008,7.063c-.18,2.784-1.275,4.191-2.949,6.27.311.338,1.06,1.106,1.06,1.566V52.77l.235.235h5.1v1.725H0V53.006H5.1l.235-.235V26.734c0-.46.749-1.228,1.06-1.566-1.674-2.079-2.769-3.485-2.949-6.27a53.972,53.972,0,0,1,.008-7.063c.216-2.158,1.814-2.654,3.606-1.649.145-1.381-.2-3.139,0-4.47m7.058,7.45V2.424a1.117,1.117,0,0,0-.863-.694l-.862.537v10.9Zm14.116.941V2.267c0-.616-1.725-.616-1.725,0V14.108H24.781V6.188a.944.944,0,0,0-1.882,0V16.775H21.174V12.148c0-1.133-1.9-2.641-3.054-2.437-1.1.194.578,2.6.82,3.259.876,2.374.3,4.342.5,6.712.175,2.028,1.9,3.542,3.146,5.01l9.454.049c1.224-1.286,3.059-3.068,3.246-4.91l0-12.071c-.22-1.181-1.721-.528-1.721-.161v6.509H31.839V6.188a.944.944,0,0,0-1.882,0v7.921Zm14.116-.941V2.267c0-.577-1.725-.727-1.725.157V13.167Zm-30.9,7.45c.088.706-.063,1.55,0,2.274H9.724c.343-2.6-.867-4.115-2.633-5.758-.374-1.94,1-5.251-1.757-5.693v8.7c0,1.24,2.342,3.584,3.084,4.6l10.644.022,1.251.628c.182.008.2-.209.108-.416a24.854,24.854,0,0,0-1.73-2.195,14.185,14.185,0,0,1-.966-2.17V15.285l-.235-.235H11.214c-.125,0-.626.5-.919.445L9.1,14.344l1.54-.888c-.158-2.2.309-4.955.011-7.1-.206-1.489-1.71-1.406-1.871-.018-.349,3.008.274,6.657,0,9.736.069.645.8,1,1.186,1.48a6.828,6.828,0,0,1,1.488,3.06M15.841,6.031c-.2.944.147,2.507,0,3.529.565-.689.906-1.34,1.857-1.593l.037-.2c.025-.918.144-2.863-1.314-2.409a1.454,1.454,0,0,0-.579.677M38.9,13.167V6.031c0-.877-1.882-1.039-1.882.157v6.98Zm4.392,9.724V20.617a9.279,9.279,0,0,1,.752-2.072c.434-.775,1.839-1.84,1.923-2.469-.279-3.079.345-6.728,0-9.736-.161-1.389-1.665-1.471-1.871.018-.291,2.1.2,4.732-.026,6.893l.037.2,1.54.888-1.2,1.151c-.292.056-.793-.445-.919-.445H37.015v5.568a14.185,14.185,0,0,1-.966,2.17,24.854,24.854,0,0,0-1.73,2.195c-.09.207-.074.423.108.416l1.251-.628,10.644-.022c.742-1.017,3.084-3.361,3.084-4.6v-8.7c-2.756.37-1.384,3.779-1.757,5.693-1.766,1.642-2.976,3.157-2.633,5.758ZM15.841,10.972v2.2l1.255,0c-.434-.69-.637-1.653-1.255-2.194m3.607,17.253c.052-.609.03-1.579-.709-1.722-3.41.253-7.323-.348-10.671-.012-1.07.107-1.04.788-1.01,1.734ZM33.565,29.95c-.11-.786.36-3.14-.58-3.421l-11.431.115c-.682.484-.269,2.515-.381,3.306a8.242,8.242,0,0,1,6.2,2.349,8.242,8.242,0,0,1,6.2-2.349m14.115-1.726c.052-.609.03-1.579-.709-1.722-3.41.253-7.323-.348-10.671-.012-1.07.107-1.04.788-1.01,1.734ZM19.213,29.95H7.058v1.882h9.8c.148,0,2.033-1.5,2.587-1.414.084-.114-.114-.434-.235-.468m28.467,0H35.525c-.093,0-.32.353-.235.468.555-.086,2.439,1.414,2.587,1.414h9.8ZM20.822,31.872c-5.133.7-6.146,6.69-3.179,10.47,2.3,2.926,5.583,6.73,8.156,9.411,1.505,1.569,1.638,1.569,3.141,0,3.275-3.416,6.5-7.573,9.406-11.3,1.764-4.449-1.325-9.112-6.27-8.623-2.052.2-3.382,1.565-4.707,2.976-1.821-2.088-3.627-3.336-6.547-2.937m-5.452,1.685H7.058V53.006H19.213l.235-.235V47.124c-1.637-2.289-4.415-4.293-5.1-7.131a8.38,8.38,0,0,1,1.025-6.436m32.31,0H39.368a8.38,8.38,0,0,1,1.025,6.436c-.687,2.838-3.465,4.842-5.1,7.131V52.77l.235.235H47.681ZM24.468,53.006a24.476,24.476,0,0,0-3.294-3.764v3.764Zm9.1,0V49.241a24.476,24.476,0,0,0-3.294,3.764Z" transform="translate(0 -0.001)" fill="#fff"/>
          <path id="Trazado_886157" data-name="Trazado 886157" d="M197.566,215.631l-.2-1.689c3.08-.034,4.73,2.3,4.393,5.255-.245,2.145-3.954,4.933-5.1,6.819l-1.271-1.26c1.142-1.635,2.956-3.115,4.081-4.71a2.7,2.7,0,0,0-1.91-4.415" transform="translate(-164.749 -180.386)" fill="#fff"/>
          <path id="Trazado_886158" data-name="Trazado 886158" d="M177.6,295.129c1.941,1.135.873,1.4-.073,2.722l-.23.068-1.165-1.142Z" transform="translate(-148.504 -248.84)" fill="#fff"/>
        </g>
      </g>
    </g>
  </g>
</svg>
