<svg xmlns="http://www.w3.org/2000/svg" xmlns:xlink="http://www.w3.org/1999/xlink" width="505" height="303.243" viewBox="0 0 505 303.243">
  <defs>
    <clipPath id="clip-path">
      <rect id="Rectángulo_405723" data-name="Rectángulo 405723" width="505" height="303.243" fill="none"/>
    </clipPath>
    <clipPath id="clip-path-2">
      <rect id="Rectángulo_405679" data-name="Rectángulo 405679" width="478.044" height="301.106" fill="none"/>
    </clipPath>
    <clipPath id="clip-path-3">
      <path id="Trazado_885868" data-name="Trazado 885868" d="M354.045,140.193l-20.475,1.732a3.745,3.745,0,0,0-2.539,6.158l4.334,5.1-31,23.189-11.511-12.582a4.5,4.5,0,0,0-5.959-.6l-65.378,47.52-17.6-12.406a4.5,4.5,0,0,0-5.429.188l-50.075,40.79a4.495,4.495,0,0,0,5.678,6.97l47.432-38.636,17.443,12.3a4.494,4.494,0,0,0,5.232-.039l64.733-47.049,11.549,12.622a4.494,4.494,0,0,0,6.009.565L341.2,160.044l4.77,5.612a3.746,3.746,0,0,0,6.455-1.392l5.538-19.306a3.745,3.745,0,0,0-3.6-4.778c-.1,0-.209,0-.314.013" transform="translate(-146.758 -140.18)" fill="#0354a5"/>
    </clipPath>
    <clipPath id="clip-path-5">
      <path id="Trazado_885919" data-name="Trazado 885919" d="M153.265,116.51s1.871,3.69,5.582.979a2.656,2.656,0,0,0-2.6-1.912,6.342,6.342,0,0,0-2.982.933" transform="translate(-153.265 -115.577)" fill="none"/>
    </clipPath>
    <clipPath id="clip-path-7">
      <path id="Trazado_885923" data-name="Trazado 885923" d="M167.378,117.446c2.942,2.373,3.952-1.076,3.952-1.076a2.579,2.579,0,0,0-1.738-.86c-1.442,0-2.213,1.936-2.213,1.936" transform="translate(-167.378 -115.51)" fill="none"/>
    </clipPath>
    <clipPath id="clip-path-9">
      <path id="Trazado_885970" data-name="Trazado 885970" d="M496.913,207.209c3.639,2.66,5.475-.96,5.475-.96a6.216,6.216,0,0,0-2.926-.915,2.6,2.6,0,0,0-2.549,1.876" transform="translate(-496.913 -205.333)" fill="none"/>
    </clipPath>
    <clipPath id="clip-path-11">
      <path id="Trazado_885974" data-name="Trazado 885974" d="M485.462,206.111s.991,3.384,3.875,1.055c0,0-.755-1.9-2.17-1.9a2.53,2.53,0,0,0-1.706.844" transform="translate(-485.462 -205.267)" fill="none"/>
    </clipPath>
  </defs>
  <g id="Grupo_1113893" data-name="Grupo 1113893" transform="translate(-810 -4061.757)">
    <g id="Grupo_1111937" data-name="Grupo 1111937" transform="translate(810 4061.757)">
      <g id="Grupo_1111937-2" data-name="Grupo 1111937" clip-path="url(#clip-path)">
        <path id="Trazado_885979" data-name="Trazado 885979" d="M371.656,157.228H293.891a43.037,43.037,0,0,0-2.24-32.392h141.2c24.666,0,44.662-19.594,44.662-43.763s-20-43.764-44.662-43.764H226.124c-24.666,0-44.662,19.594-44.662,43.764a42.862,42.862,0,0,0,4.4,18.953H44.662C20,100.026,0,119.619,0,143.789s20,43.763,44.662,43.763h77.764a43.02,43.02,0,0,0,7,39.973h-50.3c-24.667,0-44.662,19.594-44.662,43.764s20,43.763,44.662,43.763H351.32c24.666,0,44.662-19.594,44.662-43.763a43.073,43.073,0,0,0-10.844-28.568,43.887,43.887,0,0,0,31.18-41.729c0-24.17-20-43.763-44.662-43.763" transform="translate(0 -11.809)" fill="#e4fff7"/>
        <path id="Trazado_885980" data-name="Trazado 885980" d="M86.476,78.567c22.142,0,40.091-17.587,40.091-39.283S108.617,0,86.476,0,46.385,17.588,46.385,39.284,64.334,78.567,86.476,78.567" transform="translate(-14.031)" fill="#e4fff7"/>
        <path id="Trazado_885981" data-name="Trazado 885981" d="M649.144,296.46c-22.142,0-40.091,17.588-40.091,39.284S627,375.028,649.144,375.028s40.091-17.588,40.091-39.284-17.949-39.284-40.091-39.284" transform="translate(-184.234 -93.838)" fill="#e4fff7"/>
      </g>
    </g>
    <g id="Grupo_1111936" data-name="Grupo 1111936" transform="translate(827 4063.411)">
      <g id="Grupo_1111915" data-name="Grupo 1111915">
        <g id="Grupo_1111914" data-name="Grupo 1111914" clip-path="url(#clip-path-2)">
          <path id="Trazado_885862" data-name="Trazado 885862" d="M618.777,97.194a97.208,97.208,0,1,0-86.023,96.548l.106.113.15-.142a97.332,97.332,0,0,0,85.767-96.519m-48.84,49.043Q581.548,123.369,582.3,99.61h31.616a92,92,0,0,1-24.083,59.752,109.72,109.72,0,0,0-19.893-13.125m-39.085,42.855q-3.393.339-6.852.432V138.982a93.529,93.529,0,0,1,24.218,3.73,103.922,103.922,0,0,1,15.1,5.678q-11.562,20.774-32.461,40.7M519.167,4.864v49.88a93.546,93.546,0,0,1-24.1-3.73,104.693,104.693,0,0,1-16.891-6.533A141.188,141.188,0,0,1,487.1,30.113,145.028,145.028,0,0,1,508.681,5.738a92.477,92.477,0,0,1,10.486-.874m63.16,89.914c-.005-.333,0-.664-.01-1-.477-18.257-5.863-34.555-12.4-47.792a135.527,135.527,0,0,0,18.411-12.57,92.037,92.037,0,0,1,25.583,61.359Zm-63.16,39.485a93.461,93.461,0,0,0-14.142,1.609,102.663,102.663,0,0,0-27.723,9.74q-12.168-22.6-13.016-46h54.88ZM464.245,94.777c.005-.339,0-.676.009-1.015.438-17.085,5.489-32.415,11.687-44.967a110.567,110.567,0,0,0,17.59,6.806,97.432,97.432,0,0,0,25.636,3.915V94.777ZM524,59.464a93.361,93.361,0,0,0,14.254-1.609,102.522,102.522,0,0,0,27.407-9.575c6.245,12.69,11.38,28.272,11.827,45.67.007.277,0,.552.008.829H524ZM567.72,41.717a146.933,146.933,0,0,0-8.9-14.461A157.22,157.22,0,0,0,542.167,7.147a92.26,92.26,0,0,1,42.7,22.842A131.764,131.764,0,0,1,567.72,41.717M554.946,30.15a141.944,141.944,0,0,1,8.529,13.874A92.875,92.875,0,0,1,524,54.694V4.864a92.635,92.635,0,0,1,9.547.743,143.9,143.9,0,0,1,21.4,24.543m-71.693-2.96a145.938,145.938,0,0,0-9.377,15.078,108.239,108.239,0,0,1-16.752-11.152A92.317,92.317,0,0,1,499.85,7.422a157.589,157.589,0,0,0-16.6,19.768m-11.611,19.4c-6.471,13.086-11.75,29.1-12.217,47.006-.011.394-.007.787-.012,1.182H429.254A92.007,92.007,0,0,1,453.732,34.6a109.3,109.3,0,0,0,17.909,11.99M459.453,99.61q.822,24.589,13.593,48.305a136.207,136.207,0,0,0-18.512,12.732,92.029,92.029,0,0,1-25.28-61.037ZM475.406,152.1a174.99,174.99,0,0,0,28.37,35.729,92.212,92.212,0,0,1-45.811-23.736A132.363,132.363,0,0,1,475.406,152.1m4.251-2.315a92.964,92.964,0,0,1,39.51-10.746v50.488q-3.592-.093-7.113-.458-20.625-19.211-32.4-39.285m70.092-11.657A97.425,97.425,0,0,0,524,134.212V99.61h53.462q-.728,22.574-11.867,44.49a110.143,110.143,0,0,0-15.847-5.975m17.912,12.407a108.354,108.354,0,0,1,18.8,12.33,92.239,92.239,0,0,1-47.486,25.043q18.108-18.282,28.683-37.374" transform="translate(-140.733)" fill="#023263"/>
          <path id="Trazado_885863" data-name="Trazado 885863" d="M373.485,277.011H64.165a3.806,3.806,0,0,1-3.806-3.806V123.975H377.291v149.23a3.806,3.806,0,0,1-3.806,3.806" transform="translate(-20.016 -41.112)" fill="#bae8ff"/>
          <path id="Trazado_885864" data-name="Trazado 885864" d="M377.291,116.621H60.359v-4.355a10.585,10.585,0,0,1,10.585-10.585H366.706a10.585,10.585,0,0,1,10.585,10.585Z" transform="translate(-20.016 -33.719)" fill="#0354a5"/>
          <path id="Trazado_885865" data-name="Trazado 885865" d="M91.383,111.931a2.58,2.58,0,1,1-2.58-2.58,2.58,2.58,0,0,1,2.58,2.58" transform="translate(-28.593 -36.262)" fill="#e79c88"/>
          <path id="Trazado_885866" data-name="Trazado 885866" d="M108.593,111.931a2.58,2.58,0,1,1-2.58-2.58,2.58,2.58,0,0,1,2.58,2.58" transform="translate(-34.3 -36.262)" fill="#fff"/>
          <path id="Trazado_885867" data-name="Trazado 885867" d="M125.8,111.931a2.58,2.58,0,1,1-2.58-2.58,2.58,2.58,0,0,1,2.58,2.58" transform="translate(-40.006 -36.262)" fill="#fff"/>
        </g>
      </g>
      <g id="Grupo_1111917" data-name="Grupo 1111917" transform="translate(98.091 93.695)">
        <g id="Grupo_1111916" data-name="Grupo 1111916" clip-path="url(#clip-path-3)">
          <rect id="Rectángulo_405680" data-name="Rectángulo 405680" width="212.101" height="107.078" transform="translate(-0.558 0)" fill="#0354a5"/>
        </g>
      </g>
      <g id="Grupo_1111919" data-name="Grupo 1111919">
        <g id="Grupo_1111918" data-name="Grupo 1111918" clip-path="url(#clip-path-2)">
          <rect id="Rectángulo_405681" data-name="Rectángulo 405681" width="17.039" height="29.082" transform="translate(133.84 186.325)" fill="#7c9afb"/>
          <rect id="Rectángulo_405682" data-name="Rectángulo 405682" width="17.039" height="20.837" transform="translate(158.846 194.569)" fill="#7c9afb"/>
          <rect id="Rectángulo_405683" data-name="Rectángulo 405683" width="17.039" height="36.952" transform="translate(183.851 178.454)" fill="#7c9afb"/>
          <rect id="Rectángulo_405684" data-name="Rectángulo 405684" width="17.039" height="43.169" transform="translate(208.857 172.237)" fill="#7c9afb"/>
          <rect id="Rectángulo_405685" data-name="Rectángulo 405685" width="17.039" height="59.666" transform="translate(233.862 155.74)" fill="#7c9afb"/>
          <rect id="Rectángulo_405686" data-name="Rectángulo 405686" width="17.039" height="42.85" transform="translate(258.867 172.556)" fill="#7c9afb"/>
          <path id="Trazado_885869" data-name="Trazado 885869" d="M137.486,149.568V264.891H362.067" transform="translate(-45.592 -49.599)" fill="none" stroke="#fff" stroke-miterlimit="10" stroke-width="1.429"/>
          <circle id="Elipse_11708" data-name="Elipse 11708" cx="11.508" cy="11.508" r="11.508" transform="translate(0.502 264.727)" fill="none" stroke="#fff" stroke-miterlimit="10" stroke-width="1.5"/>
          <line id="Línea_3204" data-name="Línea 3204" x2="6.511" y2="6.511" transform="translate(8.754 272.586)" fill="none" stroke="#fff" stroke-linecap="round" stroke-linejoin="round" stroke-width="1.5"/>
          <line id="Línea_3205" data-name="Línea 3205" x1="6.511" y2="6.511" transform="translate(8.754 272.586)" fill="none" stroke="#fff" stroke-linecap="round" stroke-linejoin="round" stroke-width="1.5"/>
          <rect id="Rectángulo_405687" data-name="Rectángulo 405687" width="8.703" height="8.703" transform="translate(376.76 233.432)" fill="none" stroke="#fff" stroke-linecap="round" stroke-linejoin="round" stroke-width="1.5"/>
          <rect id="Rectángulo_405688" data-name="Rectángulo 405688" width="8.703" height="8.703" transform="translate(185.672 290.825)" fill="none" stroke="#fff" stroke-linecap="round" stroke-linejoin="round" stroke-width="1.5"/>
          <path id="Trazado_885870" data-name="Trazado 885870" d="M479.163,238.533h0a4.352,4.352,0,1,1,4.351-4.352A4.352,4.352,0,0,1,479.163,238.533Z" transform="translate(-157.453 -76.214)" fill="none" stroke="#fff" stroke-linecap="round" stroke-linejoin="round" stroke-width="1.5"/>
          <rect id="Rectángulo_405689" data-name="Rectángulo 405689" width="8.703" height="8.703" transform="translate(3.84 190.186)" fill="none" stroke="#fff" stroke-linecap="round" stroke-linejoin="round" stroke-width="1.5"/>
          <path id="Trazado_885871" data-name="Trazado 885871" d="M178.634,201.137a2.629,2.629,0,1,1-2.629-2.629,2.629,2.629,0,0,1,2.629,2.629" transform="translate(-57.494 -65.828)" fill="#fff"/>
          <path id="Trazado_885872" data-name="Trazado 885872" d="M190.028,201.137a2.629,2.629,0,1,1-2.629-2.629,2.629,2.629,0,0,1,2.629,2.629" transform="translate(-61.272 -65.828)" fill="#fff"/>
          <path id="Trazado_885873" data-name="Trazado 885873" d="M201.422,201.137a2.629,2.629,0,1,1-2.629-2.629,2.629,2.629,0,0,1,2.629,2.629" transform="translate(-65.05 -65.828)" fill="#fff"/>
          <path id="Trazado_885874" data-name="Trazado 885874" d="M210.188,199.51a1.627,1.627,0,1,1-1.626,1.626,1.628,1.628,0,0,1,1.626-1.626m0-1a2.629,2.629,0,1,0,2.629,2.629,2.629,2.629,0,0,0-2.629-2.629" transform="translate(-68.829 -65.827)" fill="#fff"/>
          <path id="Trazado_885875" data-name="Trazado 885875" d="M62.992,332.42a10.695,10.695,0,1,1-10.593-10.8,10.695,10.695,0,0,1,10.593,10.8" transform="translate(-13.796 -106.654)" fill="#e79c88"/>
          <path id="Trazado_885876" data-name="Trazado 885876" d="M51.618,335.545l3.1,3.061,4.9-5.6" transform="translate(-17.117 -110.43)" fill="none" stroke="#fff" stroke-linecap="round" stroke-linejoin="round" stroke-width="1.5"/>
          <path id="Trazado_885877" data-name="Trazado 885877" d="M17.135,215.27H64.183a2.275,2.275,0,0,0,2.275-2.275V200.305a2.275,2.275,0,0,0-2.275-2.275H17.135a2.275,2.275,0,0,0-2.275,2.275v12.689a2.275,2.275,0,0,0,2.275,2.275" transform="translate(-4.928 -65.669)" fill="#0354a5"/>
          <line id="Línea_3206" data-name="Línea 3206" x2="33.799" transform="translate(20.038 139.056)" fill="none" stroke="#fff" stroke-miterlimit="10" stroke-width="1.097"/>
          <line id="Línea_3207" data-name="Línea 3207" x2="9.948" transform="translate(20.038 142.906)" fill="none" stroke="#fff" stroke-miterlimit="10" stroke-width="1.097"/>
          <path id="Trazado_885878" data-name="Trazado 885878" d="M77.937,220.391v7.8L68,220.391Z" transform="translate(-22.549 -73.084)" fill="#0354a5"/>
          <path id="Trazado_885879" data-name="Trazado 885879" d="M548.523,266.588a20.66,20.66,0,1,1-20.66-20.66,20.66,20.66,0,0,1,20.66,20.66" transform="translate(-168.195 -81.553)" fill="#4c60fa"/>
          <rect id="Rectángulo_405690" data-name="Rectángulo 405690" width="3.993" height="6.844" transform="translate(350.874 184.624)" fill="#fff"/>
          <rect id="Rectángulo_405691" data-name="Rectángulo 405691" width="3.993" height="15.429" transform="translate(356.987 176.039)" fill="#fff"/>
          <rect id="Rectángulo_405692" data-name="Rectángulo 405692" width="3.993" height="12.23" transform="translate(363.101 179.238)" fill="#fff"/>
          <line id="Línea_3208" data-name="Línea 3208" x2="25.818" transform="translate(346.759 191.468)" fill="none" stroke="#fff" stroke-linecap="round" stroke-linejoin="round" stroke-width="0.989"/>
          <line id="Línea_3209" data-name="Línea 3209" x2="19.672" transform="translate(2.072 108.095)" fill="none" stroke="#e79c88" stroke-linecap="round" stroke-linejoin="round" stroke-width="2"/>
          <line id="Línea_3210" data-name="Línea 3210" x2="23.796" transform="translate(373.772 271.839)" fill="none" stroke="#e79c88" stroke-linecap="round" stroke-linejoin="round" stroke-width="2"/>
          <line id="Línea_3211" data-name="Línea 3211" x2="45.267" transform="translate(264.616 82.084)" fill="none" stroke="#a0c0fc" stroke-linecap="round" stroke-linejoin="round" stroke-width="2"/>
          <line id="Línea_3212" data-name="Línea 3212" x2="33.179" transform="translate(134.186 293.765)" fill="none" stroke="#a0c0fc" stroke-linecap="round" stroke-linejoin="round" stroke-width="2"/>
          <path id="Trazado_885880" data-name="Trazado 885880" d="M152.793,419.926l1.279-27.361h10.646L161.867,419.4Z" transform="translate(-50.668 -130.179)" fill="#e9a79a"/>
          <path id="Trazado_885881" data-name="Trazado 885881" d="M150.017,426.031a9.588,9.588,0,0,0,8.642-.064s1.332-4.091,5.042-1.712a21.642,21.642,0,0,0,10.656,6.085c8.832,1.791,9.228,5.9,9.228,5.9H146.15s1.318-5.583,1.908-9.109a1.425,1.425,0,0,1,1.958-1.1" transform="translate(-48.465 -140.441)"/>
          <rect id="Rectángulo_405693" data-name="Rectángulo 405693" width="37.435" height="4.091" transform="translate(97.685 295.8)" fill="#fff"/>
          <path id="Trazado_885882" data-name="Trazado 885882" d="M181.839,432.061s-1.419-.019-2.531,1.924" transform="translate(-59.461 -143.277)" fill="none" stroke="#fff" stroke-linecap="round" stroke-linejoin="round" stroke-width="0.786"/>
          <path id="Trazado_885883" data-name="Trazado 885883" d="M179.144,430.622s-1.419-.019-2.531,1.924" transform="translate(-58.567 -142.799)" fill="none" stroke="#fff" stroke-linecap="round" stroke-linejoin="round" stroke-width="0.786"/>
          <path id="Trazado_885884" data-name="Trazado 885884" d="M176.392,428.912s-1.419-.019-2.531,1.924" transform="translate(-57.654 -142.232)" fill="none" stroke="#fff" stroke-linecap="round" stroke-linejoin="round" stroke-width="0.786"/>
          <path id="Trazado_885885" data-name="Trazado 885885" d="M108.326,419.926l3.652-27.361h10.646L117.4,419.4Z" transform="translate(-35.922 -130.179)" fill="#e9a79a"/>
          <path id="Trazado_885886" data-name="Trazado 885886" d="M105.872,426.031a9.588,9.588,0,0,0,8.642-.064s1.332-4.091,5.042-1.712a21.642,21.642,0,0,0,10.656,6.085c8.832,1.791,9.228,5.9,9.228,5.9H102s1.318-5.583,1.908-9.109a1.425,1.425,0,0,1,1.958-1.1" transform="translate(-33.826 -140.441)"/>
          <rect id="Rectángulo_405694" data-name="Rectángulo 405694" width="37.435" height="4.091" transform="translate(68.18 295.8)" fill="#fff"/>
          <path id="Trazado_885887" data-name="Trazado 885887" d="M137.694,432.061s-1.419-.019-2.531,1.924" transform="translate(-44.822 -143.277)" fill="none" stroke="#fff" stroke-linecap="round" stroke-linejoin="round" stroke-width="0.786"/>
          <path id="Trazado_885888" data-name="Trazado 885888" d="M135,430.622s-1.419-.019-2.531,1.924" transform="translate(-43.928 -142.799)" fill="none" stroke="#fff" stroke-linecap="round" stroke-linejoin="round" stroke-width="0.786"/>
          <path id="Trazado_885889" data-name="Trazado 885889" d="M132.248,428.912s-1.419-.019-2.531,1.924" transform="translate(-43.016 -142.232)" fill="none" stroke="#fff" stroke-linecap="round" stroke-linejoin="round" stroke-width="0.786"/>
          <path id="Trazado_885890" data-name="Trazado 885890" d="M154.676,226.857s1.181,3.634,1.678,20.514c.1,3.47.013,8.289-.217,11.752l-4.977,96.308-18.184-.07,4.7-98.027L122.5,355.312l-17.685-.452,16.22-123.173,17.386-1.6Z" transform="translate(-34.758 -75.229)" fill="#1a246e"/>
          <line id="Línea_3213" data-name="Línea 3213" y1="1.68" x2="9.805" transform="translate(102.918 180.425)" fill="none" stroke="#000" stroke-linecap="round" stroke-linejoin="round" stroke-width="0.498"/>
          <path id="Trazado_885891" data-name="Trazado 885891" d="M170.172,170.251s14.533,12.229,28.423,18.488c1.672.753,5.668-.2,6.968-1.493a4.427,4.427,0,0,0-.6-6.778L179.476,160.8Z" transform="translate(-56.431 -53.323)" fill="#e9a79a"/>
          <path id="Trazado_885892" data-name="Trazado 885892" d="M166.607,152.313s10.139,0,21.064,13.284l-9.188,13.284-17.279-8.214Z" transform="translate(-53.458 -50.509)" fill="#fff"/>
          <path id="Trazado_885893" data-name="Trazado 885893" d="M218.483,183.169l17.316-28.8-5.812-3.751-21.936,26.948c-1.746,1.555.409,5.721,2.454,7.529,1.116,1.014,5.691,1.657,7.979-1.921" transform="translate(-68.78 -49.945)" fill="#e9a79a"/>
          <path id="Trazado_885894" data-name="Trazado 885894" d="M241.19,146.779l.528-4.536a2.079,2.079,0,0,1,1.472-1.707l4.817-1.42a1.565,1.565,0,0,1,1.186,2.877l-2.308,1.247s3.186,2.555.087,5.953Z" transform="translate(-79.981 -46.111)" fill="#e9a79a"/>
          <path id="Trazado_885895" data-name="Trazado 885895" d="M244.182,136.791l6.317-8.545a1.206,1.206,0,0,1,2.041,1.273l-3.983,7.674Z" transform="translate(-80.974 -42.366)" fill="#e9a79a"/>
          <path id="Trazado_885896" data-name="Trazado 885896" d="M250.658,137.75l2.414-.81a1.674,1.674,0,0,1,1.458.32l.554.447a1.671,1.671,0,0,1,.416,2.1l-3.1,5.473-3.948-2.932Z" transform="translate(-82.39 -45.394)" fill="#e9a79a"/>
          <path id="Trazado_885897" data-name="Trazado 885897" d="M256.128,139.392l.9,0a1.642,1.642,0,0,1,1.148.474l.739.731a1.643,1.643,0,0,1,.156,2.161L255.1,148l-3.408-2.56Z" transform="translate(-83.465 -46.224)" fill="#e9a79a"/>
          <path id="Trazado_885898" data-name="Trazado 885898" d="M258.273,142.513l.9,0a1.64,1.64,0,0,1,1.148.474l.74.731a1.644,1.644,0,0,1,.155,2.161l-1.392,1.839a4.277,4.277,0,0,1-5.98.838Z" transform="translate(-84.177 -47.259)" fill="#e9a79a"/>
          <path id="Trazado_885899" data-name="Trazado 885899" d="M253.724,149.255l-1.851,2.029a4.736,4.736,0,0,1-6.691.307l-3.992-3.2,3.115-4.478,3.919.016,3.409,2.381Z" transform="translate(-79.981 -47.724)" fill="#e9a79a"/>
          <path id="Trazado_885900" data-name="Trazado 885900" d="M244.677,140.308l5.24-1.717a1.426,1.426,0,0,1,1.289,2.489l-3.165,1.988s2.841,1.4.506,4.627" transform="translate(-81.138 -45.938)" fill="none" stroke="#000" stroke-linecap="round" stroke-linejoin="round" stroke-width="0.512"/>
          <path id="Trazado_885901" data-name="Trazado 885901" d="M141.96,150.081a46.525,46.525,0,0,0-13.334,3.1,33,33,0,0,0-3.01,1.366c-2.959,1.549-.837,4.894-.465,8.31l1.1,47.423s20.411,8.884,36.666-.444l1.479-45.457c.326-4.76-1.618-11.091-6.1-12.192a91.59,91.59,0,0,0-14.176-2.286Z" transform="translate(-41.142 -49.708)" fill="#fff"/>
          <path id="Trazado_885902" data-name="Trazado 885902" d="M158.307,150.982a40.282,40.282,0,0,0-8.436-1.087,29.468,29.468,0,0,0-8.448,1.129l13.242,7.454c3.216-4.6,3.641-7.5,3.641-7.5" transform="translate(-46.898 -49.705)" fill="#e9a79a"/>
          <line id="Línea_3214" data-name="Línea 3214" y1="10.326" x2="0.268" transform="translate(122.826 117)" fill="none" stroke="#171717" stroke-linecap="round" stroke-linejoin="round" stroke-width="0.678"/>
          <path id="Trazado_885903" data-name="Trazado 885903" d="M92.055,189.362l17.524,26.762-4.719,5.354L85.515,201.818Z" transform="translate(-28.358 -62.795)" fill="#e9a79a"/>
          <path id="Trazado_885904" data-name="Trazado 885904" d="M135.279,227.362l-7.5-3.954.736-1.706a1.546,1.546,0,0,0-.405-1.783,1.414,1.414,0,0,0-1.811-.03L118.92,225.9l-4.462,5.6c4.049,3.6,6.7,3.552,8.221,2.856.178.061.354.129.534.182l6.23,1.853a1.168,1.168,0,0,0,1.529-.575c.205-.422.277-1.1-.922-1.729l1.2.632a1.214,1.214,0,0,0,1.6-.626,1.479,1.479,0,0,0-.765-1.752l.918.374a1.252,1.252,0,0,0,1.7-.773,1.38,1.38,0,0,0-.684-1.634l-1.325-.7,1.573.4a1.364,1.364,0,0,0,1.77-.924,1.5,1.5,0,0,0-.755-1.722" transform="translate(-37.956 -72.814)" fill="#e9a79a"/>
          <line id="Línea_3215" data-name="Línea 3215" x1="4.431" y1="2.17" transform="translate(90.702 154.823)" fill="none" stroke="#171717" stroke-linecap="round" stroke-linejoin="round" stroke-width="0.441"/>
          <line id="Línea_3216" data-name="Línea 3216" x1="4.272" y1="1.846" transform="translate(89.669 157.599)" fill="none" stroke="#171717" stroke-linecap="round" stroke-linejoin="round" stroke-width="0.441"/>
          <line id="Línea_3217" data-name="Línea 3217" x1="3.62" y1="1.481" transform="translate(88.871 159.953)" fill="none" stroke="#171717" stroke-linecap="round" stroke-linejoin="round" stroke-width="0.441"/>
          <path id="Trazado_885905" data-name="Trazado 885905" d="M115.8,172.137,93.517,192.075a5.981,5.981,0,0,1-7.811.8,6.523,6.523,0,0,1-1.125-9.54l20.955-21.237a6.879,6.879,0,0,1,9.668-.813,7.5,7.5,0,0,1,.6,10.857" transform="translate(-27.525 -52.948)" fill="#e9a79a"/>
          <path id="Trazado_885906" data-name="Trazado 885906" d="M122.854,154.069s-8.95,1.809-20.059,15.6l10.613,11.953,13.4-9.953Z" transform="translate(-34.088 -51.091)" fill="#fff"/>
          <line id="Línea_3218" data-name="Línea 3218" y1="5.368" x2="7.227" transform="translate(84.326 121.441)" fill="none" stroke="#171717" stroke-linecap="round" stroke-linejoin="round" stroke-width="0.678"/>
          <path id="Trazado_885907" data-name="Trazado 885907" d="M161.844,101.782c-.658,6.634-6.381,14.138-13.56,14.124S136.7,110.184,134.777,103.8c-2.966-9.856,5.919-14.777,15.792-13,4.449.8,11.99,3.767,11.275,10.981" transform="translate(-44.501 -29.992)"/>
          <path id="Trazado_885908" data-name="Trazado 885908" d="M148.934,124.868l-1.912,19.661,10.166.06-.541-17.628Z" transform="translate(-48.754 -41.408)" fill="#e9a79a"/>
          <path id="Trazado_885909" data-name="Trazado 885909" d="M158.663,140.318l-6.644-7.9,6.3-2.556Z" transform="translate(-50.411 -43.063)"/>
          <path id="Trazado_885910" data-name="Trazado 885910" d="M148.856,96.221a14.478,14.478,0,0,1,6.771-.253c3.023.643,6.9,2.553,7.371,8.084.79,9.219-.347,16.648-4.9,18.724-3.5,1.593-6.041.971-10.059-1.382-1.5-.875-2.918-4.578-3.319-6.344L143,110.118s-4.669-11.044,5.856-13.9" transform="translate(-47.078 -31.729)" fill="#e9a79a"/>
          <path id="Trazado_885911" data-name="Trazado 885911" d="M143.444,114.151s4.471-14-2.057-14.38l-3.6,6.967,1.894,5.838Z" transform="translate(-45.69 -33.085)"/>
          <path id="Trazado_885912" data-name="Trazado 885912" d="M144.515,122.895a10.227,10.227,0,0,0-1.488-3.58c-1.009-1.51-2.454-2.905-4.27-1.79-3.094,1.9.709,6.862,4.1,6.926,1,.019,1.824-.761,1.656-1.556" transform="translate(-45.634 -38.839)" fill="#e9a79a"/>
          <path id="Trazado_885913" data-name="Trazado 885913" d="M144.463,95.777s22.518,4.242,22.162-4.1c-.334-7.829-11.873-4.969-15.019-2l-8.813,4.54Z" transform="translate(-47.352 -28.726)"/>
          <path id="Trazado_885914" data-name="Trazado 885914" d="M165.854,120.219l.832,1.935-1.071.84" transform="translate(-54.92 -39.866)" fill="none" stroke="#000" stroke-linecap="round" stroke-linejoin="round" stroke-width="0.388"/>
          <path id="Trazado_885915" data-name="Trazado 885915" d="M167.729,108.768a1.189,1.189,0,0,0,1,1.547,8.8,8.8,0,0,1,2.295.593.7.7,0,0,0,.921-.325.971.971,0,0,0,.012-.935,3.386,3.386,0,0,0-2.279-1.722c-1.631-.332-1.95.842-1.95.842" transform="translate(-55.605 -35.77)"/>
          <path id="Trazado_885916" data-name="Trazado 885916" d="M157.588,108.6s.449,1.295-1.488,1.535a22.2,22.2,0,0,0-4.065,1.073,1.133,1.133,0,0,1-1.266-.336.738.738,0,0,1,.039-.935,7.969,7.969,0,0,1,4.109-2.2c2.3-.311,2.671.866,2.671.866" transform="translate(-49.948 -35.71)"/>
          <path id="Trazado_885917" data-name="Trazado 885917" d="M158.847,117.489s-.908-3.547-5.582-.979c0,0,1.872,3.689,5.582.979" transform="translate(-50.825 -38.327)" fill="#fff"/>
        </g>
      </g>
      <g id="Grupo_1111921" data-name="Grupo 1111921" transform="translate(102.44 77.25)">
        <g id="Grupo_1111920" data-name="Grupo 1111920" clip-path="url(#clip-path-5)">
          <path id="Trazado_885918" data-name="Trazado 885918" d="M158.649,116.964a1.618,1.618,0,1,1-1.8-1.47,1.643,1.643,0,0,1,1.8,1.47" transform="translate(-153.981 -115.546)"/>
        </g>
      </g>
      <g id="Grupo_1111923" data-name="Grupo 1111923">
        <g id="Grupo_1111922" data-name="Grupo 1111922" clip-path="url(#clip-path-2)">
          <path id="Trazado_885920" data-name="Trazado 885920" d="M153.153,116.355a4.874,4.874,0,0,1,1.474-.741,5.3,5.3,0,0,1,1.639-.255,3.3,3.3,0,0,1,1.625.458,2.279,2.279,0,0,1,1.014,1.413.212.212,0,0,1-.414.092v-.007l0-.023a1.906,1.906,0,0,0-.8-1.171,2.973,2.973,0,0,0-1.44-.457,5.031,5.031,0,0,0-1.551.2,4.648,4.648,0,0,0-1.424.662.1.1,0,0,1-.144-.023.105.105,0,0,1,.022-.143" transform="translate(-50.774 -38.254)"/>
          <path id="Trazado_885921" data-name="Trazado 885921" d="M167.378,117.447s1.4-3.511,3.952-1.076c0,0-1.01,3.45-3.952,1.076" transform="translate(-55.505 -38.305)" fill="#fff"/>
        </g>
      </g>
      <g id="Grupo_1111925" data-name="Grupo 1111925" transform="translate(111.873 77.205)">
        <g id="Grupo_1111924" data-name="Grupo 1111924" clip-path="url(#clip-path-7)">
          <path id="Trazado_885922" data-name="Trazado 885922" d="M168.722,116.718a1.253,1.253,0,1,0,1.458-1.317,1.409,1.409,0,0,0-1.458,1.317" transform="translate(-167.815 -115.469)"/>
        </g>
      </g>
      <g id="Grupo_1111927" data-name="Grupo 1111927">
        <g id="Enmascarar_grupo_1108109" data-name="Enmascarar grupo 1108109" clip-path="url(#clip-path-2)">
          <path id="Trazado_885924" data-name="Trazado 885924" d="M171.209,116.372a1.831,1.831,0,0,0-.751-.636,1.522,1.522,0,0,0-.947-.086l-.017,0a2.267,2.267,0,0,0-1.168.576,3.017,3.017,0,0,0-.743,1.079l-.005.013a.179.179,0,0,1-.332-.134l0-.006a3.325,3.325,0,0,1,.876-1.182,2.544,2.544,0,0,1,1.335-.6l-.017,0a1.745,1.745,0,0,1,1.1.136,2.024,2.024,0,0,1,.806.733.087.087,0,0,1-.144.1" transform="translate(-55.456 -38.258)"/>
          <path id="Trazado_885925" data-name="Trazado 885925" d="M159.875,126.328a4.169,4.169,0,0,0,4.372.678" transform="translate(-53.016 -41.892)" fill="none" stroke="#000" stroke-linecap="round" stroke-linejoin="round" stroke-width="0.388"/>
          <rect id="Rectángulo_405697" data-name="Rectángulo 405697" width="70.237" height="8.915" transform="translate(294.468 282.614)" fill="#e2c64a"/>
          <rect id="Rectángulo_405698" data-name="Rectángulo 405698" width="13.358" height="8.915" transform="translate(301.732 282.614)" fill="#d9ad44"/>
          <rect id="Rectángulo_405699" data-name="Rectángulo 405699" width="9.796" height="8.915" transform="translate(346.548 282.614)" fill="#e9d47c"/>
          <rect id="Rectángulo_405700" data-name="Rectángulo 405700" width="70.237" height="8.915" transform="translate(294.468 264.785)" fill="#e2c64a"/>
          <rect id="Rectángulo_405701" data-name="Rectángulo 405701" width="13.358" height="8.915" transform="translate(301.732 264.785)" fill="#d9ad44"/>
          <rect id="Rectángulo_405702" data-name="Rectángulo 405702" width="9.796" height="8.915" transform="translate(346.548 264.785)" fill="#e9d47c"/>
          <rect id="Rectángulo_405703" data-name="Rectángulo 405703" width="70.237" height="8.915" transform="translate(294.468 238.04)" fill="#e2c64a"/>
          <rect id="Rectángulo_405704" data-name="Rectángulo 405704" width="13.358" height="8.915" transform="translate(301.732 238.04)" fill="#d9ad44"/>
          <rect id="Rectángulo_405705" data-name="Rectángulo 405705" width="9.796" height="8.915" transform="translate(346.548 238.04)" fill="#e9d47c"/>
          <rect id="Rectángulo_405706" data-name="Rectángulo 405706" width="70.238" height="8.915" transform="translate(302.828 291.529)" fill="#e2c64a"/>
          <rect id="Rectángulo_405707" data-name="Rectángulo 405707" width="13.358" height="8.915" transform="translate(310.093 291.529)" fill="#d9ad44"/>
          <rect id="Rectángulo_405708" data-name="Rectángulo 405708" width="9.795" height="8.915" transform="translate(354.91 291.529)" fill="#e9d47c"/>
          <rect id="Rectángulo_405709" data-name="Rectángulo 405709" width="70.238" height="8.915" transform="translate(302.828 255.87)" fill="#e2c64a"/>
          <rect id="Rectángulo_405710" data-name="Rectángulo 405710" width="13.358" height="8.915" transform="translate(310.093 255.87)" fill="#d9ad44"/>
          <rect id="Rectángulo_405711" data-name="Rectángulo 405711" width="9.795" height="8.915" transform="translate(354.91 255.87)" fill="#e9d47c"/>
          <rect id="Rectángulo_405712" data-name="Rectángulo 405712" width="70.238" height="8.915" transform="translate(302.828 246.955)" fill="#e2c64a"/>
          <rect id="Rectángulo_405713" data-name="Rectángulo 405713" width="13.358" height="8.915" transform="translate(310.093 246.955)" fill="#d9ad44"/>
          <rect id="Rectángulo_405714" data-name="Rectángulo 405714" width="9.795" height="8.915" transform="translate(354.91 246.955)" fill="#e9d47c"/>
          <rect id="Rectángulo_405715" data-name="Rectángulo 405715" width="70.238" height="8.915" transform="translate(302.828 273.7)" fill="#e2c64a"/>
          <rect id="Rectángulo_405716" data-name="Rectángulo 405716" width="13.358" height="8.915" transform="translate(310.093 273.7)" fill="#d9ad44"/>
          <rect id="Rectángulo_405717" data-name="Rectángulo 405717" width="9.795" height="8.915" transform="translate(354.91 273.7)" fill="#e9d47c"/>
          <line id="Línea_3219" data-name="Línea 3219" x1="61.877" transform="translate(302.828 291.529)" fill="none" stroke="#d19734" stroke-miterlimit="10" stroke-width="0.844"/>
          <line id="Línea_3220" data-name="Línea 3220" x1="61.877" transform="translate(302.828 282.614)" fill="none" stroke="#d19734" stroke-miterlimit="10" stroke-width="0.844"/>
          <line id="Línea_3221" data-name="Línea 3221" x1="61.877" transform="translate(302.828 273.699)" fill="none" stroke="#d19734" stroke-miterlimit="10" stroke-width="0.844"/>
          <line id="Línea_3222" data-name="Línea 3222" x1="61.877" transform="translate(302.828 264.785)" fill="none" stroke="#d19734" stroke-miterlimit="10" stroke-width="0.844"/>
          <line id="Línea_3223" data-name="Línea 3223" x1="70.238" transform="translate(302.828 255.87)" fill="none" stroke="#d19734" stroke-miterlimit="10" stroke-width="0.844"/>
          <line id="Línea_3224" data-name="Línea 3224" x1="70.238" transform="translate(302.828 246.955)" fill="none" stroke="#d19734" stroke-miterlimit="10" stroke-width="0.844"/>
          <path id="Trazado_885926" data-name="Trazado 885926" d="M607.9,397.7a29.759,29.759,0,1,1-20.941-36.505A29.758,29.758,0,0,1,607.9,397.7" transform="translate(-182.19 -119.429)" fill="#d19734"/>
          <path id="Trazado_885927" data-name="Trazado 885927" d="M601.609,395.992a29.759,29.759,0,1,1-20.941-36.505,29.758,29.758,0,0,1,20.941,36.505" transform="translate(-180.105 -118.864)" fill="#e2c64a"/>
          <path id="Trazado_885928" data-name="Trazado 885928" d="M598.847,397.376a23.868,23.868,0,1,1-16.8-29.279,23.868,23.868,0,0,1,16.8,29.279" transform="translate(-183.029 -121.788)" fill="#dab03c"/>
          <path id="Trazado_885929" data-name="Trazado 885929" d="M554.14,386.644a23.87,23.87,0,0,1,41.079-9.387,23.863,23.863,0,1,0-38.8,27.795,25.053,25.053,0,0,1-2.283-18.408" transform="translate(-183.029 -121.788)" fill="#d19734"/>
          <path id="Trazado_885930" data-name="Trazado 885930" d="M577.351,410.449l.9-3.307c-3.689-1.182-5.211-2.96-3.992-7.459a18.553,18.553,0,0,1,.995-2.828l4.71,1.277a10.738,10.738,0,0,0-.441,1.292c-.529,1.952-.7,3.09,1.21,3.608,1.866.505,2.263-.116,2.942-2.62.334-1.23.448-1.655-.07-2.433-1.043-1.7-4.282-3.529-5.616-5.165-1.209-1.422-1.158-2.956-.088-6.9,1.23-4.541,3-5.7,7.388-4.74l.712-2.627,2.674.724-.712,2.627c3.943,1.251,4.965,3.03,3.872,7.062a19.38,19.38,0,0,1-.871,2.543l-4.668-1.265a14.425,14.425,0,0,0,.432-1.432c.483-1.782.47-2.742-1.312-3.226-1.528-.414-2.09-.019-2.665,2.1-.6,2.207-.528,2.454.742,3.481,1.375,1.147,2.776,2.028,3.962,3.032,1.657,1.45,2.815,2.22,1.631,6.591-1.667,6.154-3.388,7.965-8.148,7.039l-.907,3.349Z" transform="translate(-190.293 -125.529)" fill="#d19734"/>
          <path id="Trazado_885931" data-name="Trazado 885931" d="M421.825,436.74l-6.916,3.724a1.984,1.984,0,0,0-.965,2.183c.172.69.755,1.222,2.285,1.267,3.4.1,23.047-2.23,23.047-2.23l.332,2.159,7.482-.138s-1.188-9.987-3.3-11.311Z" transform="translate(-137.25 -143.387)"/>
          <path id="Trazado_885932" data-name="Trazado 885932" d="M438.685,429.391l-12.923,6.058s4.8,3.448,10.076,1.229,11.886-5.574,11.886-5.574l-.935-2.6Z" transform="translate(-141.188 -142.097)" fill="#c67b5b"/>
          <path id="Trazado_885933" data-name="Trazado 885933" d="M448.27,416.725l-8.7-31.579-12.165.5L438.916,418.6Z" transform="translate(-141.734 -127.719)" fill="#c67b5b"/>
          <path id="Trazado_885934" data-name="Trazado 885934" d="M406.731,342.833l16.658,50.407,20.751-4.283L427.06,334.7Z" transform="translate(-134.877 -110.99)" fill="#2d9a7d"/>
          <path id="Trazado_885935" data-name="Trazado 885935" d="M482.983,306.621s18.526,26.449-4.639,33.824l-62.44-.323a10.193,10.193,0,0,1-1.835-20.209l55.605-7.489-1.753-5.88Z" transform="translate(-134.555 -101.653)" fill="#2d9a7d"/>
          <path id="Trazado_885936" data-name="Trazado 885936" d="M493.57,306.653s14.592,20.832,1.682,30.675a15.837,15.837,0,0,1-9.7,3.131l-59.057-.305a10.192,10.192,0,0,1-9.5-6.624c-2.214-5.925,1.5-13.41,7.712-14.581l42.288-5.7,2.708-6.723Z" transform="translate(-138.067 -101.649)" fill="#41c9a5"/>
          <path id="Trazado_885937" data-name="Trazado 885937" d="M364.116,436.441l-6.916,3.724a1.984,1.984,0,0,0-.965,2.183c.172.69.755,1.222,2.285,1.267,3.4.1,22.124-2.235,22.124-2.235l-.018,1.934,7.034.084s.533-9.978-1.582-11.3Z" transform="translate(-118.113 -143.288)"/>
          <path id="Trazado_885938" data-name="Trazado 885938" d="M380.976,429.092l-12.923,6.058s4.8,3.447,10.076,1.228,11.886-5.574,11.886-5.574l-.935-2.6Z" transform="translate(-122.051 -141.998)" fill="#c67b5b"/>
          <path id="Trazado_885939" data-name="Trazado 885939" d="M396.01,416.488,411.3,385.033l-13.886.491-11.278,32.218Z" transform="translate(-128.046 -127.682)" fill="#c67b5b"/>
          <path id="Trazado_885940" data-name="Trazado 885940" d="M406.7,334.865l-22.1,56.7,19.778,7.148,22.2-54.266Z" transform="translate(-127.538 -111.045)" fill="#41c9a5"/>
          <path id="Trazado_885941" data-name="Trazado 885941" d="M481.637,249.491l-1.249,38.174a5.993,5.993,0,0,0,11.98.347l2.194-37.96Z" transform="translate(-159.302 -82.734)" fill="#c67b5b"/>
          <path id="Trazado_885942" data-name="Trazado 885942" d="M478.363,260.441s-1.827-20.356,8.773-21.046c12.012-.781,8.211,24.1,8.288,22.334Z" transform="translate(-158.591 -79.38)" fill="#e79c88"/>
          <path id="Trazado_885943" data-name="Trazado 885943" d="M446.383,308.093l27.452-8.045,1.629,10.463-27.23,2.613Z" transform="translate(-148.026 -99.5)" fill="#c67b5b"/>
          <path id="Trazado_885944" data-name="Trazado 885944" d="M502.461,234.179l13.681,2.2s2.6-.38,4.745,7.11c1.827,6.388-4.9,38.888-4.9,38.888H492.118L485.8,261.834a19.22,19.22,0,0,1-1.048-5.048,22.658,22.658,0,0,1,1.664-10.673l1.348-8.194,8.188-3.051Z" transform="translate(-160.728 -77.657)" fill="#e79c88"/>
          <path id="Trazado_885945" data-name="Trazado 885945" d="M510.773,234.977l-4.965-.8-7.06.874-3.094,1.172s-2.914,4.444,1.91,5c5.859.676,10.433-1.561,13.209-6.247" transform="translate(-164.076 -77.657)" fill="#c67b5b"/>
          <path id="Trazado_885946" data-name="Trazado 885946" d="M522.589,247.857l3.718,38.012a5.992,5.992,0,0,0,11.941-1.017l-2.755-37.907Z" transform="translate(-173.297 -81.89)" fill="#c67b5b"/>
          <path id="Trazado_885947" data-name="Trazado 885947" d="M521.718,259.146s-3.9-21.019,5.074-21.7c12-.907,12.148,22.8,12.022,21.037Z" transform="translate(-172.729 -78.732)" fill="#e79c88"/>
          <path id="Trazado_885948" data-name="Trazado 885948" d="M494.989,308.979l26.359-11.115,2.808,10.21L497.4,313.768Z" transform="translate(-164.144 -98.775)" fill="#c67b5b"/>
          <path id="Trazado_885949" data-name="Trazado 885949" d="M488.27,313.375s-4.718-6.378-13.542,2.315l2.962,2.474h12.991l1.646-4.4Z" transform="translate(-157.426 -103.171)" fill="#c67b5b"/>
          <path id="Trazado_885950" data-name="Trazado 885950" d="M488.872,321.289h24.273a2.718,2.718,0,0,1,2.718,2.718h-26.99Z" transform="translate(-162.116 -106.543)"/>
          <path id="Trazado_885951" data-name="Trazado 885951" d="M467.068,309.5H425.647L416.5,280.805a2.59,2.59,0,0,1,2.5-3.268h36.053a2.59,2.59,0,0,1,2.5,1.912Z" transform="translate(-138.087 -92.035)"/>
          <path id="Trazado_885952" data-name="Trazado 885952" d="M462.983,309.5H420.037l-9.144-28.693a2.591,2.591,0,0,1,2.5-3.268h37.578a2.59,2.59,0,0,1,2.5,1.912Z" transform="translate(-136.227 -92.035)" fill="#2f313a"/>
          <path id="Trazado_885953" data-name="Trazado 885953" d="M448.795,299.741a3.011,3.011,0,1,1-3.01-3.011,3.01,3.01,0,0,1,3.01,3.011" transform="translate(-146.829 -98.399)" fill="#d1e3fd"/>
          <path id="Trazado_885954" data-name="Trazado 885954" d="M510.578,210.58a8,8,0,1,0,7.25-8.677,8,8,0,0,0-7.25,8.677" transform="translate(-169.303 -66.943)"/>
          <path id="Trazado_885955" data-name="Trazado 885955" d="M515.129,183.134s2.24-1.482,5.022,1.831,3.065,10.752-1.842,12.549Z" transform="translate(-170.823 -60.62)"/>
          <path id="Trazado_885956" data-name="Trazado 885956" d="M502.515,180.28s-3.4-8-13.665-5.651-16.516,12.443-7.2,17.815Z" transform="translate(-158.209 -57.766)"/>
          <path id="Trazado_885957" data-name="Trazado 885957" d="M483.906,192.152a11.989,11.989,0,0,0,13.223,11.21c7.226-.545,12.674-6.426,12.169-13.136s-6.773-11.709-14-11.165a12.011,12.011,0,0,0-11.393,13.092" transform="translate(-160.457 -59.365)"/>
          <path id="Trazado_885958" data-name="Trazado 885958" d="M503.318,210.434l5.393,16.926-5.978,4.933-3.395-2.367-1.9-16.529Z" transform="translate(-164.958 -69.783)" fill="#c67b5b"/>
          <path id="Trazado_885959" data-name="Trazado 885959" d="M498.93,227.773l4.909-9.535-6.151-1.508Z" transform="translate(-165.04 -71.87)"/>
          <path id="Trazado_885960" data-name="Trazado 885960" d="M497.584,182.808a14.606,14.606,0,0,0-6.835.245c-3,.87-6.755,3.079-6.824,8.682-.115,9.34,1.53,16.2,6.27,17.952,3.639,1.347,6.154.532,10.024-2.133,1.441-.991,2.647-4.288,2.922-6.1l1.364-5.094s3.885-11.462-6.921-13.558" transform="translate(-160.474 -60.525)" fill="#c67b5b"/>
          <path id="Trazado_885961" data-name="Trazado 885961" d="M510.971,199.448s-6.881-12.187-.372-16.228c0,0,2.947-.443,4.574,5.261,2.61,9.15-4.2,10.967-4.2,10.967" transform="translate(-168.392 -60.755)"/>
          <path id="Trazado_885962" data-name="Trazado 885962" d="M510.81,208.246a10.318,10.318,0,0,1,1.234-3.714c.9-1.6,2.255-3.107,4.167-2.117,3.255,1.685-.208,6.961-3.619,7.275-1,.092-1.893-.631-1.782-1.444" transform="translate(-169.388 -67.019)" fill="#c67b5b"/>
          <path id="Trazado_885963" data-name="Trazado 885963" d="M511.326,213.176a1.412,1.412,0,1,0,1.281-1.533,1.412,1.412,0,0,0-1.281,1.533" transform="translate(-169.56 -70.182)" fill="#fff"/>
          <path id="Trazado_885964" data-name="Trazado 885964" d="M503.765,183.56s-13.906,11.635-22.458,5.032c0,0-3.206-7.621,9.759-10.063s12.7,5.03,12.7,5.03" transform="translate(-159.491 -59.04)"/>
          <path id="Trazado_885965" data-name="Trazado 885965" d="M492.235,210.434l-.816,1.9,1.051.824" transform="translate(-162.96 -69.783)" fill="none" stroke="#000" stroke-linecap="round" stroke-linejoin="round" stroke-width="0.381"/>
          <path id="Trazado_885966" data-name="Trazado 885966" d="M488.216,199.861a1.012,1.012,0,0,1-.852,1.317,7.47,7.47,0,0,0-1.952.5.593.593,0,0,1-.784-.277.825.825,0,0,1-.009-.8,2.88,2.88,0,0,1,1.939-1.466c1.388-.282,1.659.716,1.659.716" transform="translate(-160.673 -66.022)"/>
          <path id="Trazado_885967" data-name="Trazado 885967" d="M497.926,199.568s-.382,1.1,1.266,1.306a18.924,18.924,0,0,1,3.459.914.965.965,0,0,0,1.077-.286.628.628,0,0,0-.033-.8,6.775,6.775,0,0,0-3.5-1.875c-1.953-.265-2.272.737-2.272.737" transform="translate(-165.106 -65.92)"/>
          <path id="Trazado_885968" data-name="Trazado 885968" d="M496.912,207.208s.89-3.48,5.476-.96c0,0-1.837,3.619-5.476.96" transform="translate(-164.782 -68.091)" fill="#fff"/>
        </g>
      </g>
      <g id="Grupo_1111929" data-name="Grupo 1111929" transform="translate(332.131 137.242)">
        <g id="Grupo_1111928" data-name="Grupo 1111928" clip-path="url(#clip-path-9)">
          <path id="Trazado_885969" data-name="Trazado 885969" d="M498.248,206.693a1.587,1.587,0,1,0,1.765-1.441,1.611,1.611,0,0,0-1.765,1.441" transform="translate(-497.352 -205.303)"/>
        </g>
      </g>
      <g id="Grupo_1111931" data-name="Grupo 1111931">
        <g id="Grupo_1111930" data-name="Grupo 1111930" clip-path="url(#clip-path-2)">
          <path id="Trazado_885971" data-name="Trazado 885971" d="M502.274,206.259a4.566,4.566,0,0,0-1.4-.649,4.936,4.936,0,0,0-1.521-.191,2.916,2.916,0,0,0-1.412.449,1.868,1.868,0,0,0-.78,1.148l0,.023a.208.208,0,0,1-.408-.076v-.007a2.236,2.236,0,0,1,.995-1.386,3.234,3.234,0,0,1,1.593-.449,5.223,5.223,0,0,1,1.607.25,4.8,4.8,0,0,1,1.446.727.1.1,0,0,1,.021.141.1.1,0,0,1-.14.021" transform="translate(-164.727 -68.02)"/>
          <path id="Trazado_885972" data-name="Trazado 885972" d="M489.338,207.166s-1.371-3.444-3.876-1.055c0,0,.991,3.384,3.876,1.055" transform="translate(-160.985 -68.069)" fill="#fff"/>
        </g>
      </g>
      <g id="Grupo_1111933" data-name="Grupo 1111933" transform="translate(324.477 137.198)">
        <g id="Grupo_1111932" data-name="Grupo 1111932" clip-path="url(#clip-path-11)">
          <path id="Trazado_885973" data-name="Trazado 885973" d="M488.747,206.452a1.229,1.229,0,1,1-1.431-1.291,1.382,1.382,0,0,1,1.431,1.291" transform="translate(-485.76 -205.227)"/>
        </g>
      </g>
      <g id="Grupo_1111935" data-name="Grupo 1111935">
        <g id="Grupo_1111934" data-name="Grupo 1111934" clip-path="url(#clip-path-2)">
          <path id="Trazado_885975" data-name="Trazado 885975" d="M485.35,206.017a1.978,1.978,0,0,1,.791-.72,1.711,1.711,0,0,1,1.083-.134l-.016,0a2.506,2.506,0,0,1,1.309.587,3.259,3.259,0,0,1,.859,1.16.175.175,0,1,1-.32.143l0-.005-.005-.013a2.962,2.962,0,0,0-.73-1.058,2.219,2.219,0,0,0-1.145-.565l-.017,0a1.5,1.5,0,0,0-.929.084,1.787,1.787,0,0,0-.737.624.085.085,0,0,1-.118.021.087.087,0,0,1-.023-.116" transform="translate(-160.944 -68.023)"/>
          <path id="Trazado_885976" data-name="Trazado 885976" d="M497.069,215.75s-1.027,1.57-3.762.621" transform="translate(-163.587 -71.545)" fill="none" stroke="#000" stroke-linecap="round" stroke-linejoin="round" stroke-width="0.381"/>
          <line id="Línea_3225" data-name="Línea 3225" x2="406.54" transform="translate(27.492 300.438)" fill="none" stroke="#a0c0fc" stroke-linecap="round" stroke-linejoin="round" stroke-width="2"/>
          <path id="Trazado_885977" data-name="Trazado 885977" d="M271.237,68.408h-9.982L241.822,42.859V68.408h-9.982V29.578h9.982l19.466,25.6v-25.6h9.949Z" transform="translate(-76.881 -9.808)" fill="#023263"/>
          <rect id="Rectángulo_405720" data-name="Rectángulo 405720" width="9.983" height="38.83" transform="translate(203.707 19.77)" fill="#023263"/>
          <rect id="Rectángulo_405721" data-name="Rectángulo 405721" width="9.982" height="38.83" transform="translate(223.572 19.77)" fill="#023263"/>
          <path id="Trazado_885978" data-name="Trazado 885978" d="M392.418,52.54H373.251V68.408h-9.982V29.578h31.545v6.481H373.251V46.086h19.167Z" transform="translate(-120.464 -9.809)" fill="#023263"/>
        </g>
      </g>
    </g>
  </g>
</svg>
