<svg xmlns="http://www.w3.org/2000/svg" xmlns:xlink="http://www.w3.org/1999/xlink" width="139" height="139" viewBox="0 0 139 139">
  <defs>
    <clipPath id="clip-path">
      <rect id="Rectángulo_404919" data-name="Rectángulo 404919" width="139" height="139" fill="none"/>
    </clipPath>
    <clipPath id="clip-path-2">
      <rect id="Rectángulo_404925" data-name="Rectángulo 404925" width="68" height="68" fill="#fff" stroke="#707070" stroke-width="1"/>
    </clipPath>
    <clipPath id="clip-path-3">
      <rect id="Rectángulo_406975" data-name="Rectángulo 406975" width="62.185" height="59.015" fill="#fff"/>
    </clipPath>
  </defs>
  <g id="Grupo_1112391" data-name="Grupo 1112391" transform="translate(-179.664 -3667.001)">
    <g id="Grupo_1110094" data-name="Grupo 1110094" transform="translate(179.664 3667.001)">
      <g id="Grupo_1110058" data-name="Grupo 1110058" clip-path="url(#clip-path)">
        <path id="Trazado_883529" data-name="Trazado 883529" d="M4.876,33.3l15.457,85.6C22.6,131.474,35.1,139.907,48.254,137.736a24.679,24.679,0,0,0,11.351-5.015l69.793-55.6a22.413,22.413,0,0,0,3.1-32.537,24.179,24.179,0,0,0-10.216-6.893L37.03,7.7C24.507,3.288,10.62,9.423,6.011,21.4A22.144,22.144,0,0,0,4.876,33.3" transform="translate(0.906 0.925)" fill="#0354a5"/>
        <path id="Trazado_883530" data-name="Trazado 883530" d="M136.965,98.332h0a23.86,23.86,0,0,1-6.93,9.2,24.935,24.935,0,0,1-11.378,5.157L29.422,128.97c-13.4,2.486-26.37-5.886-28.97-18.7A22.648,22.648,0,0,1,1.4,97.925L31.283,15.9c.139-.383.289-.767.448-1.14A24.357,24.357,0,0,1,50.635.324a26,26,0,0,1,12.118.947A24.626,24.626,0,0,1,73.409,8.216L132.762,73.97a22.679,22.679,0,0,1,4.2,24.361M32.842,15.189c-.15.357-.3.723-.427,1.088L2.535,98.305C-1.743,110.057,4.753,122.9,17.041,126.99a24.6,24.6,0,0,0,12.157.854l89.232-16.274c12.781-2.331,21.166-14.127,18.73-26.349a22.141,22.141,0,0,0-5.308-10.5L72.5,8.965A24.319,24.319,0,0,0,39.266,6.634a22.585,22.585,0,0,0-6.425,8.554" transform="translate(0 0)" fill="#41c9a5"/>
      </g>
    </g>
    <g id="Enmascarar_grupo_1108078" data-name="Enmascarar grupo 1108078" transform="translate(213.663 3704.001)" clip-path="url(#clip-path-2)">
      <g id="Grupo_1113870" data-name="Grupo 1113870" transform="translate(2.908 4.777)">
        <g id="Grupo_1113869" data-name="Grupo 1113869" clip-path="url(#clip-path-3)">
          <path id="Trazado_887853" data-name="Trazado 887853" d="M51.885,25.454A17.583,17.583,0,1,1,35.3,56.381,18.15,18.15,0,0,1,26.98,43.468l-24.04.018A3.142,3.142,0,0,1,0,40.546V2.936A3.111,3.111,0,0,1,2.587,0L49.848.141a3.44,3.44,0,0,1,2.005,2.805Zm-2.167-.863v-22a2.038,2.038,0,0,0-.58-.489L2.85,2.044,2.234,2.5,2.4,28.7l1.251.353,27.99,0c.738-.1,2.131-1.6,2.752-2.148H9.005c-.69,0-.773-1.757-.885-2.144-.7-2.421-3.634-1.442-3.977-2.972L4.2,8.917c.953-1.171,2.108-.409,3.3-1.689C8.6,6.043,7.75,4.274,9.358,4.1L42.943,4.2c.809.357.413,2.774,2.2,3.684,1.245.635,2.4-.139,2.619,1.835.416,3.67-.275,8.141-.042,11.895-.335,1.86-2.333.69-3.164,2.09a22.782,22.782,0,0,1,5.167.893M19.25,6.24H10.163c-.192,2.053-2.071,3.511-3.931,4.029V20.742a4.971,4.971,0,0,1,3.931,4.029H19.25l-2.229-2.136a11.53,11.53,0,0,1,.733-15.129c.425-.441,1.1-.789,1.5-1.265m5.124.046a9.523,9.523,0,0,0-7.312,6.23A9.344,9.344,0,0,0,30.594,23.553C39.326,18.6,34.988,4.937,24.374,6.286M41.433,6.24h-8.82L34.664,8.2a11.459,11.459,0,0,1,.082,14.518l-2.132,2.053c1.831-.1,3.807.142,5.619.009a34.557,34.557,0,0,0,3.6-.76c.079-.057.332-.77.5-1.015a5.218,5.218,0,0,1,3.292-2.261V10.269c-2.221-.528-3.373-1.992-4.2-4.029m2.013,19.652a15.554,15.554,0,1,0,15.07,22.375,15.6,15.6,0,0,0-15.07-22.375M30.3,31.006H2.413c-.038,0-.2-.266-.265-.178,0,1.176-.318,2.149,1.152,2.32l25.315.006c.771-.093,1.2-1.531,1.682-2.148m-2.316,4.1H2.145c.023.77-.229,1.586.539,2.045l24.5.1c.5.068.884-2.056.8-2.14M27.09,39.38H2.769c-.091,0-.374-.283-.623-.177.063.558-.237,1.761.355,2.049l24.412.089Z" fill="#fff"/>
          <path id="Trazado_887854" data-name="Trazado 887854" d="M212.549,199.14l-14.907,12.628c-.485.2-.788-.019-1.165-.284a51.928,51.928,0,0,1-4.292-4.447,1.056,1.056,0,0,1,1.358-1.358c.753.23,3.56,3.663,3.825,3.661l13.923-11.908c1.163-.614,1.939.721,1.258,1.708" transform="translate(-157.896 -162.126)" fill="#fff"/>
          <path id="Trazado_887855" data-name="Trazado 887855" d="M122.071,44.838v3.029c5.49.345,5.488,6.6,0,6.95-.07.87.371,2.044-.8,2.151-1.856.17-.795-1.668-1.334-2.068-1.642.279-5.487-3.079-3.67-4.373,1.425-1.015,1.618,1.025,2.074,1.515a2.616,2.616,0,0,0,1.77.635V49.916c-1.288-.591-2.643-.724-3.562-1.961-2.029-2.732.912-5.019,3.483-5.422l.165-1.616c1.515-1.174,2.039.133,1.952,1.616,1.566.383,3.462,1.093,3.97,2.8.279.941.134,2.033-1.1,1.819-.889-.154-.7-1.153-1.179-1.681a2.254,2.254,0,0,0-1.77-.635m-1.96,0c-2.79.077-2.762,2.493,0,2.673Zm1.96,7.84c2.775-.162,2.775-2.511,0-2.673Z" transform="translate(-95.159 -33.253)" fill="#fff"/>
        </g>
      </g>
    </g>
  </g>
</svg>
