<svg xmlns="http://www.w3.org/2000/svg" xmlns:xlink="http://www.w3.org/1999/xlink" width="150" height="150" viewBox="0 0 150 150">
  <defs>
    <clipPath id="clip-path">
      <rect id="Rectángulo_404919" data-name="Rectángulo 404919" width="150" height="150" fill="none"/>
    </clipPath>
    <clipPath id="clip-path-2">
      <rect id="Rectángulo_404925" data-name="Rectángulo 404925" width="60" height="60" transform="translate(-0.121)" fill="#fff" stroke="#707070" stroke-width="1"/>
    </clipPath>
    <clipPath id="clip-path-3">
      <rect id="Rectángulo_405765" data-name="Rectángulo 405765" width="51.121" height="55.519" fill="#fff"/>
    </clipPath>
  </defs>
  <g id="Grupo_1111898" data-name="Grupo 1111898" transform="translate(-179.664 -3667)">
    <g id="Grupo_1110094" data-name="Grupo 1110094" transform="translate(179.664 3667)">
      <g id="Grupo_1110058" data-name="Grupo 1110058" clip-path="url(#clip-path)">
        <path id="Trazado_883529" data-name="Trazado 883529" d="M4.9,35.444l16.68,92.369c2.45,13.569,15.941,22.669,30.131,20.326a26.632,26.632,0,0,0,12.25-5.412l75.316-60a24.187,24.187,0,0,0,3.343-35.112A26.093,26.093,0,0,0,131.6,40.179l-92-32.37C26.088,3.052,11.1,9.673,6.129,22.593A23.9,23.9,0,0,0,4.9,35.444" transform="translate(1.335 1.494)" fill="#023263"/>
        <path id="Trazado_883530" data-name="Trazado 883530" d="M147.8,106.113h0a25.748,25.748,0,0,1-7.478,9.933,26.908,26.908,0,0,1-12.278,5.565l-96.3,17.565C17.29,141.859,3.294,132.824.488,119a24.44,24.44,0,0,1,1.024-13.323L33.758,17.153c.15-.414.312-.827.483-1.23A26.285,26.285,0,0,1,54.641.349,28.053,28.053,0,0,1,67.719,1.371a26.574,26.574,0,0,1,11.5,7.495l64.049,70.958a24.474,24.474,0,0,1,4.536,26.289M35.441,16.39c-.162.385-.319.78-.461,1.174L2.735,106.084c-4.616,12.681,2.393,26.539,15.655,30.954a26.549,26.549,0,0,0,13.119.921L127.8,120.4c13.792-2.515,22.841-15.245,20.212-28.434a23.893,23.893,0,0,0-5.728-11.33L78.237,9.675A26.243,26.243,0,0,0,42.374,7.159a24.372,24.372,0,0,0-6.933,9.231" transform="translate(0 0)" fill="#41c9a5"/>
      </g>
    </g>
    <g id="Enmascarar_grupo_1108078" data-name="Enmascarar grupo 1108078" transform="translate(224.664 3712)" clip-path="url(#clip-path-2)">
      <g id="Grupo_1112011" data-name="Grupo 1112011" transform="translate(4.879 2)">
        <g id="Grupo_1112010" data-name="Grupo 1112010" clip-path="url(#clip-path-3)">
          <path id="Trazado_886155" data-name="Trazado 886155" d="M43.467,8.759c14.2,13.879,7.643,38.13-11.415,43.05A3.643,3.643,0,0,1,25.2,53.592c-1.877-3.669,2.407-7.091,5.773-4.364.318.258.431.869.925.873A23.846,23.846,0,0,0,45.979,14.736c-.232-.385-1.513-2.451-1.8-2.388a6.26,6.26,0,0,0-1.35,4.539,2.934,2.934,0,0,1,2.307,3.725c-.12.585-.861,1.189-.868,1.5s.43.889.5,1.328c.283,1.718-.978,2.37-1,2.692a5.837,5.837,0,0,1,.487,2.548c-.111.7-.89,1.341-.9,1.649-.009.35.42.759.5,1.141.41,1.893-.9,3.242-2.613,3.7-.019,2.085-1.2,6.768-3.827,6.767-.81,0-1.77-.871-2.007-.858-.17.009-.571.451-.842.562-1.28.526-1.931.114-3.08-.436a2.757,2.757,0,0,1-3.643,1.353c-.327-.134-.692-.626-1.021-.627s-.6.515-.952.691a2.723,2.723,0,0,1-3.283-.481c-.388-.106-1.743.824-2.06,1.163-1.6,1.705-2.863,4.989-4.374,6.894-.829.826-3.313-.889-4.192-1.433C-4.959,38.277-3.643,12.9,14.108,4.288A3.769,3.769,0,0,1,19.786.579,3.7,3.7,0,0,1,19.3,7.014c-1.953.85-3.192.011-4.675-1.211C2.836,11.737-2.049,27.126,4.732,38.635l7.25-8.449c1.417-2.888,1.275-7.139,3.707-9.439.893-.844,3.156-1.844,3.746-2.644,1.132-1.535,1.678-4.825,2.841-6.653,1.308-2.055,3.822-2.688,5.281-4.4.859-1.006,2.214-4.305,2.907-4.761.511-.336,1.341-.038,1.931.1A26.768,26.768,0,0,1,43.467,8.759M17.186,1.8a1.956,1.956,0,0,0,.508,3.81C20.7,5.7,20.3,1.084,17.186,1.8M30.293,21.658c-1.073.216-2.773-.159-3.925,0-.039,5.83.085,11.571-1.742,17.155-.179.549-1.208,2.125-.512,2.354.723.238,1.107-.107,1.492-.643a45.349,45.349,0,0,0,2.319-4.8c.3-1.154-.242-4.716.355-5.3a1.165,1.165,0,0,1,1.194-.089c.71.718.187,1.576.173,2.367-.018.974.125,2.195.012,3.116-.174,1.419-2.242,3.428-1.557,4.835.24.492,1.25.489,1.658.195A42.972,42.972,0,0,0,32.069,36.4c.477-1.611.034-4.129.51-5.836,2.036-1.036,1.5.607,1.459,1.781-.046,1.247-.013,3-.195,4.186-.11.72-1.962,3.138-.78,3.543a1.747,1.747,0,0,0,.853,0,16.778,16.778,0,0,0,1.72-3.21c.487-1.825.055-5.126.8-6.5.138-.255.658-.621.662-.754a5.958,5.958,0,0,1-.675-1.809c.023-1.09.979-1.869,1.052-2.238A5.832,5.832,0,0,1,37,23.071c.136-.8,1.006-1.583,1.009-1.683a10.06,10.06,0,0,1-.653-1.514,3.051,3.051,0,0,1,3.8-3.145,8.219,8.219,0,0,1,1.832-5.752A21.144,21.144,0,0,0,31.42,3.966c-1.253,1.863-1.9,3.8-3.687,5.272-1.034.853-2.784,1.595-3.637,2.571-1,1.148-1.387,3.126-2.109,4.464.443.12.819-.39,1.278-.548,1.323-.454,6.292-.459,7.551.115,2.372,1.082,1.9,5.331-.523,5.817M22.111,40.225a9.067,9.067,0,0,0,.745-1.539c1.535-3.714,1.815-9.078,1.877-13.1.026-1.71-.129-3.387-.16-5.09.345-1.023,4.445-.13,5.444-.58a1.494,1.494,0,0,0-.126-2.607,48.308,48.308,0,0,0-6.126.006c-.41.109-6.555,4.3-7.008,4.768C14.536,24.4,14.939,29.2,12.4,32.433c-2.074,2.646-4.741,5.079-6.82,7.756a23.985,23.985,0,0,0,9.379,8.317c.256.026.3-.175.428-.305,1.595-1.672,2.577-5.13,4.527-6.609a17,17,0,0,0,2.193-1.366M39.826,18.411a1.3,1.3,0,0,0-.124,2.237c1.12.5,4.258.844,3.791-1.232-.229-1.02-2.87-1.236-3.667-1.006m2.93,4.571c-.619-.569-4.486-1.1-4.126.914.219,1.222,3.305,1.522,4,.971a1.274,1.274,0,0,0,.124-1.886M39.1,26.628a1.218,1.218,0,0,0-.3,2.232,14.058,14.058,0,0,0,2.782.434,1.332,1.332,0,0,0,.667-2.239,7.952,7.952,0,0,0-3.147-.427M41.842,31.2c-.473-.434-3.339-.745-3.878-.044-1.379,1.791,2.084,2.415,3.28,2.184a1.3,1.3,0,0,0,.6-2.14m-2.328,3.6-2.008-.181c.443,1.49-.858,3.5-.912,4.676a.828.828,0,0,0,1.382.632c.675-.494,2.032-4.637,1.538-5.127M27.775,50c-1.859.426-1.8,3.738.508,3.81A1.958,1.958,0,1,0,27.775,50" transform="translate(0 0)" fill="#fff"/>
        </g>
      </g>
    </g>
  </g>
</svg>
