<svg xmlns="http://www.w3.org/2000/svg" xmlns:xlink="http://www.w3.org/1999/xlink" width="147" height="147" viewBox="0 0 147 147">
  <defs>
    <clipPath id="clip-path">
      <rect id="Rectángulo_404919" data-name="Rectángulo 404919" width="147" height="147" fill="none"/>
    </clipPath>
    <clipPath id="clip-path-2">
      <rect id="Rectángulo_405773" data-name="Rectángulo 405773" width="78.518" height="78.519" transform="translate(2.297 3.296)" fill="#92d8fe" stroke="#707070" stroke-width="1"/>
    </clipPath>
    <clipPath id="clip-path-3">
      <rect id="Rectángulo_405827" data-name="Rectángulo 405827" width="68.107" height="66.91" fill="#92d8fe"/>
    </clipPath>
  </defs>
  <g id="Grupo_1113895" data-name="Grupo 1113895" transform="translate(-727 -849.07)">
    <g id="Grupo_1112015" data-name="Grupo 1112015" transform="translate(727 849.07)">
      <g id="Grupo_1110058" data-name="Grupo 1110058" transform="translate(0 0)" clip-path="url(#clip-path)">
        <path id="Trazado_883529" data-name="Trazado 883529" d="M4.9,34.861l16.347,90.521c2.4,13.3,15.622,22.216,29.528,19.92a26.1,26.1,0,0,0,12-5.3l73.81-58.8a23.7,23.7,0,0,0,3.276-34.409,25.571,25.571,0,0,0-10.8-7.289L38.9,7.778C25.657,3.116,10.971,9.6,6.1,22.267A23.419,23.419,0,0,0,4.9,34.861" transform="translate(1.218 1.339)" fill="#023263"/>
        <path id="Trazado_883530" data-name="Trazado 883530" d="M144.847,103.991h0a25.234,25.234,0,0,1-7.329,9.735,26.37,26.37,0,0,1-12.033,5.454l-94.37,17.213C16.945,139.021,3.228,130.168.478,116.617a23.952,23.952,0,0,1,1-13.056l31.6-86.751c.147-.405.306-.811.473-1.205A25.759,25.759,0,0,1,53.549.342a27.492,27.492,0,0,1,12.816,1,26.043,26.043,0,0,1,11.27,7.345L140.4,78.227a23.984,23.984,0,0,1,4.445,25.763M34.732,16.063c-.159.377-.312.765-.452,1.151l-31.6,86.749C-1.843,116.39,5.026,129.971,18.022,134.3a26.018,26.018,0,0,0,12.856.9l94.368-17.211c13.516-2.465,22.385-14.94,19.808-27.865a23.415,23.415,0,0,0-5.614-11.1L76.672,9.481A25.718,25.718,0,0,0,41.526,7.016a23.885,23.885,0,0,0-6.794,9.047" transform="translate(0 0)" fill="#41c9a5"/>
      </g>
    </g>
    <g id="Enmascarar_grupo_1108111" data-name="Enmascarar grupo 1108111" transform="translate(756.414 879.704)" clip-path="url(#clip-path-2)">
      <g id="Grupo_1112146" data-name="Grupo 1112146" transform="translate(7.297 9.295)">
        <g id="Grupo_1112145" data-name="Grupo 1112145" clip-path="url(#clip-path-3)">
          <path id="Trazado_886257" data-name="Trazado 886257" d="M92.889,90.017c.918.035,1.925-.228,2.634.489l.2,35.488c.109,1.085-.881,1.231-1.716,1.306-13.816-.739-28.618.961-42.319-.01-3.787-.268-6.287-2.2-6.56-6.134-.792-11.421.61-23.752.011-35.268a6.264,6.264,0,0,1,5.007-5.571c.249-.39-.126-5.826.019-6.933.093-.708.363-.936,1.106-.909l41.213.115a1.8,1.8,0,0,1,.406.4ZM90.673,74.5H52.49l-.3.3V90.017h3.828c-.886-.869-1.886-.176-2.168-1.761a45.429,45.429,0,0,1-.03-7.59c.27-1.948,1.54-.985,2.343-1.788.563-.563.234-1.841,1.069-2.256l28.607,0c.743.5.445,1.532,1,2.169.854.981,2.176-.184,2.426,2.063a45,45,0,0,1-.048,7.407c-.288,1.628-1.34.811-2.168,1.761h3.627Zm-6.278,4.264-25.624-.041a4.829,4.829,0,0,1-2.762,2.762l.04,5.777a5.559,5.559,0,0,1,2.722,2.761H84.292A11.939,11.939,0,0,1,85.326,88.4c.466-.463,1.3-.65,1.521-.9.526-.587.011-4.941.207-6.013a4.3,4.3,0,0,1-2.659-2.722m-34.222,4c-3.724.56-3.724,6.491,0,7.052Zm43.32,9.47H49.871a11.4,11.4,0,0,1-2.519-1.209v30.929a11.228,11.228,0,0,0,.637,1.378,4.829,4.829,0,0,0,2.889,1.745H93.494v-8.463H81.1c-3.84,0-7.37-4.262-7.37-7.959s3.532-7.959,7.37-7.959H93.494Zm0,10.679H81.1c-2.591,0-5.153,3.262-5.153,5.743S78.524,114.4,81.1,114.4H93.494Z" transform="translate(-37.58 -60.689)" fill="#92d8fe"/>
          <path id="Trazado_886258" data-name="Trazado 886258" d="M10.577,9.783c-.248,2.9.335,6.341.006,9.173-.088.756-.33,1.211-1.1,1.315a50.4,50.4,0,0,1-6.357-.11c-.385-.183-.562-.805-.609-1.2-.331-2.831.254-6.275.006-9.173C.561,9.976-.692,8.568.413,6.77,1.7,4.67,4.118,2.511,5.527.4,6.611-.311,7.315-.016,8.154.824a49.012,49.012,0,0,1,3.915,4.951c.48.675,1.354,1.546,1.244,2.405-.175,1.368-1.533,1.744-2.736,1.6M4.735,8.272v9.772H8.362V8.272c0-.874,1.688-.628,2.215-.8L6.649,2.534,2.721,7.468c.615.21,1.852-.1,2.014.8" transform="translate(0 0)" fill="#92d8fe"/>
          <path id="Trazado_886259" data-name="Trazado 886259" d="M347.385,9.783c-.248,2.9.335,6.341.006,9.173-.088.756-.33,1.211-1.1,1.315a50.4,50.4,0,0,1-6.357-.11c-.385-.183-.562-.805-.609-1.2-.331-2.831.254-6.275.006-9.173-1.189.2-2.639-.541-2.563-1.882s4.7-6.038,5.57-7.5c1.085-.712,1.788-.418,2.627.422a55.525,55.525,0,0,1,4.732,5.947c1.174,1.912-.306,3.276-2.308,3.012m-5.842-1.51v9.772h3.627V8.272c0-.874,1.688-.628,2.215-.8l-3.928-4.934L339.53,7.468c.615.21,1.852-.1,2.014.8" transform="translate(-282.003 0)" fill="#92d8fe"/>
          <path id="Trazado_886260" data-name="Trazado 886260" d="M194.621,118.931a2.968,2.968,0,0,1,1.32,3.434c-.321,1.043-1.541,1.069-1.868,1.457-.159.189-.079.658-.454.853-1.21.628-1.388-.467-1.919-.91-.319-.266-.79-.424-1.041-.673-.885-.876-1.2-2.825.537-2.755a2.723,2.723,0,0,1-.911-3.026c.271-1.019.941-.984,1.505-1.516.368-.348.2-1.04,1.134-1.092,1.08-.06.9.712,1.3,1.093.3.282.763.4,1.078.735.94,1,.954,2.445-.686,2.4m-.4,0c-.43-1.008-1.1-1.68-2.011-.7Zm-2.416,1.614a1.214,1.214,0,0,0,2.012.9c.14-.655-1.636-.655-2.012-.9" transform="translate(-159.058 -96.049)" fill="#92d8fe"/>
          <path id="Trazado_886261" data-name="Trazado 886261" d="M238.168,139.263a32.615,32.615,0,0,1,4.758,0c1,.3.786,1.866-.407,2.135-.979.22-4.874.361-5.062-.91a1.287,1.287,0,0,1,.711-1.224" transform="translate(-198.839 -116.545)" fill="#92d8fe"/>
          <path id="Trazado_886262" data-name="Trazado 886262" d="M148.379,139a1.194,1.194,0,0,1,.145,2.009,13.264,13.264,0,0,1-4.827.054c-1.109-.466-.615-2.063-.153-2.063a37.785,37.785,0,0,1,4.836,0" transform="translate(-119.767 -116.322)" fill="#92d8fe"/>
          <path id="Trazado_886263" data-name="Trazado 886263" d="M257.085,278.93c-3.066,3.273-8.286-1.288-5.275-4.772,3.141-3.635,8.487,1.344,5.275,4.772m-3.008-3.718c-1.65.372-.965,2.889.714,2.542a1.321,1.321,0,1,0-.714-2.542" transform="translate(-210.107 -228.516)" fill="#92d8fe"/>
        </g>
      </g>
    </g>
  </g>
</svg>
