<svg xmlns="http://www.w3.org/2000/svg" xmlns:xlink="http://www.w3.org/1999/xlink" width="139" height="139" viewBox="0 0 139 139">
  <defs>
    <clipPath id="clip-path">
      <rect id="Rectángulo_404919" data-name="Rectángulo 404919" width="139" height="139" fill="#0354a5"/>
    </clipPath>
    <clipPath id="clip-path-2">
      <rect id="Rectángulo_404925" data-name="Rectángulo 404925" width="68" height="68" fill="#fff" stroke="#707070" stroke-width="1"/>
    </clipPath>
    <clipPath id="clip-path-3">
      <rect id="Rectángulo_406974" data-name="Rectángulo 406974" width="61.5" height="61.729" fill="#fff"/>
    </clipPath>
  </defs>
  <g id="Grupo_1112392" data-name="Grupo 1112392" transform="translate(-179.664 -3667.001)">
    <g id="Grupo_1110094" data-name="Grupo 1110094" transform="translate(179.664 3667.001)">
      <g id="Grupo_1110058" data-name="Grupo 1110058" clip-path="url(#clip-path)">
        <path id="Trazado_883529" data-name="Trazado 883529" d="M4.876,33.3l15.457,85.6C22.6,131.474,35.1,139.907,48.254,137.736a24.679,24.679,0,0,0,11.351-5.015l69.793-55.6a22.413,22.413,0,0,0,3.1-32.537,24.179,24.179,0,0,0-10.216-6.893L37.03,7.7C24.507,3.288,10.62,9.423,6.011,21.4A22.144,22.144,0,0,0,4.876,33.3" transform="translate(0.906 0.925)" fill="#0354a5"/>
        <path id="Trazado_883530" data-name="Trazado 883530" d="M136.965,98.332h0a23.86,23.86,0,0,1-6.93,9.2,24.935,24.935,0,0,1-11.378,5.157L29.422,128.97c-13.4,2.486-26.37-5.886-28.97-18.7A22.648,22.648,0,0,1,1.4,97.925L31.283,15.9c.139-.383.289-.767.448-1.14A24.357,24.357,0,0,1,50.635.324a26,26,0,0,1,12.118.947A24.626,24.626,0,0,1,73.409,8.216L132.762,73.97a22.679,22.679,0,0,1,4.2,24.361M32.842,15.189c-.15.357-.3.723-.427,1.088L2.535,98.305C-1.743,110.057,4.753,122.9,17.041,126.99a24.6,24.6,0,0,0,12.157.854l89.232-16.274c12.781-2.331,21.166-14.127,18.73-26.349a22.141,22.141,0,0,0-5.308-10.5L72.5,8.965A24.319,24.319,0,0,0,39.266,6.634a22.585,22.585,0,0,0-6.425,8.554" transform="translate(0 0)" fill="#41c9a5"/>
      </g>
    </g>
    <g id="Enmascarar_grupo_1108078" data-name="Enmascarar grupo 1108078" transform="translate(213.663 3704.001)" clip-path="url(#clip-path-2)">
      <g id="Grupo_1113868" data-name="Grupo 1113868" transform="translate(2.547 2.777)">
        <g id="Grupo_1113867" data-name="Grupo 1113867" clip-path="url(#clip-path-3)">
          <path id="Trazado_887851" data-name="Trazado 887851" d="M10.221.171l.1,1.942c2.494.371,3.285-.97,5.236-1.626C17.531-.177,28.341-.031,30.933.164c5.1.382,7.79,5.036,11.271,8.113H61.5V35.062h-43V22.11l-.291-.237a10.119,10.119,0,0,1-4.823-1.345c-1.007-.486-1.964-1.594-3.168-.709v2.908H0V.171ZM8.106,2.285H2.115V20.612H8.106ZM39.12,8.277c-2.2-2.057-4.471-5.6-7.685-5.972-4.54-.53-9.975.359-14.611-.023-2.243.793-4.044,2.353-6.6,1.943V17.616h2.555c.141,0,1.794,1.237,2.385,1.491a9.287,9.287,0,0,0,3.342.8V15.061l-2.631-1.787c1.3-2.556,1.643-.813,3.414-.23,2.351.773,4.238,0,6-1.563L31.551,17.7a2.069,2.069,0,0,0,2.891-2.891l-7.478-7.5L28.435,6c.723.66,1.4,1.38,2.152,2,.092.077.061.277.075.277Zm20.265,2.115H33.129a7.455,7.455,0,0,0,2.027,2.115H52.337c-.512,3.248,1.927,5.47,5.111,5.109v8.108c-3.143-.249-5.506,1.748-5.136,5l-.416.289-24.065-.077c-.292-.2-.124-1.272-.207-1.731-.436-2.42-2.745-3.634-5.069-3.477V17.615c1.486.119,3.316-.24,4.149-1.569.127-.506-1.293-1.363-1.618-1.751a11.224,11.224,0,0,1-2.972,1.029c-.559.078-1.273-.218-1.673.265V32.947H59.385Zm-9.251,4.053H36.653a5.028,5.028,0,0,1-.176,3.347c.633-.166,1.019-.647,1.666-.888,6.439-2.4,9.945,7.085,3.971,9.61a5.263,5.263,0,0,1-6.7-7.311c-2.54,1.926-5.236.613-6.865-1.686l-.248-.065a6.9,6.9,0,0,1-3.61,2.128c.064.735-.245,3.968.149,4.3.225.187,1.622.58,2.21.962A6.343,6.343,0,0,1,29.706,28.9L50.4,28.894c.168-2.549,2.444-4.566,4.857-5.1l.089-4.132a6.987,6.987,0,0,1-4.385-3.222,14.847,14.847,0,0,0-.824-2M39.25,18.716c-2.864.489-3.222,4.768-.3,5.855,4.722,1.757,5.84-6.8.3-5.855" transform="translate(0 0)" fill="#fff"/>
          <path id="Trazado_887852" data-name="Trazado 887852" d="M101.28,233.97v20.441H91.059L90.969,253l-4.4,1.41c-5.578-.229-11.4.486-16.879-.387l-19.742-11.8a4.12,4.12,0,0,1,3.276-7.328l11.5,6.122a5.422,5.422,0,0,1,2.735-2.548c6.278-1.394,13.041-4.505,19.6-3.4,1.369.231,2.665,1.656,4.007,2.073V233.97Zm-2.115,1.938H93.174V252.3h5.991Zm-8.13,14.778-.005-10.961a30.49,30.49,0,0,0-4.158-2.538c-1.617-.554-4.016-.067-5.748-.2l-13.336,3.581c-2.239,1.143-.776,4.485,1.643,3.756L80.261,241.4c.4-.019.974,1.851.453,2.049L68.767,246.5c-2.265-.056-3.431-1.4-4.249-3.341l-11.34-6.105a2.048,2.048,0,0,0-1.756,3.694l19.5,11.515c4.947-.374,11.008.634,15.825.044,1.282-.157,2.959-1.344,4.289-1.615" transform="translate(-39.78 -192.74)" fill="#fff"/>
        </g>
      </g>
    </g>
  </g>
</svg>
