<svg xmlns="http://www.w3.org/2000/svg" xmlns:xlink="http://www.w3.org/1999/xlink" width="99" height="99" viewBox="0 0 99 99">
  <defs>
    <clipPath id="clip-path">
      <rect id="Rectángulo_401223" data-name="Rectángulo 401223" width="99" height="99" transform="translate(0)" fill="#174035"/>
    </clipPath>
    <clipPath id="clip-path-2">
      <rect id="Rectángulo_401223-2" data-name="Rectángulo 401223" width="88.539" height="88.539" fill="#f3f9ff"/>
    </clipPath>
    <clipPath id="clip-path-3">
      <rect id="Rectángulo_405728" data-name="Rectángulo 405728" width="64.199" height="64.722" fill="none"/>
    </clipPath>
  </defs>
  <g id="Grupo_1111977" data-name="Grupo 1111977" transform="translate(-619.921 -5755.871)">
    <g id="Grupo_1100724" data-name="Grupo 1100724" transform="translate(619.921 5755.871)">
      <g id="Grupo_1099654" data-name="Grupo 1099654" transform="translate(0 0)">
        <g id="Grupo_1099652" data-name="Grupo 1099652" clip-path="url(#clip-path)">
          <path id="Trazado_873521" data-name="Trazado 873521" d="M99,77.066A22,22,0,0,1,77.066,99H21.934A22,22,0,0,1,0,77.066V21.933A22,22,0,0,1,21.934,0H77.066A22,22,0,0,1,99,21.934Z" transform="translate(0)" fill="#023263"/>
        </g>
      </g>
      <g id="Grupo_1099659" data-name="Grupo 1099659" transform="translate(4.77 5.723)">
        <g id="Grupo_1099652-2" data-name="Grupo 1099652" transform="translate(0 0)" clip-path="url(#clip-path-2)">
          <path id="Trazado_873521-2" data-name="Trazado 873521" d="M88.539,68.922A19.674,19.674,0,0,1,68.923,88.539H19.616A19.674,19.674,0,0,1,0,68.922V19.616A19.674,19.674,0,0,1,19.616,0H68.923A19.674,19.674,0,0,1,88.539,19.616Z" fill="#f3f9ff"/>
        </g>
      </g>
    </g>
    <g id="Grupo_1100725" data-name="Grupo 1100725" transform="translate(636.343 5771.293)">
      <rect id="Rectángulo_401104" data-name="Rectángulo 401104" width="68" height="69" transform="translate(-0.422 0.438)" fill="none"/>
      <g id="Grupo_1111949" data-name="Grupo 1111949" transform="translate(1.579 2.438)">
        <g id="Grupo_1111948" data-name="Grupo 1111948" transform="translate(0 0)" clip-path="url(#clip-path-3)">
          <path id="Trazado_885991" data-name="Trazado 885991" d="M22.143,47.908h-.025a1.164,1.164,0,0,1-1.164-1.165V42.868A1.165,1.165,0,0,1,22.118,41.7h.025a1.165,1.165,0,0,1,1.165,1.165v3.876a1.165,1.165,0,0,1-1.165,1.165" transform="translate(6.877 13.687)" fill="#fcdbad"/>
          <path id="Trazado_885992" data-name="Trazado 885992" d="M35.33,27.662h-.211v1.072a4.092,4.092,0,0,0,.211-1.072" transform="translate(11.526 9.079)" fill="#2e384c"/>
          <path id="Trazado_885993" data-name="Trazado 885993" d="M29.293,27.662h-.211a4.113,4.113,0,0,0,.211,1.073Z" transform="translate(9.545 9.079)" fill="#2e384c"/>
          <path id="Trazado_885994" data-name="Trazado 885994" d="M32.793,25.247H32.2v9.44c1.825-.016,3.343-1.543,3.874-3.641V24.724a10.963,10.963,0,0,1-3.283.523" transform="translate(10.569 8.115)" fill="#ef9d5b"/>
          <path id="Trazado_885995" data-name="Trazado 885995" d="M32.524,25.293a10.125,10.125,0,0,1-3.283-.568v6.889c.537,2.3,2.067,3.97,3.9,3.97l.028,0V25.293Z" transform="translate(9.597 8.115)" fill="#ffcb9c"/>
          <path id="Trazado_885996" data-name="Trazado 885996" d="M32.457,28.764v-.029a4.113,4.113,0,0,1-.211-1.073H23.7a3.744,3.744,0,0,0-3.743,3.744l-.521,24.236H35.87l.521-23.9h-.959a2.975,2.975,0,0,1-2.974-2.974" transform="translate(6.381 9.079)" fill="#61d1d1"/>
          <path id="Trazado_885997" data-name="Trazado 885997" d="M48.7,31.407a3.743,3.743,0,0,0-3.744-3.744H36.416a4.082,4.082,0,0,1-.211,1.071v.032a2.975,2.975,0,0,1-2.974,2.974h-.9l-.521,23.9H53.759Z" transform="translate(10.44 9.079)" fill="#64bdc5"/>
          <path id="Trazado_885998" data-name="Trazado 885998" d="M32.657,34.853l-.481.045V.8h2.105C39.459.8,45,6.259,45,10.885L43.168,23.637c-.752,5.252-4.856,9.631-10.511,11.215" transform="translate(10.56 0.263)" fill="#ffcb9c"/>
          <path id="Trazado_885999" data-name="Trazado 885999" d="M39.682,21.251H39.7a2.411,2.411,0,0,0,2.238-2.184l.962-5.94c.13-.731-.567-1.27-1.085-.839l-1.733,1.449Z" transform="translate(13.024 3.983)" fill="#ffcb9c"/>
          <path id="Trazado_886000" data-name="Trazado 886000" d="M34.862,34.853l.481.045V.8H33.238c-5.177,0-10.716,5.46-10.716,10.086L24.35,23.637c.752,5.252,4.857,9.631,10.513,11.215" transform="translate(7.392 0.263)" fill="#ffdebb"/>
          <path id="Trazado_886001" data-name="Trazado 886001" d="M25.469,21.251h-.02a2.413,2.413,0,0,1-2.237-2.184l-.96-5.94c-.133-.731.564-1.27,1.082-.839l1.736,1.449Z" transform="translate(7.298 3.983)" fill="#ffdebb"/>
          <path id="Trazado_886002" data-name="Trazado 886002" d="M28.109,7.763S27.1,7.058,26.459,10.9s-1.077,7.949-1.077,7.949-2.225-.179-2.943-5.572A12.845,12.845,0,0,1,25.273,2.955C26.459,1.737,29.328.134,34.64.007A14.987,14.987,0,0,1,46.121,4.238c2.8,2.627,2.518,5.152,2.223,7.692a50.98,50.98,0,0,1-2.165,7.757s-.7-4.552-2.714-7.308a51.446,51.446,0,0,0-3.374-4.232s3.785,3.6,5.293,5.2S28.109,7.763,28.109,7.763" transform="translate(7.321 0)" fill="#2e384c"/>
          <path id="Trazado_886003" data-name="Trazado 886003" d="M11.568,53.783a4.3,4.3,0,0,1-4.181-3.274L1.913,28.324a4.306,4.306,0,1,1,8.361-2.064l3.925,15.9L26.61,30.654c1.91-1.419.721,4.163,2.14,6.071a4.305,4.305,0,0,1-.893,6.023L14.134,52.934a4.3,4.3,0,0,1-2.566.849" transform="translate(0.587 7.544)" fill="#61d1d1"/>
          <path id="Trazado_886004" data-name="Trazado 886004" d="M4.57,28.6H4.6a1.534,1.534,0,0,0,1.543-1.53V22.486h.062v4.588A1.522,1.522,0,0,0,7.741,28.6h.031a1.534,1.534,0,0,0,1.545-1.53V12.756a1.529,1.529,0,0,1,1.53-1.527h.031a1.544,1.544,0,0,1,1.546,1.527V29.014l2.711-2.241a2.5,2.5,0,0,1,3.484.316l.017.032L11.9,33.033a3.27,3.27,0,0,1-2.872,1.7H4.414A4.407,4.407,0,0,1,0,30.321V27.073A1.52,1.52,0,0,0,1.529,28.6h.031a1.544,1.544,0,0,0,1.514-1.214A1.525,1.525,0,0,0,4.57,28.6" transform="translate(0 3.686)" fill="#ffcb9c"/>
          <path id="Trazado_886005" data-name="Trazado 886005" d="M3.043,24.283a2.122,2.122,0,0,0,.031.316,1.542,1.542,0,0,1-1.513,1.214H1.529A1.52,1.52,0,0,1,0,24.283V23.148a3.446,3.446,0,0,1,3.043-3.421Z" transform="translate(0 6.475)" fill="#ffdebb"/>
          <path id="Trazado_886006" data-name="Trazado 886006" d="M3.043,19.678v.568A3.444,3.444,0,0,0,0,23.666V19.678a1.53,1.53,0,0,1,1.529-1.529h.032a1.555,1.555,0,0,1,1.513,1.23,1.722,1.722,0,0,0-.031.3" transform="translate(0 5.957)" fill="#ffdebb"/>
          <path id="Trazado_886007" data-name="Trazado 886007" d="M3.811,25.822a1.525,1.525,0,0,1-1.5-1.214,2.122,2.122,0,0,0,.031-.316V19.719a2.659,2.659,0,0,1,.348-.015H5.387v4.588a1.534,1.534,0,0,1-1.543,1.53Z" transform="translate(0.759 6.467)" fill="#ffdebb"/>
          <path id="Trazado_886008" data-name="Trazado 886008" d="M3.811,18.149h.033a1.543,1.543,0,0,1,1.543,1.529v.537H2.693a2.659,2.659,0,0,0-.348.015v-.551a1.722,1.722,0,0,0-.031-.3,1.536,1.536,0,0,1,1.5-1.23" transform="translate(0.759 5.957)" fill="#ffdebb"/>
          <path id="Trazado_886009" data-name="Trazado 886009" d="M6.238,18.149a1.544,1.544,0,0,1,1.545,1.529v.537H4.676v-.537a1.531,1.531,0,0,1,1.531-1.529Z" transform="translate(1.535 5.957)" fill="#ffdebb"/>
          <path id="Trazado_886010" data-name="Trazado 886010" d="M7.783,24.291a1.534,1.534,0,0,1-1.545,1.53H6.207a1.522,1.522,0,0,1-1.531-1.53V19.7H7.783Z" transform="translate(1.535 6.467)" fill="#ffdebb"/>
        </g>
      </g>
    </g>
  </g>
</svg>
