<svg xmlns="http://www.w3.org/2000/svg" xmlns:xlink="http://www.w3.org/1999/xlink" width="122" height="122" viewBox="0 0 122 122">
  <defs>
    <clipPath id="clip-path">
      <path id="Trazado_883582" data-name="Trazado 883582" d="M0,0H122V122H0Z" fill="#1d6350"/>
    </clipPath>
    <clipPath id="clip-path-2">
      <rect id="Rect치ngulo_404925" data-name="Rect치ngulo 404925" width="60" height="60" fill="#fff" stroke="#707070" stroke-width="1"/>
    </clipPath>
    <clipPath id="clip-path-3">
      <rect id="Rect치ngulo_404924" data-name="Rect치ngulo 404924" width="47.659" height="55.053" fill="#fff"/>
    </clipPath>
  </defs>
  <g id="Grupo_1110111" data-name="Grupo 1110111" transform="translate(-179.664 -3667)">
    <g id="Grupo_1110094" data-name="Grupo 1110094" transform="translate(179.664 3667)">
      <g id="Enmascarar_grupo_1108079" data-name="Enmascarar grupo 1108079" clip-path="url(#clip-path)">
        <path id="Trazado_883529" data-name="Trazado 883529" d="M4.833,30,18.4,105.124c1.993,11.036,12.965,18.438,24.506,16.532a21.661,21.661,0,0,0,9.963-4.4l61.257-48.8A19.672,19.672,0,0,0,116.844,39.9a21.222,21.222,0,0,0-8.966-6.05L33.054,7.521C22.063,3.652,9.874,9.037,5.829,19.546A19.436,19.436,0,0,0,4.833,30" transform="translate(0.242 0.045)" fill="#0354a5"/>
        <path id="Trazado_883530" data-name="Trazado 883530" d="M120.213,86.305h0a20.942,20.942,0,0,1-6.082,8.079,21.885,21.885,0,0,1-9.986,4.527L25.824,113.2C14.063,115.378,2.679,108.03.4,96.785A19.878,19.878,0,0,1,1.23,85.949l26.226-72c.122-.336.254-.673.393-1A21.378,21.378,0,0,1,44.442.284a22.817,22.817,0,0,1,10.636.831,21.614,21.614,0,0,1,9.353,6.1l52.094,57.712a19.905,19.905,0,0,1,3.689,21.382M28.825,13.331c-.132.313-.259.635-.375.955l-26.225,72C-1.53,96.6,4.171,107.867,14.957,111.458a21.593,21.593,0,0,0,10.67.749l78.319-14.284c11.218-2.046,18.578-12.4,16.439-23.126a19.433,19.433,0,0,0-4.659-9.215L63.632,7.869A21.344,21.344,0,0,0,34.464,5.823a19.823,19.823,0,0,0-5.639,7.508" transform="translate(0 0)" fill="#1d6350"/>
      </g>
    </g>
    <g id="Enmascarar_grupo_1108078" data-name="Enmascarar grupo 1108078" transform="translate(210.664 3698)" clip-path="url(#clip-path-2)">
      <g id="Grupo_1110093" data-name="Grupo 1110093" transform="translate(6.113 2.292)">
        <g id="Grupo_1110092" data-name="Grupo 1110092" clip-path="url(#clip-path-3)">
          <path id="Trazado_883570" data-name="Trazado 883570" d="M42.4,44.281h.408c.83,0,1.66-.021,2.489-.008a1.676,1.676,0,0,1,.711.15,1.035,1.035,0,0,1,.558,1.016,9.282,9.282,0,0,1-1.887,5.623,9.552,9.552,0,0,1-6.116,3.817,9.915,9.915,0,0,1-1.812.166q-15.233.015-30.465,0A5.939,5.939,0,0,1,.618,51.526a6.075,6.075,0,0,1-.563-2.331C.018,48.671,0,48.145,0,47.619Q0,25.73.012,3.841A4.971,4.971,0,0,1,.3,2.082,3.181,3.181,0,0,1,3.438,0c.041,0,.082,0,.123,0H36.615a3.405,3.405,0,0,1,2.379.844,3.219,3.219,0,0,1,1.079,2.325c.011.213.01.427.01.641q0,11.247,0,22.493a.491.491,0,0,0,.178.337A14.56,14.56,0,0,0,46.4,29.35a2.439,2.439,0,0,1,.543.156.926.926,0,0,1,.572.751,16.751,16.751,0,0,1,.143,1.891,15.748,15.748,0,0,1-4.1,10.872c-.371.414-.781.793-1.172,1.188l.013.072M30.367,33.462c0-.661-.018-1.285.006-1.907a8.514,8.514,0,0,1,.149-1.343.974.974,0,0,1,.858-.8c.291-.049.581-.105.871-.159a12,12,0,0,0,5.535-2.588.557.557,0,0,0,.161-.375c.014-.435-.01-.871-.009-1.307q.007-10.778.021-21.555A1.137,1.137,0,0,0,36.71,2.163c-2.037.031-4.075.01-6.112.01H3.312A1,1,0,0,0,2.2,3.113a3.224,3.224,0,0,0-.026.516q0,22.542,0,45.084a6.512,6.512,0,0,0,.1,1.1,3.8,3.8,0,0,0,3.21,3.046,3.731,3.731,0,0,0,4.107-2.474A5.693,5.693,0,0,0,9.8,48.412c0-.994-.006-1.989.009-2.983a1.073,1.073,0,0,1,1.066-1.15,3.075,3.075,0,0,1,.344-.016l24.007.013c.141,0,.281-.02.482-.034a16.037,16.037,0,0,1-4.975-8.624c-.083,0-.155-.012-.227-.012H16.752a5.084,5.084,0,0,1-.541-.022,1.092,1.092,0,0,1-1.013-1.05,1.121,1.121,0,0,1,1.011-1.039,6.3,6.3,0,0,1,.664-.031q6.347,0,12.693,0h.8m14,12.925h-.473q-6.728,0-13.456,0-9.118,0-18.237,0c-.217,0-.282.06-.279.278.012.83.017,1.66,0,2.49a5.753,5.753,0,0,1-1.287,3.619.453.453,0,0,0-.04.108h.29q13.123,0,26.246,0a5.314,5.314,0,0,0,.933-.063,7.529,7.529,0,0,0,5.671-4.27,6.522,6.522,0,0,0,.629-2.158M32.554,31.353a14.56,14.56,0,0,0,.259,3.86,13.793,13.793,0,0,0,5.871,8.673c.328.225.334.229.665,0a13.635,13.635,0,0,0,6.165-12.327c-.006-.186-.068-.248-.242-.29a16.478,16.478,0,0,1-4.875-2c-.465-.287-.917-.6-1.374-.9a14.6,14.6,0,0,1-6.469,2.976" transform="translate(0 -0.001)" fill="#fff"/>
          <path id="Trazado_883571" data-name="Trazado 883571" d="M42.213,41.234H29.1a3.431,3.431,0,0,1-.394-.014,1.093,1.093,0,0,1-1.082-1.193q-.007-5.819,0-11.639a1.107,1.107,0,0,1,1.159-1.2c.238-.014.476,0,.715,0q12.938,0,25.875,0a2.656,2.656,0,0,1,.586.057,1.16,1.16,0,0,1,.895,1.079c.005.082,0,.164,0,.246q0,5.634,0,11.269A1.207,1.207,0,0,1,55.5,41.229c-2.6.01-5.191,0-7.787.005h-5.5M54.68,29.316H53.286q-11.621,0-23.242,0c-.239,0-.3.061-.3.3q.013,4.624,0,9.248c0,.188.052.233.234.232,1.487-.009,2.974-.008,4.461-.008l19.964,0c.087,0,.175-.008.274-.012Z" transform="translate(-22.157 -21.804)" fill="#fff"/>
          <path id="Trazado_883572" data-name="Trazado 883572" d="M35.158,172.8c0,.813-.034,1.628.009,2.439a1.238,1.238,0,0,1-1.383,1.375c-.985,0-1.97,0-2.956,0-.722-.005-1.445-.011-2.166-.046a1.05,1.05,0,0,1-1.044-1.09q-.018-2.674-.006-5.348a1.026,1.026,0,0,1,1.019-1.08c.253-.023.509-.016.763-.016,1.437,0,2.873,0,4.31,0a2.593,2.593,0,0,1,.68.08,1.061,1.061,0,0,1,.772,1.049q0,1.318,0,2.637m-2.178-1.623c-1.03,0-2.032,0-3.033,0-.18,0-.217.067-.215.234.01.945.009,1.891.012,2.836a1.658,1.658,0,0,0,.02.18H32.98Z" transform="translate(-22.142 -135.569)" fill="#fff"/>
          <path id="Trazado_883573" data-name="Trazado 883573" d="M35.172,118.356c0,.879,0,1.759,0,2.638a1.059,1.059,0,0,1-1.108,1.121q-2.636,0-5.272,0a1.058,1.058,0,0,1-1.161-1.142q-.012-2.613,0-5.226a1.069,1.069,0,0,1,1.156-1.13c1.725,0,3.449,0,5.174,0a1.12,1.12,0,0,1,1.091.616.965.965,0,0,1,.113.416c.01.9.005,1.808.005,2.712M32.991,116.8a.892.892,0,0,0-.1-.013c-.984,0-1.969,0-2.953-.017-.191,0-.186.1-.185.233.005.87.006,1.74.009,2.61,0,.1,0,.207,0,.312h3.233Z" transform="translate(-22.157 -91.925)" fill="#fff"/>
          <path id="Trazado_883574" data-name="Trazado 883574" d="M85.911,114.622q3.967,0,7.934,0a2.1,2.1,0,0,1,.463.049,1.039,1.039,0,0,1,.084,1.989,2.806,2.806,0,0,1-.772.128q-7.552.011-15.1,0a4.293,4.293,0,0,1-.88-.085,1.048,1.048,0,0,1,.243-2.082c1.462,0,2.924,0,4.386,0h3.647Z" transform="translate(-61.536 -91.932)" fill="#fff"/>
          <path id="Trazado_883575" data-name="Trazado 883575" d="M82.683,196.365q2.39,0,4.78,0a1.076,1.076,0,0,1,1.138,1.19,1.038,1.038,0,0,1-.746.886,2.286,2.286,0,0,1-.605.091q-4.325.008-8.649,0c-.287,0-.575-.018-.86-.047a1.157,1.157,0,0,1-1.019-1.088,1.168,1.168,0,0,1,1.132-1.033q2.415,0,4.83,0" transform="translate(-61.534 -157.495)" fill="#fff"/>
          <path id="Trazado_883576" data-name="Trazado 883576" d="M82.714,143.71H77.886a1.062,1.062,0,0,1-.962-.534.933.933,0,0,1,.3-1.335,1.942,1.942,0,0,1,.919-.291c3.038-.021,6.076-.015,9.114-.007a2.106,2.106,0,0,1,.648.127,1.04,1.04,0,0,1,.725,1.214,1.055,1.055,0,0,1-1.058.824c-1.47,0-2.94,0-4.41,0h-.443" transform="translate(-61.565 -113.519)" fill="#fff"/>
          <path id="Trazado_883577" data-name="Trazado 883577" d="M180.8,171.081c.506-.509,1-1,1.488-1.5.514-.519,1.017-1.05,1.543-1.556a1.064,1.064,0,0,1,1.809.456,1.046,1.046,0,0,1-.345,1.089c-.364.379-.741.746-1.113,1.116q-1.256,1.252-2.513,2.5a1.191,1.191,0,0,1-.879.429.931.931,0,0,1-.67-.256c-.538-.529-1.085-1.051-1.608-1.6a1.039,1.039,0,0,1-.093-1.392,1.093,1.093,0,0,1,1.561-.106c.273.247.525.518.82.812" transform="translate(-142.921 -134.495)" fill="#fff"/>
        </g>
      </g>
    </g>
  </g>
</svg>
